<?xml version="1.0" encoding="UTF-8"?>
<svg width="650px" height="575px" viewBox="0 0 650 575" version="1.1" xmlns="http://www.w3.org/2000/svg" xmlns:xlink="http://www.w3.org/1999/xlink">
    <title>Illustration</title>
    <g id="ðŸ“-Pages-New" stroke="none" stroke-width="1" fill="none" fill-rule="evenodd">
        <g id="Forgot-Password" transform="translate(-150.000000, -252.000000)">
            <g id="Illustration" transform="translate(156.000000, 252.000000)">
                <g id="Shape">
                    <path d="M469.402027,0 C565.829825,0 644,77.8709307 644,173.929592 C644,269.988253 565.829825,347.859184 469.402027,347.859184 C372.974229,347.859184 294.804054,269.988253 294.804054,173.929592 C294.804054,77.8709307 372.974229,0 469.402027,0 Z M469.402027,65.0204082 C409.022004,65.0204082 360.074324,113.780711 360.074324,173.929592 C360.074324,234.078473 409.022004,282.838776 469.402027,282.838776 C529.78205,282.838776 578.72973,234.078473 578.72973,173.929592 C578.72973,113.780711 529.78205,65.0204082 469.402027,65.0204082 Z" id="Oval" fill="#009ef7" fill-rule="nonzero" opacity="0.052827381"></path>
                    <path d="M49.4966216,226.487755 C76.8328509,226.487755 98.9932432,248.563315 98.9932432,275.794898 C98.9932432,303.026481 76.8328509,325.102041 49.4966216,325.102041 C22.1603923,325.102041 0,303.026481 0,275.794898 C0,248.563315 22.1603923,226.487755 49.4966216,226.487755 Z M49.4966216,258.997959 C40.1842798,258.997959 32.6351351,266.518205 32.6351351,275.794898 C32.6351351,285.071591 40.1842798,292.591837 49.4966216,292.591837 C58.8089635,292.591837 66.3581081,285.071591 66.3581081,275.794898 C66.3581081,266.518205 58.8089635,258.997959 49.4966216,258.997959 Z" id="Oval" fill="#8BF78F" fill-rule="nonzero" opacity="0.141020275" filter="url(#filter-1)"></path>
                    <ellipse id="Oval" fill-opacity="0.0612161276" fill="#f1416c" cx="202.337838" cy="433.469388" rx="97.9054054" ry="97.5306122"></ellipse>
                    <ellipse id="Oval" fill="#CEF5FF" opacity="0.141020275" cx="169.702703" cy="92.1122449" rx="34.8108108" ry="34.677551"></ellipse>
                    <ellipse id="Oval" fill-opacity="0.135926573" fill="#7367F0" filter="url(#filter-2)" cx="579.817568" cy="433.469388" rx="34.8108108" ry="34.677551"></ellipse>
                </g>
            </g>
        </g>
    </g>
</svg>