<?xml version="1.0" encoding="UTF-8"?>
<svg width="650px" height="575px" viewBox="0 0 650 575" version="1.1" xmlns="http://www.w3.org/2000/svg" xmlns:xlink="http://www.w3.org/1999/xlink">
    <title>Illustration</title>
    <defs>
        <filter x="-6.1%" y="-6.1%" width="112.1%" height="112.2%" filterUnits="objectBoundingBox" id="filter-1">
            <feGaussianBlur stdDeviation="2" in="SourceGraphic"></feGaussianBlur>
        </filter>
        <filter x="-12.9%" y="-13.0%" width="125.9%" height="126.0%" filterUnits="objectBoundingBox" id="filter-2">
            <feGaussianBlur stdDeviation="3" in="SourceGraphic"></feGaussianBlur>
        </filter>
        <path d="M18.522,0 L47.956852,0 C49.5797169,-4.62229605e-15 50.9083654,1.29053846 50.955582,2.91271629 L51.0441727,5.95634921 C51.140728,9.27361621 53.8577434,11.9126984 57.1764153,11.9126984 L146.306792,11.9126984 C149.625464,11.9126984 152.342479,9.27361621 152.439035,5.95634921 L152.527625,2.91271629 C152.574842,1.29053846 153.903491,7.42204646e-16 155.526355,0 L184.961207,0 C195.190626,-1.87911363e-15 203.483207,8.29258186 203.483207,18.522 L203.483207,413.966891 C203.483207,424.19631 195.190626,432.488891 184.961207,432.488891 L18.522,432.488891 C8.29258186,432.488891 -5.85268494e-15,424.19631 0,413.966891 L0,18.522 C2.29997126e-15,8.29258186 8.29258186,-1.67360005e-15 18.522,0 Z" id="path-3"></path>
        <linearGradient x1="50%" y1="81.1767625%" x2="50%" y2="-34.5130789%" id="linearGradient-5">
            <stop stop-color="#FF8C19" offset="0%"></stop>
            <stop stop-color="#FFC967" offset="100%"></stop>
        </linearGradient>
        <linearGradient x1="62.1100647%" y1="31.3809088%" x2="62.1100647%" y2="-27.4779882%" id="linearGradient-6">
            <stop stop-color="#F8FDFF" offset="0%"></stop>
            <stop stop-color="#AAD4FF" offset="100%"></stop>
        </linearGradient>
        <path d="M23.4435696,4.26168224 L23.4435696,21.3084112 C23.4435696,23.1196262 22.0582677,24.5046729 20.2467192,24.5046729 L14.9186352,24.5046729 C14.2792651,24.5046729 13.8530184,24.0785047 13.8530184,23.4392523 C13.8530184,22.8 14.2792651,22.3738318 14.9186352,22.3738318 L20.2467192,22.3738318 C20.8860892,22.3738318 21.312336,21.9476636 21.312336,21.3084112 L21.312336,4.26168224 C21.312336,3.62242991 20.8860892,3.19626168 20.2467192,3.19626168 L14.9186352,3.19626168 C14.2792651,3.19626168 13.8530184,2.77009346 13.8530184,2.13084112 C13.8530184,1.49158879 14.2792651,1.06542056 14.9186352,1.06542056 L20.2467192,1.06542056 C22.0582677,1.06542056 23.4435696,2.45046729 23.4435696,4.26168224 Z M16.9433071,13.211215 C17.0498688,12.9981308 17.0498688,12.6785047 16.9433071,12.3588785 C16.8367454,12.2523364 16.8367454,12.1457944 16.7301837,12.0392523 L12.4677165,7.77757009 C12.0414698,7.35140187 11.4020997,7.35140187 10.975853,7.77757009 C10.5496063,8.20373832 10.5496063,8.84299065 10.975853,9.26915888 L13.4267717,11.7196262 L3.19685039,11.7196262 C2.55748031,11.7196262 2.1312336,12.1457944 2.1312336,12.7850467 C2.1312336,13.4242991 2.55748031,13.8504673 3.19685039,13.8504673 L13.4267717,13.8504673 L10.975853,16.3009346 C10.5496063,16.7271028 10.5496063,17.3663551 10.975853,17.7925234 C11.1889764,18.0056075 11.5086614,18.1121495 11.7217848,18.1121495 C11.9349081,18.1121495 12.2545932,18.0056075 12.4677165,17.7925234 L16.7301837,13.5308411 C16.8367454,13.4242991 16.9433071,13.317757 16.9433071,13.211215 Z" id="path-7"></path>
        <path d="M23.6211724,12.4299065 L22.3779528,12.4299065 L22.3779528,8.70093458 C22.3779528,4.59906542 19.0212598,1.24299065 14.9186352,1.24299065 C10.8160105,1.24299065 7.45931759,4.59906542 7.45931759,8.70093458 L7.45931759,12.4299065 L6.21609799,12.4299065 C4.10262467,12.4299065 2.4864392,14.0457944 2.4864392,16.1588785 L2.4864392,24.8598131 C2.4864392,26.9728972 4.10262467,28.588785 6.21609799,28.588785 L23.6211724,28.588785 C25.7346457,28.588785 27.3508311,26.9728972 27.3508311,24.8598131 L27.3508311,16.1588785 C27.3508311,14.0457944 25.7346457,12.4299065 23.6211724,12.4299065 Z M9.94575678,8.70093458 C9.94575678,5.96635514 12.1835521,3.72897196 14.9186352,3.72897196 C17.6537183,3.72897196 19.8915136,5.96635514 19.8915136,8.70093458 L19.8915136,12.4299065 L9.94575678,12.4299065 L9.94575678,8.70093458 Z M24.864392,24.8598131 C24.864392,25.6056075 24.3671041,26.1028037 23.6211724,26.1028037 L6.21609799,26.1028037 C5.47016623,26.1028037 4.97287839,25.6056075 4.97287839,24.8598131 L4.97287839,16.1588785 C4.97287839,15.4130841 5.47016623,14.9158879 6.21609799,14.9158879 L23.6211724,14.9158879 C24.3671041,14.9158879 24.864392,15.4130841 24.864392,16.1588785 L24.864392,24.8598131 Z" id="path-9"></path>
        <path d="M6,0 L68.1751666,0 C71.4888751,8.22077476e-15 74.1751666,2.6862915 74.1751666,6 L74.1751666,55.7294372 C74.1751666,59.0431457 71.4888751,61.7294372 68.1751666,61.7294372 L6,61.7294372 C2.6862915,61.7294372 4.82055882e-15,59.0431457 0,55.7294372 L0,6 C-4.05812251e-16,2.6862915 2.6862915,6.08718376e-16 6,0 Z" id="path-11"></path>
        <path d="M10.0398384,1.23119728e-13 L120.282546,1.23119728e-13 C125.789873,1.22108049e-13 130.260571,4.45295749 130.282467,9.96024091 L130.857435,154.572074 C130.879394,160.094877 126.420077,164.589795 120.897274,164.611754 C120.884021,164.611806 120.870768,164.611833 120.857514,164.611833 L10.6148064,164.611833 C5.10747945,164.611833 0.636782073,160.158875 0.614885444,154.651592 L0.0399174794,10.0397591 C0.0179591429,4.51695524 4.47727551,0.0220373761 10.0000794,7.90395561e-05 C10.0133323,2.63465709e-05 10.0265854,1.21345806e-13 10.0398384,1.23119728e-13 Z" id="path-13"></path>
        <filter x="-29.4%" y="-22.8%" width="171.0%" height="156.5%" filterUnits="objectBoundingBox" id="filter-14">
            <feOffset dx="8" dy="9" in="SourceAlpha" result="shadowOffsetOuter1"></feOffset>
            <feGaussianBlur stdDeviation="14" in="shadowOffsetOuter1" result="shadowBlurOuter1"></feGaussianBlur>
            <feColorMatrix values="0 0 0 0 0.0755212756   0 0 0 0 0.582569014   0 0 0 0 0.878793025  0 0 0 0.229458042 0" type="matrix" in="shadowBlurOuter1" result="shadowMatrixOuter1"></feColorMatrix>
            <feOffset dx="0" dy="2" in="SourceAlpha" result="shadowOffsetOuter2"></feOffset>
            <feGaussianBlur stdDeviation="7.5" in="shadowOffsetOuter2" result="shadowBlurOuter2"></feGaussianBlur>
            <feColorMatrix values="0 0 0 0 0.50398247   0 0 0 0 0.700178215   0 0 0 0 1  0 0 0 0.233828671 0" type="matrix" in="shadowBlurOuter2" result="shadowMatrixOuter2"></feColorMatrix>
            <feMerge>
                <feMergeNode in="shadowMatrixOuter1"></feMergeNode>
                <feMergeNode in="shadowMatrixOuter2"></feMergeNode>
            </feMerge>
        </filter>
        <ellipse id="path-15" cx="25.1704298" cy="25.5448757" rx="25.1704298" ry="25.5448757"></ellipse>
        <filter x="-76.5%" y="-73.4%" width="284.7%" height="282.0%" filterUnits="objectBoundingBox" id="filter-16">
            <feOffset dx="8" dy="9" in="SourceAlpha" result="shadowOffsetOuter1"></feOffset>
            <feGaussianBlur stdDeviation="14" in="shadowOffsetOuter1" result="shadowBlurOuter1"></feGaussianBlur>
            <feColorMatrix values="0 0 0 0 0.0755212756   0 0 0 0 0.582569014   0 0 0 0 0.878793025  0 0 0 0.229458042 0" type="matrix" in="shadowBlurOuter1" result="shadowMatrixOuter1"></feColorMatrix>
            <feOffset dx="0" dy="2" in="SourceAlpha" result="shadowOffsetOuter2"></feOffset>
            <feGaussianBlur stdDeviation="7.5" in="shadowOffsetOuter2" result="shadowBlurOuter2"></feGaussianBlur>
            <feColorMatrix values="0 0 0 0 0.50398247   0 0 0 0 0.700178215   0 0 0 0 1  0 0 0 0.233828671 0" type="matrix" in="shadowBlurOuter2" result="shadowMatrixOuter2"></feColorMatrix>
            <feMerge>
                <feMergeNode in="shadowMatrixOuter1"></feMergeNode>
                <feMergeNode in="shadowMatrixOuter2"></feMergeNode>
            </feMerge>
        </filter>
        <linearGradient x1="47.2537592%" y1="-28.1859254%" x2="50%" y2="91.0504812%" id="linearGradient-17">
            <stop stop-color="#FDC6C6" offset="0%"></stop>
            <stop stop-color="#FFCCA1" offset="100%"></stop>
        </linearGradient>
        <linearGradient x1="45.7543032%" y1="-28.1859254%" x2="50%" y2="91.0504812%" id="linearGradient-18">
            <stop stop-color="#FDC6C6" offset="0%"></stop>
            <stop stop-color="#FAB2B2" offset="100%"></stop>
        </linearGradient>
        <linearGradient x1="44.569858%" y1="-28.1859254%" x2="50%" y2="91.0504812%" id="linearGradient-19">
            <stop stop-color="#FDC6C6" offset="0%"></stop>
            <stop stop-color="#FAB2B2" offset="100%"></stop>
        </linearGradient>
        <linearGradient x1="44.0890061%" y1="-28.1859254%" x2="50%" y2="91.0504812%" id="linearGradient-20">
            <stop stop-color="#FDC6C6" offset="0%"></stop>
            <stop stop-color="#FFCCA1" offset="100%"></stop>
        </linearGradient>
        <linearGradient x1="47.8437966%" y1="-28.1859254%" x2="50%" y2="91.0504812%" id="linearGradient-21">
            <stop stop-color="#FDC6C6" offset="0%"></stop>
            <stop stop-color="#FFCCA1" offset="100%"></stop>
        </linearGradient>
    </defs>
    <g id="ðŸ“-Pages-New" stroke="none" stroke-width="1" fill="none" fill-rule="evenodd">
        <g id="Forgot-Password" transform="translate(-150.000000, -252.000000)">
            <g id="Illustration" transform="translate(156.000000, 252.000000)">
                <g id="Shape">
                    <path d="M469.402027,0 C565.829825,0 644,77.8709307 644,173.929592 C644,269.988253 565.829825,347.859184 469.402027,347.859184 C372.974229,347.859184 294.804054,269.988253 294.804054,173.929592 C294.804054,77.8709307 372.974229,0 469.402027,0 Z M469.402027,65.0204082 C409.022004,65.0204082 360.074324,113.780711 360.074324,173.929592 C360.074324,234.078473 409.022004,282.838776 469.402027,282.838776 C529.78205,282.838776 578.72973,234.078473 578.72973,173.929592 C578.72973,113.780711 529.78205,65.0204082 469.402027,65.0204082 Z" id="Oval" fill="#7367F0" fill-rule="nonzero" opacity="0.052827381"></path>
                    <path d="M49.4966216,226.487755 C76.8328509,226.487755 98.9932432,248.563315 98.9932432,275.794898 C98.9932432,303.026481 76.8328509,325.102041 49.4966216,325.102041 C22.1603923,325.102041 0,303.026481 0,275.794898 C0,248.563315 22.1603923,226.487755 49.4966216,226.487755 Z M49.4966216,258.997959 C40.1842798,258.997959 32.6351351,266.518205 32.6351351,275.794898 C32.6351351,285.071591 40.1842798,292.591837 49.4966216,292.591837 C58.8089635,292.591837 66.3581081,285.071591 66.3581081,275.794898 C66.3581081,266.518205 58.8089635,258.997959 49.4966216,258.997959 Z" id="Oval" fill="#8BF78F" fill-rule="nonzero" opacity="0.141020275" filter="url(#filter-1)"></path>
                    <ellipse id="Oval" fill-opacity="0.0612161276" fill="#7367F0" cx="202.337838" cy="433.469388" rx="97.9054054" ry="97.5306122"></ellipse>
                    <ellipse id="Oval" fill="#CEF5FF" opacity="0.141020275" cx="169.702703" cy="92.1122449" rx="34.8108108" ry="34.677551"></ellipse>
                    <ellipse id="Oval" fill-opacity="0.135926573" fill="#7367F0" filter="url(#filter-2)" cx="579.817568" cy="433.469388" rx="34.8108108" ry="34.677551"></ellipse>
                </g>
                <svg xmlns="http://www.w3.org/2000/svg" enable-background="new 0 0 2500 2000" viewBox="0 0 2500 2000"><rect width="2500" height="2000" fill="none"/><path fill="#aec9ff" d="M1522.7,753.04v616.12c0,34.17-27.71,61.87-61.87,61.87H562.22c-34.17,0-61.87-27.71-61.87-61.87V753.04
			H1522.7z"/><path fill="#85b4ff" d="M1522.7,753.04v248.41h-109.05c-19.93,0-36.09-16.16-36.09-36.09V753.04H1522.7z"/><path fill="#85b4ff" d="M1522.7,1194.95v174.21c0,34.17-27.71,61.87-61.87,61.87H562.22
			C562.22,1431.03,1522.7,1423.23,1522.7,1194.95z"/><path fill="#3f517f" d="M1522.7,682.39v70.65H500.35v-70.65c0-34.17,27.71-61.87,61.87-61.87h898.61c12.28,0,23.72,3.58,33.35,9.74
			C1511.33,641.27,1522.7,660.51,1522.7,682.39z"/><path fill="#2e426d" d="M1522.7,682.39v70.65h-145.14V620.52h83.27c12.28,0,23.72,3.58,33.35,9.74
			C1511.33,641.27,1522.7,660.51,1522.7,682.39z"/><circle cx="574.04" cy="686.78" r="23.02" fill="#ff9c39"/><circle cx="662.45" cy="686.78" r="23.02" fill="#f0566e"/><circle cx="750.86" cy="686.78" r="23.02" fill="#fff"/><circle cx="1011.53" cy="957.69" r="134.35" fill="#fff"/><ellipse cx="1011.53" cy="1017.97" fill="#ff9c39" rx="86.67" ry="45.29"/><circle cx="1011.53" cy="932.71" r="24.98" fill="#ff9c39"/><path fill="none" stroke="#aec9ff" stroke-miterlimit="10" stroke-width="7.696" d="M1117.09,957.69c0,22.41-6.98,43.19-18.89,60.28c-19.07,27.38-50.78,45.29-86.67,45.29
			c-35.89,0-67.61-17.91-86.67-45.29c-11.91-17.08-18.89-37.86-18.89-60.28c0-58.31,47.26-105.58,105.57-105.58
			C1069.83,852.11,1117.09,899.38,1117.09,957.69z"/><g><path fill="#fff" d="M1152,1315.92H871.05c-40.95,0-74.14-33.19-74.14-74.14v0c0-40.95,33.19-74.14,74.14-74.14H1152
			c40.95,0,74.14,33.19,74.14,74.14v0C1226.14,1282.73,1192.95,1315.92,1152,1315.92z"/><path fill="#239f95" d="M905.71,1238.21h-12.66l8.95-8.95c1.39-1.39,1.39-3.65,0-5.05c-1.39-1.39-3.65-1.39-5.05,0l-8.95,8.95
				v-12.66c0-1.97-1.6-3.57-3.57-3.57c-1.97,0-3.57,1.6-3.57,3.57v12.66l-8.95-8.95c-1.39-1.39-3.65-1.39-5.05,0
				c-1.39,1.39-1.39,3.65,0,5.05l8.95,8.95h-12.66c-1.97,0-3.57,1.6-3.57,3.57c0,1.97,1.6,3.57,3.57,3.57h12.66l-8.95,8.95
				c-1.39,1.39-1.39,3.65,0,5.05c0.7,0.7,1.61,1.05,2.52,1.05s1.83-0.35,2.52-1.05l8.95-8.95v12.66c0,1.97,1.6,3.57,3.57,3.57
				c1.97,0,3.57-1.6,3.57-3.57v-12.66l8.95,8.95c0.7,0.7,1.61,1.05,2.52,1.05c0.91,0,1.83-0.35,2.52-1.05
				c1.39-1.39,1.39-3.65,0-5.05l-8.95-8.95h12.66c1.97,0,3.57-1.6,3.57-3.57C909.28,1239.81,907.68,1238.21,905.71,1238.21z"/><path fill="#239f95" d="M990.44,1238.21h-12.66l8.95-8.95c1.39-1.39,1.39-3.65,0-5.05c-1.39-1.39-3.65-1.39-5.05,0l-8.95,8.95
				v-12.66c0-1.97-1.6-3.57-3.57-3.57c-1.97,0-3.57,1.6-3.57,3.57v12.66l-8.95-8.95c-1.39-1.39-3.65-1.39-5.05,0
				c-1.39,1.39-1.39,3.65,0,5.05l8.95,8.95h-12.66c-1.97,0-3.57,1.6-3.57,3.57c0,1.97,1.6,3.57,3.57,3.57h12.66l-8.95,8.95
				c-1.39,1.39-1.39,3.65,0,5.05c0.7,0.7,1.61,1.05,2.52,1.05s1.83-0.35,2.52-1.05l8.95-8.95v12.66c0,1.97,1.6,3.57,3.57,3.57
				c1.97,0,3.57-1.6,3.57-3.57v-12.66l8.95,8.95c0.7,0.7,1.61,1.05,2.52,1.05c0.91,0,1.83-0.35,2.52-1.05
				c1.39-1.39,1.39-3.65,0-5.05l-8.95-8.95h12.66c1.97,0,3.57-1.6,3.57-3.57C994.01,1239.81,992.41,1238.21,990.44,1238.21z"/><path fill="#239f95" d="M1075.16,1238.21h-12.66l8.95-8.95c1.39-1.39,1.39-3.65,0-5.05c-1.39-1.39-3.65-1.39-5.05,0l-8.95,8.95
				v-12.66c0-1.97-1.6-3.57-3.57-3.57s-3.57,1.6-3.57,3.57v12.66l-8.95-8.95c-1.39-1.39-3.65-1.39-5.05,0
				c-1.39,1.39-1.39,3.65,0,5.05l8.95,8.95h-12.66c-1.97,0-3.57,1.6-3.57,3.57c0,1.97,1.6,3.57,3.57,3.57h12.66l-8.95,8.95
				c-1.39,1.39-1.39,3.65,0,5.05c0.7,0.7,1.61,1.05,2.52,1.05c0.91,0,1.83-0.35,2.52-1.05l8.95-8.95v12.66
				c0,1.97,1.6,3.57,3.57,3.57s3.57-1.6,3.57-3.57v-12.66l8.95,8.95c0.7,0.7,1.61,1.05,2.52,1.05s1.83-0.35,2.52-1.05
				c1.39-1.39,1.39-3.65,0-5.05l-8.95-8.95h12.66c1.97,0,3.57-1.6,3.57-3.57C1078.73,1239.81,1077.13,1238.21,1075.16,1238.21z"/><path fill="#239f95" d="M1159.89,1238.21h-12.66l8.95-8.95c1.39-1.39,1.39-3.65,0-5.05c-1.39-1.39-3.65-1.39-5.05,0l-8.95,8.95
				v-12.66c0-1.97-1.6-3.57-3.57-3.57s-3.57,1.6-3.57,3.57v12.66l-8.95-8.95c-1.39-1.39-3.65-1.39-5.05,0
				c-1.39,1.39-1.39,3.65,0,5.05l8.95,8.95h-12.66c-1.97,0-3.57,1.6-3.57,3.57c0,1.97,1.6,3.57,3.57,3.57H1130l-8.95,8.95
				c-1.39,1.39-1.39,3.65,0,5.05c0.7,0.7,1.61,1.05,2.52,1.05s1.83-0.35,2.52-1.05l8.95-8.95v12.66c0,1.97,1.6,3.57,3.57,3.57
				s3.57-1.6,3.57-3.57v-12.66l8.95,8.95c0.7,0.7,1.61,1.05,2.52,1.05s1.83-0.35,2.52-1.05c1.39-1.39,1.39-3.65,0-5.05l-8.95-8.95
				h12.66c1.97,0,3.57-1.6,3.57-3.57C1163.46,1239.81,1161.86,1238.21,1159.89,1238.21z"/></g><g><path fill="#d2e3ff" d="M2039.73,613.05v335.1c0,19.93-16.15,36.09-36.09,36.09h-563.86c-19.93,0-36.09-16.16-36.09-36.09v-335.1
			H2039.73z"/><path fill="#b8d5ff" d="M2039.73,823.34v124.81c0,19.93-16.15,36.09-36.09,36.09h-555.12
			C1522.35,983.94,2039.73,976.38,2039.73,823.34z"/><path fill="#3f517f" d="M2039.73,557.93v55.12h-636.04v-55.12c0-19.93,16.16-36.09,36.09-36.09h563.86
			C2023.58,521.84,2039.73,538,2039.73,557.93z"/><circle cx="1446.56" cy="567.44" r="14.31" fill="#ff9c39"/><circle cx="1505.99" cy="567.44" r="14.31" fill="#f0566e"/><circle cx="1565.42" cy="567.44" r="14.31" fill="#fff"/><path fill="#fff" d="M1860.97,883.76h-278.52c-47.01,0-85.11-38.11-85.11-85.11v0c0-47.01,38.11-85.11,85.11-85.11h278.52
			c47.01,0,85.11,38.11,85.11,85.11v0C1946.09,845.65,1907.98,883.76,1860.97,883.76z"/><path fill="#239f95" d="M1615,804.96c2.31,3.53,3.47,7.62,3.47,12.24c0,5.47-1.56,10.24-4.67,14.32c-3.11,4.08-7.49,7.24-13.13,9.47
				c-5.64,2.23-12.16,3.34-19.56,3.34c-7.4,0-13.9-1.12-19.5-3.34c-5.6-2.23-9.93-5.38-13-9.47c-3.07-4.08-4.61-8.85-4.61-14.32
				c0-4.63,1.16-8.71,3.47-12.24c2.31-3.53,5.62-6.39,9.91-8.58c-3.28-2.02-5.81-4.56-7.57-7.64c-1.77-3.07-2.65-6.58-2.65-10.54
				c0-5.13,1.43-9.59,4.29-13.38c2.86-3.79,6.86-6.71,11.99-8.77c5.13-2.06,11.02-3.09,17.67-3.09c6.73,0,12.68,1.03,17.86,3.09
				c5.17,2.06,9.19,4.99,12.05,8.77c2.86,3.79,4.29,8.25,4.29,13.38c0,3.96-0.88,7.47-2.65,10.54c-1.77,3.07-4.33,5.62-7.7,7.64
				C1609.34,798.56,1612.69,801.42,1615,804.96z M1593.3,825.84c2.99-2.31,4.48-5.41,4.48-9.28c0-3.87-1.49-6.94-4.48-9.21
				c-2.99-2.27-7.05-3.41-12.18-3.41c-5.05,0-9.04,1.14-11.99,3.41c-2.95,2.27-4.42,5.34-4.42,9.21c0,3.96,1.47,7.07,4.42,9.34
				c2.94,2.27,6.94,3.41,11.99,3.41C1586.25,829.31,1590.31,828.16,1593.3,825.84z M1571.21,770.94c-2.48,1.98-3.72,4.69-3.72,8.14
				c0,3.37,1.22,6.02,3.66,7.95c2.44,1.94,5.76,2.9,9.97,2.9c4.21,0,7.57-0.97,10.1-2.9c2.52-1.93,3.79-4.58,3.79-7.95
				c0-3.45-1.26-6.16-3.79-8.14c-2.52-1.98-5.89-2.97-10.1-2.97C1576.99,767.98,1573.69,768.97,1571.21,770.94z"/><path fill="#239f95" d="M1658.73,838.91c-5.72-3.62-10.2-8.85-13.44-15.71c-3.24-6.86-4.86-15.04-4.86-24.55
				c0-9.51,1.62-17.69,4.86-24.55c3.24-6.86,7.72-12.09,13.44-15.71c5.72-3.62,12.24-5.43,19.56-5.43s13.84,1.81,19.56,5.43
				c5.72,3.62,10.2,8.86,13.44,15.71c3.24,6.86,4.86,15.04,4.86,24.55c0,9.51-1.62,17.69-4.86,24.55
				c-3.24,6.86-7.72,12.1-13.44,15.71c-5.72,3.62-12.24,5.43-19.56,5.43S1664.45,842.53,1658.73,838.91z M1690.98,820.1
				c3.07-4.63,4.61-11.78,4.61-21.46c0-9.67-1.54-16.83-4.61-21.46c-3.07-4.63-7.3-6.94-12.68-6.94c-5.3,0-9.49,2.32-12.56,6.94
				c-3.07,4.63-4.61,11.78-4.61,21.46c0,9.68,1.53,16.83,4.61,21.46c3.07,4.63,7.26,6.94,12.56,6.94
				C1683.68,827.04,1687.91,824.73,1690.98,820.1z"/><path fill="#239f95" d="M1796.61,795.11c5.93,4.97,8.9,11.61,8.9,19.94c0,5.39-1.35,10.29-4.04,14.7c-2.69,4.42-6.8,7.95-12.31,10.6
				c-5.51,2.65-12.3,3.98-20.38,3.98c-6.23,0-12.35-0.82-18.36-2.46c-3.45-0.94-6.61-2.11-9.46-3.51c-3.35-1.64-4.73-5.7-3.02-9.02
				l1.96-3.81c1.64-3.18,5.55-4.54,8.75-2.93c1.92,0.97,3.96,1.79,6.13,2.48c4.37,1.39,8.88,2.08,13.5,2.08
				c5.13,0,9.17-1.01,12.12-3.03c2.94-2.02,4.42-4.84,4.42-8.46c0-3.79-1.54-6.65-4.61-8.58c-3.07-1.93-8.39-2.9-15.97-2.9h-15.34
				c-3.9,0-6.95-3.35-6.6-7.23l3.33-36.48c0.31-3.41,3.17-6.02,6.6-6.02h41.22c3.66,0,6.62,2.97,6.62,6.62v3.16
				c0,3.66-2.97,6.62-6.62,6.62h-27.66c-1.45,0-2.66,1.11-2.78,2.56l-0.93,11.21c-0.13,1.63,1.15,3.02,2.78,3.02h4.16
				C1781.49,787.67,1790.68,790.15,1796.61,795.11z"/><path fill="#239f95" d="M1884.39,790.82c4.63,2.27,8.29,5.49,10.98,9.66c2.69,4.16,4.04,8.98,4.04,14.45
				c0,5.89-1.47,11.06-4.42,15.52c-2.95,4.46-6.96,7.89-12.05,10.29c-5.09,2.4-10.75,3.6-16.98,3.6c-12.37,0-22.04-3.79-29.03-11.36
				c-6.98-7.57-10.48-18.38-10.48-32.44c0-10.01,1.89-18.59,5.68-25.75c3.79-7.15,9.07-12.58,15.84-16.28
				c6.77-3.7,14.62-5.55,23.54-5.55c4.71,0,9.23,0.53,13.57,1.58c1.28,0.31,2.5,0.66,3.66,1.05c4.12,1.37,6.03,6.1,4.08,9.98
				l-1.11,2.21c-1.6,3.18-5.3,4.71-8.66,3.54c-3.24-1.13-6.92-1.69-11.03-1.69c-7.49,0-13.42,2.19-17.8,6.56
				c-3.11,3.11-5.2,7.21-6.27,12.31c-0.49,2.32,2.03,4.18,4.07,2.97c4.59-2.7,10.24-4.05,16.96-4.05
				C1874.63,787.41,1879.76,788.55,1884.39,790.82z M1875.49,825.53c2.73-2.35,4.1-5.55,4.1-9.59c0-4.04-1.37-7.26-4.1-9.66
				c-2.73-2.4-6.37-3.6-10.92-3.6c-4.46,0-8.12,1.24-10.98,3.72c-2.86,2.48-4.29,5.66-4.29,9.53c0,3.87,1.39,7.03,4.16,9.47
				c2.78,2.44,6.56,3.66,11.36,3.66C1869.2,829.06,1872.76,827.88,1875.49,825.53z"/></g></svg>
            </g>
        </g>
    </g>
</svg>