<?xml version="1.0" encoding="UTF-8"?>
<svg width="650px" height="575px" viewBox="0 0 650 575" version="1.1" xmlns="http://www.w3.org/2000/svg" xmlns:xlink="http://www.w3.org/1999/xlink">
    <title>Illustration</title>
    <defs>
        <filter x="-6.1%" y="-6.1%" width="112.1%" height="112.2%" filterUnits="objectBoundingBox" id="filter-1">
            <feGaussianBlur stdDeviation="2" in="SourceGraphic"></feGaussianBlur>
        </filter>
        <filter x="-12.9%" y="-13.0%" width="125.9%" height="126.0%" filterUnits="objectBoundingBox" id="filter-2">
            <feGaussianBlur stdDeviation="3" in="SourceGraphic"></feGaussianBlur>
        </filter>
        <path d="M18.522,0 L47.956852,0 C49.5797169,-4.62229605e-15 50.9083654,1.29053846 50.955582,2.91271629 L51.0441727,5.95634921 C51.140728,9.27361621 53.8577434,11.9126984 57.1764153,11.9126984 L146.306792,11.9126984 C149.625464,11.9126984 152.342479,9.27361621 152.439035,5.95634921 L152.527625,2.91271629 C152.574842,1.29053846 153.903491,7.42204646e-16 155.526355,0 L184.961207,0 C195.190626,-1.87911363e-15 203.483207,8.29258186 203.483207,18.522 L203.483207,413.966891 C203.483207,424.19631 195.190626,432.488891 184.961207,432.488891 L18.522,432.488891 C8.29258186,432.488891 -5.85268494e-15,424.19631 0,413.966891 L0,18.522 C2.29997126e-15,8.29258186 8.29258186,-1.67360005e-15 18.522,0 Z" id="path-3"></path>
        <linearGradient x1="50%" y1="81.1767625%" x2="50%" y2="-34.5130789%" id="linearGradient-5">
            <stop stop-color="#FF8C19" offset="0%"></stop>
            <stop stop-color="#FFC967" offset="100%"></stop>
        </linearGradient>
        <linearGradient x1="62.1100647%" y1="31.3809088%" x2="62.1100647%" y2="-27.4779882%" id="linearGradient-6">
            <stop stop-color="#F8FDFF" offset="0%"></stop>
            <stop stop-color="#AAD4FF" offset="100%"></stop>
        </linearGradient>
        <path d="M23.4435696,4.26168224 L23.4435696,21.3084112 C23.4435696,23.1196262 22.0582677,24.5046729 20.2467192,24.5046729 L14.9186352,24.5046729 C14.2792651,24.5046729 13.8530184,24.0785047 13.8530184,23.4392523 C13.8530184,22.8 14.2792651,22.3738318 14.9186352,22.3738318 L20.2467192,22.3738318 C20.8860892,22.3738318 21.312336,21.9476636 21.312336,21.3084112 L21.312336,4.26168224 C21.312336,3.62242991 20.8860892,3.19626168 20.2467192,3.19626168 L14.9186352,3.19626168 C14.2792651,3.19626168 13.8530184,2.77009346 13.8530184,2.13084112 C13.8530184,1.49158879 14.2792651,1.06542056 14.9186352,1.06542056 L20.2467192,1.06542056 C22.0582677,1.06542056 23.4435696,2.45046729 23.4435696,4.26168224 Z M16.9433071,13.211215 C17.0498688,12.9981308 17.0498688,12.6785047 16.9433071,12.3588785 C16.8367454,12.2523364 16.8367454,12.1457944 16.7301837,12.0392523 L12.4677165,7.77757009 C12.0414698,7.35140187 11.4020997,7.35140187 10.975853,7.77757009 C10.5496063,8.20373832 10.5496063,8.84299065 10.975853,9.26915888 L13.4267717,11.7196262 L3.19685039,11.7196262 C2.55748031,11.7196262 2.1312336,12.1457944 2.1312336,12.7850467 C2.1312336,13.4242991 2.55748031,13.8504673 3.19685039,13.8504673 L13.4267717,13.8504673 L10.975853,16.3009346 C10.5496063,16.7271028 10.5496063,17.3663551 10.975853,17.7925234 C11.1889764,18.0056075 11.5086614,18.1121495 11.7217848,18.1121495 C11.9349081,18.1121495 12.2545932,18.0056075 12.4677165,17.7925234 L16.7301837,13.5308411 C16.8367454,13.4242991 16.9433071,13.317757 16.9433071,13.211215 Z" id="path-7"></path>
        <path d="M23.6211724,12.4299065 L22.3779528,12.4299065 L22.3779528,8.70093458 C22.3779528,4.59906542 19.0212598,1.24299065 14.9186352,1.24299065 C10.8160105,1.24299065 7.45931759,4.59906542 7.45931759,8.70093458 L7.45931759,12.4299065 L6.21609799,12.4299065 C4.10262467,12.4299065 2.4864392,14.0457944 2.4864392,16.1588785 L2.4864392,24.8598131 C2.4864392,26.9728972 4.10262467,28.588785 6.21609799,28.588785 L23.6211724,28.588785 C25.7346457,28.588785 27.3508311,26.9728972 27.3508311,24.8598131 L27.3508311,16.1588785 C27.3508311,14.0457944 25.7346457,12.4299065 23.6211724,12.4299065 Z M9.94575678,8.70093458 C9.94575678,5.96635514 12.1835521,3.72897196 14.9186352,3.72897196 C17.6537183,3.72897196 19.8915136,5.96635514 19.8915136,8.70093458 L19.8915136,12.4299065 L9.94575678,12.4299065 L9.94575678,8.70093458 Z M24.864392,24.8598131 C24.864392,25.6056075 24.3671041,26.1028037 23.6211724,26.1028037 L6.21609799,26.1028037 C5.47016623,26.1028037 4.97287839,25.6056075 4.97287839,24.8598131 L4.97287839,16.1588785 C4.97287839,15.4130841 5.47016623,14.9158879 6.21609799,14.9158879 L23.6211724,14.9158879 C24.3671041,14.9158879 24.864392,15.4130841 24.864392,16.1588785 L24.864392,24.8598131 Z" id="path-9"></path>
        <path d="M6,0 L68.1751666,0 C71.4888751,8.22077476e-15 74.1751666,2.6862915 74.1751666,6 L74.1751666,55.7294372 C74.1751666,59.0431457 71.4888751,61.7294372 68.1751666,61.7294372 L6,61.7294372 C2.6862915,61.7294372 4.82055882e-15,59.0431457 0,55.7294372 L0,6 C-4.05812251e-16,2.6862915 2.6862915,6.08718376e-16 6,0 Z" id="path-11"></path>
        <path d="M10.0398384,1.23119728e-13 L120.282546,1.23119728e-13 C125.789873,1.22108049e-13 130.260571,4.45295749 130.282467,9.96024091 L130.857435,154.572074 C130.879394,160.094877 126.420077,164.589795 120.897274,164.611754 C120.884021,164.611806 120.870768,164.611833 120.857514,164.611833 L10.6148064,164.611833 C5.10747945,164.611833 0.636782073,160.158875 0.614885444,154.651592 L0.0399174794,10.0397591 C0.0179591429,4.51695524 4.47727551,0.0220373761 10.0000794,7.90395561e-05 C10.0133323,2.63465709e-05 10.0265854,1.21345806e-13 10.0398384,1.23119728e-13 Z" id="path-13"></path>
        <filter x="-29.4%" y="-22.8%" width="171.0%" height="156.5%" filterUnits="objectBoundingBox" id="filter-14">
            <feOffset dx="8" dy="9" in="SourceAlpha" result="shadowOffsetOuter1"></feOffset>
            <feGaussianBlur stdDeviation="14" in="shadowOffsetOuter1" result="shadowBlurOuter1"></feGaussianBlur>
            <feColorMatrix values="0 0 0 0 0.0755212756   0 0 0 0 0.582569014   0 0 0 0 0.878793025  0 0 0 0.229458042 0" type="matrix" in="shadowBlurOuter1" result="shadowMatrixOuter1"></feColorMatrix>
            <feOffset dx="0" dy="2" in="SourceAlpha" result="shadowOffsetOuter2"></feOffset>
            <feGaussianBlur stdDeviation="7.5" in="shadowOffsetOuter2" result="shadowBlurOuter2"></feGaussianBlur>
            <feColorMatrix values="0 0 0 0 0.50398247   0 0 0 0 0.700178215   0 0 0 0 1  0 0 0 0.233828671 0" type="matrix" in="shadowBlurOuter2" result="shadowMatrixOuter2"></feColorMatrix>
            <feMerge>
                <feMergeNode in="shadowMatrixOuter1"></feMergeNode>
                <feMergeNode in="shadowMatrixOuter2"></feMergeNode>
            </feMerge>
        </filter>
        <ellipse id="path-15" cx="25.1704298" cy="25.5448757" rx="25.1704298" ry="25.5448757"></ellipse>
        <filter x="-76.5%" y="-73.4%" width="284.7%" height="282.0%" filterUnits="objectBoundingBox" id="filter-16">
            <feOffset dx="8" dy="9" in="SourceAlpha" result="shadowOffsetOuter1"></feOffset>
            <feGaussianBlur stdDeviation="14" in="shadowOffsetOuter1" result="shadowBlurOuter1"></feGaussianBlur>
            <feColorMatrix values="0 0 0 0 0.0755212756   0 0 0 0 0.582569014   0 0 0 0 0.878793025  0 0 0 0.229458042 0" type="matrix" in="shadowBlurOuter1" result="shadowMatrixOuter1"></feColorMatrix>
            <feOffset dx="0" dy="2" in="SourceAlpha" result="shadowOffsetOuter2"></feOffset>
            <feGaussianBlur stdDeviation="7.5" in="shadowOffsetOuter2" result="shadowBlurOuter2"></feGaussianBlur>
            <feColorMatrix values="0 0 0 0 0.50398247   0 0 0 0 0.700178215   0 0 0 0 1  0 0 0 0.233828671 0" type="matrix" in="shadowBlurOuter2" result="shadowMatrixOuter2"></feColorMatrix>
            <feMerge>
                <feMergeNode in="shadowMatrixOuter1"></feMergeNode>
                <feMergeNode in="shadowMatrixOuter2"></feMergeNode>
            </feMerge>
        </filter>
        <linearGradient x1="47.2537592%" y1="-28.1859254%" x2="50%" y2="91.0504812%" id="linearGradient-17">
            <stop stop-color="#FDC6C6" offset="0%"></stop>
            <stop stop-color="#FFCCA1" offset="100%"></stop>
        </linearGradient>
        <linearGradient x1="45.7543032%" y1="-28.1859254%" x2="50%" y2="91.0504812%" id="linearGradient-18">
            <stop stop-color="#FDC6C6" offset="0%"></stop>
            <stop stop-color="#FAB2B2" offset="100%"></stop>
        </linearGradient>
        <linearGradient x1="44.569858%" y1="-28.1859254%" x2="50%" y2="91.0504812%" id="linearGradient-19">
            <stop stop-color="#FDC6C6" offset="0%"></stop>
            <stop stop-color="#FAB2B2" offset="100%"></stop>
        </linearGradient>
        <linearGradient x1="44.0890061%" y1="-28.1859254%" x2="50%" y2="91.0504812%" id="linearGradient-20">
            <stop stop-color="#FDC6C6" offset="0%"></stop>
            <stop stop-color="#FFCCA1" offset="100%"></stop>
        </linearGradient>
        <linearGradient x1="47.8437966%" y1="-28.1859254%" x2="50%" y2="91.0504812%" id="linearGradient-21">
            <stop stop-color="#FDC6C6" offset="0%"></stop>
            <stop stop-color="#FFCCA1" offset="100%"></stop>
        </linearGradient>
    </defs>
    <g id="ðŸ“-Pages-New" stroke="none" stroke-width="1" fill="none" fill-rule="evenodd">
        <g id="Forgot-Password" transform="translate(-150.000000, -252.000000)">
            <g id="Illustration" transform="translate(156.000000, 252.000000)">
                <g id="Shape">
                    <path d="M469.402027,0 C565.829825,0 644,77.8709307 644,173.929592 C644,269.988253 565.829825,347.859184 469.402027,347.859184 C372.974229,347.859184 294.804054,269.988253 294.804054,173.929592 C294.804054,77.8709307 372.974229,0 469.402027,0 Z M469.402027,65.0204082 C409.022004,65.0204082 360.074324,113.780711 360.074324,173.929592 C360.074324,234.078473 409.022004,282.838776 469.402027,282.838776 C529.78205,282.838776 578.72973,234.078473 578.72973,173.929592 C578.72973,113.780711 529.78205,65.0204082 469.402027,65.0204082 Z" id="Oval" fill="#7367F0" fill-rule="nonzero" opacity="0.052827381"></path>
                    <path d="M49.4966216,226.487755 C76.8328509,226.487755 98.9932432,248.563315 98.9932432,275.794898 C98.9932432,303.026481 76.8328509,325.102041 49.4966216,325.102041 C22.1603923,325.102041 0,303.026481 0,275.794898 C0,248.563315 22.1603923,226.487755 49.4966216,226.487755 Z M49.4966216,258.997959 C40.1842798,258.997959 32.6351351,266.518205 32.6351351,275.794898 C32.6351351,285.071591 40.1842798,292.591837 49.4966216,292.591837 C58.8089635,292.591837 66.3581081,285.071591 66.3581081,275.794898 C66.3581081,266.518205 58.8089635,258.997959 49.4966216,258.997959 Z" id="Oval" fill="#8BF78F" fill-rule="nonzero" opacity="0.141020275" filter="url(#filter-1)"></path>
                    <ellipse id="Oval" fill-opacity="0.0612161276" fill="#7367F0" cx="202.337838" cy="433.469388" rx="97.9054054" ry="97.5306122"></ellipse>
                    <ellipse id="Oval" fill="#CEF5FF" opacity="0.141020275" cx="169.702703" cy="92.1122449" rx="34.8108108" ry="34.677551"></ellipse>
                    <ellipse id="Oval" fill-opacity="0.135926573" fill="#7367F0" filter="url(#filter-2)" cx="579.817568" cy="433.469388" rx="34.8108108" ry="34.677551"></ellipse>
                </g>
                <svg xmlns="http://www.w3.org/2000/svg" enable-background="new 0 0 2000 2000" viewBox="0 0 2000 2000"><path fill="#3aefd0" d="M1164.267 1064.894c1.886 18.657 9.996 36.873 7.884 55.547-2.474 21.327-17.903 38.743-34.039 52.911-16.131 14.105-34.211 26.974-45.229 45.348-18.358 30.583 3.635 170.981-131.705 168.257-39.693-.799-81.692-11.2-105.109-43.281-23.361-32.014-24.49-80.021.803-110.607 20.032-24.186 52.849-35.609 71.191-61.133 16.21-22.655 20.919-55.649 45.724-68.289 26.051-13.278 62.736 3.192 84.306-16.547 8.98-8.189 12.468-20.617 17.163-31.876 11.749-27.927 33.422-51.592 60.175-65.744 26.815-14.146 58.575-18.668 88.253-12.508-36.817 10.75-63.175 49.734-59.417 87.922z"/><path fill="#1fddc1" d="M1067.25 1125.824c.113-.282.116-.548.217-.827 14.686-14.402 29.857-28.301 46.077-41.231l-.384-.597c-15.665 9.054-30.113 20.062-43.897 31.86.208-8.258-1.489-13.75-11.151-18.624 7.816 6.336 10.265 14.207 3.653 25.109-18.4 16.427-13.978 13.626-16.534 15.447l.137.166c-11.291 11.302-21.828 23.282-31.963 35.598 5.092-18.153 6.07-38.644-7.791-51.44 15.36 17.251 6.441 47.844-4.439 66.294l.105.05c-8.348 10.511-17.298 21.464-38.285 51.757-.068.024-.136.036-.204.061l-2.209 3.05.079.252c-3.501 5.09-9.965 14.021-16.316 24.086-13.111 20.124-25.685 40.544-37.437 61.538l.654.372c18.887-31.228 36.292-56.028 55.103-81.925 20.12-9.172 46.472-13.025 70.148-5.339 7.782 2.385 14.691 6.815 21.383 11.599-24.712-20.664-54.797-23.886-84.704-15.619 43.079-58.095 61.306-91.701 124.957-70.507-20.693-8.914-39.203-14.083-62.033-5.749 6.139-6.691 12.328-13.334 18.615-19.876 19.743-16.115 43.308-22.072 68.708-15.213-17.209-6.378-32.275-7.38-52.489-.292zm-.774.27-.206.072.123-.12.083.048z"/><path fill="#b2c1f9" d="M923.705 564.83H593.531c-42.956 0-77.779 33.769-77.779 75.425v705.742c0 41.734 34.888 75.567 77.924 75.567H923.85c42.956 0 77.779-33.769 77.779-75.425V640.397c.001-41.562-35.065-75.567-77.924-75.567z"/><path fill="#cfd8f9" d="M593.683 1404.152c-33.37 0-60.515-26.09-60.515-58.151V640.25c0-31.975 27.077-57.998 60.362-57.998h330.178c33.353 0 60.498 26.09 60.498 58.151v705.734c0 31.992-27.077 58.015-60.362 58.015H593.683z"/><path fill="#fff" d="M672.96 608.689c11.931 15.902-5.94 33.773-21.841 21.841a1.223 1.223 0 0 1-.241-.241c-11.931-15.902 5.94-33.773 21.841-21.841.09.068.174.152.241.241zM885.333 624.351H685.412a.27.27 0 0 1-.268-.268v-9.186a.27.27 0 0 1 .268-.268h199.921a.27.27 0 0 1 .268.268v9.186a.27.27 0 0 1-.268.268z"/><path fill="#180e34" d="M1304.972 1423.577c-.578 0-.878-.745-1.01-1.808-.489-3.916 2.353-7.417 6.203-8.288 5.795-1.311 10.994-3.579 15.553-6.875h8.561v14.157a2.814 2.814 0 0 1-2.814 2.814h-26.493zM1346.25 1423.577c-.578 0-.878-.745-1.011-1.808-.489-3.916 2.354-7.417 6.203-8.288 5.795-1.311 10.994-3.579 15.553-6.875h8.561v14.157a2.814 2.814 0 0 1-2.814 2.814h-26.492z"/><path fill="#ffccbe" d="m1120.115 788.513-7.609 12.302s-32.212-7.607-24.224-34.876c7.484-25.998 26.761 13.317 28.535 17.249-.508-1.776-4.185-13.317 1.016-14.206 5.579-.888 2.282 19.531 2.282 19.531z"/><path fill="#4f7dfc" d="m1250.824 753.937-34.835 101.107-95.864-67.288c-2.224-1.375-11.384 13.437-9.16 14.812 0 0 75.322 101.089 113.126 100.386 19.113-.355 55.267-52.843 55.267-52.843s-3.46-95.63-28.534-96.174z"/><path fill="#ffccbe" d="m1417.809 1191.83-41.551 214.775c0 1.328-9.776 1.328-9.776 0l-14.551-217.241 65.878 2.466zM1279.007 1191.83l45.351 214.775c0 1.892 10.109 1.666 10.109-.226l10.418-217.015-65.878 2.466z"/><path fill="#180e34" d="M1439.941 1012.164c7.373 12.729-.995 183.19-.995 183.19 0 12.213-169.45 12.213-169.45 0 0 0-33.11-169.329-4.227-199.395 29.957-31.186 152.998-21.215 174.672 16.205z"/><path fill="#3160ff" d="M1456.463 747.175c-15.561-13.232-170.058-26.001-205.639 6.762-19.387 17.852-8.021 284.593-8.021 284.593-.771 25.492 207.701 29.423 208.472 3.931.001 0 14.797-287.115 5.188-295.286z"/><path fill="#fcb94c" d="M1358.504 760.339c-51.883-23.552-112.813-.683-136.533 51.029-23.552 51.883-.683 112.81 51.2 136.362 51.713 23.552 112.81.683 136.363-51.029 23.551-51.712.683-112.81-51.03-136.362zm8.192 119.466c-12.8 28.158-45.908 40.619-74.071 27.819-28.158-12.8-40.446-45.91-27.646-74.069 12.8-28.16 45.908-40.45 73.898-27.65 28.16 12.629 40.619 45.91 27.819 73.9z"/><path fill="#fcb94c" d="M1241.106 849.26 959.324 721.028a1.327 1.327 0 0 1-.658-1.758l17.666-38.821a1.327 1.327 0 0 1 1.758-.658l281.782 128.232-18.766 41.237z"/><path fill="#fcb94c" d="m1029.489 747.526-9.235 20.312c-2.153 4.925-8.003 7.08-12.926 4.925-4.924-2.309-7.08-8.156-4.77-12.926l9.231-20.466c2.157-4.926 8.003-7.08 12.928-4.771 3.539 1.539 5.694 5.078 5.694 8.773 0 1.382-.308 2.768-.922 4.153zM1055.071 754.644c0 1.385-.308 2.769-.924 4.155l-14.773 32.776c-2.307 4.925-8.157 7.078-12.926 4.771-4.924-2.155-7.078-8.003-4.924-12.928l14.927-32.622c2.155-4.925 8.002-7.08 12.926-4.925 3.542 1.693 5.694 5.08 5.694 8.773zM1004.865 736.292l-14.927 32.624c-2.309 4.925-8.003 7.078-12.928 4.925-4.922-2.311-7.078-8.003-4.922-12.928l14.927-32.778c2.153-4.924 8.003-7.078 12.926-4.77 3.693 1.539 5.694 5.232 5.694 8.925 0 1.385-.154 2.772-.77 4.002z"/><path fill="#ffccbe" d="m1354.051 821.38-1.448 9.958s-49.232-8.963-41.384-27.12c10.309-23.545 27.855 3.847 29.391 6.308-.46-1.23-3.385-8.309 1.54-8.771 5.386-.614 11.901 19.625 11.901 19.625z"/><path fill="#4f7dfc" d="M1454.897 746.105c-10.261-2.59-22.44 24.766-23.349 35.31-1.803 20.888 13.387 82.788 13.387 82.788l-90.537-47.91c-2.878-.505-6.021 17.294-3.143 17.799 0 0 86.266 103.563 119.397 87.182 21.137-10.452 26.877-164.407-15.755-175.169z"/><path fill="#ffccbe" d="m1324.233 737.916-1.558-23.587s-24.745 6.908-40.766-17.792c-16.022-24.7-29.122-120.689 46.997-122.842 101.006-2.857 53.271 161.622 53.271 161.622.159 8.416-57.785 11.015-57.944 2.599z"/><path fill="#161938" d="M1477.217 839.292c-11.164 10.508-32.835 11.822-47.283 7.882-15.433-4.104-30.044-18.554-39.239-31.032-5.746-7.552-10.342-15.925-13.955-24.627-10.015-24.627-11.82-51.879-9.194-78.313 2.463-26.43 35.299-59.594 16.089-77.984-2.626-2.625-10.671 3.449-10.671 3.449s-11.164-10.508-19.045-11.494c-14.94-2.132-30.044-4.269-45.149-6.401-19.373-2.792-40.551-6.568-52.7-21.837-12.149-15.103-10.836-38.253.492-54.015 4.597-6.401 10.508-11.656 17.238-15.76 9.687-5.91 21.179-9.357 32.508-10.341 19.208-1.479 38.581 3.283 56.641 10.341 15.596 6.076 31.193 14.285 41.208 27.747 10.343 14.119 13.298 32.342 13.463 49.744 0 17.404-2.626 34.807-2.299 52.374.822 33 12.806 65.671 33.493 91.446 10.835 13.464 24.298 25.12 32.178 40.551 7.882 15.434 8.867 36.449-3.775 48.27z"/><path fill="#fff" d="M756.646 1033.52a175.486 175.486 0 0 1-14.6-1.317l1.133-8.633c4.583.6 9.217 1.017 13.9 1.25l-.433 8.7zm21.15-.2-.6-8.7c4.683-.317 9.3-.833 13.85-1.533l1.333 8.6a183.345 183.345 0 0 1-14.583 1.633zm-56.55-5.133a188.494 188.494 0 0 1-14-4.233l2.867-8.233c4.35 1.517 8.8 2.867 13.317 4.033l-2.184 8.433zm91.816-.934-2.333-8.4c4.5-1.25 8.917-2.667 13.25-4.283l3.033 8.167a178.835 178.835 0 0 1-13.95 4.516zm-125.366-11.45c-4.4-2.167-8.717-4.5-12.883-7l4.467-7.467c3.967 2.367 8.05 4.6 12.25 6.633l-3.834 7.834zm158.683-1.633-4-7.733a166.804 166.804 0 0 0 12.117-6.9l4.6 7.4a184.03 184.03 0 0 1-12.717 7.233zm-189.083-17.284c-3.867-3-7.6-6.133-11.2-9.433l5.867-6.433c3.433 3.133 7 6.133 10.667 8.967l-5.334 6.899zm219.083-2.25-5.467-6.767c3.6-2.917 7.1-5.983 10.467-9.183l6 6.3c-3.533 3.367-7.2 6.6-11 9.65zm-245.017-22.383a177.36 177.36 0 0 1-9.1-11.467l7.033-5.133c2.733 3.75 5.617 7.4 8.667 10.9l-6.6 5.7zm270.484-2.75-6.733-5.533a171.784 171.784 0 0 0 8.433-11.117l7.133 5c-2.8 4-5.75 7.9-8.833 11.65zm-291-26.566a171.443 171.443 0 0 1-6.6-13.067l7.933-3.6a166.88 166.88 0 0 0 6.267 12.433l-7.6 4.234zm310.883-3.167-7.667-4.1a164.097 164.097 0 0 0 6.017-12.55l8 3.433a168.805 168.805 0 0 1-6.35 13.217zm-325.083-29.667a167.085 167.085 0 0 1-3.817-14.167l8.5-1.867c1 4.533 2.217 9 3.617 13.4l-8.3 2.634zm338.6-3.517-8.367-2.433c1.283-4.4 2.417-8.933 3.35-13.517l8.533 1.767c-1 4.817-2.166 9.55-3.516 14.183zM589.412 875.07c-.5-4.817-.8-9.683-.9-14.633l8.7-.167c.1 4.683.4 9.317.867 13.9l-8.667.9zm352.334-3.617-8.667-.7c.367-4.6.567-9.25.567-13.95l8.7-.717v.717c0 4.934-.2 9.817-.6 14.65zm-343.734-31.317-8.667-.833c.483-4.917 1.167-9.75 2.05-14.55l8.567 1.6c-.85 4.533-1.5 9.134-1.95 13.783zm334.367-4.1c-.583-4.65-1.35-9.233-2.3-13.767l8.533-1.767a185.1 185.1 0 0 1 2.4 14.433l-8.633 1.101zm-327.617-29.25-8.333-2.567c1.467-4.7 3.1-9.333 4.933-13.817l8.067 3.267a159.284 159.284 0 0 0-4.667 13.117zm320.05-3.933c-1.5-4.4-3.183-8.75-5.017-12.983l8-3.467a177.782 177.782 0 0 1 5.25 13.65l-8.233 2.8zm-306.7-27.317-7.633-4.233a184.777 184.777 0 0 1 7.6-12.5l7.267 4.8a176.205 176.205 0 0 0-7.234 11.933zm292.584-3.616c-2.35-4-4.867-7.917-7.533-11.717l7.133-5c2.8 4 5.45 8.117 7.9 12.317l-7.5 4.4zm-273.184-24.384-6.6-5.667c3.167-3.7 6.5-7.3 9.967-10.733l6.133 6.2a172.34 172.34 0 0 0-9.5 10.2zm253.117-3.083a172.05 172.05 0 0 0-9.733-9.967l5.967-6.333c3.55 3.35 6.983 6.85 10.233 10.5l-6.467 5.8zm-228.517-20.417-5.367-6.867c3.85-3 7.833-5.833 11.917-8.517l4.767 7.267a165.104 165.104 0 0 0-11.317 8.117zm203.35-2.5a170.77 170.77 0 0 0-11.533-7.817l4.567-7.4a179.488 179.488 0 0 1 12.133 8.217l-5.167 7zm-174.55-15.583-3.867-7.8a181.32 181.32 0 0 1 13.383-5.933l3.2 8.1a158.458 158.458 0 0 0-12.716 5.633zm145.3-1.783c-4.2-1.95-8.483-3.733-12.867-5.35l3-8.167a169.601 169.601 0 0 1 13.533 5.617l-3.666 7.9zm-113.45-10.117-2.2-8.433c4.7-1.233 9.483-2.267 14.3-3.1l1.5 8.567a168.147 168.147 0 0 0-13.6 2.966zm81.267-1a160.538 160.538 0 0 0-13.667-2.633l1.267-8.6c4.883.717 9.683 1.633 14.433 2.767l-2.033 8.466zm-47.65-4.217-.467-8.7c4.85-.267 9.767-.35 14.667-.183l-.267 8.7a169.07 169.07 0 0 0-13.933.183z"/><circle cx="765.419" cy="856.804" r="136.951" fill="#fff" transform="rotate(-45.001 765.413 856.817)"/><path fill="#d0d4dd" d="M817.343 894.376H713.495v-93.634c0-28.632 23.292-51.924 51.924-51.924s51.924 23.292 51.924 51.924v93.634zm-93.634-10.215h83.419v-83.419c0-23-18.71-41.71-41.71-41.71s-41.71 18.71-41.71 41.71v83.419z"/><path fill="#f97c55" d="M816.94 844.375c55.997 74.412-27.725 158.134-102.137 102.137a4.619 4.619 0 0 1-.905-.905c-55.997-74.412 27.725-158.134 102.137-102.137.34.256.649.565.905.905z"/><path fill="#f66531" d="m773.863 892.523 5.312 30.984h-27.512l5.312-30.984a14.3 14.3 0 0 1-5.958-11.645c0-7.967 6.435-14.403 14.402-14.403s14.403 6.435 14.403 14.403a14.303 14.303 0 0 1-5.959 11.645z"/><path fill="#fff" d="M956.998 1311.976c0 8.299-5.924 15.171-13.071 15.171H573.651c-7.355 0-13.276-6.872-13.276-15.171v-67.081c0-8.533 5.921-15.408 13.276-15.408h370.276c21.916 0 9.981 39.462 13.071 82.489z"/><path fill="#f97c55" d="M587.543 1291.847a.91.91 0 0 1-.272-.68v-25.665c0-.289.085-.527.255-.697a.872.872 0 0 1 .68-.289h10.222c13.257 0 12.533 13.683 5.085 16.294l5.715 10.052a.9.9 0 0 1 .119.425.772.772 0 0 1-.255.595.84.84 0 0 1-.578.238h-3.623c-.425 0-.748-.102-.987-.289a2.952 2.952 0 0 1-.629-.782l-5.051-9.337h-5.391v9.456a.925.925 0 0 1-.289.68c-.17.187-.408.272-.697.272h-3.64a.904.904 0 0 1-.664-.273zm10.766-14.627c1.582 0 2.755-.357 3.538-1.055.799-.697 1.191-1.701 1.191-3.044s-.391-2.381-1.191-3.095c-.782-.731-1.956-1.089-3.538-1.089h-5.477v8.283h5.477zM614.092 1264.804a.872.872 0 0 1 .68-.289h17.399a.97.97 0 0 1 .986.986v2.653c0 1.749-2.31.58-13.93.935v6.905c10.668.391 13.062-.854 13.062.986-.184 1.711.732 3.436-.986 3.436h-12.076v7.126c12.157.278 14.236-.758 14.236.953-.204 1.709.732 3.623-.986 3.623h-17.705c-1.499.001-1.269-26.725-.68-27.314zM637.563 1284.04h3.589c.504 0 .858.178 1.225.748 1.735 6.014 15.07 2.653 10.494-2.092-2.369-2.369-21.738-3.76-14.168-14.729 3.717-5.204 14.561-5.138 18.352.153.991 1.375 2.161 4.252.493 4.252h-3.742c-1.371 0-1.243-1.903-2.721-2.823-5.151-3.269-14.572 3.191-1.463 6.599 15.492 3.48 11.082 16.362-1.616 16.362-3.177 0-14.599-8.47-10.443-8.47zM663.756 1265.501c0-1.863 1.997-.661 18.335-.986a.97.97 0 0 1 .987.986c-.174 1.712.732 3.589-.987 3.589h-12.943v6.905h12.076c.289 0 .527.085.697.272a.974.974 0 0 1 .289.714v2.483c0 1.766-2.363.583-13.062.953v7.126c12.157.278 14.236-.758 14.236.953-.204 1.709.732 3.623-.986 3.623h-17.706c-1.801 0-.532-1.465-.936-26.618zM694.388 1269.447c-5.9-.34-8.249.762-8.249-.987v-2.959c0-.289.085-.527.255-.697a.91.91 0 0 1 .697-.289h20.138c.508 0 .986.349.986.986-.168 1.72.729 3.946-.986 3.946h-7.245v21.719c0 .516-.33.953-.952.953h-3.708c-1.796 0-.542-1.798-.936-22.672zM720.257 1265.501c0-.621.426-.986.935-.986h10.579c12.129 0 11.911 11.723 7.484 15.239-3.918 3.149-9.317 1.941-13.283 2.194-.304 8.21.758 10.171-.987 10.171h-3.793c-1.8 0-.531-1.465-.935-26.618zm14.797 10.953c2.003-1.833 2.13-7.517-3.487-7.517h-5.681v8.589c4.6-.196 7.355.548 9.168-1.072zM741.959 1291.286l9.542-25.784c.734-1.744 2.703-.797 5.766-.986 1.814 0 11.583 28.472 10.953 26.771a.835.835 0 0 1-.816.833h-3.521c-1.715 0-1.666-2.568-2.959-5.528h-11.668c-1.294 2.984-1.245 5.528-2.959 5.528h-3.504a.816.816 0 0 1-.834-.834zm8.674-9.253h8.912l-4.456-12.144-4.456 12.144zM770.635 1284.04h3.589c.504 0 .858.178 1.225.748 1.735 6.014 15.07 2.653 10.494-2.092-2.369-2.369-21.738-3.76-14.168-14.729 3.823-5.352 14.655-5.007 18.352.153.991 1.375 2.161 4.252.493 4.252h-3.742c-1.371 0-1.243-1.903-2.721-2.823-5.151-3.269-14.572 3.191-1.463 6.599 14.916 3.351 11.571 16.362-1.616 16.362-10.454 0-13.159-8.47-10.443-8.47z"/><path fill="#f97c55" d="M795.977 1284.04h3.589c.504 0 .858.178 1.225.748 2.137 7.408 22.049.089 4.065-4.609-12.215-2.937-10.543-12.179-4.133-15.035 6.72-2.922 15.803.455 16.073 6.395 0 1.708-2.568.646-4.575.833-.578 0-.969-.238-1.174-.714-.322-2.015-2.769-2.959-4.847-2.959-5.668 0-6.01 4.751-2.058 6.242 5.675 2.292 13.521 1.871 13.521 9.286 0 5.826-5.356 8.283-11.242 8.283-4.615 0-14.266-8.47-10.444-8.47zM820.196 1265.348c0-.458.339-.833.833-.833h3.538c.62 0 .965.193 1.072.799l3.266 17.74c3.575-10.524 3.063-12.416 4.813-12.416h2.177c.34 0 .612.085.816.289.221.204.357.425.442.697l3.538 11.429c3.536-17.763 2.605-18.539 4.337-18.539h3.555c.428 0 .782.331.782.833 0 .136 0 .238-.034.323l-4.643 25.257c-.068.374-.204.663-.459.867-.255.221-.578.323-.969.323h-2.67c-.374 0-.68-.102-.919-.289a1.472 1.472 0 0 1-.476-.697l-4.405-13.096-4.422 13.096c-.565 1.837-2.284.837-4.065.986-1.709.002-5.765-25.062-6.107-26.769zM855.879 1289.789c-3.287-2.953-3.198-7.258-3.198-11.43 0-4.242-.118-8.338 3.283-11.429 4.068-3.729 12.381-3.819 16.617 0 3.265 2.969 3.334 7.002 3.334 11.429 0 4.329-.065 8.554-3.266 11.43-2.007 1.82-4.796 2.721-8.368 2.721-3.606 0-6.412-.901-8.402-2.721zm14.236-8.283c.09-2.751.089-3.723 0-6.378-.174-4.417-2.521-6.429-5.834-6.429-3.4 0-5.73 2.034-5.834 6.429-.068 1.532-.069 4.784 0 6.378.104 4.424 2.415 6.429 5.834 6.429 1.752 0 5.682-2.504 5.834-6.429zM881.034 1291.166v-25.665c0-.289.085-.527.255-.697a.872.872 0 0 1 .68-.289h10.222c6.018 0 10.324 2.743 10.324 8.64 0 3.901-1.988 6.514-5.238 7.654l5.715 10.052a.9.9 0 0 1 .119.425.772.772 0 0 1-.255.595.84.84 0 0 1-.578.238h-3.623c-.425 0-.748-.102-.987-.289a2.952 2.952 0 0 1-.629-.782l-5.051-9.337h-5.392v9.456a.95.95 0 0 1-.987.953h-3.64a.926.926 0 0 1-.935-.954zm14.576-15.001c1.625-1.418 1.583-4.725 0-6.14-.782-.731-1.956-1.089-3.538-1.089h-5.477v8.283c4.207-.182 7.211.554 9.015-1.054zM907.873 1291.847a.91.91 0 0 1-.272-.68v-25.665c0-.289.085-.527.255-.697a.872.872 0 0 1 .68-.289h9.627c7.756 0 11.719 3.589 11.872 10.732.051 1.531.068 2.551.068 3.078 0 .493-.017 1.514-.068 3.027-.102 3.691-1.105 6.395-2.976 8.147-1.888 1.752-4.779 2.619-8.691 2.619h-9.831a.899.899 0 0 1-.664-.272zm10.29-4.303c2.177 0 3.759-.476 4.728-1.463.969-.97 1.497-2.585 1.548-4.847.051-1.582.068-2.551.068-2.959s-.017-1.395-.068-2.908c-.051-2.16-.595-3.742-1.616-4.762-1.038-1.003-2.653-1.514-4.864-1.514h-4.796v18.454h5z"/><path fill="#fff" d="M717.238 1128.44h31.615v-46.524h39.084v46.524h31.265l-50.807 68.57z"/><path fill="#b2c1f9" d="M1239.312 421.97h-18.25v-5.133h13.367c1.95-21.3 19.65-37.65 41.333-37.65 18.1 0 33.35 10.667 38.867 27.15l-4.867 1.633c-4.867-14.6-17.9-23.65-34-23.65-19.733 0-35.717 15.45-36.367 35.167l-.083 2.483z"/><path fill="#b2c1f9" d="M1250.746 420.17h-5.133c0-16 13.033-29.033 29.05-29.033v5.133c-13.184 0-23.917 10.717-23.917 23.9zM1374.496 448.67h-23.217v-2.567c0-20.05-16.317-36.367-36.383-36.367-12.95 0-25.033 6.967-31.5 18.183l-4.433-2.567c7.383-12.8 21.15-20.75 35.933-20.75 22.033 0 40.1 17.25 41.433 38.933h18.167v5.135z"/><path fill="#b2c1f9" d="m1295.229 434.253-4.433-2.567c5.15-8.883 14.7-14.4 24.95-14.4v5.133c-8.417.001-16.284 4.534-20.517 11.834zM1186.229 417.603h20.017v5.133h-20.017zM1381.212 443.537h7.9v5.133h-7.9zM1241.112 446.103h-5.133c0-7.6 6.183-13.783 13.783-13.783v5.133c-4.766 0-8.65 3.884-8.65 8.65zM568.846 370.753h-18.267v-5.133h13.383c1.933-21.3 19.633-37.65 41.333-37.65 18.083 0 33.333 10.667 38.867 27.15l-4.867 1.633c-4.883-14.6-17.917-23.65-34-23.65-19.75 0-35.733 15.45-36.367 35.167l-.082 2.483z"/><path fill="#b2c1f9" d="M580.279 368.953h-5.133c0-16 13.033-29.033 29.033-29.033v5.133c-13.183 0-23.9 10.717-23.9 23.9zM704.012 397.453h-23.217v-2.567c0-20.05-16.317-36.367-36.367-36.367-12.95 0-25.033 6.967-31.517 18.183l-4.433-2.567c7.4-12.8 21.183-20.75 35.95-20.75 22.017 0 40.083 17.25 41.417 38.933h18.167v5.135z"/><path fill="#b2c1f9" d="m624.762 383.037-4.433-2.567c5.15-8.883 14.7-14.4 24.95-14.4v5.133c-8.417 0-16.283 4.534-20.517 11.834zM515.746 366.387h20.017v5.133h-20.017zM710.746 392.32h7.883v5.133h-7.883zM570.629 394.887h-5.133c0-7.6 6.2-13.783 13.8-13.783v5.133c-4.784 0-8.667 3.883-8.667 8.65zM804.046 383.67h23.483v5.133h-23.483zM845.212 383.67h120.35v5.133h-120.35zM1064.312 279.903h23.483v5.133h-23.483zM1105.479 279.903h120.35v5.133h-120.35z"/></svg>
            </g>
        </g>
    </g>
</svg>