<svg xmlns="http://www.w3.org/2000/svg" enable-background="new 0 0 5000 3870" viewBox="0 0 5000 3870"><path fill="#afbbe2" d="M4143.377,2006.317c-5.16-94.598,20.639-170.277,20.639-170.277l-202.956-5.16
						c0,0-25.799,75.678-20.64,170.277L4143.377,2006.317z"/><path fill="#cad2ed" d="M4115.857,2006.317c-5.16-94.598,20.639-170.277,20.639-170.277l-202.956-5.16
						c0,0-25.8,75.678-20.64,170.277L4115.857,2006.317z"/><path fill="#ffe0d1" d="M3627.387,1990.837c0,0-82.558,18.06-118.677,154.797
							c-36.119,136.737-188.336,843.643-196.076,1310.614h1078.418c0,0-2.58-345.713,51.599-606.288
							c54.179-260.575,87.718-637.247,18.06-763.665S3924.081,1928.919,3627.387,1990.837z"/><path fill="#f7d1be" d="M4201.871,1976.9c63.516,32.158,169.55,96.963,189.181,179.054
							c28.379,118.678-7.74,417.952-72.239,681.106c-50.881,207.596-50.384,503.496-47.907,619.188h120.146
							c0,0-2.58-345.713,51.599-606.288c54.179-260.575,87.719-637.247,18.06-763.665
							C4431.235,2032.804,4330.619,1996.405,4201.871,1976.9z"/><path fill="#ffe4d6" d="M3886.929,1374.235c0,0-125.362-14.914-158.678,87.499
								c-35.87,110.267-37.382,292.208-28.643,330.694c15.182,66.861,545.495,71.903,609.91,65.788s92.447-29.752,111.747-120.346
								c19.299-90.594,10.281-253.475-0.393-287.69C4392.429,1359.004,3886.929,1374.235,3886.929,1374.235z"/><path fill="#fdc" d="M4420.873,1450.181c-10.575-33.9-87.104-53.088-179.074-63.82
								c14.137,37.007,44.718,134.185,21.976,234.684c-28.937,127.873-113.518,166.836-233.916,137.597s-211.556,0-233.915-13.759
								c-22.36-13.76,20.64-77.399,0-132.438c-20.639-55.039,13.76-67.079-5.16-116.958c-13.815-36.422-20.289-68.246-23.449-90.809
								c-16.537,13.015-30.715,31.333-39.083,57.057c-35.87,110.266-37.381,292.208-28.642,330.694
								c15.182,66.861,545.495,71.904,609.91,65.789s92.447-29.752,111.747-120.346
								C4440.565,1647.277,4431.546,1484.396,4420.873,1450.181z"/><path fill="#f7d1be" d="M4150.662,1768.193c-1.227,0-2.472-0.275-3.647-0.855c-4.084-2.018-5.76-6.964-3.742-11.049
									c49.895-101.018,48.097-262.386,48.073-264.004c-0.067-4.555,3.57-8.303,8.125-8.37c4.579-0.04,8.302,3.57,8.37,8.126
									c0.007,0.415,0.548,42.079-5.252,95.906c-7.818,72.562-22.798,131.658-44.525,175.648
									C4156.626,1766.506,4153.702,1768.193,4150.662,1768.193z"/><path fill="#f7d1be" d="M3853.713,1753.242c-1.226,0-2.471-0.275-3.647-0.855c-4.085-2.018-5.76-6.964-3.742-11.049
									c49.861-100.948,48.098-262.386,48.075-264.005c-0.066-4.555,3.572-8.302,8.126-8.369c0.041,0,0.083-0.001,0.124-0.001
									c4.499,0,8.178,3.613,8.245,8.126c0.006,0.415,0.547,42.079-5.252,95.907c-7.818,72.561-22.799,131.658-44.527,175.647
									C3859.678,1751.554,3856.753,1753.242,3853.713,1753.242z"/><path fill="#f7d1be" d="M4319.121,1398.491c17.908,15.493,46.227,48.614,54.85,107.86
							c12.927,88.827-10.729,233.67-37.127,280.505c-19.847,35.212-39.194,55.102-68.256,72.981
							c19.1-0.327,33.294-0.895,40.931-1.62c64.415-6.115,92.448-29.753,111.747-120.346c19.299-90.594,10.281-253.475-0.393-287.69
							C4413.474,1426.463,4373.786,1409.949,4319.121,1398.491z"/><g><path fill="#e3947d" d="M3250.889,2163.441c0,0-167.903-82.182-266.306,174.03
						c-98.403,256.212-159.859,651.938-178.181,802.516c-18.322,150.578,177.897,220.685,262.147,93.409
						c84.25-127.275,227.294-599.773,264.66-731.883C3370.575,2369.404,3380.201,2211.503,3250.889,2163.441z"/><path fill="#c98989" d="M3363.278,2478.403c37.839-113.518,18.92-359.473-190.916-337.113
						c0,0-158.092,26.507-235.49,259.992c-17.968,54.203-60.559,224.281-75.657,283.362
						c54.646,37.492,209.339,98.414,412.668,116.281C3302.427,2712.056,3349.889,2518.569,3363.278,2478.403z"/><path fill="#f6af9a" d="M3542.26,2033.102c-162.152,32.593-275.774,99.895-403.218,196.683
								c-85.232,64.73-181.389,119.4-203.068,202.11c-38.056,145.191,110.315,424.352,180.928,546.787
								c70.613,122.435,190.486,389.077,228.633,454.754c38.147,65.677,361.071-10.206,540.377-111.449
								c137.483-77.627,273.472-132.785,241.474-273.594c-37.744-166.099-85.843-406.469-94.02-560.562
								c-8.177-154.092,98.746-474.285-264.579-466.484C3721.053,2025.941,3584.961,2024.519,3542.26,2033.102z"/><path fill="#f6af9a" d="M3119.442,2076.942c0,0,86.176,125.708,95.133,202.729
									c8.958,77.021,129.8,51.63,192.83,10.769c63.03-40.862,171.4-113.347,134.202-196.952
									c-37.198-83.604-99.117-49.915-222.294-263.1C3222.961,1663.63,2999.993,1928.25,3119.442,2076.942z"/><path fill="#ea9a88" d="M3208.224,2249.95c-22.174-75.825-88.782-173.01-88.782-173.01
									c-94.854-118.076,26.213-309.221,128.341-299.438c14.304,16.354,25.417,38.117,42.633,59.219
									C3403.343,1975.132,3324.221,2147.328,3208.224,2249.95z"/><path fill="#d99c9c" d="M3173.009,2208.621c0,0,22.713,67.216,97.008,45.247
								c74.295-21.969,195.719-112.173,218.932-222.963c0,0,186.145-12.83,283.734-17.359c74.315-3.449,191.545-2.478,246.624,57.5
								c17.25,18.784,27.017,444.612,42.674,598.928c2.978,29.353,7.166,54.948,13.154,75.027
								c63.575,213.19,127.631,659.698,117.329,636.98l-875.305,68.616c0,0-9.833-96.197-56.079-177.588
								c-46.247-81.391-105.83-217.311-140.642-270.805s-123.378-231.274-164.628-356.23
								c-41.25-124.956-39.05-229.413,2.336-278.244C2999.53,2318.9,3141.061,2222.816,3173.009,2208.621z"/><path fill="#c98989" d="M4069.006,2719.547c-18.104-115.431-18.943-257.551-28.822-420.258
								c-91.944-143.354-117.072-179.576-220.128-187.283c-172.668,144.521-237.783,398.667-238.501,588.641l29.73,14.926
								c-0.39,109.168-48.311,241.202-48.311,241.202c-130.393,39.071-269.448,65.958-410.361,102.754
								c29.297,56.654,62.952,129.048,95.292,189.546c25.417,42.884,47.165,93.016,57.966,140.826
								C3972.819,3372.906,3977.327,3430.779,4069.006,2719.547z"/><path fill="#c98989" d="M3248.485,3153.665c-0.128-3.061-0.278-6.206-0.439-9.395
								c-0.02-0.394-0.035-0.771-0.055-1.166c-0.167-3.271-0.356-6.625-0.554-10.027c-0.02-0.346-0.036-0.679-0.058-1.025
								c-0.203-3.446-0.426-6.971-0.661-10.543c-0.022-0.331-0.04-0.649-0.064-0.98c-0.238-3.604-0.495-7.281-0.766-11.007
								c-0.023-0.325-0.045-0.637-0.068-0.963c-0.273-3.748-0.562-7.564-0.865-11.429c-0.024-0.323-0.048-0.637-0.073-0.962
								c-0.318-4.052-0.653-8.17-1-12.344c-0.009-0.095-0.016-0.188-0.024-0.285c-17.612-210.558-60.323-610.886-73.301-719.175
								c-0.359-2.992,54.353-42.991,74.973-106.203c-42.286,1.941-62.443-28.463-69.473-42.56
								c-8.993,2.094-18.332,4.366-27.804,6.732c-52.391,31.774-155.744,104.854-190.107,145.397
								c-12.756,15.051-21.76,35.421-26.945,60.012c22.917,5.809,44.021,11.982,58.142,19.361c-0.053,0.254-0.115,0.49-0.169,0.744
								c-1.8-0.54-3.593-1.046-5.417-1.681c1.699,0.908,3.479,1.677,5.232,2.495c-10.424,50.467-17.303,134.972-21.816,229.843
								c44.414,121.442,121.379,274.699,153.266,323.7c30.383,46.688,79.634,156.155,122.419,237.365
								c1.208-3.701,2.323-7.448,3.221-11.291c0.331-1.414,0.634-2.951,0.911-4.601c0.107-0.639,0.191-1.376,0.29-2.049
								c0.156-1.067,0.321-2.098,0.458-3.252c0.113-0.94,0.2-1.987,0.298-2.982c0.099-0.993,0.21-1.937,0.295-2.986
								c0.104-1.271,0.182-2.656,0.269-4.006c0.054-0.875,0.125-1.696,0.172-2.604c0.08-1.526,0.135-3.163,0.195-4.78
								c0.031-0.833,0.074-1.617,0.099-2.475c0.049-1.678,0.074-3.461,0.102-5.23c0.014-0.892,0.039-1.734,0.048-2.648
								c0.02-1.914,0.014-3.931,0.011-5.942c-0.002-0.84,0.007-1.634,0.002-2.49c-0.013-2.175-0.05-4.45-0.089-6.729
								c-0.012-0.768-0.017-1.497-0.031-2.276c-0.049-2.466-0.121-5.025-0.197-7.605c-0.02-0.65-0.032-1.267-0.053-1.924
								c-0.089-2.801-0.201-5.692-0.319-8.619C3248.519,3154.602,3248.504,3154.147,3248.485,3153.665z"/><path fill="#c98989" d="M3394.546,2218.702c-1.435,0.494-3.088,0.118-4.162-1.084
									c-1.428-1.599-1.29-4.052,0.309-5.481c28.52-25.472,54.437-54.873,71.106-80.666c1.166-1.801,3.568-2.317,5.367-1.153
									c1.8,1.164,2.317,3.567,1.153,5.367c-17.03,26.351-43.439,56.327-72.455,82.241
									C3395.468,2218.281,3395.019,2218.539,3394.546,2218.702z"/><path fill="#c98989" d="M3286.979,2286.843c-10.068,3.47-19.71,5.806-28.881,6.99
									c-39.066,5.046-65.631-7.431-81.038-18.784c-16.765-12.355-24.177-25.856-24.484-26.425c-1.02-1.886-0.317-4.241,1.569-5.26
									c1.882-1.022,4.236-0.319,5.257,1.563c0.068,0.126,7.069,12.767,22.561,24.09c20.695,15.124,45.977,20.884,75.142,17.118
									c20.573-2.657,43.836-11.516,69.141-26.328c1.85-1.09,4.228-0.461,5.311,1.389s0.461,4.228-1.389,5.311
									C3315.08,2275.338,3300.638,2282.135,3286.979,2286.843z"/><g><path fill="#f6af9a" d="M3104.825,2354.144c-4.09,123.322-0.587,523.445-20.17,740.423
								c-1.932,20.199-3.81,37.126-7.021,56.209c-18.941,160.426-306.267,193.999-289.421-24.231
								c21.785-199.208,170.248-711.217,188.354-809.484c27.918-75.556,39.317-81.465,69.84-76.993
								C3083.95,2245.579,3107.269,2274.639,3104.825,2354.144z"/><path fill="#eda48e" d="M3088.969,3040.384c-1.914,28.055-4.253,57.818-7.644,84.965
								c0.301,181.267-306.222,232.116-293.217,1.767c1.126-6.602,9.014-53.687,21.423-125.107
								c21.996-10.139,53.091,0.416,53.091,0.416s19.447-4.264,36.087-3.848c16.639,0.469,52.05,11.076,90.841,30.159
								C3019.76,3043.608,3068.691,3041.892,3088.969,3040.384z"/><path fill="#e08c79" d="M2872.47,2088.694c-1.274,10.084-4.973,57.473,20.078,87.841
								c31.789,38.537,93.252,44.245,101.2,30.343c8.193-14.331-35.882-58.5-58.884-76.351
								C2911.47,2112.372,2888.091,2095.269,2872.47,2088.694z"/><path fill="#f6af9a" d="M3110.133,2296.55c0,0-2.221,38.673-5.133,49.541c-23.867,22.516-71.98,26.792-97.407,4.901
								c0,0-46.955-44.823-77.269-54.339c-30.315-9.463-39.727-35.774-56.99-51.269c-17.055-15.34-43.47-133.896-43.47-133.896
								c0.624,0.519,1.144,0.884,1.767,1.352c-5.719-28.183-10.815-56.47-15.652-84.757c-1.3-7.488-2.548-14.976-3.796-22.464
								c-0.675-4.212,3.484-7.539,7.384-5.927c4.16,1.663,8.788,3.9,12.948,6.603c10.347,6.708,11.647,13.936,11.647,13.936
								s1.715,8.475,4.419,20.851c0.365,0.364,0.781,0.623,1.196,1.04c4.681,4.472,12.064,16.691,19.603,29.951
								c7.488,13.26,15.08,27.507,20.124,35.982c0.312,3.588,40.039,68.066,49.242,79.87c17.679,3.952,40.87,6.916,53.194,8.735
								c21.371,3.172,58.602-28.963,115.748,67.234c0.364,0.676,0.78,1.3,1.04,1.924
								C3112.785,2274.295,3112.42,2285.267,3110.133,2296.55z"/><path fill="#eda48e" d="M3110.133,2296.55c-60.785-2.807-172.738-83.925-184.906-93.232
								c-12.844-9.88-73.473-114.5-109.248-175.234c-1.3-7.488-2.548-14.976-3.796-22.464c-0.675-4.212,3.484-7.539,7.384-5.927
								c4.16,1.663,8.788,3.9,12.948,6.603c10.347,6.708,11.647,13.936,11.647,13.936s1.715,8.475,4.419,20.851
								c0.365,0.364,0.781,0.623,1.196,1.04c4.681,4.472,12.064,16.691,19.603,29.951c7.488,13.26,15.08,27.507,20.124,35.982
								c0.312,3.588,40.039,68.066,49.242,79.87c17.679,3.952,40.87,6.916,53.194,8.735c21.371,3.172,58.602-28.963,115.748,67.234
								c0.364,0.676,0.78,1.3,1.04,1.924C3112.785,2274.295,3112.42,2285.267,3110.133,2296.55z"/><path fill="#e08c79" d="M2879.132,2190.645c-8.273-21.526-38.348-117.827-48.621-147.307
								c3.188,16.464,7.33,44.454,20.316,81.2C2861.903,2155.878,2872.664,2183.154,2879.132,2190.645z"/><path fill="#e08c79" d="M2843.054,2166.412c-16.783-47.215-26.003-96.855-28.519-146.736
								c6.239,24.291,9.008,49.172,14.185,73.338C2833.783,2117.379,2838.98,2141.719,2843.054,2166.412L2843.054,2166.412z"/></g><g><path fill="#803838" d="M2668.088,1793.67c5.99,8.131,20.714,29.49,27.715,37.882
							c17.49,20.964,26.929,24.736,43.803,39.907c-7.16-17.796-15.229-36.347-24.334-55.484
							c-7.06-14.837-14.232-28.952-21.416-42.343C2685.257,1779.958,2676.686,1787.343,2668.088,1793.67z"/><path fill="#f6af9a" d="M2806.134,1402.756c0,0-204.508,137.347-127.664,345.966
								c76.844,208.619,300.312,536.717,456.273,484.163c157.054-52.921,225.102-233.095,229.244-392.795
								c4.358-168.067-60.675-340.708-175.64-432.461C3087.692,1327.297,2967.408,1295.619,2806.134,1402.756z"/><path fill="#8c4949" d="M3165.107,1725.354c0,0,21.841,80.04,46.623,121.521
										c24.782,41.481,79.463,92.431,90.505,169.299c11.042,76.868-32.868,171.765-187.561,231.712
										c-59.962,22.835-160.458-58.637-202.039-119.144c0,0,12.578-28.473,30.436-47.211
										c23.951-25.134,30.858-41.128,125.879-63.26c50.421-11.744,127.855-31.505,134.298-67.827
										c6.443-36.322-96.229-227.173-109.47-281.509C3080.536,1614.599,3155.275,1699.838,3165.107,1725.354z"/><path fill="#f6af9a" d="M2966.338,2094.07c11.069-15.342,26.212-27.198,43.203-35.517
										c48.044-25.219,96.552-28.374,105.15-24.852c8.599,3.522,7.785,47.307-13.401,68.58
										c-22.939,19.345-30.468,5.187-35.269,1.175c-4.8-4.012-20.744,6.161-19.792,12.33c0.951,6.168,4.968,17.9-5.448,21.88
										c-24.103,9.208-70.252,10.265-82.643-10.476C2952.562,2117.857,2958.319,2105.186,2966.338,2094.07z"/><path fill="#e08c79" d="M3093.164,2046.814c-1.712-0.985-3.842-1.252-5.802-0.695
										c-0.29,0.081-1.521,0.425-3.567,1.08c-11.627,3.725-52.928,18.652-96.148,54.298c-1.581,1.305-2.546,3.179-2.649,5.14
										c-0.099,1.888,0.581,3.674,1.913,5.027c1.836,1.868,4.533,2.519,7.034,1.917c1.125-0.271,2.211-0.795,3.16-1.577
										c47.498-39.175,93.448-52.24,93.917-52.371c3.916-1.093,6.308-4.99,5.334-8.688
										C3095.898,2049.203,3094.764,2047.735,3093.164,2046.814z"/><path fill="#eda48e" d="M3033.177,2122.659c-1.164,0.375-1.889,0.587-2.065,0.638
										c-2.628,0.758-5.352-0.701-6.086-3.26c-0.734-2.558,0.816-5.206,3.429-6.004c0.393-0.11,29.364-8.657,44.431-24.764
										c1.855-1.986,4.982-2.146,6.981-0.362c1.999,1.784,2.115,4.838,0.259,6.822
										C3065.438,2111.429,3040.538,2120.291,3033.177,2122.659z"/><path fill="#192b4f" d="M3034.209,1833.604c9.387,17.825,7.198,37.276-4.889,43.446
										c-12.087,6.17-29.495-3.278-38.882-21.102c-9.387-17.825-7.198-37.276,4.889-43.447
										C3007.414,1806.332,3024.822,1815.779,3034.209,1833.604z"/><ellipse cx="2847.611" cy="1926.712" fill="#192b4f" rx="24.786" ry="36.802" transform="rotate(-28.382 2847.38 1926.785)"/><path fill="#eda48e" d="M3010.277,1953.218c0,0-1.376-27.051,54.025-53.951
										c45.036-21.868,82.003-32.465,95.801-5.34C3181.492,1927.364,3015.172,2019.06,3010.277,1953.218z"/><path fill="#eda48e" d="M2922.129,2015.443c-13.799-27.125-50.765-16.528-95.801,5.341
										c-0.285,0.138-0.688,0.352-1.113,0.581c14.337,20.237,29.169,39.848,44.353,58.451
										C2901.878,2058.489,2930.657,2028.775,2922.129,2015.443z"/><path fill="#e08c79" d="M2973.663,2034.305c-6.522,1.568-13.344,1.837-19.435-0.669
									c-9.051-3.723-14.402-12.268-15.907-25.398c-10.527-91.87-32.133-121.769-32.35-122.06c-2.502-3.357-1.75-8.11,1.703-10.617
									c3.453-2.506,8.28-1.872,10.833,1.45c0.982,1.279,24.186,32.444,35.29,129.353c0.839,7.327,3.067,11.786,6.621,13.253
									c8.138,3.357,24.608-5.746,31.312-10.681c3.449-2.539,8.326-1.901,10.891,1.433c2.564,3.333,1.854,8.094-1.59,10.642
									C2999.125,2022.421,2987.03,2031.091,2973.663,2034.305z"/><path fill="#8c4949" d="M2916.446,1775.949c0,0-13.954,3.475-11.706,10.588c2.249,7.113,9.218,16.813,14.52,17.239
										s63.613-23.49,85.559-30.013c21.946-6.523,59.32-14.452,60.201-17.44s-12.193-6.895-40.832-5.653
										C3001.29,1751.663,2944.595,1764.897,2916.446,1775.949z"/><path fill="#8c4949" d="M2763.258,1920.994c-1.684,2.816-3.716,4.49-8.212-3.715
											c-7.062-12.887,56.392-87.088,74.894-96.977c5.059-2.703,14.651,2.577,15.051,15.225
											C2844.896,1841.989,2788.521,1882.447,2763.258,1920.994z"/><path fill="#eda48e" d="M2980.102,1854.471c19.465-10.27,38.929-20.541,58.394-30.811
									c-10.605-21.832-36.881-27.457-51.776-16.797C2973.943,1816.006,2969.46,1837.188,2980.102,1854.471z"/><path fill="#eda48e" d="M2816.455,1939.901c19.465-10.27,38.929-20.541,58.394-30.811
									c-10.605-21.832-36.881-27.457-51.776-16.797C2810.296,1901.437,2805.812,1922.619,2816.455,1939.901z"/><path fill="#eda48e" d="M3028.042,1891.207c-7.704,1.852-16.184,0.867-23.85-3.091
									c-2.101-1.086-2.923-3.668-1.839-5.768c1.084-2.101,3.669-2.924,5.769-1.839c9.163,4.734,19.769,3.878,27.025-2.166
									c7.453-6.21,8.159-15.349,8.197-18.002c0.034-2.363,1.979-4.26,4.344-4.218c2.363,0.034,4.252,1.979,4.218,4.344
									c-0.052,3.574-1.02,15.906-11.276,24.452C3036.933,1888,3032.625,1890.105,3028.042,1891.207z"/><path fill="#eda48e" d="M2862.869,1972.321c-12.318,2.961-22.478-2.879-25.367-4.792
									c-1.972-1.304-2.512-3.961-1.206-5.933c1.305-1.975,3.965-2.51,5.933-1.206c1.575,1.042,9.884,6.115,19.486,3.384
									c9.087-2.582,15.772-10.86,17.034-21.093c0.289-2.348,2.429-4.012,4.772-3.725c2.347,0.289,4.014,2.425,3.725,4.772
									c-1.682,13.656-10.786,24.759-23.191,28.283C2863.657,1972.123,2863.261,1972.227,2862.869,1972.321z"/><path fill="#e08c79" d="M2817.852,1945.731c-2.6,0.625-5.392-0.559-6.698-3.033
										c-1.544-2.927-0.424-6.553,2.503-8.098l58.394-30.811c2.933-1.542,6.554-0.423,8.098,2.504
										c1.544,2.927,0.424,6.553-2.503,8.098l-58.394,30.811C2818.799,1945.441,2818.328,1945.616,2817.852,1945.731z"/><path fill="#e08c79" d="M2981.578,1860.559c-2.601,0.625-5.392-0.559-6.698-3.033
										c-1.545-2.927-0.424-6.553,2.504-8.098l58.393-30.81c2.933-1.542,6.554-0.424,8.098,2.504
										c1.545,2.927,0.424,6.553-2.504,8.098l-58.393,30.81C2982.524,1860.269,2982.054,1860.445,2981.578,1860.559z"/><g><path fill="#8c4949" d="M2891.342,1400.737c0,0,3.834-29.052-15.262-87.323
										c-19.096-58.272,13.165-127.318,70.616-125.142c57.451,2.176,123.585-46.103,162.068-13.28
										c38.483,32.823,9.46,139.752-36.079,196.822C3027.146,1428.884,2891.342,1400.737,2891.342,1400.737z"/><path fill="#804242" d="M3080.938,1360.672l-117.835-23.61c33.951-21.263,119.024-21.639,142.448-21.319
										C3098.582,1331.842,3090.213,1347.226,3080.938,1360.672z"/><path fill="#804242" d="M3106.03,1209.027c0,0-8.264-24.244-31.177-18.689
										c-22.912,5.555-30.483,43.946-26.542,67.679c3.94,23.733,15.67,41.474,14.986,60.109l10.809,1.276
										c0,0-2.216-8.355,7.087-30.018S3113.29,1244.618,3106.03,1209.027z"/><path fill="#8c4949" d="M3023.134,1541.445c0,0,26.01,55.034,43.675,84.602
									c17.665,29.568,39.638,74.162,95.749,98.665c56.111,24.503,50.525,31.252,87.675,72.996
									c37.15,41.744,126.336,120.499,132.473,129.386c6.136,8.888,20.471-48.54,3.242-125.467
									c-17.229-76.928-50.353-196.82-114.853-313.539c-64.499-116.719-256.451-199.568-360.17-137.886
									c0,0-124.263,36.556-198.673,136.834c-74.411,100.277-109.931,206.118-44.165,306.634l23.53-11.506
									c0,0-15.65-37.385-12.266-43.701c4.771-27.614,28.983-47.671,59.2-46.481c0,0,116.93-2.493,158.853-34.517
									C2897.404,1657.465,2992.409,1609.593,3023.134,1541.445z"/><path fill="#f6af9a" d="M3179.595,1817.523c0,0-48.269-98.128,5.202-113.876
									c53.471-15.747,74.191,63.377,81.759,115.383C3274.125,1871.036,3223.526,1905.308,3179.595,1817.523z"/><path fill="#e08c79" d="M3222.872,1758.933c-0.145,0.023-9.336,1.259-15.007,10.226
									c0.131-12.779,4.171-21.098,4.478-21.708c0.991-1.957,0.214-4.349-1.742-5.347c-1.958-1-4.357-0.222-5.358,1.736
									c-0.644,1.261-15.505,31.307,7.326,67.678c0.873,1.39,2.462,2.056,3.987,1.819c0.519-0.081,1.031-0.266,1.504-0.563
									c1.863-1.17,2.425-3.628,1.256-5.49c-3.405-5.423-5.864-10.671-7.623-15.664c0.012-0.209,0.021-0.42-0.001-0.636
									c-2.119-21.505,10.669-23.938,12.141-24.144c2.206-0.262,3.713-2.242,3.458-4.415
									C3227.035,1760.241,3225.056,1758.678,3222.872,1758.933z"/></g></g><g><path fill="#f6af9a" d="M3981.885,2085.238c0,0-165.774-65.682-241.033,198.257
							c-75.259,263.939-104.412,755.46-109.288,907.071c-4.876,151.61,176.4,184.198,249.014,49.943
							c72.614-134.255,187.843-690.939,213.328-825.846C4119.391,2279.756,4114.956,2121.624,3981.885,2085.238z"/><path fill="#d99c9c" d="M4113.47,2396.622c3.666-73.326,0.862-145.183-16.08-205.156
								c-20.328-71.962-61.011-126.813-135.294-146.562c0,0-166.783-40.386-239.98,145.727
								c-83.029,211.11-72.709,456.61-74.729,472.692c96.972,61.905,282.526,99.292,438.606,72.738
								C4106.247,2660.458,4109.66,2472.821,4113.47,2396.622z"/><path fill="#f6af9a" d="M3744.452,3330.119c0,0-556.906-15.059-730.581-60.768s-111.331-143.974,32.545-153.427
							c143.876-9.454,268.833-29.725,373.969-41.274c171.114-18.797,263.654-56.22,353.403-30.088
							C3910.084,3084.249,3945.865,3325.312,3744.452,3330.119z"/><path fill="#f6af9a" d="M3088.295,3112.84c0,0-70.549,0.872-107.118-22.221
									c-36.569-23.093-70.659-37.389-87.154-39.588c-16.495-2.199-36.29,0-36.29,0s-39.588-18.45-62.682-0.978
									c0,0-28.592-19.316-51.685-7.52c0,0-29.692-7.998-43.987,7.398c-14.296,15.395-69.399,60.482-77.587,80.277
									c-8.188,19.794-0.609,80.276,0,107.768c0.609,27.492,29.885,36.563,33.72,28.866c0,0,25.894,17.438,42.389,2.52
									c0,0,21.068,16.174,38.663-2.52c0,0,17.488,8.908,32.094,8.576c25.148-0.573,41.281-45.732,45.383-48.735
									s61.286,13.493,96.476,27.788c20.763,8.435,52.628,21.464,86.786,31.407c23.734,6.909,65.799,8.638,107.275,0.597
									C3159.732,3275.781,3088.295,3112.84,3088.295,3112.84z"/><path fill="#ea9a88" d="M2910.518,3254.471c4.674,1.899,9.924,4.034,15.622,6.311
									c44.312-0.001,55.655-34.099,55.655-34.099c-24.395-13.493-50.383-52.489-59.18-65.684
									c-8.798-13.196-21.994-34.09-42.888-35.19c-20.894-1.1-40.688,35.19-40.688,35.19s-14.253,47.243-24.997,65.684
									C2818.145,3223.68,2875.328,3240.175,2910.518,3254.471z"/><path fill="#e57e73" d="M2826.108,3081.309c-16.521,19.766-35.377,38.602-44.299,63.121
									c-14.562,41.003-26.986,82.731-44.891,122.527l-0.706-0.229c9.929-44.85,25.014-88.245,43.087-130.416
									c10.88-21.752,29.407-38.474,46.278-55.521L2826.108,3081.309z"/><path fill="#e57e73" d="M2768.929,3081.304c-15.57,19.418-33.069,38.594-41.047,62.439
									c-10.265,40.884-16.923,82.684-29.149,123.165l-0.73-0.135c4.412-44.387,11.906-88.773,26.754-130.936
									c10.618-21.071,27.28-38.346,43.633-55.044L2768.929,3081.304z"/><path fill="#e57e73" d="M2726.027,3073.293c-17.504,19.621-38.587,37.54-50.647,61.055
									c-9.341,43.61-10.527,88.693-19.498,132.523l-0.74-0.06c0.056-45.077,3.159-90.589,14.982-134.234
									c12.968-23.958,36.042-41.13,55.392-59.823L2726.027,3073.293z"/><path fill="#ea9a88" d="M3664.992,3033.375c15.9-3.003,32.747-2.005,48.348,2.877c3.966,1.229,8.091,2.262,12.079,3.729
						c8.115,2.87,14.486,9.028,19.024,16.258c2.241,3.713,4.074,7.75,4.8,12.522l-1.402,1.375
						c-8.498-1.475-15.329-4.148-22.645-7.455c-6.721-2.825-11.634-8.429-17.94-11.947c-13.212-7.398-27.233-12.452-42.265-15.395
						L3664.992,3033.375L3664.992,3033.375z"/></g></g><g><path fill="#222e56" d="M3150.09,3320.846H1450.833c-7.921,0-14.343-6.422-14.343-14.343v-65.256h1713.6
				c7.921,0,14.343,6.421,14.343,14.343v50.913C3164.433,3314.424,3158.011,3320.846,3150.09,3320.846z"/><path fill="#34427d" d="M2409.505,2623.959l218.522,617.289h-134.394l-224.686-634.7h115.925
						C2395.942,2606.548,2405.811,2613.523,2409.505,2623.959z"/><path fill="#293463" d="M2372.054,2606.548l224.686,634.7H1436.49l-212.348-599.848
						c-6.02-17.006,6.594-34.852,24.633-34.852H2372.054z"/><path fill="#27325e" d="M2568.955,3162.76c-607.38,77.655-1019.491-462.954-1085.683-556.212h-234.497
						c-18.04,0-30.653,17.846-24.633,34.852l212.349,599.848h1160.25L2568.955,3162.76z"/><polygon fill="#222e56" points="1825.425 2905.584 1813.127 3046.169 1970.946 3046.169"/><path fill="#202b52" d="M1962.797,3038.297c-50.518-27.949-97.616-58.706-141.055-90.6l-8.614,98.473h157.818
						L1962.797,3038.297z"/></g><path fill="#d3896e" d="M836.789,3320.846h3764.252v83.319c0,39.777-32.246,72.023-72.023,72.023H908.813
			c-39.778,0-72.024-32.246-72.024-72.023V3320.846z"/><g><path fill="#efefef" d="M2232.867,1887.985c0,0,159.315,74.944,115.896,144.423s-249.972,17.937-231.115-79.199
				C2136.504,1856.074,2232.867,1887.985,2232.867,1887.985z"/><path fill="#efefef" d="M2607.815,1985.809c0,0,111.493,31.149,90.948,80.948
				c-20.544,49.799-160.102,38.992-158.509-26.048C2541.847,1975.668,2607.815,1985.809,2607.815,1985.809z"/><path fill="#efefef" d="M2267.799,552.396c-326.718-346.859-743.356-63.804-743.356-63.804
				C746.408,14.684,655.536,796.124,655.536,796.124s-388.615,93.442-329.177,438.12
				c59.435,344.679,427.916,371.344,427.916,371.344c87.592,449.688,564.077,288.237,564.077,288.237
				c294.212,222.943,479.34-62.564,479.34-62.564c607.197,146.911,499.341-477.292,499.341-477.292
				C2428.839,1251.955,2594.517,899.254,2267.799,552.396z"/><path fill="#f2b366" d="M927.706,1080.688c20.216,45.247,57.004,106.617,117.453,142.036
					c23.859,13.979,55.412,25.911,93.937,26.408c39.179,0.507,85.567-10.813,138.451-43.832c1.489-0.929,2.808-2.022,3.989-3.219
					c15.963,14.912,35.704,28.973,59.793,39.529c-8.559,4.256-14.537,13.029-14.667,23.197l-0.166,12.921
					c-0.186,14.456,11.49,26.436,25.946,26.622l21.641,0.278c-7.712,110.767-28.553,178.659-38.548,205.79l-13.25-0.17
					c-14.456-0.186-26.436,11.489-26.622,25.945l-0.388,30.158c-0.059,4.555,1.064,8.861,3.077,12.633
					c-39.802,20.546-68.303,51.65-77.546,87.762l-2.74-0.035c-10.08-0.13-18.357,7.938-18.487,18.018
					c-0.13,10.08,7.938,18.358,18.018,18.487l391.939,5.039c10.08,0.13,18.358-7.938,18.487-18.018
					c0.13-10.08-7.937-18.358-18.018-18.487l-2.741-0.035c-8.311-36.337-36.002-68.164-75.263-89.727
					c2.109-3.719,3.342-7.995,3.401-12.55l0.388-30.158c0.186-14.456-11.49-26.436-25.946-26.621l-9.094-0.117
					c-9.293-27.379-28.382-95.784-33.244-206.713l22.46,0.289c14.456,0.186,26.436-11.49,26.622-25.946l0.166-12.921
					c0.109-8.505-3.905-16.13-10.157-21.023c24.054-9.279,46.057-22.886,65.119-39.821c1.005,0.995,2.118,1.91,3.343,2.719
					c52.01,34.363,98.102,46.873,137.278,47.377c38.53,0.497,70.371-10.62,94.584-23.984
					c61.339-33.851,99.693-94.256,121.067-138.969c25.515-53.379,40.159-112.579,39.169-158.36
					c-0.95-43.955-8.185-79.73-21.503-106.332c-16.117-32.193-38.231-45.148-53.945-50.345
					c-35.856-11.862-79.24,3.465-105.505,37.269c-26.138,33.64-58.121,29.442-64.614,28.172l41.488-127.439l6.82,0.088
					c12.097,0.156,22.029-9.525,22.185-21.622c0.156-12.097-9.525-22.029-21.621-22.185l-674.34-8.671
					c-12.097-0.156-22.029,9.525-22.185,21.622c-0.156,12.096,9.525,22.029,21.621,22.185l6.759,0.087
					c7.835,26.595,21.968,74.565,37.874,128.506c-7.089,1.14-38.67,3.989-63.606-29.867c-25.387-34.47-68.364-50.908-104.513-39.97
					c-15.842,4.791-38.282,17.173-55.221,48.941c-13.997,26.251-22.149,61.827-24.228,105.743
					C890.454,967.115,903.57,1026.671,927.706,1080.688z M1601.525,1174.07c14.578-19.368,26.048-41.208,33.646-64.669
					l79.607-244.53l-14.801,20.928c2.626,0.735,73.717,17.486,120.818-43.137c12.736-16.391,36.457-29.404,57.152-22.555
					c27.459,9.083,44.009,51.375,45.407,116.029c1.624,75.137-49.939,209.647-137.604,258.027
					C1730.752,1224.513,1668.78,1217.733,1601.525,1174.07z M936.381,923.445c3.059-64.597,20.691-106.449,48.374-114.823
					c20.866-6.316,44.243,7.305,56.553,24.017c45.529,61.816,108.137,46.829,110.78,46.161l-3.409-13.486
					c34.207,115.973,72.672,246.176,74.183,250.392c0,0,8.365,24.646,29.608,53.575c-68.545,42.192-130.838,47.472-185.165,15.644
					C980.914,1134.307,932.825,998.516,936.381,923.445z"/><path fill="#ffcf87" d="M1123.234,695.29l557.39,7.167c5.595,0.072,10.188-4.405,10.26-10
					c0.072-5.595-4.405-10.188-10-10.26l-557.39-7.167c-5.595-0.072-10.189,4.405-10.261,10
					C1113.162,690.625,1117.639,695.218,1123.234,695.29z"/><path fill="#ffcf87" d="M1225.054,1688.054l345.866,4.447c5.595,0.072,10.188-4.407,10.26-10
					c0.072-5.594-4.405-10.188-10-10.26l-345.866-4.447c-5.595-0.072-10.188,4.406-10.26,10
					C1214.982,1683.387,1219.459,1687.982,1225.054,1688.054z"/><path fill="#ffcf87" d="M1236.38,1068.898c0.917,0.012,1.849-0.101,2.779-0.352c5.401-1.461,8.597-7.022,7.138-12.424
					l-89.347-330.669c-1.459-5.401-7.021-8.593-12.422-7.138c-5.401,1.461-8.597,7.023-7.138,12.424l89.345,330.67
					C1227.945,1065.881,1231.967,1068.842,1236.38,1068.898z"/><path fill="#ffcf87" d="M1347.612,1274.232l112.877,1.451c5.595,0.072,10.189-4.405,10.261-10
					c0.072-5.595-4.405-10.189-10-10.26l-112.877-1.451c-5.595-0.072-10.188,4.405-10.26,10
					C1337.54,1269.566,1342.017,1274.16,1347.612,1274.232z"/><path fill="#ffcf87" d="M909.924,925.575c5.528,0.071,10.105-4.312,10.254-9.857
					c1.375-50.888,14.349-86.262,38.563-105.138c26.947-21.009,59.671-14.021,59.999-13.949c5.436,1.215,10.867-2.197,12.104-7.639
					c1.236-5.442-2.142-10.854-7.579-12.11c-1.7-0.392-42.031-9.311-76.709,17.507c-29.391,22.734-45.08,63.371-46.631,120.782
					c-0.151,5.594,4.261,10.249,9.854,10.401C909.826,925.573,909.876,925.574,909.924,925.575z"/><polygon fill="#eda855" points="1763.076 716.516 1102.315 708.02 1111.01 737.533 1742.811 781.415"/><polygon fill="#eda855" points="1467.504 1305.829 1374.08 1304.628 1371.234 1350.763 1473.103 1378.073 1467.785 1308.583"/><path fill="#eda855" d="M1531.999,1581.988l-228.832-2.942l-22.194,10.051l290.991,22.246
					C1571.963,1611.343,1546.561,1589.401,1531.999,1581.988z"/><polygon fill="#eda855" points="1601.525 1174.07 1571.714 1206.407 1605.86 1226.411 1636.202 1193.029"/><path fill="#eda855" d="M1281.534,1202.081l-29.064-32.801l-36.007,19.007l17.874,40.005
					C1234.337,1228.292,1272.325,1209.786,1281.534,1202.081z"/><path fill="#eda855" d="M1708.651,886.634l12.937-42.679c0,0,16.527,2.531,28.151-0.938l3.898,42.444
					C1753.637,885.461,1720.886,891.857,1708.651,886.634z"/><path fill="#eda855" d="M1154.397,879.507l-14.208-42.981c0,0-17.891,0.088-22.105-1.045l-0.571,44.402
					C1117.513,879.884,1137.013,880.731,1154.397,879.507z"/></g></svg>