<svg xmlns="http://www.w3.org/2000/svg" id="Layer_1" x="0" y="0" enable-background="new 0 0 800 600" version="1.1" viewBox="0 0 800 600" xml:space="preserve"><path fill="#62a6e5" d="M638.63,423.17H163.8c-15.15,0-27.43-12.28-27.43-27.43V102.43c0-15.15,12.28-27.43,27.43-27.43h474.83
		c15.15,0,27.43,12.28,27.43,27.43v293.32C666.05,410.89,653.77,423.17,638.63,423.17z"/><path fill="#5299ce" d="M465.23,398.69c-1.95-6.01,1.94-15.05-1.71-20.06c-2.71-3.72-8.74-4.2-13.75-5.67v50.2h22.67
		c1.79-2.28,3.19-4.65,3.19-7.25C475.64,409.49,467.11,404.49,465.23,398.69z"/><path fill="#e8e8ea" d="M601.47,380.83H200.95c-12.26,0-22.24-9.98-22.24-22.24V139.58c0-12.26,9.98-22.24,22.24-22.24h400.52
		c12.26,0,22.24,9.98,22.24,22.24v219.01C623.71,370.85,613.74,380.83,601.47,380.83z M205.37,131.33
		c-6.92,0-12.55,5.63-12.55,12.55v210.41c0,6.92,5.63,12.55,12.55,12.55h391.68c6.92,0,12.55-5.63,12.55-12.55V143.88
		c0-6.92-5.63-12.55-12.55-12.55H205.37z"/><path fill="#d1d1d1" d="M444.97,370.82c-1.35-0.98-2.48-2.4-3.54-3.98H383c-1.06,1.58-2.2,3-3.54,3.98
		c-5.05,3.68-14.88,2.76-18.56,7.81c-0.49,0.67-0.83,1.41-1.08,2.2H464.6c-0.25-0.79-0.59-1.54-1.08-2.2
		C459.85,373.58,450.02,374.5,444.97,370.82z"/><path fill="#5299ce" d="M665.88,229.42c-0.36,0.94-1.11,1.69-2.05,2.05l-23.43,8.98c-3.05,1.17-3.05,5.48,0,6.65l23.43,8.98
		c0.94,0.36,1.69,1.11,2.05,2.05l0.17,0.44v-29.59L665.88,229.42z"/><path fill="#5299ce" d="M246.26,118.98c-1.22-5.59-8.75-8.31-14.58-5.54c0.36,0.76,0.65,1.56,0.83,2.39
		c3.29,15-1.08,29.88-3.45,44.67c-1.23,7.65-10.75,11.83-17.55,9.96c-6.89-1.89-10.19-7.9-10.21-14.38
		c-0.78,0.14-1.58,0.23-2.39,0.23c-6.18,0-12.36,0.01-18.54,0.1c-2.64,3.08-6.53,5.07-10.78,5.07c-3.12,0-6.04-1.08-8.42-2.86
		c-2.02,4.76-6.57,8.32-11.85,8.83c0.01,0.44,0.02,0.89,0.03,1.33c0.16,4.72-2.39,8.97-6.1,11.58c-0.39,4.32-2.84,8.13-6.3,10.51
		c1.29,2.14,2.06,4.61,2.06,7.24c0,2.98-0.98,5.77-2.63,8.1v24c0.02-0.01,0.04-0.02,0.07-0.03c3.48,3.62,7.07,7.14,10.83,10.48
		c1.9,1.76,3.86,3.45,5.86,5.1c-0.03-27,7.87-52.34,18.21-67.7c10.35,15.35,18.24,40.7,18.24,67.7c1.45-1.21,2.86-2.41,4.24-3.66
		c4.31-3.79,8.45-7.79,12.42-11.93c6.59,3.03,13.42,6.69,20.56,11.11c-4.21-28.04-12.9-49.11-24.18-63.91
		c-1.54-1.99-3.12-3.87-4.76-5.65c10.94,6.22,21.14,13.29,30,20.91c5.64,4.85,13.75,1.67,15.68-6.2
		C249.4,162.22,250.8,139.27,246.26,118.98z"/><path fill="#d1d1d1" d="M232.56,131.33h15.7c-0.44-4.21-1.1-8.33-2-12.35c-0.13-0.58-0.34-1.13-0.6-1.65h-13.11V131.33z"/><path fill="#d1d1d1" d="M178.71,159.31v32.36c6.5,14.82,10.88,34,10.88,54.1c1.1-0.92,2.17-1.85,3.23-2.78v-83.68H178.71z"/><path fill="#fec200" d="M692.54,246.08l23.43-8.98c3.05-1.17,3.05-5.48,0-6.65l-23.43-8.98c-0.94-0.36-1.69-1.11-2.05-2.05
		l-8.98-23.43c-1.17-3.05-5.48-3.05-6.65,0l-8.98,23.43c-0.36,0.94-1.11,1.69-2.05,2.05l-23.43,8.98c-3.05,1.17-3.05,5.48,0,6.65
		l23.43,8.98c0.94,0.36,1.69,1.11,2.05,2.05l8.98,23.43c1.17,3.05,5.48,3.05,6.65,0l8.98-23.43
		C690.85,247.19,691.6,246.44,692.54,246.08z"/><path fill="#eb5463" d="M214.81,229.29c-7.14-4.41-13.97-8.07-20.56-11.11c-3.97,4.14-8.11,8.14-12.42,11.93
			c-1.38,1.24-2.79,2.45-4.24,3.66c0-27.01-7.9-52.36-18.25-67.71l-2.62-3.07l-0.66-4.35l2.76-8.76l16.73-1.31l10.28,11.11
			c1.66,1.79,3.24,3.69,4.79,5.69C201.91,180.18,210.6,201.25,214.81,229.29z"/><path fill="#eb5463" d="M167.9,155.69l-4.9,5.48c-12.07,14.45-21.9,42.49-21.87,72.6c-2-1.66-3.97-3.35-5.86-5.1
			c-3.76-3.35-7.35-6.86-10.83-10.48c-6.55,3.03-13.42,6.69-20.56,11.11c4.41-29.45,13.8-51.22,25.97-66.08
			c0.97-1.21,2-2.38,3.04-3.52l2.31-7.69l8.59-1.1L167.9,155.69z"/><path fill="#eb5463" d="M231.56,174.44c-1.93,7.86-10.04,11.05-15.68,6.2c-11.25-9.67-24.63-18.48-38.98-25.74v-26.77
			c0-0.28-0.03-0.6-0.13-0.85c-0.07-0.28-0.17-0.57-0.3-0.85c14.95-9.28,29.7-17.49,42.55-24.64c5.91-3.33,13.98-0.6,15.25,5.21
			C238.8,127.27,237.4,150.22,231.56,174.44z"/><path fill="#eb5463" d="M142.22,126.42c-0.13,0.28-0.23,0.57-0.3,0.85c-0.07,0.25-0.1,0.57-0.1,0.85v26.73
			c-14.32,7.29-27.76,16.11-39.01,25.78c-5.61,4.85-13.72,1.66-15.68-6.2c-5.81-24.22-7.24-47.16-2.7-67.45
			c1.27-5.81,9.34-8.53,15.25-5.21C112.52,108.93,127.3,117.14,142.22,126.42z"/><path fill="#c93a4c" d="M149.89,144.03c2.28-6.65-65.9-1.53-55.87,30.66c0,0,0.25,4.52,9.36-2.89c9.11-7.41,37.76-23.12,43.53-23.31
			C152.68,148.31,149.89,144.03,149.89,144.03z"/><path fill="#c93a4c" d="M168.83,144.03c-2.28-6.65,65.9-1.53,55.87,30.66c0,0-0.25,4.52-9.36-2.89
			c-9.11-7.41-37.76-23.12-43.53-23.31C166.03,148.31,168.83,144.03,168.83,144.03z"/><path fill="#eb5463" d="M176.9,128.13v27.45c0,0.59-0.14,1.1-0.41,1.62c-0.66,1.66-2.48,2.83-4.59,2.83h-25.07
			c-2.14,0-3.97-1.17-4.62-2.83c-0.28-0.52-0.38-1.03-0.38-1.62v-27.45c0-0.28,0.03-0.62,0.1-0.86c0.07-0.28,0.17-0.55,0.31-0.83
			c0.72-1.62,2.48-2.79,4.59-2.79h25.07c2.07,0,3.86,1.17,4.55,2.79c0.14,0.28,0.24,0.55,0.31,0.83
			C176.87,127.51,176.9,127.85,176.9,128.13z"/><polygon fill="#ee445f" points="429.27 525 439.17 500.01 464.16 509.91 430.21 431.4 395.31 446.49"/><polygon fill="#ee445f" points="373.16 525 363.26 500.01 338.26 509.91 372.22 431.4 407.11 446.49"/><path fill="#ff9c00" d="M464.64,404.91c0,6.43-8.52,11.43-10.41,17.23c-1.95,6.01,1.94,15.05-1.71,20.06
		c-3.68,5.05-13.5,4.13-18.56,7.81c-5,3.64-7.14,13.29-13.15,15.24c-5.8,1.88-13.18-4.6-19.6-4.6c-6.43,0-13.81,6.49-19.6,4.6
		c-6.01-1.95-8.15-11.6-13.15-15.24c-5.05-3.68-14.88-2.76-18.56-7.81c-3.64-5,0.25-14.05-1.71-20.06
		c-1.88-5.8-10.41-10.8-10.41-17.23c0-6.43,8.52-11.43,10.41-17.23c1.95-6.01-1.94-15.05,1.71-20.06c3.68-5.05,13.5-4.13,18.56-7.81
		c5-3.64,7.14-13.29,13.15-15.24c5.8-1.88,13.18,4.6,19.6,4.6c6.43,0,13.81-6.49,19.6-4.6c6.01,1.95,8.15,11.6,13.15,15.24
		c5.05,3.68,14.88,2.76,18.56,7.81c3.64,5-0.25,14.05,1.71,20.06C456.11,393.49,464.64,398.49,464.64,404.91z"/><circle cx="401.21" cy="404.91" r="38.07" fill="#fec200"/><path fill="#5299ce" d="M479.08,187.92H323.35c-6.35,0-11.5-5.15-11.5-11.5v0c0-6.35,5.15-11.5,11.5-11.5h155.72
		c6.35,0,11.5,5.15,11.5,11.5v0C490.57,182.77,485.43,187.92,479.08,187.92z"/><path fill="#5299ce" d="M249.38,243.28h303.67c2.76,0,5-2.24,5-5s-2.24-5-5-5H249.38c-2.76,0-5,2.24-5,5S246.61,243.28,249.38,243.28
		z"/><path fill="#5299ce" d="M553.05,276.53H249.38c-2.76,0-5,2.24-5,5s2.24,5,5,5h303.67c2.76,0,5-2.24,5-5S555.81,276.53,553.05,276.53z
		"/><path fill="#5299ce" d="M450.84,319.78H249.38c-2.76,0-5,2.24-5,5s2.24,5,5,5h201.46c2.76,0,5-2.24,5-5S453.6,319.78,450.84,319.78z"/></svg>