<svg xmlns="http://www.w3.org/2000/svg" enable-background="new 0 0 2950 2950" viewBox="0 0 2950 2950"><path fill="#328bed" d="M2936.12,2484.73c7.09,21.32,11.55,38.19,13.31,50.63c1.77,12.44-0.6,21.77-7.11,27.99
			c-6.52,6.22-18.06,10.06-34.64,11.55c-16.59,1.47-39.38,2.22-68.4,2.22c-30.2,0-53.74-0.45-70.63-1.32
			c-16.87-0.89-29.76-2.66-38.64-5.34c-8.88-2.66-15.1-6.35-18.64-11.1c-3.56-4.73-6.54-10.95-8.88-18.66l-77.3-230.94h-431.7
			l-72.85,224.72c-2.36,8.31-5.47,15.27-9.33,20.87c-3.85,5.64-10.07,10.09-18.66,13.33c-8.58,3.24-20.73,5.47-36.41,6.67
			c-15.7,1.17-36.29,1.77-61.75,1.77c-27.24,0-48.56-0.88-63.95-2.66c-15.42-1.77-26.07-6.07-31.99-12.89
			c-5.92-6.8-7.99-16.42-6.22-28.86c1.79-12.44,6.22-29.01,13.33-49.74l354.42-1019.78c3.56-10.06,7.69-18.19,12.44-24.41
			c4.73-6.22,12.29-10.95,22.66-14.23c10.35-3.24,24.71-5.33,43.07-6.22c18.36-0.88,42.64-1.32,72.85-1.32
			c34.93,0,62.75,0.45,83.5,1.32c20.73,0.89,36.87,2.98,48.42,6.22c11.55,3.28,19.83,8.16,24.88,14.66
			c5.01,6.54,9.31,15.42,12.87,26.67L2936.12,2484.73z M2408.46,1641.74h-0.89L2245,2130.31h326.02L2408.46,1641.74z"/><path fill="#8cc7f4" d="M2919.14,2484.73c7.09,21.32,11.55,38.19,13.31,50.63c1.77,12.44-0.6,21.77-7.11,27.99
			c-6.52,6.22-18.06,10.06-34.64,11.55c-16.59,1.47-39.38,2.22-68.4,2.22c-30.2,0-53.74-0.45-70.63-1.32
			c-16.87-0.89-29.76-2.66-38.64-5.34c-8.88-2.66-15.1-6.35-18.64-11.1c-3.56-4.73-6.54-10.95-8.88-18.66l-77.3-230.94h-431.7
			l-72.85,224.72c-2.36,8.31-5.47,15.27-9.33,20.87c-3.85,5.64-10.07,10.09-18.66,13.33c-8.58,3.24-20.73,5.47-36.4,6.67
			c-15.7,1.17-36.29,1.77-61.75,1.77c-27.24,0-48.56-0.88-63.95-2.66c-15.42-1.77-26.07-6.07-31.99-12.89
			c-5.92-6.8-7.99-16.42-6.22-28.86c1.79-12.44,6.22-29.01,13.33-49.74l354.42-1019.78c3.56-10.06,7.69-18.19,12.44-24.41
			c4.73-6.22,12.29-10.95,22.66-14.23c10.35-3.24,24.71-5.33,43.07-6.22c18.36-0.88,42.64-1.32,72.85-1.32
			c34.93,0,62.75,0.45,83.5,1.32c20.73,0.89,36.87,2.98,48.42,6.22c11.55,3.28,19.83,8.16,24.88,14.66
			c5.01,6.54,9.31,15.42,12.87,26.67L2919.14,2484.73z M2391.49,1641.74h-0.89l-162.56,488.57h326.02L2391.49,1641.74z"/><path fill="#328bed" d="M1278.95,2473.17c0,22.47-1.08,40.57-3.28,54.3c-2.18,13.72-5.14,24.36-8.89,31.83
				c-3.75,7.5-7.81,12.32-12.17,14.52c-4.38,2.18-9.05,3.28-14.03,3.28c-20.61,0-47.61-5.63-80.99-16.86
				c-33.38-11.25-69.44-27.32-108.12-48.22c-38.72-20.92-78.19-46.49-118.44-76.76c-40.25-30.28-77.56-65.08-111.87-104.39
				c-28.73,13.09-63.53,24.49-104.39,34.17c-40.9,9.66-86.29,14.5-136.22,14.5c-94.26,0-176.47-12.03-246.69-36.03
				c-70.22-24.02-128.72-61.33-175.53-111.89S76.41,2116.65,53,2038.31c-23.39-78.31-35.11-171.47-35.11-279.45
				c0-97.97,12.48-186.15,37.45-264.47s62.1-144.8,111.41-199.42c49.3-54.6,110.32-96.58,183.03-125.92
				c72.69-29.32,157.12-44,253.25-44c90.49,0,170.53,12.17,240.14,36.5c69.57,24.36,128.25,61.64,176,111.89
				c47.75,50.24,83.94,113.75,108.59,190.51c24.65,76.78,36.99,167.58,36.99,272.44c0,54.3-3.61,105.33-10.77,153.08
				c-7.18,47.73-17.64,91.91-31.36,132.47c-13.74,40.57-30.6,77.7-50.56,111.39c-19.98,33.72-42.76,63.35-68.34,88.94
				c38.68,33.7,73.03,59.31,102.98,76.78c29.97,17.47,55.07,30.58,75.36,39.31c20.27,8.75,36.52,15.15,48.69,19.19
				c12.17,4.06,21.67,9.36,28.56,15.92c6.85,6.55,11.83,17.78,14.97,33.7C1277.4,2423.09,1278.95,2445.09,1278.95,2473.17z
				 M906.36,1749.5c0-63.04-5-120.44-14.99-172.25c-9.99-51.81-27-96.28-51.03-133.41c-24.02-37.13-56.01-65.84-95.95-86.14
				c-39.96-20.27-89.89-30.42-149.8-30.42c-60.54,0-111.1,11.23-151.67,33.7c-40.57,22.47-73.34,52.75-98.28,90.81
				c-24.98,38.09-42.61,82.55-52.91,133.41c-10.28,50.87-15.45,104.39-15.45,160.56c0,66.79,4.98,126.7,14.99,179.75
				c9.97,53.07,26.83,98.3,50.56,135.75c23.71,37.45,55.54,66,95.48,85.67s90.18,29.5,150.72,29.5s111.1-11.25,151.67-33.72
				c40.57-22.47,73.34-53.03,98.3-91.75c24.96-38.68,42.61-83.94,52.89-135.75C901.2,1863.41,906.36,1808.18,906.36,1749.5z"/><path fill="#8cc7f4" d="M1261.06,2473.17c0,22.47-1.08,40.57-3.28,54.3c-2.18,13.72-5.14,24.36-8.89,31.83
				c-3.75,7.5-7.81,12.32-12.17,14.52c-4.38,2.18-9.05,3.28-14.03,3.28c-20.61,0-47.61-5.63-80.99-16.86
				c-33.38-11.25-69.44-27.32-108.12-48.22c-38.72-20.92-78.19-46.49-118.44-76.76c-40.25-30.28-77.56-65.08-111.87-104.39
				c-28.73,13.09-63.53,24.49-104.39,34.17c-40.9,9.66-86.29,14.5-136.22,14.5c-94.26,0-176.47-12.03-246.69-36.03
				c-70.22-24.02-128.72-61.33-175.53-111.89s-81.92-114.99-105.33-193.33C11.72,1960,0,1866.84,0,1758.86
				c0-97.97,12.48-186.15,37.45-264.47s62.1-144.8,111.41-199.42c49.3-54.6,110.32-96.58,183.03-125.92
				c72.69-29.32,157.12-44,253.25-44c90.49,0,170.53,12.17,240.14,36.5c69.57,24.36,128.25,61.64,176,111.89
				c47.75,50.24,83.94,113.75,108.59,190.51c24.65,76.78,36.99,167.58,36.99,272.44c0,54.3-3.61,105.33-10.77,153.08
				c-7.18,47.73-17.64,91.91-31.36,132.47c-13.74,40.57-30.6,77.7-50.56,111.39c-19.98,33.72-42.76,63.35-68.34,88.94
				c38.68,33.7,73.03,59.31,102.98,76.78c29.97,17.47,55.07,30.58,75.36,39.31c20.27,8.75,36.52,15.15,48.69,19.19
				c12.17,4.06,21.67,9.36,28.56,15.92c6.85,6.55,11.83,17.78,14.97,33.7C1259.51,2423.09,1261.06,2445.09,1261.06,2473.17z
				 M888.47,1749.5c0-63.04-5-120.44-14.99-172.25c-9.99-51.81-27-96.28-51.03-133.41c-24.02-37.13-56.01-65.84-95.95-86.14
				c-39.96-20.27-89.89-30.42-149.8-30.42c-60.54,0-111.1,11.23-151.67,33.7c-40.57,22.47-73.34,52.75-98.28,90.81
				c-24.98,38.09-42.61,82.55-52.91,133.41c-10.28,50.87-15.45,104.39-15.45,160.56c0,66.79,4.98,126.7,14.99,179.75
				c9.97,53.07,26.83,98.3,50.56,135.75c23.71,37.45,55.54,66,95.48,85.67s90.18,29.5,150.72,29.5c60.54,0,111.1-11.25,151.67-33.72
				s73.34-53.03,98.3-91.75c24.96-38.68,42.61-83.94,52.89-135.75C883.31,1863.41,888.47,1808.18,888.47,1749.5z"/><path fill="#e53a49" d="M249.6,828.44c-14.81,0-25.21-3.27-31.19-9.81c-5.98-6.61-8.97-19.27-8.97-38.04
				c0-26.78,2.54-48.75,7.69-65.79c5.11-17.11,11.82-31.23,20.06-42.36c8.28-11.06,16.1-20.1,23.51-26.92
				c7.41-7.37,15.96-14.81,25.66-22.19c9.67-7.44,18.92-15.72,27.75-24.83s16.1-19.33,21.8-30.74c5.7-11.41,8.55-24.2,8.55-38.46
				c0-24.48-8.14-42.84-24.38-55.15c-16.24-12.24-37.45-18.36-63.67-18.36c-20.48,0-36.3,2.99-47.43,8.97
				c-11.09,5.98-19.51,13.01-25.21,20.93c-5.7,8-11.23,14.81-16.66,20.52c-5.42,5.7-12.97,8.55-22.64,8.55
				c-9.11,0-18.53-3.41-28.2-10.22c-9.7-6.89-14.54-17.11-14.54-30.81c0-13.63,5.98-28.31,17.94-44.02
				c11.96-15.65,29.63-29,53-40.13s52.41-16.69,87.18-16.69c35.89,0,67.08,6.4,93.58,19.27c26.5,12.8,46.84,30.05,61.1,51.68
				c14.22,21.7,21.35,46.18,21.35,73.51c0,21.63-4.14,41.45-12.38,59.4c-8.28,17.94-17.94,34.08-29.07,48.27
				c-11.09,14.26-22.36,26.22-33.73,35.89c-11.41,9.74-20.24,17.67-26.5,23.92c-13.67,10.85-23.51,21.98-29.49,33.38
				c-5.98,11.41-9.56,23.37-10.68,35.89c-1.15,12.52-1.7,27.05-1.7,43.54c0,7.44-2.89,14.4-8.55,21
				C278.08,825.17,266.68,828.44,249.6,828.44z M249.6,1006.21c-15.96,0-29.49-5.84-40.62-17.53
				c-11.09-11.68-16.66-25.25-16.66-40.62c0-15.93,5.7-29.63,17.11-41.03c11.37-11.34,24.76-17.04,40.16-17.04
				c16.52,0,30.32,5.7,41.45,17.04c11.09,11.41,16.66,25.11,16.66,41.03c0,15.37-5.56,28.93-16.66,40.62
				C279.93,1000.37,266.12,1006.21,249.6,1006.21z"/><path fill="#fff" d="M162.33,419.14c-1.22,0-2.42-0.53-3.26-1.55c-1.46-1.78-1.22-4.44,0.58-5.92
					c0.63-0.53,65.11-52.52,144.84-20.96c2.17,0.86,3.22,3.29,2.37,5.46c-0.84,2.14-3.29,3.19-5.46,2.37
					c-75.08-29.68-135.79,19.12-136.38,19.65C164.23,418.82,163.27,419.14,162.33,419.14z"/><path fill="#fff" d="M238.36,993.33c-0.43,0-0.87-0.07-1.3-0.2c-33.66-10.92-34.06-51.24-34.06-52.95
					c0-2.34,1.88-4.21,4.21-4.21l0,0c2.32,0,4.21,1.88,4.21,4.21c0,1.45,0.43,35.9,28.23,44.92c2.2,0.72,3.42,3.09,2.71,5.3
					C241.79,992.21,240.14,993.33,238.36,993.33z"/><path fill="#f4c99a" d="M596.24,735.34c20.34-6.21,59.45-2.63,92.25,3.75c26.08,7.57,43.38,17.04,53.98,27.7
				c3.91,1.23,6.37,2.15,6.37,2.15c0.57,0.88,21.36,3.13,52.33,5.69l-17.06,78.33c-23.9-7.1-39.7-11.31-39.7-11.31
				c-17.64,26.93-45.61,28.06-45.61,28.06s-47.62,9.38-57.03,14.18c-9.39,4.79-20.55-15.49,8.59-25.48
				c10.97-3.3,18.04-7.85,22.33-11.85l-1.26-11.67c-1.45-0.32-3.34-0.34-6.11,0.19c-15.61,1.92-95.56,2.74-116.09,2.83
				c-4.51-0.22-9.15-1.61-11.85-4.86c-4.16-3.57-5.52-9.56,14.22-14.76c27.35-6.96,63.74-6.63,75.09-6.45
				c-18.16-2.05-95.77-10.21-90.95-20.18c4.11-10.12,58.57-10.8,70.81-11.17c-8.14-1.02-33.87-3.2-44.88-6.74
				c-13.18-4.01-11.7-14.32,11.33-15.38c23.03-1.07,47.5-1.81,47.5-1.81S560.53,745.8,596.24,735.34z"/><path fill="#353434" d="M799.89,2078.47c-21.53,26.06-47.58,47.58-78.17,64.2c-38.51,21.53-85.72,32.48-142.36,33.61
				c-56.65-1.13-103.85-10.95-141.99-29.45c-40.03-19.64-71.76-47.96-95.54-85.73c-9.44-14.73-17.37-30.59-24.16-47.58
				c0-0.38,0-0.38,0-0.38c1.5-12.84,2.64-23.04,3.01-26.81c0.38-5.29,25.31-8.69,40.79-12.08h0.76
				c94.41-23.04,426.74-24.17,428.62,5.66C792.34,1995.77,796.5,2035.42,799.89,2078.47z"/><path fill="#ffbf00" d="M920.37,1041.38c-72.93,45.39-160.08,61.86-244.67,46.88c-0.38-0.07-0.76-0.13-1.14-0.2
							c-96.66-16.88-205.8-9.89-307.52,22.1c-82.66,25.99-145.22,94.16-169.25,177.41l133.02,104.51l-22.39,600.97
							c-1.6,18.1,488.41,4.19,487.66-0.66c-8.63-55.6,20.7-665.17,20.7-665.17l317.19-236.65c62.45-46.59,63.63-139.77,2.38-187.93
							L748.75,757.3l-8.3,94.94l252.06,144.24L920.37,1041.38z"/><path fill="#f4c99a" d="M603.29,1075.54c0.4-10.92,0.68-18.73,0.68-18.73s52.93-10.43,58-13.06c10.1-5.25,24.39-40.19,23.63-81.01
					c-0.76-40.82-6.06-81.99-8.39-98.98c-2.32-16.99-11.71-85.52-77.05-106.96c-65.34-21.44-147.05,15.99-165.23,80.77
					c-18.17,64.79-5.48,113.12,7.76,131.62c13.24,18.51,25.07,51.84,27.29,64.92c0.87,5.13,1.4,21.8,1.72,40.16
					c0.6,34.42,27.63,62.56,62,64.56h0C570.52,1140.97,601.92,1112.42,603.29,1075.54z"/><path fill="#323131" d="M473.72,910.83c5.43,6.9,12.92,23.17,12.92,23.17c9.34-12.39,17.75-90.85,6.84-110.74
					c5.23,13.65,116.01-15.15,144.56-25.04c5.94-2.05,14.13-0.17,18.2,5.95c4.4,6.61,16.38,39.26,19.11,47.74
					c0.42-12.6-0.86-24.71-1.5-37.24c-0.61-11.87,33.77-59.53,15.94-81.04c-25.9-31.27-163.78-4.47-180.31,0.18
					c-18.17,5.11-74.26,31.47-76.71,58.04c-20.11,12.36-33.73,26.27-28.39,66.02c2.57,19.15,5.98,38.37,9.22,57.48
					c3.22,18.98,10.95,34.64,18.65,52.16c6.58,14.97,14.41,29.3,21.46,44.02c1.24,2.6,11.2,24.14,16.17,22.02
					c0.84-0.36,5.31-20.3,6.37-25.4c1.68-8.1,0.76-16.09,0.21-24.17c-0.21-3.02,0.21-6.59-1.42-9.3c-2.54-4.23-7.81-3.18-11.95-3.94
					c-13.14-2.41-20.67-14.72-23.56-26.84c-3.11-13.09-3.73-30.65,10.4-37.61c7.34-3.62,17.14-2.5,22.92,3.55
					C473.15,910.14,473.44,910.48,473.72,910.83z"/><path fill="#f4c99a" d="M423.22,1754.76l-68.71,44.39l13.88,32.32c0,0,12.01,123.96,108.98,82.24
					c37.77-16.25,34.93-71.22-4.47-82.97c-0.55-0.17-1.11-0.33-1.67-0.49c-1.37-0.39-1.17-2.39,0.26-2.47l34.09-1.87
					c5.8-0.32,10.3-5.18,10.17-11l0,0c-0.12-5.32-4.13-9.76-9.42-10.43l-35.72-4.46c-7.99-1-15.27-5.08-20.3-11.37L423.22,1754.76z"/><path fill="#eaa306" d="M313.43,1480.74c0.37,0.78,131.97,273.72,132.31,274.43c-0.45,0.94-97.39,83.49-97.93,84.36l-1.1,0.95
						l-0.78-1.22l-183.79-286.99c-1.03,0.4,190.93,288.89,184.04,285.35c-0.28,0.72,100.13-87.42,97.18-82.26
						C443.36,1755.37,313.43,1480.74,313.43,1480.74L313.43,1480.74z"/><path fill="#ffbf00" d="M197.79,1287.57l-46.11,161.13c-10.58,34.53-6.8,71.86,10.46,103.57l184.86,286.31l97.38-83.69
						l-130.94-274.15l46.62-146.55L197.79,1287.57z"/><g><path fill="#f4c99a" d="M1894.44,1037.13l-9.1,68.66l-29.76,1.08c0,0-99.24,35.67-102.4-53.65c-1.23-34.79,41.86-52.51,65.13-26.61
					c0.32,0.36,0.65,0.73,0.98,1.11c0.79,0.91,2.25,0.03,1.8-1.09l-10.91-26.77c-1.85-4.56,0.24-9.76,4.73-11.77l0,0
					c4.13-1.83,8.97-0.37,11.4,3.44l16.34,25.73c3.66,5.75,9.41,9.85,16.05,11.41L1894.44,1037.13z"/><path fill="#353434" d="M2516.76,1097.85c-73.03,4.83-272.04-64.29-273.01-85.79c-0.95-21.5-32.23-77.51-31.89-93.13
			c0.33-15.64,18.77-57.33,26.03-103.43c2.37-15.13,6.67-29.81,11.36-42.71c0,0,0.02,0,0-0.02c9.39-25.77,20.39-44.43,20.9-45.29
			c0.02-0.02,0.02-0.03,0.02-0.03s0-0.03,0.02-0.11c0.14-0.9,1.24-7.96,3.3-19.02c7.51-40.11,27.78-132.81,61.39-175.08
			c43.28-54.44,183.44,39.59,183.44,39.61c0.09,1.24,28.51,79.16,28.51,154.59C2546.81,803.52,2589.81,1093.04,2516.76,1097.85z"/><path fill="#353434" d="M2516.76,1097.85c-73.03,4.83-272.04-64.29-273.01-85.79c-0.95-21.5-32.23-77.51-31.89-93.13
			c0.33-15.64,18.77-57.33,26.03-103.43c2.37-15.13,6.67-29.81,11.36-42.71c0,0,0.02,0,0-0.02c9.49-13,16.83-27.34,20.9-45.29
			c0.02-0.02,0.02-0.03,0.02-0.03s0-0.03,0.02-0.11c1.43-6.29,2.5-12.64,3.3-19.02c2.53-19.97,2.52-40.31,2.85-60.5
			c0.69-43.11,4.72-89.48,29.2-126.27c21.47-32.27,56.23-54.15,95.43-54.74c50.34-0.75,98.19,29.62,123.6,72.41
			c0.77,1.29,1.57,2.74,2.39,4.3c9.78,18.64,15.23,39.23,16.34,60.25c1.51,28.42,3.54,75.72,3.54,123.67
			C2546.81,803.52,2589.81,1093.04,2516.76,1097.85z"/><path fill="#e63a48" d="M2132.06,962.72c27.94,32.26,51.27,55.32,79.8,87.04c3.38-3.68,6.73-7.49,9.96-11.22
			c11.79-13.61,21.55-25.99,21.94-26.48l0.01-0.01c0,0,8.7,200.21,10.16,207.47c2.58,12.88,5.88,116.1,11.69,121.92
			c74.05,74.05,202.85,62.1,243.48-17.68c4.7-9.24-9.83-124.55-9.83-124.55s29.89-95.76,44.72-151.34
			c6.01-22.49,10.23-38.4,10.25-38.72c0.8,2.41,14.9,35.54,28.7,67.87l100.57-64.39l-0.15-0.58
			c-33.85-107.31-77.04-161.44-96.81-177.27c-13.99-11.19-106.5-46.03-209.6-38.28c-58,4.36-127.05,30.46-138.79,41.08
			C2208.78,864.16,2162.61,922.93,2132.06,962.72z"/><path fill="#f4c99a" d="M2398.94,846.55L2398.94,846.55c28.56,0.41,52.05-22.41,52.47-50.96c0.07-4.63,0.11-8.66,0.09-11.57
				c-0.06-10.37,0.28-20.76,1.12-31.11c0.51-6.35,1.2-12.69,2.12-19.01c0.74-5.09,1.58-10.18,2.52-15.25
				c0.64-3.41,1.32-6.8,2.06-10.18c0.51-2.36,2.08-11.44,2.08-11.44s-9.21,4.04-11.33,5.31c-31.15,18.67-63.68,35.07-97.23,48.98
				c-1.32,0.54-2.7,1.15-3.48,2.34c-0.74,1.13-0.77,2.57-0.77,3.93c-0.01,4.4-0.29,19.6-0.62,36.18
				C2347.38,822.46,2370.25,846.14,2398.94,846.55z"/><path fill="#f4c99a" d="M2299.96,708.48c6.24,15.25,14.9,29.1,29.07,38.03c12.58,7.91,27.73,11.78,42.55,11.13
				c16.41-0.71,32.18-6.43,46.14-15.22c6.95-4.38,13.46-9.52,19.35-15.19c10.3-9.91,18.96-21.39,26.42-33.53
				c12.11-19.77,21.89-42.31,26.74-65.58c0.57-2.68,1.06-5.38,1.49-8.08c3.77-23.78,2.18-48.07-7.46-70.73
				c-4.34-10.3-10.42-19.83-17.9-28.15c-31.51-35.1-85.71-41.16-124.23-13.9c-20.08,14.22-35.05,35.59-43.05,58.7
				c-2.54,7.33-4.72,14.86-6.5,22.49c-0.3,1.32-0.61,2.66-0.89,3.99C2283.46,630.87,2285.1,672.19,2299.96,708.48z"/><path fill="#353434" d="M2290.42,592.07c15.36,2.89,50.8-10.58,59.95-31.86c1.24-2.88,35.24,36.24,67.25,49.78
			c25.83,10.93,52.39,13.91,75.36,10.02c3.82-24.08,2.2-48.68-7.55-71.63c-4.39-10.43-10.55-20.08-18.13-28.5
			c-31.91-35.54-86.8-41.68-125.81-14.08c-20.33,14.4-35.5,36.04-43.59,59.45c-2.57,7.42-4.77,15.05-6.58,22.77
			C2291.01,589.37,2290.7,590.72,2290.42,592.07z"/><path fill="#f4c99a" d="M2446.84,684.11c12.92,9.03,30.73,10.6,44.96,3.78c12.02-5.75,21.03-17.31,23.95-30.28
					c0.52-2.35,0.85-4.74,0.97-7.19c0.2-4.25-0.27-8.56-1.72-12.56c-3.62-9.85-13.65-16.82-24.11-17.5
					c-10.49-0.68-21,4.63-27.29,13.04l-6.44,19.5L2446.84,684.11z"/><path fill="#f4c99a" d="M2623.38,1518.47c-1.81,2.89-3.88,5.61-5.99,8.29c-5.65,7.2-11.56,14.18-17.15,21.42
				c-2.42,3.13-4.8,6.36-6.18,10.07c-1.38,3.71-1.64,8,0.15,11.52c1.79,3.52,5.95,5.96,9.78,4.99c3.37-0.85,5.66-3.9,7.66-6.74
				c2.63-3.73,5.26-7.47,7.89-11.2c3.55-5.04,7.1-10.08,10.42-15.28c6.73-10.56,12.63-22.36,12.35-34.87
				c-0.09-3.97-4.68-17.44-10.14-10.25c-2.11,2.78-2.21,7.56-3.37,10.83C2627.41,1511.17,2625.59,1514.94,2623.38,1518.47z"/><path fill="#f4c99a" d="M2625.6,1527.45c-1.81,2.89-3.88,5.61-5.99,8.29c-5.65,7.2-11.56,14.18-17.15,21.42
				c-2.42,3.13-4.8,6.36-6.18,10.07c-1.38,3.71-1.64,8,0.15,11.52c1.79,3.52,5.95,5.96,9.78,4.99c3.37-0.85,5.66-3.9,7.66-6.74
				c2.63-3.73,5.26-7.47,7.89-11.2c3.55-5.04,7.1-10.08,10.42-15.28c6.73-10.56,12.63-22.36,12.35-34.87
				c-0.09-3.97-4.68-17.44-10.14-10.25c-2.11,2.78-2.21,7.56-3.37,10.83C2629.63,1520.15,2627.81,1523.93,2625.6,1527.45z"/><path fill="#e63a48" d="M2132.06,962.72l-38.99,43.65c-5.64,6.31-218.47,22.99-218.47,22.99l-9.21,79.19c0,0,248,17.61,274.99-3.33
			l71.48-55.45L2132.06,962.72z"/><path fill="#353434" d="M2417.63,609.99c0,0,69,20.77,43.77,153.31c-14.74,77.43,57.64-41.88,71.08-38.52s-15.72-164.89-15.72-164.89
			L2417.63,609.99z"/><path fill="#f4c99a" d="M2580.42,1498.94c0.26,13.5,15.13,10.01,20.74,1.98c0.52-0.76,0.99-1.53,1.4-2.34
			c0.15-0.29,0.3-0.59,0.43-0.89c0.7-1.51,1.24-3.09,1.68-4.7c0.87-3.26,1.35-6.64,1.98-9.87c0.6-3.04,1.29-6.1,2.61-8.91
			c0.27-0.6,0.55-1.25,0.87-1.91c0.45-0.96,0.98-1.95,1.68-2.74c0.23-0.26,0.48-0.49,0.76-0.7c0.27-0.21,0.56-0.37,0.88-0.51
			c0.17-0.07,0.34-0.12,0.51-0.17c0.18-0.07,0.36-0.1,0.54-0.12c0.87-0.1,1.79,0.01,2.71,0.29c0.33,0.11,0.67,0.22,1.02,0.37
			c0.51,0.22,1,0.48,1.5,0.76c0.33,0.18,0.63,0.37,0.93,0.58c0.76,0.51,1.42,1.07,1.95,1.61c1.39,1.39,2.36,3.06,3.09,4.87
			c0.44,1.09,0.77,2.21,1.03,3.38c0.54,2.27,0.78,4.66,0.98,6.98c0.51,6.08,0.63,12.09,1.02,18.14c0.04,0.74,0.07,1.47,0.1,2.2
			c0.25,6.38-0.23,12.47-2.16,18.46c-0.01,0-0.01,0.01-0.01,0.03c-0.38,1.17-0.8,2.31-1.29,3.46c-3.38,7.96-8.44,15.02-13.07,22.28
			c-4.21,6.64-10.06,15.16-9.95,23.52c0.01,1.43,0.19,2.86,0.6,4.26c0.62,2.23,2.35,3.6,4.37,4.14c2.06,0.55,4.43,0.23,6.23-0.98
			c1.95-1.33,3.33-3.35,4.69-5.31c8.55-12.56,17.35-24.97,24.04-38.63c6.32-12.92,14.35-45.74,17.07-59.76
			c2.79-14.57,11.45-74.71,17.92-125.37h-62.12c3.24,19.72,6.28,35.9,6.79,42.21c-5.44,5.8-11.22,13.92-20.27,30.48
			c-4.23,7.77-8.47,15.56-11.83,23.75c-5.29,12.86-5.31,27.05-8.18,40.57C2581.02,1493.18,2580.36,1496.04,2580.42,1498.94z"/><path fill="#f4c99a" d="M2626.72,1479.91c0.1-2.07,0.1-4.15-0.02-6.22c-0.22-3.7-0.88-7.48-2.95-10.54
				c-2.06-3.06-5.84-5.2-9.45-4.42c-3.03,0.65-5.34,3.17-6.84,5.88c-3.65,6.67-3.42,14.69-3.59,22.3
				c-0.08,3.91-0.34,7.88-1.32,11.68c2.46-4.74,3.07-10.28,4.09-15.47c0.6-3.04,1.3-6.09,2.61-8.9c1.11-2.37,2.21-5.73,5.23-6.13
				c2.79-0.36,6.24,1.72,8.1,3.59C2624.8,1473.91,2626.01,1476.82,2626.72,1479.91z"/><path fill="#e63a48" d="M2609.6,1149.31l-4.66,233.47l79.87,9.52l28.02-259.42c0.51-5.07,0.11-10.18-1.21-15.11l-28.11-105.14
			c-59.64-11.74-92.3,10.81-100.56,64.39c9.27,21.66,18.39,42.95,23.28,54.39C2608.65,1137.07,2609.8,1143.17,2609.6,1149.31z"/><path fill="#353434" d="M1891.68,1507.78c0,0-13.19,9.42-15.08,30.15c-2.86,31.5,31.34,90.46,31.34,90.46l119.42,16.96l53.67-16.96
				l42.44-43.34l-9.42-45.23l-20.73-28.27c0,0-43.34-20.73-50.88-22.61c-7.54-1.88-54.65-9.42-54.65-9.42l-22.61,1.88l-54.65,16.96
				L1891.68,1507.78z"/><path fill="#f4c99a" d="M2053.75,1575.62l301.1-110.51l-148.46-113.75c0,0-209.15,85.12-270.57,127.84
					c-57.34,39.88-57.37,112.49-45.78,195.37c22.94,164.05,40.96,418.45,40.98,425.14c0.02,8.86-10.62,45.41-14.67,56.44
					c-7.79,21.21-20.78,40.71-32.21,60.2c22.61,26.38,41.71,25.82,54.65,15.08c8.64-7.17,22.61-21.34,28.68-30.78
					c13.21-20.53,22.51-43.57,27.27-67.51c2.11-10.61,0.7-19.65,4.05-29.94c-1.7-7.88-1.96-13.07-1.23-18.79
					c49.63-388.53,43.16-400.48,24.82-446.42C2013.58,1615.89,2053.75,1575.62,2053.75,1575.62z"/><path fill="#353434" d="M1998,2097.22c10.25,3.13,17.48,12.76,20.54,23.02s2.62,21.22,1.97,31.91
					c-2.33,38.51-6.93,76.87-13.76,114.84l-11.53,0.54l-3.6-76.84c-6.5,15.2-13.1,30.44-19.61,45.64
					c-3.24,7.56-6.47,15.13-10.25,22.44c-1.48,2.86-3.08,6.42-5.82,8.34c-3.45,2.42-17.14,7.66-28.45,11.43
					c-14.57,4.86-28.27,9.42-54.65,7.54c-7.91-0.56-41.64-4.3-43.09-9.96c-2.32-9.03,2.11-15.85,9.06-20.77
					c3.63-2.56,7.18-5.22,10.67-7.96c14.2-11.16,27.06-24.47,38.83-38.17c0.37-0.43,25.86,17.37,37.29,16.55
					c26.38-1.88,35.06-26.82,41.46-39.57C1982.36,2155.7,1991.56,2131.55,1998,2097.22z"/><path fill="#f4c99a" d="M2280.07,2143.55c-1.58-11.64-9.26-48.93-13.42-56.75c-3.14-5.9-138.02-222.36-235-356.65
					c-49-67.84-84.57-156.93-50.88-194.1c114.44-126.26,206.78,0,206.78,0c3.77-15.08-104.37,58.79-56.02,99.88
					c37.69,32.04,49,39.57,186.79,406.22c2.03,5.39,4.69,9.86,9.87,16.03c1.85,10.66,7.32,17.99,10.42,28.36
					c6.99,23.39,9.53,48.1,7.46,72.43c-0.95,11.19-3.04,22.71-9.44,31.93c-3.95,5.7-9.36,10.23-15.07,14.17
					c-11.3,7.81-27.57,13.7-40.94,10.56C2281.61,2193.05,2283.11,2165.94,2280.07,2143.55z"/><path fill="#353434" d="M2324.69,2053.28c10.52-2.03,21.41,3.1,28.92,10.75c7.51,7.65,12.23,17.53,16.66,27.29
					c15.94,35.13,29.82,71.19,41.54,107.95l-9.94,5.87l-39.11-66.24c1.36,16.47,2.65,33.04,4.01,49.51
					c0.68,8.2,1.35,16.4,1.43,24.63c0.03,3.22,0.27,7.12-1.25,10.09c-1.92,3.75-23.88,23.33-31.57,29.46
					c-12.01,9.57-24.63,18.43-38.09,25.86c-6.94,3.83-14.09,7.28-21.44,10.24c-4.25,1.71-12.3,5.74-16.24,1.42
					c-6.27-6.9-5.55-15-1.7-22.59c2.01-3.96,3.91-7.97,5.71-12.03c7.33-16.5,12.48-34.28,16.48-51.9
					c0.12-0.55,15.53-3.45,17.19-4.09c5.9-2.28,11.61-5.2,16.69-8.98c11.63-8.65,16.24-19.53,15.93-33.79
					C2329.17,2122.59,2327.69,2087.27,2324.69,2053.28z"/><path fill="#353434" d="M1891.68,1507.78c0,0,158.3,5.65,231.79,120.61c26.38-5.65,508.66-55.03,444.59-267.98
				c-29.39-97.67-51-126.64-69.57-161.69c-86.69,9.42-151.52,10.02-245.38,10.49c-6.02,48.53,11.08,91.9-73.1,132.73
				C1927.49,1464.44,1891.68,1507.78,1891.68,1507.78z"/></g></svg>