<svg xmlns="http://www.w3.org/2000/svg" viewBox="0 0 3000 2000"><g data-name="Layer 1"><path fill="#d4e8f7" d="M1102.795 1626.621a133.609 133.609 0 0 0-27.314-.496c2.882 39.226-57.392 7.789-79.106 46.672 12.48-27.228 43.985-83.223 77.387-50.664a135.648 135.648 0 0 1 20.317-.444q-21.072-12.228-41.064-26.506c-10.256-1.058-20.616-1.824-30.895-.787 2.972 39.268-57.394 7.832-79.09 46.71 12.475-27.23 43.98-83.22 77.383-50.663a135.468 135.468 0 0 1 26.127.01q-18.848-13.913-36.557-29.58a132.658 132.658 0 0 0-30.136-.84c2.973 39.267-57.394 7.826-79.09 46.707 12.474-27.228 43.988-83.227 77.387-50.66a135.36 135.36 0 0 1 26.595.059c-17.219-15.512-30.917-35.726-55.924-37.69-6.613 38.803-56.947-8.965-87.244 22.438 18.789-23.623 63.138-67.467 86.537-26.804a136.454 136.454 0 0 1 20.315 5.64c-20.608-20.346-33.025-50.924-63.238-58.602-11.295 37.504-55.455-17.393-89.1 9.205 15.655-17.373 35.505-36.233 60.403-34.27 10.584 1.06 26.104 6.266 28.535 20.635a140.319 140.319 0 0 1 20.358 9.162q-15.16-21.474-28.433-44.444c-8.645-5.919-17.559-11.37-27.054-15.34-12.923 36.902-54.584-20.366-89.36 4.384 16.53-16.328 37.193-34.203 61.838-30.969 10.517 1.633 25.775 7.68 27.555 22.168a142.332 142.332 0 0 1 22.388 11.85c-15.03-25.402-18.027-39.773-34.974-67.4-29.389 18.435-34.098-51.188-75.097-51.59 31.368-3.626 88.429 1.99 78.598 46.58 10.598 16.093 17.126 34.69 26.228 51.618a181.26 181.26 0 0 1 .986-24.4c-12.842-7.706-10.6-26.248-6.807-37.54 8.507-24.25 32.655-36.71 55.048-45.454-36.571 21.697-9.507 85.084-44.598 84.354-7.138 30.021 11.885 53.818 27.204 77.623a182.153 182.153 0 0 1 .646-30.082c-10.859-8.41-8.683-26.184-5.144-37.264 8.1-24.347 31.255-37.304 53.375-46.36-35.43 21.766-9.402 90.272-44.709 85.597-1.394 11.242-.556 22.713-.316 33.96a536.4 536.4 0 0 0 33.004 43.737 181.862 181.862 0 0 1 .762-28c-10.835-8.417-8.661-26.174-5.123-37.246 8.097-24.349 31.255-37.305 53.37-46.36-35.432 21.78-9.394 90.202-44.677 85.604a174.11 174.11 0 0 0-.262 30.902q16.931 19.95 35.526 38.037a181.884 181.884 0 0 1 .6-30.814c-10.862-8.41-8.685-26.185-5.145-37.265 8.098-24.349 31.256-37.307 53.371-46.36-35.427 21.767-9.397 90.271-44.704 85.596-6.824 37.681 9.705 41.793 35.241 63.556a179.648 179.648 0 0 1 .538-31.256c-10.684-8.303-8.54-25.82-5.05-36.74 7.99-24.02 30.833-36.804 52.652-45.734-34.954 21.484-9.272 88.988-44.08 84.45a174.66 174.66 0 0 0-.122 32.477c12.062 9.423 24.533 18.2 37.309 26.449a182.336 182.336 0 0 1 .636-30.253c-10.86-8.412-8.685-26.19-5.147-37.267 8.1-24.348 31.258-37.306 53.374-46.36-35.43 21.783-9.398 90.204-44.68 85.608a174.293 174.293 0 0 0-.263 30.837 488.942 488.942 0 0 0 210.542 73.858c3.217.335 2.904 5.864-.321 5.525a492.06 492.06 0 0 1-187.31-59.504ZM1866.016 1422.623a133.437 133.437 0 0 0-.956-27.305c-39.016 4.969-10.83-56.892-50.806-76.51 27.85 11.015 85.44 39.497 54.702 74.584a135.414 135.414 0 0 1 1.522 20.263q11.093-21.69 24.289-42.415c.511-10.297.724-20.682-.86-30.891-39.052 5.056-10.87-56.896-50.844-76.5 27.852 11.016 85.443 39.5 54.702 74.585a135.263 135.263 0 0 1 1.38 26.09q12.893-19.555 27.596-38.078a132.807 132.807 0 0 0-.761-30.136c-39.058 5.054-10.87-56.898-50.848-76.499 27.854 11.011 85.448 39.505 54.7 74.585a135.531 135.531 0 0 1 1.36 26.567c14.574-18.024 34.03-32.777 34.662-57.852-39.098-4.539 5.924-57.342-27.041-85.93 24.588 17.506 70.723 59.467 31.36 84.994a136.442 136.442 0 0 1-4.548 20.585c19.222-21.66 49.096-35.687 55.156-66.264-38.051-9.285 14.42-56.3-13.928-88.482 18.18 14.703 38.068 33.526 37.432 58.496-.493 10.625-4.87 26.396-19.088 29.589a140.4 140.4 0 0 1-8.067 20.815q20.638-16.28 42.869-30.755c5.452-8.946 10.42-18.137 13.882-27.831-37.538-10.944 17.436-55.588-9.129-89.002 17.183 15.64 36.134 35.324 34.21 60.106-1.07 10.587-6.299 26.146-20.672 28.698a142.177 142.177 0 0 1-10.642 22.983c24.568-16.36 38.756-20.117 65.45-38.508-19.974-28.364 49.3-36.77 47.521-77.731 5.29 31.132 2.714 88.41-42.334 80.964-15.507 11.437-33.731 18.943-50.152 28.931a181.521 181.521 0 0 1 24.419-.31c7.01-13.234 25.65-11.982 37.126-8.791 24.667 7.205 38.393 30.654 48.316 52.553-23.61-35.368-85.471-4.971-86.608-40.055-30.357-5.531-53.11 14.73-76.065 31.293a182.443 182.443 0 0 1 30.072-.954c7.822-11.288 25.686-10.062 36.938-7.114 24.743 6.79 38.911 29.226 49.129 50.833-23.618-34.224-90.644-4.591-87.85-40.095-11.303-.795-22.712.65-33.926 1.486a536.411 536.411 0 0 0-41.926 35.286 181.685 181.685 0 0 1 28.002-.73c7.83-11.265 25.678-10.04 36.92-7.095 24.746 6.793 38.915 29.227 49.134 50.833-23.633-34.225-90.575-4.59-87.86-40.067a174.011 174.011 0 0 0-30.875 1.383q-19.018 17.967-36.092 37.496a182.237 182.237 0 0 1 30.802-1.04c7.822-11.29 25.689-10.064 36.94-7.118 24.742 6.793 38.916 29.23 49.13 50.833-23.618-34.218-90.644-4.587-87.85-40.091-37.987-4.813-41.217 11.91-61.595 38.566a179.663 179.663 0 0 1 31.24-1.122c7.727-11.111 25.331-9.898 36.422-6.996 24.41 6.7 38.392 28.835 48.467 50.148-23.049-33.67-89.353-4.558-86.672-39.526a174.285 174.285 0 0 0-32.44 1.602c-8.765 12.542-16.87 25.464-24.428 38.66a182.362 182.362 0 0 1 30.248-.973c7.822-11.29 25.686-10.063 36.937-7.12 24.745 6.796 38.915 29.231 49.132 50.834-23.634-34.222-90.573-4.59-87.861-40.066a173.934 173.934 0 0 0-30.81 1.377 488.937 488.937 0 0 0-62.561 214.168c-.167 3.233-5.7 3.213-5.532-.024a491.975 491.975 0 0 1 49.46-190.21Z"/><path fill="#d4e8f7" d="m1836.743 1649.177-15.783-12.949 25.074-15.154 15.956 12.26.892-1.235-15.447-11.871 24.594-14.864 16.388 12.592.892-1.235-15.878-12.204 26.572-16.058 17.238 17.066 1.036-1.113-16.932-16.765 23.818-14.392-.481.686 15.597 11.608.875-1.254-15.353-11.424 20.2-12.211-.066.098 15.592 11.607.874-1.254-15.1-11.236 25.043-15.133 14.848 11.049.874-1.252-14.31-10.65 26.595-16.073 15.405 11.465.876-1.254-14.868-11.064 32.038-19.363 15.327 11.408.874-1.254-14.79-11.005 28.886-17.46 15.256 11.355.874-1.253-14.72-10.956 28.476-17.207 15.544 11.567.874-1.252-15.006-11.168 20.543-12.414 11.011 7.606.832-1.284-10.412-7.186 25.522-15.427 8.113 5.936.864-1.257-7.564-5.531 22.914-13.849 9.269 6.099.803-1.301-8.623-5.671 23.562-14.241 7.998 5.85.864-1.258-7.448-5.446 24.084-14.557 6.707 4.488.812-1.293-6.075-4.069 18.156-10.969 10.572 2.981.391-1.488-9.157-2.585 18.053-10.909 8.519 2.402.392-1.488-7.105-2.006 15.099-9.123 7.451 2.433.447-1.472-6.16-2.014 18.436-11.141-1.516-2.668-18.457 11.157 1.303-6.715-1.467-.309-1.571 8.066-15.038 9.092 1.751-7.441-1.456-.366-2.092 8.895-17.973 10.861 2.215-9.425-1.455-.367-2.558 10.879-18.144 10.962-.501-7.255-1.495.105.555 8.021-24.042 14.53-.986-9.014-1.488.17 1.063 9.697-23.04 13.924-1.073-9.789-1.487.168 1.147 10.453.044-.006-23.417 14.151-.972-8.867-1.487.171 1.05 9.551-25.452 15.381-1.004-12.069-1.491.13 1.064 12.8-20.527 12.408-2.12-18.023-1.489.182 2.201 18.692-28.419 17.174-2.059-17.482-1.489.179 2.14 18.157-28.828 17.418-2.05-17.392-1.487.183 2.129 18.062-31.975 19.323-2.036-17.297-1.489.184 2.115 17.965-26.543 16.041-1.933-16.426-1.487.18 2.013 17.097-24.992 15.102-2.032-17.268-1.489.182 2.114 17.935-20.054 12.123-2.056-17.46-1.487.179 2.136 18.131-23.25 14.05-5.56-21.475-1.445.396 5.666 21.886-26.298 15.897-2.397-18.02-1.483.206 2.481 18.656-24.547 14.836-2.3-17.317-1.484.206 2.385 17.958-25.621 15.485-2.434-18.326-1.485.205 2.521 18.965-124.857 75.455 1.519 2.668 124.56-75.28 16.239 13.319.929-1.206z"/><path fill="#d4e8f7" d="M2273.653 1354.639c-7.152-7.514-.688-55.875 13.167-64.292-6.78 13.708-2.943 57.358-13.167 64.292ZM2284.06 1346.952c-5.738-8.706 9.014-55.073 24.115-60.792-9.056 12.225-12.85 55.858-24.115 60.792Z"/><path fill="#d4e8f7" d="M2290.975 1349.082c-2.64-10.163 26.128-48.875 42.224-49.135-12.463 8.453-30.004 48.319-42.224 49.135ZM2258.089 1362.985c-8.267-8.68-.791-64.59 15.225-74.321-7.841 15.845-3.405 66.305-15.225 74.321ZM2238.952 1372.402c-9.089-9.543-.873-71.004 16.735-81.698-8.62 17.415-3.74 72.888-16.735 81.698ZM2216.361 1386.126c-10.237-10.746-.983-79.962 18.846-92.008-9.707 19.614-4.216 82.088-18.846 92.008ZM2190.969 1401.555c-11.29-11.854-1.084-88.177 20.78-101.458-10.703 21.626-4.646 90.516-20.78 101.458ZM2166.165 1417.21c-11.85-12.44-1.138-92.562 21.816-106.505-11.237 22.703-4.881 95.02-21.816 106.506ZM2141.095 1432.44c-11.847-12.444-1.136-92.565 21.815-106.509-11.234 22.707-4.878 95.02-21.815 106.508ZM2114.321 1444.715c-13.08-13.735-1.256-102.192 24.086-117.588-12.403 25.066-5.387 104.908-24.086 117.588Z"/><path fill="#d4e8f7" d="M2091.476 1450.607c-13.081-13.736-1.256-102.193 24.084-117.586-12.404 25.065-5.387 104.907-24.084 117.586ZM1922.786 1554.516c-17.624-6.324-50.424-100.347-34.386-125.772-.298 28.172 45.65 105.828 34.386 125.773ZM1895.07 1565.125c-17.627-6.324-47.084-93.454-31.046-118.879-.297 28.174 42.308 98.933 31.045 118.879ZM1870.242 1586.438c-17.624-6.323-48.226-95.452-32.188-120.879-.298 28.171 43.452 100.935 32.188 120.88ZM1844.691 1606.486c-17.624-6.324-47.505-94.187-31.464-119.611-.296 28.17 42.728 99.666 31.464 119.611ZM1817.517 1624.697c-17.624-6.324-45.156-91.086-29.118-116.512-.296 28.172 40.381 96.568 29.118 116.512ZM2062.093 1478.369c-15.468-16.24-1.486-120.82 28.474-139.02-14.669 29.635-6.368 124.029-28.474 139.02ZM1998.12 1513.662c-16.534-15.078-6.167-125.494 22.472-145.83-12.606 30.635-1.45 129.265-22.472 145.83ZM2031.407 1489.67c-16.391-15.596-7.337-121.875 22.017-141.785-13.37 30.668-.436 125.517-22.017 141.786ZM1969.85 1527.066c-18.288-13.162-18.62-129.855 7.833-153.703-9.205 32.268 11.4 134.56-7.833 153.703ZM1944.48 1545.863c-19.274-11.563-32.806-117.394-8.36-143.415-6.589 32.95 25.992 122.692 8.36 143.415ZM2278.657 1363.377c2.921 10.08 47.144 27.65 61 19.236-14.928-.52-50.164-25.1-61-19.236ZM2290.023 1356.082c4.33 9.53 50.56 20.2 63.058 9.764-14.832 1.755-53.178-17.208-63.059-9.764Z"/><path fill="#d4e8f7" d="M2291.939 1352.242c7.255 7.403 54.167.912 62.38-13.348-13.314 6.948-55.62 2.829-62.38 13.348Z"/><path fill="#d4e8f7" d="M2293.509 1348.858c9.361 4.183 50.726-19.471 53.337-35.85-9.937 11.47-50.756 23.505-53.337 35.85ZM2263.401 1373.596c3.375 11.656 54.496 31.966 70.514 22.236-17.254-.598-57.99-29.01-70.514-22.236ZM2247.086 1386.606c3.713 12.81 59.91 35.139 77.517 24.442-18.968-.656-63.745-31.888-77.517-24.442ZM2224.494 1400.332c4.18 14.426 67.469 39.572 87.298 27.526-21.363-.74-71.79-35.915-87.298-27.526ZM2199.298 1416.098c4.611 15.91 74.397 43.64 96.265 30.355-23.56-.815-79.163-39.603-96.265-30.355ZM2172.415 1429.564c4.839 16.698 78.099 45.807 101.052 31.864-24.73-.858-83.1-41.575-101.052-31.864ZM2147.148 1444.012c4.836 16.7 78.096 45.806 101.05 31.862-24.728-.856-83.098-41.573-101.05-31.862ZM2123.759 1461.195c5.344 18.439 86.222 50.574 111.566 35.18-27.3-.947-91.746-45.9-111.566-35.18Z"/><path fill="#d4e8f7" d="M2107.7 1478.937c5.342 18.436 86.223 50.577 111.565 35.18-27.303-.945-91.744-45.898-111.565-35.18ZM1937.791 1580.723c-3.152 18.944 60.87 94.003 90.232 91.845-24.08-13.361-67.833-92.348-90.232-91.845ZM1914.709 1601.622c-3.154 18.943 57.287 86.607 86.65 84.452-24.082-13.361-64.255-84.957-86.65-84.452ZM1884.877 1614.76c-3.153 18.945 57.771 89.652 87.138 87.499-24.084-13.365-64.74-88.003-87.138-87.5ZM1855.852 1625.977c-3.154 18.942 57.048 88.388 86.41 86.23-24.081-13.362-64.015-86.735-86.41-86.23ZM1827.228 1641.66c-3.154 18.943 55.55 84.77 84.915 82.615-24.082-13.362-62.518-83.12-84.915-82.615ZM2069.894 1491.99c6.315 21.799 101.941 59.795 131.903 41.596-32.278-1.12-108.472-54.268-131.903-41.596ZM2008.955 1532.583c4.813 22.198 103.646 66.272 134.782 50.298-32.127-3.457-110.538-61.233-134.782-50.298ZM2045.445 1514.185c5.323 22.322 100.005 65.577 131.126 48.75-32.525-2.786-106.861-60.334-131.126-48.75ZM1983.888 1551.58c2.336 22.852 101.33 79.61 134.388 67.3-31.87-7.312-108.816-75.376-134.388-67.3ZM1955.642 1565.353c.5 22.971 83.877 86.371 117.813 76.924-31.182-10.002-91.677-82.793-117.813-76.924ZM1326.913 1533.805l-11.085 17.14-17.886-23.208 10.382-17.235-1.328-.746-10.052 16.687-17.541-22.761 10.664-17.704-1.331-.746-10.333 17.152-18.953-24.593 15.013-19.051-1.223-.905-14.747 18.714-16.988-22.041.736.398 9.774-16.805-1.343-.726-9.621 16.544-14.409-18.698.104.058 9.775-16.807-1.343-.726-9.464 16.271-17.859-23.173 9.304-16-1.344-.729-8.968 15.42-18.969-24.614 9.654-16.599-1.343-.728-9.317 16.023-22.851-29.651 9.604-16.519-1.343-.723-9.269 15.936-20.603-26.732 9.561-16.44-1.343-.728-9.224 15.861-20.31-26.354 9.74-16.75-1.342-.726-9.406 16.169-14.65-19.012 6.315-11.8-1.369-.681-5.968 11.156-18.204-23.619 4.985-8.733-1.35-.714-4.644 8.136-16.342-21.205 5.015-9.898-1.382-.651-4.665 9.207-16.806-21.802 4.911-8.608-1.347-.719-4.572 8.016-17.177-22.288 3.701-7.173-1.377-.659-3.355 6.493-12.953-16.805 1.772-10.837-1.522-.221-1.535 9.39-12.874-16.707 1.423-8.734-1.525-.225-1.187 7.29-10.771-13.977 1.581-7.678-1.512-.279-1.307 6.349-13.151-17.064-2.479 1.811 13.164 17.08-6.818-.541-.14 1.495 8.193.649 10.729 13.918-7.591-.898-.2 1.488 9.073 1.074 12.819 16.635-9.617-1.139-.198 1.487 11.097 1.316 12.939 16.789-7.153 1.317.272 1.475 7.909-1.456 17.148 22.249-8.845 1.999.335 1.459 9.517-2.15 16.433 21.322-9.607 2.168.337 1.462 10.256-2.32-.01-.042 16.703 21.67-8.703 1.968.337 1.457 9.372-2.119 18.152 23.553-11.877 2.357.294 1.47 12.603-2.502 14.642 18.995-17.669 4.141.349 1.457 18.323-4.291 20.269 26.301-17.137 4.015.346 1.457 17.797-4.17 20.561 26.679-17.052 3.997.349 1.457 17.707-4.148 22.807 29.591-16.957 3.974.349 1.457 17.612-4.128 18.933 24.566-16.106 3.774.349 1.455 16.76-3.924 17.825 23.125-16.93 3.967.348 1.461 17.587-4.123 14.302 18.558-17.118 4.01.349 1.457 17.775-4.166 16.58 21.516-20.71 7.946.554 1.394 21.112-8.1 18.757 24.342-17.636 4.41.372 1.451 18.262-4.569 17.506 22.72-16.947 4.238.371 1.449 17.576-4.396 18.274 23.713-17.935 4.487.374 1.449 18.559-4.639 89.052 115.55 2.478-1.807-88.842-115.282 11.401-17.633-1.303-.787z"/><path fill="#d4e8f7" d="M984.988 1132.89c-6.657 7.957-55.442 6.984-65.366-5.834 14.382 5.194 57.325-3.539 65.366 5.834ZM976.177 1123.418c-8.004 6.682-55.738-2.748-63.126-17.109 13.17 7.62 56.955 6.47 63.126 17.109Z"/><path fill="#d4e8f7" d="M977.516 1116.306c-9.802 3.768-51.512-20.45-53.584-36.416 9.802 11.434 51.392 24.365 53.584 36.416ZM995.037 1147.412c-7.694 9.194-64.089 8.073-75.564-6.744 16.625 6.004 66.268-4.094 75.564 6.744ZM1006.55 1165.367c-8.458 10.106-70.452 8.873-83.066-7.415 18.28 6.6 72.848-4.5 83.067 7.415ZM1022.736 1186.267c-9.526 11.382-79.342 9.993-93.545-8.351 20.582 7.434 82.036-5.068 93.545 8.351ZM1040.928 1209.76c-10.505 12.552-87.491 11.02-103.155-9.21 22.697 8.197 90.463-5.585 103.155 9.21ZM1059.283 1232.64c-11.028 13.172-91.845 11.567-108.289-9.67 23.829 8.606 94.965-5.864 108.289 9.67ZM1077.24 1255.828c-11.028 13.178-91.843 11.568-108.287-9.665 23.827 8.604 94.965-5.866 108.286 9.665ZM1092.455 1281.047c-12.172 14.55-101.397 12.774-119.55-10.672 26.304 9.5 104.844-6.477 119.55 10.672Z"/><path fill="#d4e8f7" d="M1100.886 1303.086c-12.173 14.545-101.398 12.77-119.551-10.676 26.305 9.501 104.843-6.475 119.551 10.676ZM1223.155 1458.983c-4.297 18.223-94.02 61.42-121.092 48.347 28.023-2.88 100.004-57.29 121.092-48.347ZM1236.821 1485.328c-4.296 18.22-87.548 57.318-114.62 44.249 28.025-2.882 93.53-53.192 114.62-44.249ZM1260.797 1507.592c-4.295 18.224-89.405 58.683-116.477 45.613 28.025-2.879 95.389-54.557 116.477-45.613ZM1283.599 1530.719c-4.3 18.223-88.23 57.823-115.304 44.752 28.026-2.881 94.214-53.695 115.304-44.752ZM1304.758 1555.667c-4.298 18.222-85.412 55.138-112.483 42.07 28.023-2.882 91.397-51.014 112.483-42.07ZM1131.786 1329.15c-14.39 17.2-119.883 15.1-141.345-12.619 31.101 11.233 123.955-7.655 141.345 12.618ZM1174.064 1388.736c-13.115 18.128-123.994 20.277-147.433-5.887 31.86 9.069 128.606-13.134 147.433 5.887ZM1146.474 1358.365c-13.649 18.047-120.268 21.031-143.362-5.888 31.978 9.825 124.763-13.721 143.362 5.888ZM1190.576 1415.315c-11.018 19.654-126.934 33.14-153.607 9.547 33.095 5.507 132.413-26.5 153.607-9.547ZM1212.109 1438.402c-9.314 20.455-112.944 45.834-141.554 24.478 33.479 2.829 118.98-39.66 141.554-24.478ZM993.105 1126.934c9.69-4.04 22.16-49.958 12.233-62.78 1.174 14.89-19.277 52.674-12.233 62.78ZM984.574 1116.462c8.985-5.378 14.372-52.515 2.595-63.755 3.418 14.538-11.105 54.78-2.595 63.755Z"/><path fill="#d4e8f7" d="M980.545 1114.99c6.539-8.043-5.2-53.924-20.297-60.473 8.406 12.442 9.083 54.946 20.297 60.473Z"/><path fill="#d4e8f7" d="M977.003 1113.813c3.101-9.774-25.068-48.207-41.634-48.955 12.519 8.581 29.08 47.784 41.634 48.955ZM1004.984 1140.941c11.197-4.668 25.616-57.755 14.14-72.574 1.352 17.216-22.288 60.89-14.14 72.574ZM1019.749 1155.681c12.31-5.13 28.16-63.488 15.545-79.777 1.488 18.921-24.498 66.935-15.546 79.777ZM1035.932 1176.585c13.865-5.78 31.712-71.502 17.509-89.847 1.673 21.31-27.59 75.383-17.51 89.847ZM1054.441 1199.844c15.286-6.375 34.97-78.846 19.305-99.075 1.847 23.498-30.424 83.121-19.305 99.075ZM1070.852 1225.033c16.046-6.69 36.708-82.764 20.264-103.998 1.939 24.668-31.938 87.255-20.264 103.998ZM1088.055 1248.513c16.048-6.69 36.71-82.765 20.268-104 1.937 24.668-31.938 87.255-20.268 104ZM1107.769 1269.812c17.716-7.385 40.528-91.375 22.373-114.82 2.14 27.235-35.26 96.336-22.373 114.82Z"/><path fill="#d4e8f7" d="M1127.207 1283.767c17.718-7.384 40.528-91.375 22.375-114.818 2.141 27.235-35.26 96.337-22.376 114.818ZM1247.502 1441.115c19.18.998 86.54-71.079 81.086-100.012-10.56 25.432-84.111 77.817-81.086 100.012ZM1270.87 1461.697c19.18.996 79.597-66.687 74.144-95.623-10.56 25.435-77.171 73.425-74.144 95.623ZM1287.29 1489.855c19.177.995 82.566-67.513 77.11-96.444-10.558 25.435-80.138 74.247-77.11 96.444ZM1301.704 1517.434c19.18.993 81.394-66.653 75.94-95.586-10.561 25.435-78.965 73.387-75.94 95.586ZM1320.515 1544.103c19.18.998 77.967-64.754 72.517-93.685-10.561 25.433-75.543 71.488-72.517 93.685ZM1144.442 1319.864c20.947-8.734 47.916-108.034 26.454-135.753 2.528 32.198-41.689 113.899-26.454 135.753ZM1191.645 1375.834c21.516-7.281 54.167-110.455 34.78-139.594.185 32.315-48.381 116.737-34.78 139.594ZM1169.25 1341.654c21.58-7.807 53.883-106.762 33.655-135.789.9 32.635-47.902 112.985-33.655 135.79ZM1213.348 1398.602c22.444-4.899 67.677-109.664 51.72-141.124-3.674 32.495-62.627 116.625-51.72 141.124ZM1230.22 1425.114c22.766-3.087 76.358-93.08 63.146-125.735-6.422 32.111-71.927 100.428-63.146 125.735Z"/><path fill="#f9cbcb" d="m1596.098 1164.316-66.153 60.559-76.971-61.957c37.289-1.861 92.18-1.898 143.124 1.398Z"/><path fill="#f9cbcb" d="M1599.008 1180.951c-43.844 59.102-99.616 77.137-149.679 0 4.76-28.906 19.986-121.294 24.453-148.605l98.423-.645Z"/><path fill="#ebb0b0" d="M1599.008 1180.951c-33.533-34.89-36.051-117.099-131.878-108.076l6.652-40.53 98.423-.644Z"/><path fill="#f9cbcb" d="M1711.43 828.774c-16.434 305.902-334.298 294.037-355.449-.01 4.251-259.486 351.233-259.463 355.449.01Z"/><path fill="#ebb0b0" d="M1533.707 631.453c-2.81 0-5.548.321-8.326.467 231.92 10.718 207.346 399.487 5.642 425.969 219.548-2.732 250.487-424.537 2.684-426.435Z"/><path fill="#754c24" d="M1726.02 806.943v.433a.79.79 0 0 0-.213-.646Z"/><path fill="#252e51" d="M1791.773 691.37s9.426 119.132-91.155 145.394c.012-2.392-.05-4.882-.123-7.222-36.549-27.427-40.281-66.85-45.178-93.665-8.013-54.397-106.74-6.324-203.307-71.81 5.997 77.827-57.186 121.419-91.317 151.923 0 0-3.105 20.857-2.288 31.857-40.435-38.597-80.302-209.923 60.913-235.816 91.585-162.729 298.51 111.465 385.678-49.895 0 0-2.446 122.071-54.483 141.725 0 0 30.242 1.222 41.26-12.491Z"/><path fill="#3d4547" d="M1951.232 1696.572h-836.32s43.564-375.369 81.02-427.764c37.547-47.12 185.464-87.962 257.042-105.89l76.971 61.957 66.153-60.559c81.859 9.905 207.84 39.662 252.114 91.39 37.457 52.47 103.02 440.866 103.02 440.866Z"/><path fill="#646a6c" d="M1627.744 1179.842c-23.662 26.046-35.308 52.964-33.337 80.873-15.177-6.914-49.847-22.588-65.345-29.581a49176.957 49176.957 0 0 1-67.627 33.555c-10.618-30.54-25.265-57.533-44.74-80.284l26.637-18.837 9.642-2.65 76.971 61.957 66.153-60.559c2.572-1.846 29.129 14.534 31.646 15.526Z"/><path fill="#323536" d="M1726.572 810.103h-14.654c35.929-317.8-400.513-317.571-364.497 0h-14.657c-36.34-337.06 430.239-336.825 393.808 0Z"/><path fill="#838889" d="M1324.43 797.603c-.298-20.321 31.623-20.321 31.323 0 .296 20.32-31.623 20.32-31.323 0ZM1703.583 797.603c-.296-20.321 31.623-20.321 31.323 0 .297 20.32-31.622 20.32-31.323 0Z"/><path fill="#323536" d="M1512.695 996.123c.04-.014.078-.024.118-.034-.532-1.283-4.628-17.658-5.115-19.479-5.444.88-11.209 3.652-12.7 9.206-86.117 21.85-154.41.944-150.642-88.526l-14.633-.805c-8.359 102.195 87.357 128.372 170.004 103.248 3.927 3.087 9.53 2.345 14.102.817Z"/><g style="mix-blend-mode:multiply"><path fill="#fff" d="M1512.695 996.123c.04-.014.078-.024.118-.034-.532-1.283-4.628-17.658-5.115-19.479l-.273.069c.54 2.07 3.236 12.886 3.88 14.66-.04.012-.078.02-.12.034l1.134 4.428c-4.574 1.527-10.172 2.267-14.101-.819-61.924 17.247-141.752 13.043-163.974-53.677 19.536 70.568 101.885 76.394 165.483 58.428 3.927 3.087 9.53 2.345 14.102.817Z"/><path fill="#ccc" d="M1342.688 897.198c-.362 14.778 1.512 28.054 5.529 39.596-3.336-11.644-4.665-24.873-3.86-39.504Z"/></g><path fill="#6fb1e5" d="M1278.131 869.588c0 27.537 19.94 49.859 44.54 49.859v-99.719c-24.6 0-44.54 22.322-44.54 49.86Z"/><path fill="#ccc" d="M1279.887 858.812c0-1.254.087-2.482.168-3.715a55.392 55.392 0 0 0-1.924 14.491c0 27.537 19.94 49.859 44.54 49.859V908.57c-23.778-1.039-42.784-22.885-42.784-49.758Z"/><path fill="#4b9ddf" d="M1718.577 753.115c-9.488.037-16.15-8.016-16.072-17.39-8.835-88.527-84.445-157.695-175.558-156.288-89.756 1.389-163.178 71.17-170.408 159.427a15.934 15.934 0 0 1-15.779 14.251c-10.595.024-17.766-9.882-15.56-20.185 10.268-104.896 99.79-186.911 207.689-185.244 106.242 1.646 193.203 84.331 201.564 188.864a15.847 15.847 0 0 1-15.876 16.565Z"/><path fill="#ccc" d="M1518.03 576.828c-90.817 0-165.58 70.062-173.082 158.974a15.973 15.973 0 0 1-13.22 14.495c9.593 7.004 24.234.092 24.86-11.911 7.256-100.103 105.03-175.698 204.812-156.037a173.45 173.45 0 0 0-43.37-5.52ZM1734.422 736.086c-7.62-92.445-76.713-167.718-166.196-184.779 83.777 21.12 147.271 93.799 154.558 182.191a15.8 15.8 0 0 1-13.192 16.787c10.333 7.664 26.28-1.261 24.83-14.2Z"/><path fill="#4b9ddf" d="M1340.09 801.48a26.98 26.98 0 0 0-26.978 26.979v82.257a26.979 26.979 0 1 0 53.958 0V828.46a26.979 26.979 0 0 0-26.98-26.978Z"/><path fill="#ccc" d="M1345.383 802.005c8.262 7.308 2.794 86.271 4.27 96.783.193 16.813-15.855 29.914-32.272 26.455a26.963 26.963 0 0 0 49.69-14.527V828.46a26.988 26.988 0 0 0-21.688-26.454Z"/><path fill="#6fb1e5" d="M1734.836 813.145v99.718c58.531-1.028 58.485-98.707 0-99.718Z"/><path fill="#ccc" d="M1777.62 852.227c0-1.252-.087-2.481-.17-3.712a55.276 55.276 0 0 1 1.926 14.491c0 27.537-19.94 49.857-44.54 49.857v-10.875c23.778-1.041 42.784-22.887 42.784-49.76Z"/><path fill="#4b9ddf" d="M1717.414 794.899a26.98 26.98 0 0 0-26.98 26.98v82.256a26.98 26.98 0 1 0 53.96 0v-82.256a26.979 26.979 0 0 0-26.98-26.98Z"/><path fill="#ccc" d="M1712.124 795.423c-8.262 7.306-2.794 86.271-4.27 96.781-.195 16.815 15.856 29.916 32.27 26.455a26.931 26.931 0 0 1-22.71 12.456c-15.152.493-27.563-13.838-26.98-27.007.012-2.342-.013-82.07.01-82.85a26.983 26.983 0 0 1 21.68-25.835Z"/><path fill="#838889" d="M1556.358 995.179c-14.967 2.561-46.64 19.02-52.601-4.895a17.787 17.787 0 0 1 12.82-21.646c14.663-2.506 47.033-19.028 52.6 4.895a17.79 17.79 0 0 1-12.819 21.646Z"/><path fill="#ccc" d="M1569.178 973.533a17.78 17.78 0 0 0-16.785-13.36c16.47 4.653 15.998 30.408-1.066 34.143-3.25.588-33.19 9.168-35.817 8.462 6.8 3.456 33.756-6.585 40.848-7.6a17.79 17.79 0 0 0 12.82-21.645Z"/><path fill="#ccc" d="M1522.56 977.744a1.474 1.474 0 0 1 1.4 2.593 1.474 1.474 0 0 1-1.4-2.593Z"/><path fill="#ccc" d="M1530.766 979.286a1.474 1.474 0 0 1 2.941.189 1.474 1.474 0 0 1-2.941-.189Z"/><path fill="#ccc" d="M1530.533 988.86a1.475 1.475 0 0 1 2.943.189 1.475 1.475 0 0 1-2.943-.19Z"/><path fill="#ccc" d="M1524.572 985.574a1.474 1.474 0 0 1 1.402 2.592 1.474 1.474 0 0 1-1.402-2.592Z"/><path fill="#ccc" d="M1526.367 971.495a1.474 1.474 0 0 1 1.402 2.59 1.474 1.474 0 0 1-1.402-2.59Z"/><path fill="#ccc" d="M1535.024 972.077a1.474 1.474 0 0 1 1.402 2.594 1.474 1.474 0 0 1-1.402-2.594Z"/><path fill="#ccc" d="M1539.203 967.202a1.473 1.473 0 0 1 1.401 2.591 1.473 1.473 0 0 1-1.4-2.59Z"/><path fill="#ccc" d="M1546.395 969.323a1.474 1.474 0 0 1 1.402 2.59 1.474 1.474 0 0 1-1.402-2.59Z"/><path fill="#ccc" d="M1549.726 963.899a1.474 1.474 0 0 1 1.403 2.59 1.474 1.474 0 0 1-1.403-2.59Z"/><path fill="#ccc" d="M1556.38 969.028a1.473 1.473 0 0 1 1.401 2.591 1.473 1.473 0 0 1-1.401-2.59Z"/><path fill="#ccc" d="M1553.74 974.705a1.474 1.474 0 0 1 1.402 2.59 1.474 1.474 0 0 1-1.403-2.59Z"/><path fill="#ccc" d="M1550.388 983.283a1.472 1.472 0 0 1-1.053-2.749 1.472 1.472 0 0 1 1.053 2.75Z"/><path fill="#ccc" d="M1557.932 985.062a1.474 1.474 0 0 1-1.054-2.753 1.474 1.474 0 0 1 1.054 2.753Z"/><path fill="#ccc" d="M1545.194 988.672a1.473 1.473 0 0 1-1.053-2.75 1.473 1.473 0 0 1 1.053 2.75Z"/><path fill="#ccc" d="M1538.725 980.612a1.474 1.474 0 0 1 1.401 2.593 1.474 1.474 0 0 1-1.401-2.593Z"/><path fill="#ccc" d="M1543.967 976.007a1.475 1.475 0 0 1 1.402 2.594 1.475 1.475 0 0 1-1.402-2.594Z"/><path fill="#ccc" d="M1509.948 977.055a1.474 1.474 0 0 1 2.917-.413 1.474 1.474 0 0 1-2.917.413Z"/><path fill="#ccc" d="M1516.886 982.808a1.473 1.473 0 0 1 1.401 2.591 1.473 1.473 0 0 1-1.401-2.59Z"/><path fill="#ccc" d="M1516.524 990.64a1.474 1.474 0 0 1 1.403 2.592 1.474 1.474 0 0 1-1.403-2.591Z"/><path fill="#ccc" d="M1562.296 978.225a1.474 1.474 0 0 1-1.053-2.753 1.474 1.474 0 0 1 1.053 2.753Z"/><path fill="#ccc" d="M1516.836 973.229a1.474 1.474 0 0 1 1.402 2.59 1.474 1.474 0 0 1-1.402-2.59Z"/><path fill="#ccc" d="M1508.572 983.038a1.474 1.474 0 0 1 1.403 2.592 1.474 1.474 0 0 1-1.403-2.592Z"/><path fill="#fff" d="M1234.882 1278.156h578.884a29.207 29.207 0 0 1 29.207 29.207v342.012a29.209 29.209 0 0 1-29.21 29.209h-578.88a29.209 29.209 0 0 1-29.208-29.21v-342.01a29.207 29.207 0 0 1 29.207-29.208Z"/><path fill="#d3e6f0" d="M1770.522 1278.156c-20.2 352.566-294.392 356.695-564.847 343.253 1.005 17.987-6.789 57.157 21.498 57.173l594.299.002c11.875 0 21.5-10.35 21.5-23.123v-354.18c.239-34.972-51.897-20.213-72.45-23.125Z"/><path fill="#d3e6f0" d="M1491.494 1498.373c.179-41.56 65.485-41.553 65.658 0-.177 41.557-65.484 41.553-65.658 0Z"/><path fill="#93c4ec" d="M2126.334 673.018c-233.692-4.19-233.656-351.488.008-355.643 233.684 4.19 233.646 351.487-.008 355.643Zm0-341.709c-215.379 3.863-215.348 323.942.008 327.773 215.37-3.863 215.338-323.942-.008-327.773Z"/><path fill="#b7d8f2" d="M2144.448 686.262c-227.589-4.081-227.553-342.3.008-346.35 227.582 4.08 227.547 342.305-.008 346.35Zm0-341.706c-221.485 3.972-221.45 333.122.008 337.062 221.479-3.972 221.443-333.122-.008-337.062Z"/><path fill="#b7d8f2" d="M2118.97 693.038c-227.59-4.08-227.552-342.303.008-346.35 227.58 4.08 227.547 342.3-.007 346.35Zm0-341.707c-221.487 3.973-221.448 333.122.008 337.063 221.478-3.973 221.444-333.122-.007-337.063Z"/><path fill="#fff" d="M2111.432 520.01a25.025 25.025 0 0 1-2.883-1.753 8.543 8.543 0 0 1 2.883 1.752Z"/><path fill="#4b9ddf" d="M2123.658 523.297c47.057-.208 47.055-71.762-.002-71.965-47.058.21-47.053 71.76.002 71.965Z"/><path fill="#fff" d="M2090.303 515.347c.303.39.638.782.97 1.173a35.847 35.847 0 0 1-5.227 1.667 15.924 15.924 0 0 1 4.257-2.84ZM2161.538 516.39a32.036 32.036 0 0 1-1.898-.854c.06-.073.114-.146.19-.232a11.357 11.357 0 0 1 1.708 1.087Z"/><path fill="#4b9ddf" d="M2156.661 523.59c-12.742-6.589-25.586 21.893-54.675.606-13.65-6.486-21.42 14.475-21.497 27.04a11.034 11.034 0 0 0 10.928 11.98h67.242c20.353-2.549 8.628-33.185-1.998-39.627ZM2211.367 483.17c.639 26.034-28.738 44.176-51.727 32.366 15.123-17.14 12.51-47.412-5.055-61.706 22.475-17.003 57.686.814 56.782 29.34ZM2221.316 547.104a11.038 11.038 0 0 1-10.932 11.976h-33.322c3.187-10.48-.012-23.071-5.286-31.624 15.956 4.387 26.996-13.962 36.608-8.014 7.997 6.246 12.932 15.484 12.932 27.662ZM2080.368 487.31a44.474 44.474 0 0 0 10.905 29.21c-22.94 9.782-50.04-8.286-49.527-33.35-.811-27.645 32.358-45.648 55.102-30.47a44.557 44.557 0 0 0-16.48 34.61ZM2071.795 551.235a20.575 20.575 0 0 0 1.217 7.845c-10.035-1.527-39.92 6.171-38.449-11.974 0-11.672 4.416-20.653 11.687-26.876 9.765-6.158 19.265 10.061 31.814 7.454a44.586 44.586 0 0 0-6.27 23.55Z"/><path fill="#93c4ec" d="M628.721 1159.746c-233.693-4.19-233.656-351.486.007-355.642 233.686 4.19 233.647 351.486-.007 355.642Zm0-341.708c-215.38 3.863-215.348 323.942.007 327.772 215.372-3.86 215.337-323.943-.007-327.772Z"/><path fill="#b7d8f2" d="M646.835 1172.992c-227.59-4.083-227.553-342.302.008-346.352 227.582 4.082 227.547 342.303-.008 346.352Zm0-341.708c-221.485 3.976-221.449 333.123.008 337.063 221.478-3.972 221.444-333.122-.008-337.063Z"/><path fill="#b7d8f2" d="M621.357 1179.765c-227.59-4.08-227.552-342.302.007-346.349 227.582 4.08 227.546 342.305-.007 346.35Zm0-341.705c-221.484 3.973-221.45 333.122.007 337.061 221.48-3.97 221.443-333.122-.007-337.061Z"/><path fill="#4b9ddf" d="M594.852 934.469c-52.266-1.52-86.483 60.853-58.23 104.125-8.713 6.458-12.155 20.976-15.2 36.101 31.945-17.299 41.8-7.281 73.428-3.537 89.833-1.522 89.821-135.177.002-136.69Z"/><path fill="#4b9ddf" d="M734.08 1029.379c-25.932-19.236-39.655-10.34-65.555-3.99 15.029-46.36-20.163-97.12-68.506-99.455 44.39-81.306 165.88-13.202 118.86 67.343 10.263 6.11 13.88 19.793 15.2 36.102Z"/><path fill="#fff" d="M559.325 1001.834c-.142-9.86 15.343-9.86 15.198 0 .145 9.86-15.342 9.86-15.198 0ZM584.71 1001.834c-.145-9.86 15.341-9.86 15.196 0 .144 9.86-15.342 9.86-15.197 0ZM610.092 1001.834c-.145-9.86 15.343-9.86 15.197 0 .145 9.86-15.343 9.86-15.197 0Z"/><path fill="#93c4ec" d="M1000.558 572.944c-174.318-3.125-174.291-262.184.005-265.283 174.313 3.126 174.285 262.183-.005 265.283Zm0-254.89c-160.66 2.88-160.634 241.64.003 244.496 160.654-2.88 160.628-241.637-.003-244.495Z"/><path fill="#b7d8f2" d="M1014.069 582.826c-169.766-3.046-169.737-255.334.007-258.353 169.76 3.044 169.732 255.333-.007 258.353Zm0-254.89c-165.212 2.963-165.184 248.485.007 251.424 165.208-2.963 165.18-248.485-.007-251.424Z"/><path fill="#b7d8f2" d="M995.064 587.878c-169.765-3.044-169.738-255.333.007-258.354 169.76 3.045 169.734 255.334-.007 258.354Zm0-254.89c-165.212 2.964-165.187 248.487.007 251.424 165.205-2.959 165.179-248.484-.007-251.423Z"/><path fill="#4b9ddf" d="M1003.175 367.577c46.722 1.997 83.013 40.677 81.056 86.386-2.107 84.397-123.593 108.185-160.03 33.942-30.495-54.372 17.073-125.242 78.974-120.328Z"/><path fill="#b7d8f2" d="M1001.66 367.527c-2.923 5.57-8.895 2.89-13.392 5.675-3.686 2.459-5.608 7.276-4.426 8.81.886 1.154 3.249.056 3.722 1.024.94 2.87-7.922 7.489-10.539 9.133-3.18 6.002-6.983 8.643-13.747 6.242-2.961 5.32-1.248 17.641-13.411 12.34-1.702.86.1 4.305-2.052 7.462-4.136 5.025-8 3.314-11.373 4.88-5.007 10.967 3.534 16.403-2.114 29.505-2.24 5.286-5.076 6.115-4.425 8.793-.612 1.023 6 6.584 7.271 10.027-.2 1.94-3.828 1.836-5.278 4.573-.96 1.793 1.195 3.215.32 6.097-1.17 3.044-4.244 6.553-8.013 5.82-11.742-21.473-12.329-51.002-1.173-73.07 7.302-5.476 16.862-7.545 20.08-15.973 5.48-13.032 3.141-7.736 12.913-10.476 2.223-19.27 28.51-20.059 45.638-20.862ZM944.893 494.146c.698 2.89 5.707 5.547 9.092 8.262 5.163 4.152 2.78 2.908-.201 4.713-.843 1.45 1.28 4.967 2.94 4.851 3.836-6.347 13.173-9.679 8.665-18.521 3.217-2.508 5.897 1.81 7.722 3.479 1.717.535 2.668-1.626 4.785-1.37 2.164.262 2.166 2.642 4.58 3.345 4.301-.117 5.523-2.176 12.64-1.034 5.643.276 5.24-.02 6.284.27 3.798 1.045 4.045 3.573 7.658 5.05 8.2 1.225 31.254-.74 33.206-3.302-10.627-6.78 14.048-8.228 16.252-11.902 5.873-9.3 11.438-20.34 17.06-30.757 11.874-22.354-6.376.898-9.989-24.046-.768-1.567-1.146-15.402-4.044-15.916-5.351-2.205-1.235 17.737-7.164 20.16-8.075 2.245-7.36-3.165-12.838 5.748-2.38-2.283-3.259-8.719-10.599-9.9-5.559.934-4.253-3.02-7.588-6.622-3.763-2.346-6.323-1.654-7.588-6.621-1.804-2.882-3.826-2.204-6.086-4.984-1.739-2.144-1.168-3.323-2.94-4.85-3.024-2.881-5.662-1.865-9.498 1.168-3.31 1.501-4.846-.118-6.351 1.302-1.843 1.736.116 4.479-1.91 7.79-.76 1.242-1.21 1.141-3.276 3.01-4.49 4.055-3.953 5.97-6.622 7.589-3.476 2.099-5.454-.492-9.499 1.169-5.14 2.11-8.237 8.882-6.757 10.73 1.986 2.482 12.465-3.599 14.21-.965-3.176 11.273 10.947 3.103 14.077 2.175 1.188.758.56 5.06-1.907 7.79-7.021 6.756-7.905.51-14.076-2.177-13.46.367-5.974 16.838-7.228 21.735-1.468 2.206-4.34 1.257-6.487 4.444-1.017 3.812-3.987 3.987-6.557 6.019-2.234 6.316-4.557 1.726-7.992 2.806-.562.541-.042 1.281-.134 3.142-.17 3.47-2.14 4.085-1.84 6.22Z"/><path fill="#93c4ec" d="M2533.854 1060.52c-8.34 179.734-279.315 172.015-277.424-7.877 8.34-179.728 279.312-172.012 277.424 7.876Zm-266.554-7.565c-1.719 165.821 248.022 172.879 255.683 7.25 1.717-165.813-248.023-172.871-255.683-7.25Z"/><path fill="#b7d8f2" d="M2544.582 1046.871c-8.124 175.039-272.016 167.525-270.176-7.67 8.121-175.032 272.015-167.517 270.176 7.67Zm-266.554-7.56c-1.765 170.517 255.051 177.776 262.931 7.453 1.764-170.516-255.053-177.772-262.93-7.454Z"/><path fill="#b7d8f2" d="M2549.31 1066.63c-8.122 175.036-272.015 167.522-270.176-7.672 8.123-175.035 272.015-167.52 270.176 7.673Zm-266.554-7.564c-1.764 170.52 255.053 177.777 262.93 7.455 1.766-170.512-255.05-177.77-262.93-7.455Z"/><path fill="#03a2eb" d="m2390.691 1067.716-8.051.122a28.018 28.018 0 0 0-4.251-4.598c-.133-2.426 2.897-9.514-.63-10.752-2.18-.77-6.276-4.043-8.403-1.61-5.037 5.191-4.622 5.755-12.005 5.093-4.761-5.814-5.137-9.426-13.416-5.606-3.664.766-1.602 8.188-2.001 10.567a28.109 28.109 0 0 0-4.827 4.015c-2.473.13-9.952-2.79-11.317.566-5.249 7.664-1.053 8.178 4.134 13.301a26.105 26.105 0 0 0-.408 6.1c-5.756 4.465-10.043 4.46-5.862 12.726.895 3.522 8.717 1.526 11.12 1.934a28.058 28.058 0 0 0 4.251 4.598c.115 2.427-2.883 9.511.63 10.75 7.725 4.86 8.581 1.27 13.996-3.893a29.916 29.916 0 0 0 6.408.405c4.763 5.813 5.14 9.432 13.42 5.613 3.663-.769 1.603-8.18 2.002-10.56a28.157 28.157 0 0 0 4.826-4.024c2.473-.13 9.954 2.787 11.316-.57 5.25-7.659 1.054-8.174-4.133-13.3a26.115 26.115 0 0 0 .408-6.097c1.63-1.744 9.09-4.692 7.556-8.002-.974-2.07-1.49-7.092-4.763-6.778Zm-25.24 34.796c-24.992 8.685-39.64-29.333-13.48-37.615 24.983-8.682 39.63 29.335 13.48 37.615Z"/><path fill="#03a2eb" d="M2343.54 1083.28c-.823 18.679 30.1 19.552 30.33.858.826-18.689-30.096-19.572-30.33-.858Zm22.972.651c-.122 9.615-16.041 9.163-15.617-.443.123-9.63 16.041-9.176 15.617.443ZM2470.373 985.378c-10.375 3.28-9.21 4.61-18.787-1.154-1.26-3.3-.323-14.19-5.664-14.44-3.263-.148-10.339-3.023-12.184 1.189-5.11 9.801-3.14 9.364-14.103 11.805-9.34-5.895-10.603-11.05-20.812-2.252-4.67 2.57 1.511 11.888 1.994 15.255a38.235 38.235 0 0 0-4.788 7.432c-10.506 2.2-15.657-1.137-16.35 12.384-1.323 5.041 10.02 7.44 12.745 9.471a38.023 38.023 0 0 0 2.17 8.5c-6.14 8.85-11.628 10.002-2.306 19.76 2.746 4.436 12.522-1.4 16.035-1.845a41.954 41.954 0 0 0 7.856 4.57c1.237 3.314.339 14.183 5.666 14.441 13.137 3.332 11.818-1.193 17.353-10.967a42.106 42.106 0 0 0 8.925-2.035c9.34 5.895 10.607 11.06 20.817 2.258 4.671-2.57-1.505-11.879-1.99-15.242a38.482 38.482 0 0 0 4.786-7.447c10.506-2.202 15.657 1.14 16.348-12.381 1.325-5.043-10.02-7.442-12.747-9.473a37.807 37.807 0 0 0-2.168-8.498c1.481-3.072 10.31-10.12 6.73-13.985-2.243-2.425-5.192-9.091-9.526-7.346Zm-18.884 57.743c-30.456 21.463-67.225-22.992-35.206-45.973 30.448-21.453 67.219 23.002 35.206 45.973Z"/><path fill="#03a2eb" d="M2412.995 1025.676c6.878 25.518 49.689 15.054 41.767-11.065-6.871-25.536-49.684-15.072-41.767 11.065Zm31.637-8.38c4.067 13.433-17.968 18.821-21.505 5.696-4.072-13.45 17.968-18.84 21.505-5.695Z"/><path fill="#d4e8f7" d="M2335.454 810.971c-.765 1.934-33.121 44.816-31.39 46.211 5.514 5.524 15.77.455 21.841-4.008 20.783-17.075 22.325-51.757-5.023-63.489-74.857-29.002-92.464 104.319-6.21 86.611l11.928 5.879c-84.187 33.235-113.433-91.57-29.136-106.94 48.783-3.677 73.694 54.59 34.082 85.609-9.88 8.942-42.179 14.518-40.398-5.475-22.133 8.706-35.404-14.973-24.021-34.305 8.722-21.715 46.913-43.265 52.694-9.63l4.29-6.059Zm-57.514 18.963c-5.748 9.333-1.588 22.24 10.218 18 9-4.5 25.679-24.67 23.986-35.736-9.014-19.54-29.578 7.1-34.204 17.736Z"/><path fill="#fff" d="M2230.94 1006.441a2.877 2.877 0 0 0 2.746-3.4 13.88 13.88 0 0 0-5.783-7.585 160.215 160.215 0 0 0-13.875-11.21 13.887 13.887 0 0 0-8.63-4.061 2.876 2.876 0 0 0-2.745 3.4 13.869 13.869 0 0 0 5.78 7.589 162.503 162.503 0 0 0 13.876 11.21 13.873 13.873 0 0 0 8.631 4.057Z" opacity=".109"/><path fill="#fff" d="M2211.74 992.734q3.053-.38 2.703-3.435a15.805 15.805 0 0 0-6.433-7.953 188.15 188.15 0 0 0-15.09-11.888 15.783 15.783 0 0 0-9.24-4.387 2.743 2.743 0 0 0-2.704 3.429 15.783 15.783 0 0 0 6.433 7.956 187.326 187.326 0 0 0 15.089 11.884 15.805 15.805 0 0 0 9.241 4.394Z" opacity=".109"/><path fill="#fff" d="M2220.09 973.84c2.39 0 5.623-2.202 5.623-4.855.004-2.166-3.926-7.252-6.259-7.252-2.39 0-5.622 2.201-5.623 4.853-.002 2.17 3.927 7.254 6.259 7.254Z" opacity=".109"/><path fill="#fff" d="M2226.412 984.169q3.747.833 3.205-2.97a31.426 31.426 0 0 0-8.23-12.219q-9.163-10.613-19.051-20.555a31.409 31.409 0 0 0-11.56-9.136q-3.75-.826-3.204 2.97a31.373 31.373 0 0 0 8.233 12.22q9.162 10.612 19.049 20.558a31.39 31.39 0 0 0 11.558 9.132Z" opacity=".109"/><path fill="#fff" d="M2236.224 972.272a6.592 6.592 0 0 0 3.605-2.462 3.485 3.485 0 0 0-.054-4.11 22.283 22.283 0 0 0-3.721-5.456 3.489 3.489 0 0 0-3.807-1.555 6.582 6.582 0 0 0-3.608 2.461 3.482 3.482 0 0 0 .056 4.11 22.301 22.301 0 0 0 3.72 5.457 3.49 3.49 0 0 0 3.809 1.555Z" opacity=".109"/><path fill="#fff" d="M2207.143 991.076c2.47 0 5.087-3.481 4.587-5.84-.528-2.517-5.403-6.238-7.935-6.238-2.474 0-5.088 3.48-4.592 5.842.528 2.513 5.405 6.236 7.94 6.236Z" opacity=".109"/><path fill="#fff" d="M2218.959 1010.851c3.733 0 6.146-2.586 4.033-6.242a52.8 52.8 0 0 0-17.044-11.004c-3.731 0-6.142 2.588-4.027 6.24a52.595 52.595 0 0 0 17.038 11.006Z" opacity=".109"/><path fill="#fff" d="M2238.999 983.26c7.927 0 .004-10.81-1.33-12.87q-6.003-8.86-12.799-17.135a19.08 19.08 0 0 0-8.465-7.541c-7.927 0-.005 10.811 1.33 12.87q6.003 8.86 12.797 17.136a19.108 19.108 0 0 0 8.467 7.54Z" opacity=".109"/><path fill="#fff" d="M2212.433 981.209c2.829 0 5.762-2.183 5.14-5.363a22.734 22.734 0 0 0-9.556-9.16c-2.831 0-5.762 2.186-5.142 5.363a22.707 22.707 0 0 0 9.558 9.16Z" opacity=".109"/><path fill="#fff" d="M2220.882 971.139c7.26 0 .44-9.457-.773-11.144a151.487 151.487 0 0 0-11.215-13.173 13.173 13.173 0 0 0-7.552-5.371c-7.26 0-.439 9.457.771 11.144a151.65 151.65 0 0 0 11.215 13.172 13.184 13.184 0 0 0 7.554 5.371Z" opacity=".109"/><path fill="#fff" d="M2237.348 995.475c8.431 0-2.077-11.937-2.933-13.001q-7.167-8.528-15.058-16.388a20.549 20.549 0 0 0-9.49-6.978c-8.432 0 2.075 11.941 2.932 13.003q7.167 8.526 15.058 16.387a20.502 20.502 0 0 0 9.49 6.976Z" opacity=".109"/><path fill="#fff" d="M2209.345 1000.996c2.66 0 4.975-3.707 4.216-6.121-.859-2.717-6.559-6.438-9.344-6.438-2.66 0-4.979 3.704-4.217 6.116.857 2.718 6.56 6.443 9.345 6.443Z" opacity=".109"/><path fill="#d4e8f7" d="m893.719 749.714-70.675-2.054c4.348-6.132 92.673-61.037 100.118-62.229Z"/><path fill="#d4e8f7" d="M937.716 692.708c55.998 86.416 41.27 54.143-62.395 125.75a15.553 15.553 0 0 1-21.413-5.006c-2.744-6.577-35.991-52.068-33.044-59.244l77.04 2.24 32.094-70.074a15.451 15.451 0 0 1 7.718 6.334ZM1948.636 345.204c-13.889-14.317-23.218 7.716-36.315-.8-11.656-8.307-35.43-23.076-29.418-40.52 12.674-17.346-7.878-38.045-25.156-23.032l-9.482 9.75c-29.347 23.044 41.767 78.514 67.643 93.669 13.679 8.078 22.31-3.948 30.32-12.194l-.008-.007c8.385-6.65 10.546-19.105 2.416-26.866ZM1262.486 350.92l-23.115 15.016c-16.108-19.33 1.151-31.308-1.685-51.068-9.945-11.996-24.364 6.297-14.986 17.952l-25.499 12.416c-28.354-42.085 59.105-89.83 68.632-35.244 1.487 10.456-12.52 30.38-3.347 40.927Zm-19.915 21.675 24.759-16.086 14.189 21.839-24.76 16.086ZM1148.565 990.912c4.363-7.318-12.766-3.441-14.429-7.367-6.887-15.356-7.35-15.45-14.512-.117-.553 2.154-11.546 2.314-13.131 2.888-7.828 3.356 8.307 10.288 7.344 14.44-3.453 16.47-3.132 16.82 11.672 8.627 3.686-2.133 15.05 11.246 15.96 2.779-2.538-14.24-3.412-11.429 7.096-21.25ZM755.809 1448.023c4.36-7.315-12.768-3.44-14.429-7.363-6.89-15.356-7.351-15.451-14.514-.12-.552 2.155-11.543 2.314-13.13 2.89-7.828 3.355 8.307 10.289 7.343 14.439-3.45 16.47-3.132 16.82 11.675 8.625 3.681-2.128 15.049 11.246 15.956 2.785-2.536-14.246-3.408-11.431 7.099-21.256ZM1611.127 391.85c4.361-7.317-12.765-3.44-14.426-7.364-6.89-15.356-7.352-15.45-14.516-.117-.555 2.152-11.544 2.312-13.127 2.887-7.831 3.357 8.304 10.29 7.341 14.44-3.452 16.47-3.132 16.82 11.674 8.626 3.68-2.131 15.048 11.247 15.958 2.782-2.538-14.242-3.41-11.432 7.096-21.253ZM2036.278 779.358c4.36-7.316-12.768-3.44-14.428-7.366-6.89-15.354-7.352-15.45-14.515-.115-.553 2.15-11.544 2.311-13.129 2.887-7.83 3.353 8.306 10.287 7.342 14.439-3.45 16.472-3.132 16.818 11.674 8.623 3.684-2.127 15.049 11.25 15.958 2.785-2.538-14.241-3.41-11.43 7.098-21.253ZM1887.201 1028.166c4.362-7.316-12.767-3.441-14.427-7.368-6.89-15.354-7.353-15.447-14.515-.117-.554 2.155-11.545 2.314-13.13 2.89-7.827 3.355 8.306 10.288 7.344 14.44-3.452 16.47-3.134 16.818 11.673 8.626 3.683-2.133 15.05 11.246 15.959 2.78-2.54-14.241-3.414-11.43 7.096-21.251ZM2380.438 1529.616c4.358-7.317-12.768-3.442-14.428-7.366-6.889-15.354-7.353-15.447-14.515-.116-.552 2.151-11.544 2.311-13.132 2.89-7.825 3.356 8.31 10.286 7.343 14.437-3.45 16.47-3.13 16.818 11.676 8.627 3.683-2.13 15.05 11.245 15.957 2.782-2.537-14.24-3.41-11.43 7.099-21.254ZM1201.241 574.365c4.36-7.316-12.767-3.442-14.428-7.365-6.888-15.356-7.352-15.448-14.513-.119-.555 2.155-11.546 2.314-13.13 2.889-7.83 3.357 8.305 10.29 7.341 14.44-3.451 16.47-3.132 16.82 11.674 8.626 3.684-2.13 15.05 11.246 15.958 2.783-2.538-14.243-3.41-11.433 7.098-21.254ZM2259.682 1719.445H688.873a22.873 22.873 0 0 1-22.87-22.873 22.87 22.87 0 0 1 22.87-22.87h1570.809a22.87 22.87 0 0 1 22.872 22.87 22.872 22.872 0 0 1-22.872 22.873Z"/></g></svg>