<svg xmlns="http://www.w3.org/2000/svg" enable-background="new 0 0 300 300" viewBox="0 0 300 300"><path fill="#d1dcf8" d="M78.365 144.001c0-.287.537-.546 1.622-.665h2.758c1.084.12 1.62.378 1.62.673s-.536.546-1.62.672h-2.758c-1.085-.126-1.622-.378-1.622-.68zM66.365 144.001c0-.287.537-.546 1.622-.665h2.758c1.084.12 1.62.378 1.62.673s-.536.546-1.62.672h-2.758c-1.085-.126-1.622-.378-1.622-.68zM54.365 144.001c0-.287.537-.546 1.622-.665h2.758c1.084.12 1.62.378 1.62.673s-.536.546-1.62.672h-2.758c-1.085-.126-1.622-.378-1.622-.68zM48.63 135.903c.287 0 .547.536.666 1.622v1.379c.006.465-.02.934.03 1.29.013.916.11 1.464-.16 1.617-.224.146-.85-.201-1.174-1.443-.068-.556-.032-1.01-.042-1.464v-1.38c.127-1.085.379-1.621.68-1.621zM48.63 123.903c.287 0 .547.536.666 1.621v2.758c-.12 1.084-.379 1.62-.673 1.62-.294 0-.546-.536-.673-1.62v-2.758c.127-1.085.379-1.621.68-1.621zM48.63 111.903c.287 0 .547.536.666 1.621v2.758c-.12 1.084-.379 1.62-.673 1.62-.294 0-.546-.536-.673-1.62v-2.758c.127-1.085.379-1.621.68-1.621zM48.63 99.903c.287 0 .547.536.666 1.621v2.758c-.12 1.084-.379 1.62-.673 1.62-.294 0-.546-.536-.673-1.62v-2.758c.127-1.085.379-1.621.68-1.621zM48.63 87.903c.287 0 .547.536.666 1.621v2.758c-.12 1.084-.379 1.62-.673 1.62-.294 0-.546-.536-.673-1.62v-2.758c.127-1.085.379-1.621.68-1.621zM48.63 75.903c.287 0 .547.536.666 1.621v2.758c-.12 1.084-.379 1.62-.673 1.62-.294 0-.546-.536-.673-1.62v-2.758c.127-1.085.379-1.621.68-1.621zM48.63 63.903c.287 0 .547.536.666 1.621v2.758c-.12 1.084-.379 1.62-.673 1.62-.294 0-.546-.536-.673-1.62v-2.758c.127-1.085.379-1.621.68-1.621zM51.213 52.953c.122.286-.292.654-.86 1.378a3.6 3.6 0 0 0-1.02 2.045c-.117.422-.185.853-.308 1.122-.117.27-.255.405-.402.405-.147 0-.284-.135-.4-.405-.105-.268-.239-.653-.223-1.309a4.947 4.947 0 0 1 1.402-2.808c1.01-.792 1.723-.68 1.811-.428zM63.166 52.604c0 .288-.537.547-1.622.666h-2.757c-1.084-.12-1.621-.378-1.621-.673s.537-.546 1.62-.672h2.758c1.085.126 1.622.378 1.622.68zM75.166 52.604c0 .288-.537.547-1.622.666h-2.757c-1.084-.12-1.621-.378-1.621-.673s.537-.546 1.62-.672h2.758c1.085.126 1.622.378 1.622.68zM87.166 52.604c0 .288-.537.547-1.622.666h-2.757c-1.084-.12-1.621-.378-1.621-.673s.537-.546 1.62-.672h2.758c1.085.126 1.622.378 1.622.68zM99.155 52.732c-.035.14-.196.236-.455.312-.262.07-.589.163-1.155.226h-2.758c-1.084-.12-1.621-.378-1.621-.673s.537-.546 1.62-.672h2.76c.518.058 1.005.157 1.274.327.275.161.372.336.335.48zM102.391 63.21c-.287 0-.546-.536-.665-1.621v-2.758c.119-1.084.378-1.62.673-1.62s.546.536.672 1.62v2.758c-.126 1.085-.378 1.622-.68 1.622zM102.391 75.21c-.287 0-.546-.536-.665-1.621v-2.758c.119-1.084.378-1.62.673-1.62s.546.536.672 1.62v2.758c-.126 1.085-.378 1.622-.68 1.622zM97.803 84.454c.001-.312.578-.467 1.4-.836a3.622 3.622 0 0 0 1.848-1.344c.617-.678.918-1.145 1.224-1.072.259.045.482.727-.13 1.854a4.967 4.967 0 0 1-2.537 1.845c-.622.125-1.097.066-1.392-.045-.287-.109-.41-.253-.413-.402zM85.803 84.454c0-.287.537-.546 1.622-.665h2.757c1.084.119 1.621.378 1.621.672s-.537.547-1.62.673h-2.758c-1.085-.126-1.622-.378-1.622-.68zM75.565 80.918c.303-.051.572.435 1.143 1.154.406.66 1.03 1.19 1.755 1.467.808.43 1.336.609 1.34.922.019.263-.585.646-1.831.33a4.942 4.942 0 0 1-2.408-2.011c-.537-1.168-.267-1.834.001-1.862zM75.501 68.922c.287 0 .547.536.666 1.621v2.758c-.12 1.084-.379 1.62-.673 1.62s-.546-.536-.673-1.62v-2.758c.127-1.085.379-1.621.68-1.621zM75.501 56.922c.287 0 .547.536.666 1.621v2.758c-.12 1.084-.379 1.62-.673 1.62s-.546-.536-.673-1.62v-2.758c.127-1.085.379-1.621.68-1.621zM75.501 44.922c.287 0 .547.536.666 1.621v2.758c-.12 1.084-.379 1.62-.673 1.62s-.546-.536-.673-1.62v-2.758c.127-1.085.379-1.621.68-1.621zM76.283 33.085c.248.177.094.713-.017 1.622-.095.397-.106.72-.1 1.214v1.38c-.118 1.084-.378 1.62-.672 1.62s-.546-.536-.673-1.62v-1.38c-.009-.424.005-1.03.137-1.527.454-1.202 1.113-1.48 1.325-1.309zM87.688 31.274c0 .287-.536.546-1.621.665h-2.758c-1.084-.119-1.62-.378-1.62-.672s.536-.547 1.62-.673h2.758c1.085.126 1.621.379 1.621.68zM99.688 31.274c0 .287-.536.546-1.621.665h-2.758c-1.084-.119-1.62-.378-1.62-.672s.536-.547 1.62-.673h2.758c1.085.126 1.621.379 1.621.68zM111.688 31.274c0 .287-.536.546-1.621.665h-2.758c-1.084-.119-1.62-.378-1.62-.672s.536-.547 1.62-.673h2.758c1.085.126 1.621.379 1.621.68zM123.688 31.274c0 .287-.536.546-1.621.665h-2.758c-1.084-.119-1.62-.378-1.62-.672s.536-.547 1.62-.673h2.758c1.085.126 1.621.379 1.621.68zM135.688 31.274c0 .287-.536.546-1.621.665h-2.758c-1.084-.119-1.62-.378-1.62-.672s.536-.547 1.62-.673h2.758c1.085.126 1.621.379 1.621.68zM147.688 31.274c0 .287-.536.546-1.621.665h-2.758c-1.084-.119-1.62-.378-1.62-.672s.536-.547 1.62-.673h2.758c1.085.126 1.621.379 1.621.68zM159.688 31.274c0 .287-.536.546-1.621.665h-2.758c-1.084-.119-1.62-.378-1.62-.672s.536-.547 1.62-.673h2.758c1.085.126 1.621.379 1.621.68zM171.688 31.274c0 .287-.536.546-1.621.665h-2.758c-1.084-.119-1.62-.378-1.62-.672s.536-.547 1.62-.673h2.758c1.085.126 1.621.379 1.621.68zM183.688 31.274c0 .287-.536.546-1.621.665h-2.758c-1.084-.119-1.62-.378-1.62-.672s.536-.547 1.62-.673h2.758c1.085.126 1.621.379 1.621.68zM195.688 31.274c0 .287-.536.546-1.621.665h-2.758c-1.084-.119-1.62-.378-1.62-.672s.536-.547 1.62-.673h2.758c1.085.126 1.621.379 1.621.68zM207.672 31.446c-.041.14-.206.227-.467.294-.286.061-.567.13-1.137.2h-2.758c-1.085-.12-1.622-.379-1.622-.673s.537-.547 1.622-.673h2.758c.515.05 1.047.182 1.289.36.268.171.357.35.315.492zM210.743 42.05c-.287 0-.546-.536-.665-1.621V37.67c.12-1.084.378-1.62.673-1.62s.546.536.672 1.62v2.758c-.126 1.085-.378 1.622-.68 1.622zM210.743 54.05c-.287 0-.546-.536-.665-1.621V49.67c.12-1.084.378-1.62.673-1.62s.546.536.672 1.62v2.758c-.126 1.085-.378 1.622-.68 1.622zM210.743 66.05c-.287 0-.546-.536-.665-1.621V61.67c.12-1.084.378-1.62.673-1.62s.546.536.672 1.62v2.758c-.126 1.085-.378 1.622-.68 1.622zM210.743 78.05c-.287 0-.546-.536-.665-1.621V73.67c.12-1.084.378-1.62.673-1.62s.546.536.672 1.62v2.758c-.126 1.085-.378 1.622-.68 1.622zM210.743 89.008c-.287 0-.546-.443-.665-1.34V85.39c.12-.896.378-1.34.673-1.34s.546.444.672 1.34v2.278c-.126.897-.378 1.34-.68 1.34z"/><path fill="#71c687" d="m238.914 215.94 1.091.416c1.525-.6 3.058-1.206 4.449-2.076 1.387-.873 2.631-2.043 3.343-3.52.96-1.994.859-4.332 1.548-6.435.772-2.354 2.485-4.28 4.344-5.918 1.86-1.638 3.91-3.062 5.645-4.827 1.735-1.77 3.174-3.973 3.418-6.436.172-1.713-.514-3.756-2.166-4.224-.555-.158-1.147-.113-1.72-.045-4.828.585-9.416 2.965-12.673 6.57-3.257 3.61-5.157 8.418-5.244 13.28-.04 2.293.308 4.584.225 6.877-.086 2.294-.663 4.69-2.26 6.338z"/><path fill="#71c687" d="M224.998 201.068c.003.604.123 1.222.326 1.784.787 2.163 2.732 3.868 4.98 4.36.574.123 1.167.175 1.706.404.54.228 1.035.686 1.095 1.267.075.742-.551 1.402-.551 2.147 0 .701.573 1.29 1.21 1.578 1.47.656 3.231.308 4.12 1.882.015.022.026.049.04.075.35.656.282 2.147.754 2.642.45.473.596-.262.66-.93.026-.295.037-.577.048-.734.015-.169.027-.333.038-.502.232-3.355.045-6.803-1.21-9.951-1.421-3.557-4.405-6.657-8.156-7.399-1.492-.296-3.224-.135-4.24.99-.584.648-.824 1.506-.82 2.387z"/><path fill="#61ba76" d="M224.998 201.068c.003.604.123 1.222.326 1.784.787 2.163 2.732 3.868 4.98 4.36.574.123 1.167.175 1.706.404.54.228 1.035.686 1.095 1.267.075.742-.551 1.402-.551 2.147 0 .701.573 1.29 1.21 1.578 1.47.656 3.231.308 4.12 1.882.412.618.81 1.507 1.285 1.731.064.03.12.05.169.057.408.06.258-.649.086-1.237-.079-.255-.157-.487-.199-.626-1.015-3.373-2.47-6.713-4.906-9.31-2.391-2.553-5.866-4.28-9.321-4.037z"/><path fill="#61ba76" d="m238.914 215.94.544.207c1.143-1.26 1.863-2.92 2.301-4.584.577-2.223.738-4.532 1.278-6.762 1.143-4.726 4.048-9.006 8.014-11.818 3.253-2.308 7.207-3.613 11.195-3.736.259-.675.435-1.38.506-2.103.172-1.713-.514-3.756-2.166-4.224-.555-.158-1.147-.113-1.72-.045-4.828.585-9.416 2.965-12.673 6.57-3.257 3.61-5.157 8.418-5.244 13.28-.04 2.293.308 4.584.225 6.877-.086 2.294-.663 4.69-2.26 6.338z"/><path fill="#d1dcf8" d="M236.91 231.267a9.847 9.847 0 0 1-6.232-9.162 9.803 9.803 0 0 1 3.017-7.084h13.665a9.803 9.803 0 0 1 3.018 7.084c0 .915-.124 1.796-.36 2.635a9.862 9.862 0 0 1-5.888 6.527h-7.22z"/><path fill="#bbcaea" d="M236.91 231.267a9.847 9.847 0 0 1-6.232-9.162 9.803 9.803 0 0 1 3.017-7.084h.858c.345 3.288 2.125 6.429 4.84 8.336 3.039 2.137 7.143 2.654 10.625 1.383a9.862 9.862 0 0 1-5.888 6.527h-7.22z"/><path fill="#eaeafa" d="M241.124 53.982V66.39c0 1.15-.934 2.088-2.088 2.088h-70.77a2.09 2.09 0 0 1-2.088-2.088V53.982c0-1.15.934-2.087 2.088-2.087h70.77c1.154 0 2.088.937 2.088 2.087z"/><path fill="#d1dcf8" d="M182.801 51.895h-14.535a2.089 2.089 0 0 0-2.088 2.087V66.39a2.09 2.09 0 0 0 2.088 2.088h14.535V51.895z"/><path fill="#fff" d="M235.603 57.052c0 .391-.158.742-.414.998a1.404 1.404 0 0 1-.998.414h-45.364a1.413 1.413 0 0 1 0-2.824h45.364c.78 0 1.412.632 1.412 1.412zM212.502 63.486c0 .39-.158.742-.414.998a1.404 1.404 0 0 1-.998.414h-22.263a1.413 1.413 0 0 1 0-2.825h22.263c.78 0 1.412.633 1.412 1.413z"/><path fill="#eaeafa" d="M241.124 78.258v12.407c0 1.15-.934 2.088-2.088 2.088h-70.77a2.09 2.09 0 0 1-2.088-2.088V78.258c0-1.151.934-2.088 2.088-2.088h70.77c1.154 0 2.088.937 2.088 2.088z"/><path fill="#d1dcf8" d="M182.801 76.17h-14.535a2.089 2.089 0 0 0-2.088 2.087v12.408a2.09 2.09 0 0 0 2.088 2.088h14.535V76.17z"/><path fill="#fff" d="M235.603 81.162c0 .391-.158.742-.414.998a1.404 1.404 0 0 1-.998.414h-45.364a1.413 1.413 0 0 1 0-2.824h45.364c.78 0 1.412.632 1.412 1.412zM212.502 87.596c0 .39-.158.742-.414.998a1.404 1.404 0 0 1-.998.414h-22.263a1.413 1.413 0 0 1 0-2.824h22.263c.78 0 1.412.632 1.412 1.412z"/><circle cx="174.49" cy="84.461" r="4.487" fill="#64d3ff"/><circle cx="174.49" cy="60.186" r="4.487" fill="#64d3ff"/><path fill="#1b2c8e" d="M222.114 107.336c0-3.17-2.57-5.739-5.739-5.739H75.913a5.739 5.739 0 0 0-5.739 5.739v76.69h151.94v-76.69z"/><path fill="#fff" d="M73.617 180.582v-73.246a2.295 2.295 0 0 1 2.295-2.295h140.463a2.296 2.296 0 0 1 2.296 2.296v73.245H73.617z"/><path fill="#e4ecf9" d="M79.009 110.433h93.035v64.757H79.009zM70.174 184.026v13.74a5.74 5.74 0 0 0 5.74 5.738h140.461c3.17 0 5.74-2.57 5.74-5.739v-13.74H70.174z"/><circle cx="146.144" cy="193.5" r="4.013" fill="#d1dcf8"/><path fill="#d1dcf8" d="M127.64 203.504h37.009v17.835H127.64z"/><path fill="#bbcaea" d="M127.64 203.504h37.009v5.36H127.64z"/><path fill="#e4ecf9" d="M120.114 221.339h52.061v3.479h-52.061zM209.533 141.18H184.4a5.004 5.004 0 0 1-5.004-5.004v-22.363a5.004 5.004 0 0 1 5.004-5.004h25.133a5.004 5.004 0 0 1 5.004 5.004v22.363a5.004 5.004 0 0 1-5.004 5.004z"/><circle cx="196.966" cy="120.162" r="6.684" fill="#fe4c40"/><path fill="#fff" d="m199.53 120.374-3.845 2.481c-.178.107-.4-.01-.4-.212v-4.962c0-.202.222-.319.4-.212l3.845 2.481a.248.248 0 0 1 0 .424z"/><path fill="#d1dcf8" d="M210.75 131.747c0 .29-.115.55-.306.737-.187.19-.45.306-.737.306h-25.482a1.041 1.041 0 0 1-.737-1.78c.188-.191.447-.307.737-.307h25.482c.578 0 1.044.469 1.044 1.044zM194.913 136.367c0 .29-.116.55-.306.737-.188.19-.45.306-.738.306h-9.644a1.041 1.041 0 0 1-.737-1.78c.188-.191.447-.307.737-.307h9.644c.578 0 1.044.469 1.044 1.044z"/><path fill="#e4ecf9" d="M209.533 178.107H184.4a5.004 5.004 0 0 1-5.004-5.004V150.74a5.004 5.004 0 0 1 5.004-5.003h25.133a5.004 5.004 0 0 1 5.004 5.003v22.364a5.004 5.004 0 0 1-5.004 5.004z"/><circle cx="196.966" cy="157.089" r="6.684" fill="#fe4c40"/><path fill="#fff" d="m199.53 157.3-3.845 2.482c-.178.107-.4-.01-.4-.212v-4.962c0-.202.222-.319.4-.212l3.845 2.481a.248.248 0 0 1 0 .424z"/><path fill="#d1dcf8" d="M210.75 168.674c0 .29-.115.55-.306.737-.187.19-.45.306-.737.306h-25.482a1.041 1.041 0 0 1-.737-1.78c.188-.191.447-.307.737-.307h25.482c.578 0 1.044.469 1.044 1.044zM194.913 173.293c0 .291-.116.55-.306.738-.188.19-.45.306-.738.306h-9.644a1.041 1.041 0 0 1-.737-1.78c.188-.191.447-.307.737-.307h9.644c.578 0 1.044.469 1.044 1.043z"/><path fill="#fec9ac" d="M176.635 157.892s-1.934-.93-6.615.14c-2.096.477-6.777.813-11.638.544-5.992-.342-12.254-1.614-14.25-4.697-3.605-5.59-3.773-10.36-3.773-10.36l13.527-2.282s2.13 4.872 3.37 5.438c.37.168 2.051.6 4.26 1.132.006 0 .011.006.011.006 5.23 1.25 13.387 3.038 13.965 3.06.824.034 6.413-3.57 7.102-1.978.684 1.598-1.412 2.64-1.412 2.64s7.674-.258 7.977 1.217c.303 1.463-1.979 6.738-12.524 5.14z"/><path fill="#ffab90" d="M155.462 149.198c-1.267 1.782-.325 4.255.79 6.138a44.17 44.17 0 0 0 2.13 3.24c-5.992-.342-12.254-1.614-14.25-4.697-3.605-5.59-3.773-10.36-3.773-10.36l13.527-2.282s2.13 4.872 3.37 5.438c.37.168 2.051.6 4.26 1.132-2.18-.308-4.793-.392-6.054 1.39z" opacity=".5"/><path fill="#64d3ff" d="M102.17 153.71c-.32 3.015-1.051 10.239-1.495 16.512-.125 1.78-.224 3.464-.285 4.969h44.594l-2.385-21.462-.594-2.49-.019-.062-.976-4.116-.075-.319s13.679-.713 13.347-4.66c-.087-1.044-.431-3.29-.981-6.11-.107-.55-.22-1.132-.35-1.726-.076-.375-.157-.757-.238-1.145-1.658-7.618-4.485-17.556-7.906-21.159-2.07-2.17-7.43-3.052-13.648-3.09-6.567-.05-14.079.838-19.67 2.127-2.67.613-4.897 1.32-6.38 2.052-3.427 1.194-6.36 3.52-8.919 6.66-.719 1.358-1.807 2.553-2.695 3.816a46.134 46.134 0 0 0-.976 1.657c-.331.726-.532 1.501-.52 2.364.05 2.846-.418 5.204-2.363 7.024-.413 2.609-1.333 5.173-2.84 7.293-1.582 2.246-2.702 4.779-3.465 7.418-.044.144-.087.3-.131.45 0 0 3.677 3.271 10.382 3.647 2.502.15 5.436-.107 8.738-1.089 0 0-.05.526-.15 1.439z"/><path fill="#42c1f4" d="m144.984 175.19-2.384-21.464-.595-2.489-.016-.06-.977-4.115-.077-.316s13.677-.715 13.344-4.661c-.087-1.048-.425-3.291-.977-6.113-.987.518-2.09.84-3.17 1.157-3.804 1.114-8.296 2.107-11.413-.35-1.97-1.554-2.816-4.12-3.416-6.56-.442 6.294 1.517 12.766-.17 18.846-1.238 4.465-4.316 8.176-7.547 11.494-6.43 6.606-14.212 12.436-23.07 14.632h40.468z"/><path fill="#2e363a" d="M132.477 85.734c-2.419 4.632-3.912 9.804-4.353 15.078-.286 3.414-.107 6.985 1.344 10.048 2.057 4.34 6.348 7 10.689 8.55 1.582.565 3.229 1.02 4.897.961s3.375-.683 4.497-1.994 1.524-3.37.712-4.917c-.49-.934-1.334-1.585-2.073-2.312-.738-.727-1.425-1.655-1.421-2.724.007-1.93 2.178-3.16 2.446-5.07.23-1.64-1.018-3.079-2.277-4.06s-2.72-1.909-3.259-3.465c-.66-1.91.32-3.962.734-5.949.563-2.7.02-5.638-1.463-7.913-.914-1.401-4.163-4.842-6.043-3.95-.867.41-1.474 2.472-1.932 3.288-.83 1.479-1.712 2.924-2.498 4.43z"/><path fill="#fec9ac" d="M137.727 99.552c-1.408 6.11-6.148 6.817-7.224 6.893-.138.018-.22.018-.22.018s-.23 1.276-.387 2.396c-.087.669-.15 1.282-.113 1.545.02.118.082.287.17.5.456 1.038 2.758 3.008 2.99 3.184v.012a8.582 8.582 0 0 0-.051.288c-.006.012-.006.025-.006.037-.35 1.758-2.333 9.876-9.194 9.457-7.337-.45-11.102-12.24-10.965-13.172 0-.044.02-.062.044-.056a.415.415 0 0 0 .132.019h.012c.138 0 .319-.038.538-.113.87-.282 2.277-1.057 3.446-1.651 1.589-.782.95-11.146.95-11.146-4.746-1.07-3.577-5.085-3.458-6.36.113-1.295 1.239-2.19 3.822-5.455 2.577-3.264 16.118-4.622 18.194-2.195 2.083 2.433 2.92 8.881 1.32 15.799z"/><path fill="#4f2d2a" d="M130.722 102.378c.044.193-.385.543-1.396.55-.85-.109-1.634-.303-2.41-.883-.436-.41-.532-.953-.446-1.24.081-.307.258-.385.351-.343.209.091.21.486.743.809.448.349 1.202.589 1.86.652.798.166 1.253.22 1.298.455zM125.544 90.45c-.046-.029-.054-.137.02-.316.073-.175.232-.426.536-.657a2.216 2.216 0 0 1 1.821-.304c.356.122.58.308.7.451.121.147.145.253.109.296-.083.104-.358-.1-.936-.212a1.717 1.717 0 0 0-1.418.237c-.518.295-.722.578-.832.505zM133.108 89.16c-.05-.09.195-.4.885-.56a3.297 3.297 0 0 1 1.735.223c.634.329.8.692.731.769-.08.102-.357-.068-.92-.255a2.802 2.802 0 0 0-1.478-.189c-.59.038-.897.133-.953.012zM130.452 98.654c.044-.042.19.082.465.285.136.096.314.21.523.257.199.046.483.007.629-.166.264-.253.075-1.016.009-1.609a20.085 20.085 0 0 0-.367-1.847c-.319-1.445-.522-2.16-.406-2.209.095-.042.487.605.91 2.069a20.66 20.66 0 0 1 .499 2.867c.014.17.023.353-.009.55-.03.197-.117.412-.27.571-.386.356-.818.316-1.114.214a1.507 1.507 0 0 1-.61-.451c-.245-.305-.3-.494-.26-.531z"/><ellipse cx="134.718" cy="92.993" fill="#4f2d2a" rx=".597" ry="1.137"/><ellipse cx="127.724" cy="93.618" fill="#4f2d2a" rx=".597" ry="1.137"/><path fill="#2e363a" d="M134.897 75.055c-4.033-2.835-9.096-4.102-13.89-3.454l-.06.008c-3.265.451-6.055 2.573-7.535 5.518-.062.123-.124.247-.188.37-1.783 3.456-5.214 5.776-6.46 9.55-1.31 3.97-.904 7.903-3.438 11.475-2.182 3.077-6.202 4.85-6.853 8.88-.626 3.877 1.594 7.583.114 11.443-1.19 3.103-4.649 5.221-4.587 8.683.051 2.847-.421 5.206-2.367 7.03-.171 1.074-.42 2.14-.77 3.172 1.867.356 3.815.077 5.35-1.065 3.28-2.45 3.447-7.403 4.613-11.473 1.397-4.893 4.718-9.129 8.994-11.477 2.625-1.442 6.525-2.187 8.74-4.265 3.361-3.159 3.02-9.177.312-12.975-.863-1.215-2.041-2.293-2.329-3.783-.271-1.393.41-2.932 1.588-3.604 1.182-.677 2.766-.43 3.713.579.66.696.834 4.77 1.717 5.086.118-.012.243-.1.377-.239.92-3.377 2.588-6.6 5.236-8.747 2.191-1.778 4.994-2.722 7.768-2.624.202.008.587.065.919.194 2.045-2.64 2.681-5.718-.964-8.282z"/><path fill="#ffab90" d="M115.532 91.585c.183-.808.828-1.478 1.594-1.654.327-.075.713-.046.93.224.253.317.149.82-.095 1.145-.243.325-.593.537-.885.813-.293.276-.542.673-.47 1.081.048.274.25.697-.136.802-.287.077-.348-.202-.471-.408-.375-.628-.641-1.238-.467-2.003z" opacity=".5"/><path fill="#ffab90" d="M121.089 102.96c1.163 2.796 3.204 5.159 5.724 6.637.994.574 2.05 1.017 3.142 1.308a2.641 2.641 0 0 1-.169-.498c-.097-.706.497-3.945.497-3.945s.08 0 .222-.019c-3.354-.254-6.638-1.468-9.416-3.483z" opacity=".5"/><path fill="#2e363a" d="M148.862 102.39c.321.585.173 1.32-.113 1.924s-.7 1.146-.924 1.774c-.58 1.622.222 3.435 1.346 4.74 1.123 1.307 2.566 2.318 3.63 3.672 1.065 1.355 1.706 3.27.916 4.801-.466.903-1.364 1.543-1.743 2.486-.447 1.112-.07 2.382.456 3.459s1.209 2.11 1.405 3.293c.197 1.182-.285 2.6-1.423 2.978-.368.122-.79.118-1.128-.07-.296-.165-.503-.448-.702-.722-1.98-2.71-4.524-5.436-7.86-5.805-1.384-.152-2.812.121-4.161-.224-1.628-.415-2.976-1.78-3.372-3.413-.19-.79-.174-1.623-.423-2.396-.556-1.727-2.338-2.89-2.732-4.66-.405-1.823.826-3.635 2.3-4.782 1.476-1.147 3.242-1.9 4.622-3.158a8.3 8.3 0 0 0 2.624-5.1 4.537 4.537 0 0 1 3.558.884"/><path fill="#fec9ac" d="M87.537 146.8c.305 0 10.077 1.12 11.4 3.563 1.323 2.443 14.25 11.4 15.37 11.197 1.12-.204 1.527-4.784 3.053-5.7 1.527-.916 2.443 4.58 2.443 4.58s5.305-3.249 8.46-2.487c3.155.762 3.042 8.29-1.436 11.037-4.479 2.749-9.976 2.85-12.52 2.545-2.545-.305-25.04-3.053-28.195-13.843-3.156-10.79 1.425-10.891 1.425-10.891z"/><path fill="#fec9ac" d="M126.826 168.991c-4.479 2.746-9.974 2.851-12.518 2.543-2.547-.303-25.04-3.053-28.198-13.842-3.155-10.789 1.425-10.89 1.425-10.89.308 0 10.08 1.118 11.4 3.56.28.518 1.082 1.328 2.18 2.276 4.09 3.552 12.31 9.08 13.193 8.922 1.118-.203 1.527-4.783 3.054-5.698 1.527-.92 2.442 4.58 2.442 4.58s5.305-3.252 8.46-2.49c.915.218 1.555 1.008 1.891 2.08.83 2.637-.146 7.007-3.329 8.959z"/><path fill="#ffab90" d="M126.826 168.991c-4.479 2.746-9.974 2.851-12.518 2.543-2.547-.303-25.04-3.053-28.198-13.842-3.155-10.789 1.425-10.89 1.425-10.89.308 0 10.08 1.118 11.4 3.56.28.518 1.082 1.328 2.18 2.276-.799 2.584-.062 5.621 1.607 7.824 2.025 2.677 5.163 4.301 8.346 5.378 2.86.968 5.893 1.563 8.894 1.252 3.005-.316 5.977-1.62 7.9-3.945.823-.992 1.435-2.146 2.293-3.114.83 2.636-.146 7.006-3.329 8.958z" opacity=".5"/><path fill="#42c1f4" d="M104.912 134.308c-2.742 2.915-5.637 5.93-9.343 7.172-2.6.871-5.705.544-7.893-1.021-.208.378-.432.745-.672 1.1-1.557 2.312-2.834 4.8-3.609 7.477l-.197.68s6.94 6.163 19.127 2.554c0 0-.06.526-.155 1.44 2.298-6.131 3.278-12.827 2.742-19.402z"/><path fill="#fff" d="M142.431 143.18c.038-.316 1.062-.333 2.975-.697a11.813 11.813 0 0 0 4.626-1.664c1.705-.938 2.505-1.577 2.74-1.353.198.168-.257 1.218-2.033 2.497a13.156 13.156 0 0 1-5.148 1.853c-2.186.145-3.206-.375-3.16-.637zM102.403 147.097c.149.172-.923 1.54-4.029 2.751a17.91 17.91 0 0 1-8.288.737c-3.268-.644-4.564-1.8-4.444-2.003.142-.318 1.6.32 4.638.672 2.56.38 5.216.143 7.67-.682 2.93-.883 4.252-1.77 4.453-1.475z"/><path fill="none" d="M86.456 136.993c3.78 2.966 9.386 2.405 12.19-.958 1.681-2.243 2.242-5.046 3.363-7.848.56-1.122 1.121-1.682 2.242-2.243 10.091-2.803 9.53-13.454 10.652-21.302-2.803-6.728-8.97-12.334-6.344-20.277M86.067 127.281c-.901 1.048-1.523 2.284-1.702 3.663"/><path fill="none" d="M107.426 86.515c.75 4.672.75 10.278-4.296 13.081-.56.56-1.121 1.682-1.682 2.803-1.12 3.924-1.681 7.848-4.333 10.477"/><path fill="#2e363a" d="M98.45 107.506c1.133 3.805.487 8.1-1.715 11.403-1.396 2.094-3.337 3.751-5.15 5.496-1.814 1.746-3.564 3.674-4.407 6.046-.843 2.371-.586 5.287 1.221 7.038 1.395 1.352 3.416 1.792 5.332 2.113 1.099.184 2.222.348 3.323.174s2.192-.737 2.745-1.705c.79-1.38.316-3.182.958-4.637.79-1.792 2.947-2.47 4.87-2.846 1.922-.376 4.07-.774 5.215-2.363 1.419-1.97.617-4.855 1.785-6.983 1.06-1.93 3.454-2.743 4.773-4.508 1.32-1.766 1.346-4.151 1.315-6.356-.033-2.36-.113-4.878-1.46-6.817-.867-1.251-2.18-2.127-3.125-3.322-1.352-1.711-1.85-3.973-1.807-6.153.044-2.18.587-4.317 1.126-6.43"/><path fill="#42c1f4" d="M64.625 196.415h52.03a2.432 2.432 0 0 0 2.434-2.435v-8.15a2.435 2.435 0 0 0-2.434-2.436h-52.03v13.021z"/><path fill="#13b1e2" d="M64.625 193.572v2.843h52.03a2.432 2.432 0 0 0 2.434-2.435v-.408H64.625z" opacity=".3"/><path fill="#64d3ff" d="M88 196.415a2.432 2.432 0 0 0 2.434-2.435v-8.15a2.435 2.435 0 0 0-2.435-2.436H52.622v1.229H88c.666 0 1.207.541 1.207 1.206v8.151c0 .665-.541 1.207-1.207 1.207H52.622v1.228H88z"/><path fill="#f6f6fe" d="M53.6 195.187H88c.665 0 1.206-.542 1.206-1.207v-8.15c0-.666-.541-1.207-1.207-1.207H53.6v10.564z"/><path fill="#d1dcf8" d="M53.598 195.19v-1.64h32.338c.663 0 1.204-.54 1.204-1.204v-7.72H88c.663 0 1.204.54 1.204 1.204v8.15c0 .663-.541 1.21-1.204 1.21H53.598z"/><path fill="#fe4c40" d="M111.665 224.76H40.66a2.432 2.432 0 0 1-2.435-2.435v-9.054a2.435 2.435 0 0 1 2.435-2.435h71.004v13.924z"/><path fill="#ea241f" d="M111.665 221.917v2.843H40.66a2.432 2.432 0 0 1-2.435-2.435v-.408h73.439z" opacity=".3"/><path fill="#fe7b73" d="M88.29 224.76a2.432 2.432 0 0 1-2.434-2.435v-9.054a2.435 2.435 0 0 1 2.434-2.435h33.57v1.228H88.29c-.665 0-1.206.541-1.206 1.207v9.054c0 .665.541 1.207 1.206 1.207h33.57v1.228H88.29z"/><path fill="#f6f6fe" d="M120.882 223.532H88.29a1.208 1.208 0 0 1-1.206-1.207v-9.054c0-.666.541-1.207 1.206-1.207h32.592v11.468z"/><path fill="#d1dcf8" d="M120.885 223.535v-1.64H90.354c-.664 0-1.204-.54-1.204-1.204v-8.624h-.86c-.663 0-1.204.54-1.204 1.204v9.054c0 .663.54 1.21 1.204 1.21h32.595z"/><path fill="#fcc230" d="M52.761 210.836h67.36a3.149 3.149 0 0 0 3.151-3.152v-8.109a3.152 3.152 0 0 0-3.152-3.152H52.761v14.413z"/><path fill="#f49758" d="M52.761 207.155v3.68h67.36a3.149 3.149 0 0 0 3.151-3.151v-.529h-70.51z" opacity=".3"/><path fill="#ffcf3d" d="M83.022 210.836a3.152 3.152 0 0 0 3.152-3.152v-8.109a3.152 3.152 0 0 0-3.152-3.152H38.017a.795.795 0 0 0 0 1.59h45.005c.863 0 1.562.7 1.562 1.562v8.108c0 .863-.7 1.562-1.562 1.562H38.017a.795.795 0 1 0 0 1.59h45.005z"/><path fill="#f6f6fe" d="M38.488 209.245h44.534c.861 0 1.562-.7 1.562-1.562v-8.108c0-.86-.7-1.561-1.562-1.561H38.488v11.231z"/><path fill="#d1dcf8" d="M38.485 209.25v-2.124H80.35c.858 0 1.558-.7 1.558-1.558v-7.55h1.113c.86 0 1.56.7 1.56 1.558v8.107c0 .859-.7 1.566-1.56 1.566H38.485z"/></svg>