<svg xmlns="http://www.w3.org/2000/svg" enable-background="new 0 0 300 300" viewBox="0 0 300 300"><path fill="#bbcaea" d="M149.173 168.913c-.287 0-.547-.537-.666-1.622v-2.757c.12-1.084.379-1.621.673-1.621s.546.537.673 1.62v2.758c-.127 1.085-.379 1.622-.68 1.622zM149.173 180.913c-.287 0-.547-.537-.666-1.622v-2.757c.12-1.084.379-1.621.673-1.621s.546.537.673 1.62v2.758c-.127 1.085-.379 1.622-.68 1.622zM149.173 192.913c-.287 0-.547-.537-.666-1.622v-2.757c.12-1.084.379-1.621.673-1.621s.546.537.673 1.62v2.758c-.127 1.085-.379 1.622-.68 1.622zM148.218 203.944c0-.11.08-.217.24-.313.14-.096.163-.181.152-.25-.04-.07-.075-.102-.103-.103v-2.744c.12-1.084.379-1.621.673-1.621s.546.537.673 1.62v2.771c-.03.498-.065.905-.106 1.214-.654-.07-1.11-.155-1.29-.252-.16-.097-.239-.206-.239-.322zM136.218 203.944c0-.287.537-.546 1.622-.666h2.757c1.084.12 1.621.379 1.621.673s-.537.546-1.62.673h-2.758c-1.085-.127-1.622-.379-1.622-.68zM124.218 203.944c0-.287.537-.546 1.622-.666h2.757c1.084.12 1.621.379 1.621.673s-.537.546-1.62.673h-2.758c-1.085-.127-1.622-.379-1.622-.68zM121.294 194.882c.288 0 .547.536.666 1.622v2.757c-.12 1.084-.378 1.62-.673 1.62s-.546-.536-.672-1.62v-2.757c.126-1.086.378-1.622.68-1.622zM126.728 188.33c0 .286-.537.546-1.622.665h-2.758c-.447-.05-.8-.122-1.06-.212l.46-.46c-.127.373-.288.559-.46.559s-.332-.186-.459-.56l-.091-.27.55-.188a5.27 5.27 0 0 1 1.06-.214h2.758c1.085.126 1.622.378 1.622.68zM138.728 188.33c0 .286-.537.546-1.622.665h-2.758c-1.084-.12-1.62-.379-1.62-.673s.536-.546 1.62-.672h2.758c1.085.126 1.622.378 1.622.68z"/><path fill="#bbcaea" d="M150.728 188.33c0 .286-.537.546-1.622.665h-2.758c-1.084-.12-1.62-.379-1.62-.673s.536-.546 1.62-.672h2.758c1.085.126 1.622.378 1.622.68zM162.728 188.33c0 .286-.537.546-1.622.665h-2.758c-1.084-.12-1.62-.379-1.62-.673s.536-.546 1.62-.672h2.758c1.085.126 1.622.378 1.622.68zM174.728 188.33c0 .286-.537.546-1.622.665h-2.758c-1.084-.12-1.62-.379-1.62-.673s.536-.546 1.62-.672h2.758c1.085.126 1.622.378 1.622.68zM186.728 188.33c0 .286-.537.546-1.622.665h-2.758c-1.084-.12-1.62-.379-1.62-.673s.536-.546 1.62-.672h2.758c1.085.126 1.622.378 1.622.68zM198.728 188.33c0 .286-.537.546-1.622.665h-2.758c-1.084-.12-1.62-.379-1.62-.673s.536-.546 1.62-.672h2.758c1.085.126 1.622.378 1.622.68zM210.728 188.33c0 .286-.537.546-1.622.665h-2.758c-1.084-.12-1.62-.379-1.62-.673s.536-.546 1.62-.672h2.758c1.085.126 1.622.378 1.622.68zM218.131 188.33c0 .286-.125.546-.38.665h-.644c-.254-.12-.38-.379-.38-.673s.126-.546.38-.672h.645c.254.126.38.378.38.68z"/><circle cx="218.131" cy="188.322" r="4.193" fill="#e4ecf9"/><path fill="#f3f6fd" d="M238.856 58.426v100.522c0 4.806-3.9 8.706-8.706 8.706H83.252a8.709 8.709 0 0 1-8.706-8.706V58.426c0-4.816 3.9-8.706 8.706-8.706H230.15a8.703 8.703 0 0 1 8.706 8.706z"/><path fill="#bbcaea" d="M238.856 58.426v5.165H74.546v-5.165c0-4.816 3.9-8.706 8.706-8.706H230.15a8.703 8.703 0 0 1 8.706 8.706z"/><path fill="#fff" d="M232.869 57.401a2.86 2.86 0 0 1-2.865 2.86 2.86 2.86 0 0 1 0-5.719 2.86 2.86 0 0 1 2.865 2.86zM211.776 57.401a2.86 2.86 0 0 1-2.865 2.86 2.86 2.86 0 0 1 0-5.719 2.86 2.86 0 0 1 2.865 2.86zM222.322 57.401a2.86 2.86 0 0 1-2.865 2.86 2.86 2.86 0 0 1 0-5.719 2.86 2.86 0 0 1 2.865 2.86z"/><path fill="#e4ecf9" d="M101.44 87.869H88.674a2.324 2.324 0 0 1-2.325-2.325V72.777a2.324 2.324 0 0 1 2.325-2.325h12.768a2.325 2.325 0 0 1 2.324 2.325v12.767a2.324 2.324 0 0 1-2.324 2.325zM126.254 87.869h-12.768a2.325 2.325 0 0 1-2.324-2.325V72.777a2.324 2.324 0 0 1 2.324-2.325h12.768a2.324 2.324 0 0 1 2.325 2.325v12.767a2.324 2.324 0 0 1-2.325 2.325zM151.068 87.869H138.3a2.324 2.324 0 0 1-2.324-2.325V72.777a2.324 2.324 0 0 1 2.324-2.325h12.768a2.324 2.324 0 0 1 2.325 2.325v12.767a2.324 2.324 0 0 1-2.325 2.325zM175.882 87.869h-12.768a2.324 2.324 0 0 1-2.325-2.325V72.777a2.324 2.324 0 0 1 2.325-2.325h12.768a2.324 2.324 0 0 1 2.324 2.325v12.767a2.324 2.324 0 0 1-2.324 2.325zM201.685 88.242h-14.747a1.71 1.71 0 0 1-1.709-1.708V71.787a1.71 1.71 0 0 1 1.709-1.709h14.747a1.71 1.71 0 0 1 1.71 1.709v14.747a1.71 1.71 0 0 1-1.71 1.708zm-14.747-17.416c-.53 0-.96.43-.96.96v14.748c0 .53.43.961.96.961h14.747c.53 0 .961-.43.961-.96V71.786c0-.53-.43-.961-.96-.961h-14.748zM225.51 87.869H212.74a2.324 2.324 0 0 1-2.324-2.325V72.777a2.324 2.324 0 0 1 2.324-2.325h12.768a2.324 2.324 0 0 1 2.325 2.325v12.767a2.324 2.324 0 0 1-2.325 2.325zM101.44 111.238H88.674a2.324 2.324 0 0 1-2.325-2.324V96.146a2.325 2.325 0 0 1 2.325-2.325h12.768a2.325 2.325 0 0 1 2.324 2.325v12.767a2.325 2.325 0 0 1-2.324 2.325zM126.254 111.238h-12.768a2.325 2.325 0 0 1-2.324-2.325V96.146a2.325 2.325 0 0 1 2.324-2.325h12.768a2.324 2.324 0 0 1 2.325 2.324v12.768a2.325 2.325 0 0 1-2.325 2.325zM152.058 111.612H137.31a1.71 1.71 0 0 1-1.708-1.709V95.156a1.71 1.71 0 0 1 1.708-1.709h14.748a1.71 1.71 0 0 1 1.708 1.709v14.747a1.71 1.71 0 0 1-1.708 1.709zM137.31 94.195a.962.962 0 0 0-.96.96v14.748c0 .53.43.961.96.961h14.748c.53 0 .96-.43.96-.96V95.155c0-.53-.43-.961-.96-.961H137.31zM175.882 111.238h-12.768a2.325 2.325 0 0 1-2.325-2.325V96.146a2.325 2.325 0 0 1 2.325-2.325h12.768a2.324 2.324 0 0 1 2.324 2.325v12.767a2.324 2.324 0 0 1-2.324 2.325zM200.696 111.238h-12.768a2.325 2.325 0 0 1-2.325-2.325V96.146a2.325 2.325 0 0 1 2.325-2.325h12.768a2.324 2.324 0 0 1 2.324 2.325v12.767a2.324 2.324 0 0 1-2.324 2.325zM225.51 111.238H212.74a2.324 2.324 0 0 1-2.324-2.324V96.146a2.325 2.325 0 0 1 2.324-2.325h12.768a2.324 2.324 0 0 1 2.325 2.325v12.767a2.324 2.324 0 0 1-2.325 2.325zM101.44 134.607H88.674a2.324 2.324 0 0 1-2.325-2.324v-12.768a2.325 2.325 0 0 1 2.325-2.325h12.768a2.325 2.325 0 0 1 2.324 2.325v12.768a2.324 2.324 0 0 1-2.324 2.324zM126.254 134.607h-12.768a2.324 2.324 0 0 1-2.324-2.324v-12.768a2.325 2.325 0 0 1 2.324-2.325h12.768a2.325 2.325 0 0 1 2.325 2.325v12.768a2.324 2.324 0 0 1-2.325 2.324zM151.068 134.607H138.3a2.324 2.324 0 0 1-2.324-2.324v-12.768a2.324 2.324 0 0 1 2.324-2.325h12.768a2.325 2.325 0 0 1 2.325 2.325v12.768a2.324 2.324 0 0 1-2.325 2.324zM175.882 134.607h-12.768a2.324 2.324 0 0 1-2.325-2.325v-12.768a2.324 2.324 0 0 1 2.325-2.324h12.768a2.324 2.324 0 0 1 2.324 2.325v12.768a2.324 2.324 0 0 1-2.324 2.324zM200.696 134.607h-12.768a2.324 2.324 0 0 1-2.325-2.324v-12.768a2.325 2.325 0 0 1 2.325-2.325h12.768a2.324 2.324 0 0 1 2.324 2.325v12.768a2.324 2.324 0 0 1-2.324 2.324zM225.51 134.607H212.74a2.324 2.324 0 0 1-2.324-2.324v-12.768a2.325 2.325 0 0 1 2.324-2.325h12.768a2.324 2.324 0 0 1 2.325 2.325v12.768a2.324 2.324 0 0 1-2.325 2.324zM102.43 158.35H87.683a1.71 1.71 0 0 1-1.708-1.709v-14.748a1.71 1.71 0 0 1 1.708-1.708h14.749a1.71 1.71 0 0 1 1.708 1.708v14.748a1.71 1.71 0 0 1-1.708 1.709zm-14.748-17.417c-.53 0-.96.43-.96.96v14.748c0 .53.43.961.96.961h14.749c.53 0 .96-.43.96-.96v-14.749c0-.53-.43-.96-.96-.96H87.682zM126.254 157.976h-12.768a2.325 2.325 0 0 1-2.324-2.325v-12.768a2.324 2.324 0 0 1 2.324-2.324h12.768a2.324 2.324 0 0 1 2.325 2.324v12.768a2.325 2.325 0 0 1-2.325 2.325zM151.068 157.976H138.3a2.324 2.324 0 0 1-2.324-2.325v-12.768a2.324 2.324 0 0 1 2.324-2.324h12.768a2.324 2.324 0 0 1 2.325 2.324v12.768a2.325 2.325 0 0 1-2.325 2.325zM175.882 157.976h-12.768a2.324 2.324 0 0 1-2.325-2.324v-12.769a2.324 2.324 0 0 1 2.325-2.324h12.768a2.324 2.324 0 0 1 2.324 2.325v12.767a2.324 2.324 0 0 1-2.324 2.325zM200.696 157.976h-12.768a2.325 2.325 0 0 1-2.325-2.325v-12.768a2.324 2.324 0 0 1 2.325-2.324h12.768a2.324 2.324 0 0 1 2.324 2.324v12.768a2.324 2.324 0 0 1-2.324 2.325zM225.51 157.976H212.74a2.324 2.324 0 0 1-2.324-2.325v-12.768a2.324 2.324 0 0 1 2.324-2.324h12.768a2.324 2.324 0 0 1 2.325 2.324v12.768a2.324 2.324 0 0 1-2.325 2.325z"/><path fill="#71c687" d="M94.148 85.001c-.261 0-.516-.091-.72-.26l-4.199-3.512a1.121 1.121 0 0 1 1.439-1.72l3.274 2.738 5.347-7.431a1.12 1.12 0 1 1 1.82 1.31l-6.051 8.41a1.12 1.12 0 0 1-.91.465zM193.87 85.001c-.261 0-.517-.091-.72-.26l-4.199-3.512a1.121 1.121 0 0 1 1.439-1.72l3.274 2.738 5.347-7.431a1.12 1.12 0 1 1 1.82 1.31l-6.051 8.41a1.12 1.12 0 0 1-.91.465zM118.944 154.064c-.261 0-.516-.092-.719-.261l-4.2-3.512a1.121 1.121 0 0 1 1.44-1.72l3.274 2.738 5.347-7.431a1.12 1.12 0 1 1 1.82 1.31l-6.052 8.41a1.12 1.12 0 0 1-.91.466z"/><path fill="#d1dcf8" d="M163.291 96.613h13.517v13.813h-13.517z" transform="rotate(.511 170.05 103.52)"/><path fill="#fcc230" d="M162.316 95.607h13.517v13.813h-13.517z" transform="rotate(.511 169.075 102.514)"/><circle cx="169.074" cy="102.529" r="4.483" fill="#fff"/><path fill="#d1dcf8" d="M113.6 73.272h13.517v13.813H113.6z" transform="rotate(.511 120.359 80.178)"/><path fill="#71c687" d="M112.624 72.266h13.517v13.813h-13.517z" transform="rotate(.511 119.383 79.172)"/><path fill="#fff" d="m123.668 76.916-8.01-.071a.589.589 0 0 1-.582-.593v-.035a.589.589 0 0 1 .592-.582l8.01.072c.324.002.585.269.582.592v.035a.589.589 0 0 1-.592.582zM123.644 79.59l-8.01-.071a.589.589 0 0 1-.582-.592v-.036a.589.589 0 0 1 .593-.582l8.01.072c.323.003.584.269.582.592v.036a.589.589 0 0 1-.593.581zM121.395 82.065l-5.784-.052a.589.589 0 0 1-.581-.592v-.036a.589.589 0 0 1 .592-.581l5.784.051c.323.003.585.27.582.592v.036a.589.589 0 0 1-.593.582z"/><path fill="#d1dcf8" d="M138.413 119.495h13.517v13.813h-13.517z" transform="rotate(.511 145.173 126.401)"/><path fill="#fe4c40" d="M137.438 118.489h13.517v13.813h-13.517z" transform="rotate(.511 144.197 125.395)"/><path fill="#fff" d="m148.482 123.14-8.01-.072a.589.589 0 0 1-.583-.592v-.036a.589.589 0 0 1 .593-.582l8.01.072c.323.003.585.269.582.592v.036a.589.589 0 0 1-.592.581zM148.458 125.813l-8.01-.071a.589.589 0 0 1-.582-.592v-.036a.589.589 0 0 1 .592-.582l8.01.072c.323.003.585.27.582.592v.036a.589.589 0 0 1-.592.581zM146.209 128.288l-5.784-.052a.589.589 0 0 1-.582-.592v-.035a.589.589 0 0 1 .593-.582l5.784.051c.322.003.584.27.581.593v.035a.589.589 0 0 1-.592.582z"/><path fill="#d1dcf8" d="M212.855 143.729h13.517v13.813h-13.517z" transform="rotate(.511 219.614 150.635)"/><path fill="#8d7ea3" d="M211.879 142.723h13.517v13.813h-13.517z" transform="rotate(.511 218.638 149.63)"/><path fill="#fff" d="m222.923 147.373-8.01-.071a.589.589 0 0 1-.582-.592v-.036a.589.589 0 0 1 .592-.582l8.01.072c.324.003.585.27.582.592v.036a.589.589 0 0 1-.592.581zM222.9 150.047l-8.011-.071a.589.589 0 0 1-.582-.592v-.036a.589.589 0 0 1 .593-.581l8.01.071c.323.003.584.27.582.592v.036a.589.589 0 0 1-.593.581zM220.65 152.522l-5.783-.052a.589.589 0 0 1-.582-.592v-.035a.589.589 0 0 1 .592-.582l5.784.052c.323.003.585.269.582.592v.035a.589.589 0 0 1-.593.582z"/><path fill="#d1dcf8" d="M188.041 118.769h13.517v13.813h-13.517z" transform="rotate(.511 194.8 125.676)"/><path fill="#42c1f4" d="M187.065 117.763h13.517v13.813h-13.517z" transform="rotate(.511 193.825 124.67)"/><path fill="#fff" d="m198.11 122.414-8.01-.072a.589.589 0 0 1-.583-.592v-.036a.589.589 0 0 1 .593-.581l8.01.071c.323.003.585.27.582.592v.036a.589.589 0 0 1-.592.582zM198.086 125.088l-8.01-.072a.589.589 0 0 1-.582-.592v-.035a.589.589 0 0 1 .592-.582l8.01.071c.323.003.585.27.582.592v.036a.589.589 0 0 1-.592.582zM195.837 127.562l-5.784-.051a.589.589 0 0 1-.582-.592v-.036a.589.589 0 0 1 .593-.582l5.784.052c.322.003.584.27.581.592v.036a.589.589 0 0 1-.592.581z"/><path fill="#fec9ac" d="M66.178 233.058h6.636v10.806h-6.636z"/><path fill="#ffab90" d="M66.178 234.594v3.822a25.852 25.852 0 0 0 6.636-.464v-3.358h-6.636z"/><path fill="#2e363a" d="M63.629 247.84H84.7c.503 0 .961-.212 1.295-.56.333-.35.54-.83.54-1.357 0-.8-.475-1.516-1.19-1.802-2.218-.87-6.096-1.836-6.915-2.694-1.098-1.144-3.015-3.06-4.386-2.963-1.37.097-2.19 2.39-4.293 3.73-1.49.95-3.102-1.396-3.905-2.838-.273-.486-.955-.492-1.212 0-1.704 3.22-1.005 8.484-1.005 8.484z"/><path fill="#fec9ac" d="M41.854 233.058h6.636v10.806h-6.636z"/><path fill="#ffab90" d="M48.49 232.364v6.052a25.852 25.852 0 0 1-6.636-.464v-5.588h6.636z"/><path fill="#2e363a" d="M51.04 247.84H29.967c-.502 0-.961-.212-1.294-.56a1.962 1.962 0 0 1-.541-1.357c0-.8.475-1.516 1.19-1.802 2.218-.87 6.096-1.836 6.915-2.694 1.098-1.144 3.015-3.06 4.386-2.963 1.37.097 2.19 2.39 4.293 3.73 1.49.95 3.102-1.396 3.905-2.838.273-.486.956-.492 1.212 0 1.704 3.22 1.005 8.484 1.005 8.484z"/><path fill="#3a4146" d="M77.311 235.215s-5.263.418-9.716.22a37.221 37.221 0 0 1-1.803-.12c-1.626-.163-2.99-.434-3.722-.894-2.838-1.772-2.613-60.353-2.613-60.353s-6.857 60.264-8.007 60.87c-.418.22-2.08.13-4.119-.152-3.58-.501-8.326-1.615-9.518-2.712-1.26-1.16.256-41.155 1.38-67.131.347-8.11.645-14.535.993-21.874l38.51 1.605c.33.977.497 4.557.544 9.774.22 23.63-1.929 80.767-1.929 80.767z"/><path fill="#2e363a" d="M79.24 154.448a182.77 182.77 0 0 0-25.13 4.447c-4.484 1.124-8.974 2.436-12.962 4.772-.669.392-1.322.816-1.955 1.276.413-9.643.779-17.358.925-20.431a43.652 43.652 0 0 1 2.499-1.344l36.08 1.506c.329.977.496 4.557.543 9.774zM65.792 235.314c-1.626-.162-2.99-.433-3.722-.893-2.838-1.772-2.613-60.353-2.613-60.353s-6.857 60.264-8.007 60.87c-.418.22-2.08.13-4.119-.152 3.173-20.864 11.206-68.416 13.412-68.469l5.049 68.997z"/><path fill="#fec9ac" d="M75.01 142.325c1.242.123 3.032-.025 5.089-.41 7.16-1.337 18.217-5.449 20.469-12.402 1.841-5.595-7.847-17.114-7.847-17.114-2.619 5.357-4.7 10.578-8.067 13.148.252.216 1.938 2.961 2.45 3.982.01.025.016.046.01.066.124 1.277-10.975 6.924-10.975 6.924s-1.21.262-2.446-.615c-1.241-.877-3.57-2.554-4.298-1.472-.723 1.087 4.687 4.575 2.456 3.575-1.846-.826-6.252-1.79-7.95-1.395-.348.077-.59.215-.656.426-.42 1.225 6.437 4.749 11.766 5.287z"/><path fill="#ffcf3d" d="m80.218 128.56 3.289 18.148c-23.833 3.133-45.864-2.637-45.864-2.637l1.741-17.972c-4.743-1.494-10.108-16.08-10.108-16.08s3.348-4.905 9.564-10.838c5.007-4.783 11.31-8.054 18.151-9.135 6.387-1.01 12.708-.128 18.324 3.372.79.491 1.605 1.08 2.436 1.745 9.013 7.2 19.861 23.356 19.861 23.356-7.652 10.615-17.394 10.04-17.394 10.04z"/><path fill="#f3f6fd" d="m60.93 106.409 2.19 6.744h7.092l-5.737 4.168 2.191 6.745-5.737-4.169-5.737 4.169 2.191-6.745-5.737-4.168h7.092z"/><path fill="#fcc230" d="m80.218 128.56 3.289 18.148c-17.815 4.457-45.741-1.124-45.864-2.637l1.119-11.55c1.16.266 2.332.48 3.514.636 5.172.675 10.604.12 15.245-2.264 4.796-2.463 8.479-6.726 11.125-11.426 2.644-4.7 4.347-9.858 6.035-14.981 1.022-3.107 2.048-6.217 3.07-9.323 9.013 7.2 19.861 23.356 19.861 23.356-7.652 10.615-17.394 10.04-17.394 10.04z"/><path fill="#edba3b" d="M83.505 146.936a.228.228 0 0 1-.224-.187l-6.113-33.012a.228.228 0 1 1 .45-.083l6.112 33.012a.228.228 0 0 1-.225.27zM37.643 144.3a.228.228 0 0 1-.228-.252l3.146-30.501a.232.232 0 0 1 .25-.204.228.228 0 0 1 .204.25l-3.145 30.501a.228.228 0 0 1-.227.206z"/><path fill="#fec9ac" d="M67.945 90.347c-.642 1.9-3.023 3.206-4.827 3.701-1.712.47-3.525.51-5.242.057-3.867-1.022-3.963-3.417-3.963-3.417.653-.212.971-1.878 1.12-3.671.189-2.26.116-4.72.116-4.72H65.42s.301 3.121.628 5.525c.139.996.698 1.811 1.413 2.271.279.18.484.254.484.254z"/><path fill="#ffab90" d="M66.549 89.173c-3.51 1.27-7.654.856-10.626-1.396a9.967 9.967 0 0 1-.89-.76c.189-2.26.116-4.72.116-4.72H65.42s.301 3.121.628 5.525c.067.484.236.949.5 1.351z" opacity=".5"/><path fill="#fff" d="M68.575 93.343c.102.092-.056.499-.602 1.147-4.02 4.681-12.722 4.06-14.913.876-.533-.757-.466-1.267-.346-1.295.155-.057.357.301.931.748 2.613 2.092 8.16 2.735 13.795-.928.66-.437 1.02-.654 1.135-.548zM84.012 124.377c-.081-.304 1.032-.757 3.09-1.86a18.858 18.858 0 0 0 4.862-3.363c1.756-1.536 2.573-2.418 2.835-2.23.22.145-.195 1.365-1.907 3.204a20.196 20.196 0 0 1-5.205 3.601c-2.327.955-3.614.912-3.675.648zM38.005 119.958c-.162.21-1.123-.127-2.52-1.514a17.485 17.485 0 0 1-2.707-4.146c-.708-1.835-.63-2.85-.365-2.916.302-.082.717.761 1.583 2.346a16.134 16.134 0 0 0 2.501 3.83c1.104 1.43 1.71 2.15 1.508 2.4z"/><path fill="#fec9ac" d="M68.866 78.827c-.276 1.967-.676 4.042-2.02 5.505-1.192 1.297-2.986 1.915-4.748 1.998-.955.046-1.924-.053-2.827-.37-1.832-.638-3.249-2.095-4.521-3.555a34.148 34.148 0 0 1-1.377-1.658c-.454-.59-1.021-1.074-1.63-1.502a4.283 4.283 0 0 1-.008-.006c-.486-.34-.882-.796-1.257-1.25-.301-.363-.606-.748-.683-1.206-.07-.415.059-.848.299-1.189.147-.203.325-.378.528-.526a11.22 11.22 0 0 1 .68-6.37 11.189 11.189 0 0 1 5.999-5.926l9.949-1.562c.043 1.488.679 2.88 1.13 4.294 1.371 4.266 1.107 8.882.486 13.323z"/><path fill="#2e363a" d="M72.89 65.963c-.399.926-.899 1.829-1.64 2.514-.741.684-1.754 1.125-2.754.997-.832-.11-1.562-.587-2.333-.926-.512-.23-1.204-.158-1.825.042-.677.225-1.389.338-2.1.274l-.624-.052c.094-.452.733-.47 1.09-.764-2.52-.268-5.127 1.305-6.068 3.66-.343.866-1.396 3.966-1.396 3.966s-1.042-.707-1.498-.884c-.605-.233-1.294-.402-1.937-.24-.505.124-.971.485-1.114.985-.24-1.012-.748-1.83-1.181-2.709-.651-1.318-.873-2.818-.738-4.282.13-1.447.572-2.92.986-4.29.391-1.282.794-2.584 1.531-3.705 1.031-1.565 2.664-2.675 4.433-3.304 1.764-.628 3.664-.805 5.538-.786 1.204.015 2.416.109 3.567.467 1.148.357 2.231 1 2.965 1.956.23.301.421.628.602.963.267.5.508 1.024.805 1.509a7.051 7.051 0 0 0 3.104 2.732c.226.101.467.195.629.387.338.399.169 1.009-.042 1.49z"/><path fill="#ffab90" d="M53.302 78.504a.453.453 0 0 1-.38.478.61.61 0 0 1-.316-.053c-.354-.14-.624-.433-.858-.734-.425-.545-.801-1.177-.816-1.87-.004-.218.034-.451.18-.613.207-.23.572-.244.873-.162a1.85 1.85 0 0 1 1.276 1.265l.041 1.689z" opacity=".5"/><path fill="#3a4146" d="M67.589 64.248c-.749.466-1.72.304-2.574.082-1.332-.346-2.683-.809-4.048-.636a4.523 4.523 0 0 0-3.296 2.171c-.17.294-.309.606-.512.877-.497.659-1.336.982-2.156 1.042-.824.06-1.64-.113-2.446-.286-2.638-.552-2.934-.657-3.503-.684.192-.862.448-1.713.704-2.56.391-1.282.794-2.584 1.531-3.705 1.031-1.565 2.664-2.675 4.433-3.304 1.764-.628 3.664-.805 5.538-.786 1.204.015 2.416.109 3.567.467 1.148.357 2.231 1 2.965 1.956.23.301.421.628.602.963.068.557.18 1.118.222 1.678.079 1.02-.158 2.186-1.027 2.725z"/><path fill="#4f2d2a" d="M58.378 73.308c-.04-.023-.046-.111.017-.258.065-.143.202-.348.465-.537a2.018 2.018 0 0 1 1.579-.248c.308.1.502.251.606.368.105.12.126.207.094.242-.07.085-.31-.08-.81-.173a1.564 1.564 0 0 0-1.23.194c-.448.24-.625.472-.72.412zM64.828 72.014c-.061-.058.073-.36.613-.648a3.016 3.016 0 0 1 1.497-.234c.601.109.821.355.78.432-.044.098-.313.03-.824.017a2.563 2.563 0 0 0-1.274.2c-.483.168-.719.316-.792.233zM62.724 79.696c.038-.035.165.067.403.233.118.079.272.172.453.21.173.037.419.005.545-.136.23-.206.065-.83.008-1.314a15.577 15.577 0 0 0-.318-1.509c-.276-1.18-.452-1.765-.352-1.805.083-.034.423.495.789 1.69a16.03 16.03 0 0 1 .432 2.343c.013.138.02.288-.007.45a.855.855 0 0 1-.234.466c-.335.29-.71.258-.966.174a1.302 1.302 0 0 1-.528-.368c-.213-.25-.26-.403-.225-.434zM63.442 82.617c.01.043-.084.123-.307.194-.22.068-.574.137-1.046.085-.792-.12-1.55-.48-2.109-1.084-.312-.376-.418-.764-.404-1.013.012-.252.1-.356.142-.346.112.014.02.472.599 1.058.465.506 1.144.837 1.838.939.822.15 1.26.05 1.287.167z"/><ellipse cx="66.421" cy="75.071" fill="#4f2d2a" rx=".517" ry=".929"/><ellipse cx="60.36" cy="75.582" fill="#4f2d2a" rx=".517" ry=".929"/><path fill="#2e363a" d="M67.725 145.219H52.598a2.03 2.03 0 0 1-2.03-2.03v-19.586c0-1.121.909-2.03 2.03-2.03h15.127c1.121 0 2.03.909 2.03 2.03v19.585a2.03 2.03 0 0 1-2.03 2.03z"/><path fill="#fec9ac" d="M58.899 136.612c-1.698-.395-6.104.569-7.95 1.395-.6.27-.638.206-.4-.04v-3.036c-.533.328-1.043.691-1.441.973-1.236.877-2.447.615-2.447.615s-11.098-5.647-10.975-6.924c-.005-.02 0-.04.01-.066.513-1.02 2.199-3.766 2.45-3.982-3.366-2.57-5.448-7.792-8.066-13.148 0 0-9.688 11.519-7.847 17.114 2.255 6.964 13.335 11.07 20.469 12.402 2.057.384 3.846.533 5.088.41 5.329-.538 12.186-4.062 11.765-5.288-.066-.21-.307-.348-.656-.425z"/><path fill="#ffab90" d="M59.557 137.035c.42 1.228-6.439 4.752-11.766 5.288-1.244.123-3.032-.022-5.09-.406a39.631 39.631 0 0 0 11.422-2.296c1.783-.65 3.65-1.549 4.777-3.011.348.078.586.216.657.425z"/><path fill="#61ba76" d="M253.599 205.096c3.13 2.859 1.77 5.717-.545 11.026-2.314 5.309-2.722 24.91-2.722 24.91l1.906-.272s-.273-20.146 2.314-25.59c2.586-5.446 3.675-8.168 5.989-6.399 2.314 1.77-6.942-3.675-6.942-3.675z"/><path fill="#71c687" d="M251.879 201.395c.38-1.694 2.638-3.527 5.658-5.082-.45 2.499-1.889 6.584-.399 7.422 2.01 1.13.196-4.574.971-7.709 2.835-1.384 6.246-2.516 9.387-3.08l-.013.035c-1.77 4.492-4.083 6.262-3.13 6.943.716.512 3.051-4.677 6.134-7.337 2.315-.123 4.273.19 5.43 1.107 1.791 1.418 2.993 2.675 1.192 6.99-1.028.736-2.36 1.263-3.909 1.418-4.083.408-5.989.544-3.13 1.905 1.4.667 3.745-.037 5.648-.466a71.123 71.123 0 0 1-2.298 3.89 14.452 14.452 0 0 1-1.913 2.435c-1.316.252-2.463.255-3.07-.006-1.907-.816-6.807-3.403-8.032-2.314-1.2 1.066 9.075 1.741 8.363 4.45-4.98 2.869-10.678 1.504-11.686-1.13-1.353-3.54-6.348-4.372-5.203-9.47z"/><path fill="#61ba76" d="M262.175 220.75c-5.445-4.084-11.026-.272-13.885 4.084-2.858 4.356-.817 14.156-.817 14.156s1.09 0 1.09-.408-2.995-11.57 4.083-16.607c4.428-3.15 7.623-1.633 8.031-.136.409 1.497-1.77 4.22-1.77 4.22l3.268-5.309z"/><path fill="#71c687" d="M249.651 212.356c5.445 0 7.215 8.44 5.717 13.34-1.497 4.9-3.539 14.02-3.539 14.02l-1.36-1.361s5.172-12.795 3.947-18.513c-1.225-5.717-4.22-6.67-4.765-6.67-.544 0 0-.816 0-.816z"/><path fill="#61ba76" d="M254.218 225.734a3.945 3.945 0 0 1 1.433-1.205c-.075.406-.17.796-.283 1.167-.682 2.232-1.477 5.34-2.14 8.064l-.297-1.715a7.172 7.172 0 0 1-.08-.634c.534-1.813 1.038-3.79 1.367-5.677z"/><path fill="#71c687" d="M255.707 225.775c10.345-4.356 4.895-10.334 14.015-6.386.642.278 1.425.98 2.209 1.946-.813.23-1.796.396-2.89.232-2.722-.409-1.77 1.77 2.722 2.314.847.103 1.534.244 2.105.444 2.14 4.11 3.105 9.518-1.424 11.398-.892.37-1.995.583-3.223.662-1.398-1.111.341-7.538-1.813-6.651-2.069.852.648 5.51.276 6.683-2.042-.037-4.303-.37-6.463-.906-.855-.479-1.507-1.121-1.708-1.966-.681-2.858 3.811-4.628 3.947-7.078.125-2.252-1.646 4.956-6.34 6.016-4.244-1.982-6.249-4.672-1.413-6.708zM248.336 218.073c1.088-2.314-1.77-2.859-1.634-1.089.12 1.568.134 5.38-1.474 6.417-2.774-.3-6.547-1.418-9.4-3.121a1.156 1.156 0 0 1 .12-.71c1.226-2.45 9.12-4.492 6.67-5.308-1.951-.65-5.37 3.188-8.126 5.122-1.655-1.255-2.763-2.752-2.763-4.423 0-2.261 2.748-4.821 6.301-6.045 1.6.162 3.085 1.036 5.405 2.35 3.428 1.943 2.635-1.197-.606-3.061 2.798.145 5.588 1.34 7.645 4.196 0 0-.195 1.22 1.097 3.109 3.525 5.151-.543 8.158-5.405 7.963.275-1.358 1.417-3.801 2.17-5.4z"/><path fill="#61ba76" d="M261.847 220.52c2.662 2.056 5.619 4.461 9.25 6.095 3.63 1.633 2.903 6.957 2.903 6.957s.545-4.598-2.48-6.17c-3.026-1.574-5.022-3.45-7.321-3.812-2.3-.363-3.57-.726-3.57-.726s.726-1.452.303-1.997c-.424-.544.915-.348.915-.348zM274.968 196.364c-9.74 2.602-16.88 8.833-18.21 10.346-1.332 1.512-1.332 1.936-1.332 1.936l1.029 1.936.484-.242s-.787-1.634 1.27-3.751c3.548-3.652 7.865-6.534 10.83-7.805 2.965-1.27 5.93-2.42 5.93-2.42z"/><path fill="#e4ecf9" d="M256.596 237.6v6.03c0 3.675-2.98 6.65-6.655 6.65a6.649 6.649 0 0 1-6.65-6.65v-6.03c0-.365.293-.662.657-.662h11.986c.122 0 .239.034.335.096a.642.642 0 0 1 .327.565z"/><path fill="#d1dcf8" d="M256.596 237.6v6.03c0 3.675-2.98 6.65-6.655 6.65a6.649 6.649 0 0 1-6.616-5.972 6.68 6.68 0 0 0 3.465.795c2.005-.08 3.917-.98 5.474-2.247a12.76 12.76 0 0 0 4.005-5.822.642.642 0 0 1 .327.565z"/><circle cx="260.534" cy="78.05" r="16.592" fill="#a698bb"/><circle cx="260.534" cy="78.05" r="14.747" fill="#f3f6fd"/><path fill="#bbcaea" d="M266.985 78.4h-8.429a.339.339 0 1 1 0-.678h8.429a.339.339 0 1 1 0 .678z"/><path fill="#fe4c40" d="M260.53 80.168a.17.17 0 0 1-.169-.17V66.18a.17.17 0 0 1 .34 0V80a.17.17 0 0 1-.17.17z"/><path fill="#bbcaea" d="M255.067 84.913a.169.169 0 0 1-.131-.277l6.75-8.251a.17.17 0 0 1 .238-.024c.072.059.083.166-.03.302l-6.748 8.252c.02-.023-.03-.002-.079-.002z"/><circle cx="260.531" cy="78.074" r=".56" fill="#fff"/><path fill="#e4ecf9" d="M275.278 78.05c0 8.148-6.601 14.75-14.743 14.75-5.787 0-10.794-3.332-13.21-8.176a14.73 14.73 0 0 0 11.365 5.347c8.142 0 14.75-6.609 14.75-14.75 0-2.348-.55-4.573-1.534-6.547a14.65 14.65 0 0 1 3.372 9.376zM188.61 194.214l-8.607-.077a2.455 2.455 0 0 1-2.433-2.477l.08-8.903a2.455 2.455 0 0 1 2.476-2.433l8.607.077a2.455 2.455 0 0 1 2.433 2.477l-.08 8.902a2.455 2.455 0 0 1-2.477 2.434z"/><path fill="#42c1f4" d="m187.007 192.73-8.607-.076a2.455 2.455 0 0 1-2.433-2.477l.08-8.903a2.455 2.455 0 0 1 2.476-2.433l8.607.077a2.455 2.455 0 0 1 2.433 2.476l-.08 8.903a2.455 2.455 0 0 1-2.476 2.433z"/><path fill="#fff" d="m182.768 181.404 1.328 2.693 2.972.432-2.15 2.095.507 2.96-2.657-1.397-2.658 1.397.507-2.96-2.15-2.095 2.972-.432z"/></svg>