<svg xmlns="http://www.w3.org/2000/svg" enable-background="new 0 0 300 300" viewBox="0 0 300 300"><path fill="#bbcaea" d="M124.009 144.193v-95.77a4.583 4.583 0 0 1 4.583-4.583h144.825A4.583 4.583 0 0 1 278 48.423v95.77a4.583 4.583 0 0 1-4.583 4.583H128.592a4.583 4.583 0 0 1-4.583-4.583z" opacity=".5"/><path fill="#e4ecf9" d="M119.215 138.046v-95.77a4.583 4.583 0 0 1 4.584-4.583h144.824a4.583 4.583 0 0 1 4.583 4.584v95.77a4.583 4.583 0 0 1-4.583 4.583H123.799a4.583 4.583 0 0 1-4.584-4.584z"/><path fill="#d1dcf8" d="M192.536 172.865c.223-.18.754.08 1.516.867l1.697 2.185c.573.931.696 1.513.462 1.691-.234.178-.764-.092-1.526-.869l-1.687-2.17c-.564-.933-.697-1.515-.462-1.704zM184.185 164.278c.175-.223.768-.1 1.684.53.708.611 1.393 1.246 2.058 1.9.7.858.877 1.433.666 1.634-.215.205-.76-.015-1.609-.674a41.482 41.482 0 0 0-1.994-1.841c-.725-.79-.993-1.309-.805-1.549zM173.516 158.986c.06-.275.655-.426 1.762-.219.905.274 1.793.6 2.66.973.975.553 1.336 1.045 1.204 1.303-.135.266-.716.237-1.735-.066a24.02 24.02 0 0 0-2.52-.923c-.972-.424-1.438-.77-1.371-1.068zM161.782 160.063c-.12-.253.252-.745 1.275-1.245.9-.324 1.83-.572 2.77-.74 1.136-.076 1.705.166 1.726.453.023.299-.487.57-1.488.87-.87.156-1.723.384-2.553.683-1.02.237-1.599.256-1.73-.021zM152.764 167.808c-.23-.172-.104-.753.49-1.699a28.87 28.87 0 0 1 1.894-2.09c.875-.7 1.466-.852 1.656-.633.197.224-.045.753-.705 1.585-.634.634-1.238 1.3-1.808 1.994-.754.755-1.285 1.022-1.527.843zM146.658 178.128c-.254-.132-.242-.73.175-1.745l1.32-2.439c.622-.9 1.103-1.245 1.358-1.098.255.147.219.743-.184 1.754l-1.306 2.415c-.629.888-1.094 1.252-1.363 1.113zM142.261 189.26c-.277-.055-.44-.646-.264-1.754.247-.91.54-1.803.866-2.682.498-.994.955-1.388 1.224-1.275.274.114.29.701.037 1.742a30.352 30.352 0 0 0-.83 2.568c-.397.988-.733 1.46-1.033 1.4zM143.942 200.871c-.242.14-.762-.19-1.345-1.17a15.569 15.569 0 0 1-.947-2.717c-.1-1.145.056-1.718.348-1.754.291-.037.643.446.958 1.43.206.852.504 1.682.867 2.486.32.997.386 1.572.119 1.725zM152.173 209.479c-.156.235-.762.16-1.721-.42a29.34 29.34 0 0 1-2.153-1.824c-.711-.86-.912-1.42-.7-1.625.211-.204.773-.008 1.617.642a28.152 28.152 0 0 0 2.054 1.74c.764.74 1.073 1.232.903 1.487zM163.482 212.627c.047.273-.457.655-1.606.801-.971.017-1.94-.078-2.884-.264-1.092-.344-1.53-.783-1.443-1.055.09-.289.665-.346 1.702-.265.86.17 1.734.255 2.603.24 1.024.103 1.578.237 1.628.543zM172.316 205.317c.26.092.35.72-.092 1.794a12.3 12.3 0 0 1-1.688 2.372c-.867.768-1.485.894-1.664.674-.193-.234.071-.74.667-1.577a10.973 10.973 0 0 0 1.505-2.114c.594-.837.98-1.255 1.272-1.149zM170.107 194.09c.205-.186.798.035 1.534.93a12.37 12.37 0 0 1 1.295 2.604c.27 1.126.087 1.732-.191 1.785-.297.06-.617-.412-1.075-1.33a11.043 11.043 0 0 0-1.155-2.324c-.457-.92-.64-1.46-.408-1.665zM159.201 190.473c-.045-.275.451-.647 1.584-.825.961-.044 1.932.007 2.889.168 1.113.316 1.553.77 1.464 1.038-.094.289-.66.339-1.687.289a12.26 12.26 0 0 0-2.606-.151c-1.037-.074-1.596-.214-1.644-.519zM148.657 195.847c-.19-.203.007-.778.799-1.586.735-.6 1.509-1.152 2.315-1.65 1.018-.486 1.632-.488 1.763-.23.137.266-.227.716-1.054 1.373-.758.468-1.484.987-2.174 1.55-.888.569-1.438.77-1.65.543z"/><path fill="#d1dcf8" d="M141.174 205.2c-.238-.16-.14-.744.397-1.703l1.612-2.261c.73-.818 1.247-1.098 1.48-.918s.121.771-.402 1.723l-1.59 2.23c-.728.804-1.248 1.098-1.497.93zM133.937 214.755c-.209-.203-.018-.757.598-1.634a42.342 42.342 0 0 0 1.727-2.094c.745-.773 1.262-1.062 1.503-.886.234.171.132.759-.44 1.709-.57.738-1.162 1.46-1.78 2.16-.828.745-1.395.952-1.608.745zM123.953 221.152c-.074-.284.376-.646 1.308-1.12.826-.312 1.63-.693 2.404-1.129.968-.413 1.544-.51 1.711-.262.161.239-.138.77-1.052 1.435a18.79 18.79 0 0 1-2.588 1.214c-1.106.277-1.71.147-1.783-.138zM112.267 219.852c.12-.266.705-.268 1.732-.012.837.311 1.69.568 2.556.761.992.34 1.485.641 1.45.94-.035.285-.615.49-1.743.373a21.019 21.019 0 0 1-2.729-.811c-1.004-.511-1.388-.98-1.266-1.25zM102.313 213.22c.187-.219.77-.08 1.68.501.71.57 1.406 1.16 2.15 1.675.795.724 1.08 1.252.914 1.495s-.745.134-1.71-.411c-.768-.533-1.476-1.132-2.2-1.713-.774-.788-1.03-1.319-.834-1.548zM93.907 204.677c.221-.182.78.05 1.588.769l1.828 2.028c.63.878.804 1.457.594 1.664-.209.206-.75-.016-1.575-.743l-1.864-2.068c-.638-.897-.804-1.458-.571-1.65zM87.104 194.807c.25-.141.76.183 1.432 1.031l1.45 2.313c.471.975.541 1.575.3 1.742s-.737-.145-1.424-1.004l-1.48-2.36c-.474-.993-.54-1.574-.278-1.722zM82.117 183.91c.27-.096.716.312 1.23 1.264l1.026 2.53c.293 1.04.258 1.644-.01 1.767-.267.123-.699-.272-1.226-1.237l-1.046-2.58c-.294-1.061-.259-1.645.026-1.745zM239.507 170.283l-39.602 8.58 2.445 2.643z"/><path fill="#e4ecf9" d="m239.507 170.283-47.641 22.973 6.958-11.813zM239.507 170.283l-32.48 2.51-7.122 6.07z"/><path fill="#d1dcf8" d="m201.676 188.515 4.162 3.92 33.668-22.15z"/><path fill="#bbcaea" d="m201.676 188.515 1.708 1.608 36.122-19.839z"/><path fill="#f3f6fd" d="M114.5 133.666v-95.77a4.583 4.583 0 0 1 4.584-4.583h144.824a4.583 4.583 0 0 1 4.583 4.584v95.77a4.583 4.583 0 0 1-4.583 4.583H119.084a4.583 4.583 0 0 1-4.584-4.584z"/><path fill="#e4ecf9" d="M233.538 50.262h.674v35.851h-.674z"/><path fill="#71c687" d="M249.305 239.092c.202-.176.405-.351.602-.526 1.587-1.39 3.2-2.797 4.788-4.247.124-.108.24-.217.356-.326 2.169-1.987 4.299-4.061 6.293-6.291a64.577 64.577 0 0 0 2.825-3.389 66.315 66.315 0 0 0 6.817-10.696c.54-1.054 1.05-2.298.496-3.252-.19-.332-.504-.577-.875-.747a2.13 2.13 0 0 0-.366-.138 3.628 3.628 0 0 0-1.406-.095c-1.055.133-2.05.642-2.96 1.193-2.339 1.423-4.34 3.185-6.09 5.105-.111.12-.23.246-.341.372-1.79 2.009-3.33 4.167-4.767 6.278a163.003 163.003 0 0 0-3.086 4.706c-.134.198-.26.4-.378.597a167.324 167.324 0 0 0-6.616 11.456h4.708zM232.228 218.993c.81 8.787 2.518 17.16 3.163 20.1h3.349c.167-1.845.484-5.391.838-9.58v-.006c.011-.102.015-.199.026-.301.115-1.313.23-2.695.337-4.098.023-.23.037-.453.06-.683.503-6.231.994-12.907 1.138-16.798.004-.154.016-.3.02-.442 0-.218.01-.43.013-.623.184-8.714-3.948-10.853-3.948-10.853-.28.035-.55.097-.81.181a3.802 3.802 0 0 0-.439.188c-2.39 1.198-3.575 4.934-4.003 9.74-.006.17-.028.344-.041.518-.275 3.728-.117 8.012.259 12.222.01.147.02.288.038.435zM244.489 239.092c1.074-2.799 2.805-7.328 4.758-12.51.101-.242.195-.49.288-.74 2.362-6.271 5.04-13.464 7.185-19.467.2-.563.402-1.114.586-1.649 1.044-2.931 1.913-5.47 2.483-7.305l.06-.207c.079-.255.157-.504.219-.747 3.2-11.165-.982-14.923-1.18-15.1l-.01-.008c-.101 0-.212 0-.314.008-4.278.147-7.816 5.302-10.582 12.516-.052.127-.104.254-.156.388-2.546 6.768-4.37 15.083-5.62 22.72-.026.197-.061.387-.096.577a241.111 241.111 0 0 0-1.667 12.723c-.022.208-.045.41-.068.613-.35 3.499-.566 6.348-.69 8.188h4.804zM255.467 239.092c.714-.33 1.47-.683 2.273-1.07.19-.091.38-.182.577-.272 1.961-.959 4.087-2.037 6.013-3.11.133-.073.258-.145.376-.217 4.2-2.37 7.269-4.674 5.158-5.395a2.109 2.109 0 0 0-.394-.109c-.015-.005-.03-.005-.046-.01-1.016-.195-2.244-.044-3.58.361l-.395.124c-2.158.715-4.569 2.025-6.876 3.5-.156.104-.312.209-.468.308-3.162 2.076-6.048 4.394-7.825 5.89h5.187zM230.174 236.396c.34.99.848 1.952 1.285 2.696h3.364c-.832-3.522-2.267-7.875-4.05-6.676a2.534 2.534 0 0 0-.322.263c-.092.089-.168.183-.236.288-.57.818-.488 1.976-.134 3.134.023.096.062.198.093.295z"/><path fill="#61ba76" d="M258.317 237.75c-.197.09-.387.18-.577.271l-3.016.115-.017-.25 3.61-.136zM230.174 236.396l2.378.679 1.143 2.017h.393l-3.637-6.413c-.092.089-.168.183-.236.288l2.149 3.789-2.283-.655c.023.096.062.198.093.295zM232.19 218.558c.01.147.02.288.038.435l3.78 2.74c.114 7.24.334 13.891.79 17.36h.349c-.27-2.103-.451-5.441-.578-9.489l3.372-4.496c.023-.23.037-.453.06-.683l-3.448 4.608c-.153-5.237-.219-11.673-.221-18.124l4.807-3.282c.004-.154.016-.3.02-.442l-4.825 3.287c0-5.094.036-10.173.08-14.582a3.802 3.802 0 0 0-.439.188c-.018 2.571-.056 8.02-.05 14.225l-3.953-4.484c-.006.168-.028.343-.041.517l3.99 4.523c.01 3.404.035 7.004.081 10.472l-3.812-2.773zM239.428 229.254l.176-.048c-.011.102-.015.2-.026.301-.05-.086-.1-.172-.15-.253zM241.27 239.092h.379c.336-1.304.688-2.665 1.057-4.077h.008V235c.237-.909.484-1.84.732-2.789l5.801-5.628c.101-.243.195-.492.288-.741l-5.922 5.747c.706-2.653 1.448-5.437 2.224-8.285l10.883-16.93c.2-.562.402-1.113.586-1.648l-11.154 17.396c1.44-5.261 2.96-10.71 4.441-15.876v-.007c.221-.368 4.61-4.598 9.255-9.025.08-.255.158-.504.22-.747-3.574 3.406-7.684 7.355-9.235 8.963 3.708-12.832 7.094-23.44 8.114-23.893l-.06-.17-.008-.008c-.102 0-.213 0-.315.008-1.106 1.252-3.414 8.079-5.97 16.59l-4.612-4.074c-.052.127-.104.254-.156.388l4.642 4.091a684.41 684.41 0 0 0-2.281 7.8 1068.023 1068.023 0 0 0-4.598 16.57l-3.383-5.74c-.026.196-.061.386-.096.576l3.345 5.657a1914.242 1914.242 0 0 0-2.945 11.079c-.42-1.05-1.407-2.837-2.067-4.013-.022.208-.045.41-.068.613.928 1.644 1.912 3.544 1.96 4.08-.468 1.798-.833 3.201-1.065 4.108zM246.932 239.092h.425c.574-.691 1.79-2.158 3.403-4.123l3.935-.65c.124-.108.24-.217.356-.326l-4.048.677a897.104 897.104 0 0 0 6.145-7.548l6.69-2.383c.11-.14.22-.28.33-.426l-6.68 2.385c4.641-5.776 9.857-12.435 13.119-17.08a2.13 2.13 0 0 0-.366-.138c-2.364 3.372-5.787 7.839-9.267 12.252l-1.19-6.05c-.11.12-.23.247-.34.373l1.21 6.09a811.66 811.66 0 0 1-8.929 11.11l-.134-6.216c-.134.198-.26.4-.378.597l.144 6.071c-2.197 2.694-3.841 4.676-4.425 5.385z"/><path fill="#61ba76" d="M253.25 239.092c1.66-1.037 4.67-2.911 7.906-4.876l3.174.423c.133-.072.258-.144.376-.216l-3.198-.425c2.97-1.813 6.07-3.675 8.356-4.97a2.109 2.109 0 0 0-.394-.109 227.63 227.63 0 0 0-3.745 2.187l.119-1.836-.395.124-.124 1.951a695.71 695.71 0 0 0-7.623 4.643l.87-3.094c-.155.104-.311.209-.467.308l-.863 3.067c-1.908 1.186-3.53 2.2-4.527 2.823h.536z"/><path fill="#d1dcf8" d="m256.885 239.092-3.815 27.043h-20.459l-1.179-8.353-2.636-18.69z"/><path fill="#bbcaea" d="m256.885 239.092-3.815 27.043h-20.459l-1.179-8.353c.373-.108.745-.221 1.118-.334 5.376-1.651 10.79-3.514 15.365-6.783 3.971-2.834 7.277-6.894 8.48-11.573h.49z"/><path fill="#fec9ac" d="M69.74 250.913h7.082v11.532H69.74z"/><path fill="#ffab90" d="M69.74 252.552v4.078c2.367.14 4.75-.024 7.082-.494v-3.584H69.74z"/><path fill="#2e363a" d="M67.02 266.687h22.486c.536 0 1.025-.226 1.381-.598.355-.373.577-.885.577-1.447 0-.855-.507-1.618-1.27-1.923-2.367-.928-6.505-1.96-7.38-2.875-1.17-1.221-3.217-3.266-4.68-3.162-1.462.103-2.337 2.551-4.58 3.98-1.592 1.013-3.311-1.49-4.168-3.028-.291-.519-1.02-.525-1.294 0-1.818 3.437-1.072 9.053-1.072 9.053z"/><path fill="#fec9ac" d="M43.783 250.913h7.082v11.532h-7.082z"/><path fill="#ffab90" d="M50.865 250.173v6.457c-2.367.14-4.75-.024-7.082-.494v-5.963h7.082z"/><path fill="#2e363a" d="M53.585 266.687H31.1a1.903 1.903 0 0 1-1.381-.598 2.094 2.094 0 0 1-.577-1.447c0-.855.507-1.618 1.27-1.923 2.367-.928 6.505-1.96 7.38-2.875 1.17-1.221 3.217-3.266 4.68-3.162 1.462.103 2.337 2.551 4.58 3.98 1.592 1.013 3.311-1.49 4.168-3.028.291-.519 1.02-.525 1.294 0 1.818 3.437 1.072 9.053 1.072 9.053z"/><path fill="#3a4146" d="M81.62 253.215s-5.616.446-10.368.234a39.742 39.742 0 0 1-1.924-.128c-1.735-.173-3.19-.463-3.971-.954-3.029-1.89-2.79-64.404-2.79-64.404s-7.317 64.31-8.544 64.956c-.446.234-2.22.14-4.395-.162-3.82-.535-8.885-1.723-10.157-2.894-1.344-1.239.274-43.918 1.473-71.638.44-10.29.83-18.523.987-21.802.045-.999.073-1.54.073-1.54l2.593.106 38.502 1.607c.351 1.042.53 4.863.58 10.43.234 25.215-2.058 86.189-2.058 86.189z"/><path fill="#2e363a" d="M83.679 167.025a195.037 195.037 0 0 0-26.817 4.747c-4.785 1.2-9.577 2.599-13.832 5.092-.714.419-1.411.87-2.086 1.361.44-10.29.83-18.523.987-21.802.452-.263.904-.52 1.361-.759.43-.229.864-.452 1.305-.675l38.502 1.607c.351 1.042.53 4.863.58 10.43z"/><path fill="#fe4c40" d="m85.313 140.025 3.576 19.735c-25.918 3.408-49.875-2.867-49.875-2.867l1.216-12.56.677-6.985c-5.158-1.624-10.992-17.487-10.992-17.487s3.64-5.333 10.4-11.785c5.445-5.202 12.3-8.76 19.74-9.934 6.945-1.098 13.819-.14 19.926 3.667a27.941 27.941 0 0 1 2.65 1.897c9.8 7.83 21.598 25.399 21.598 25.399-8.322 11.544-18.916 10.92-18.916 10.92z"/><path fill="#fff" d="M85.07 139.144s-15.262 5.167-28.486 5.032c-6.358-.064-12.248-1.353-15.74-5.032l1.588-14.185s14.103 4.224 32.13 1.576a77.52 77.52 0 0 0 7.882-1.576l2.626 14.185z"/><path fill="#ea241f" d="m85.313 140.025 3.576 19.735c-19.373 4.847-49.742-1.222-49.875-2.867l1.216-12.56c1.261.289 2.537.522 3.822.69 5.624.735 11.531.13 16.578-2.462 5.216-2.677 9.22-7.314 12.099-12.425 2.875-5.11 4.727-10.72 6.562-16.292l3.34-10.138c9.8 7.83 21.598 25.399 21.598 25.399-8.322 11.544-18.916 10.92-18.916 10.92z"/><path fill="#bb2c32" d="M88.887 160.26a.498.498 0 0 1-.49-.41l-6.648-35.9a.5.5 0 1 1 .983-.18l6.647 35.9a.5.5 0 0 1-.492.59zM39.013 157.393a.5.5 0 0 1-.498-.551l3.42-33.17a.5.5 0 1 1 .995.103l-3.42 33.169a.5.5 0 0 1-.497.449z"/><path fill="#fec9ac" d="M71.966 98.469c-.698 2.066-3.287 3.486-5.25 4.025-1.86.511-3.832.554-5.7.061-4.205-1.111-4.31-3.716-4.31-3.716.71-.23 1.057-2.042 1.219-3.992.205-2.458.126-5.133.126-5.133h11.17s.327 3.395.682 6.009c.073.526.257 1.031.545 1.47.254.394.588.74.992 1 .303.196.526.276.526.276z"/><path fill="#ffab90" d="M70.448 97.192c-3.817 1.38-8.323.93-11.556-1.518-.34-.257-.66-.533-.967-.827.205-2.458.126-5.133.126-5.133h11.17s.327 3.395.682 6.009c.073.526.257 1.031.545 1.47z" opacity=".5"/><path fill="#fff" d="M72.65 101.727c.102.091-.078.525-.677 1.22-.6.685-1.641 1.639-3.318 2.467-2.881 1.31-6.22 1.542-9.26.686-1.763-.54-3.022-1.388-3.59-2.198-.582-.81-.521-1.357-.403-1.384.157-.058.365.339.988.837.614.507 1.711 1.06 3.367 1.45 2.744.771 5.753.562 8.346-.617 1.56-.64 2.623-1.362 3.337-1.84.712-.484 1.094-.727 1.21-.621zM89.439 135.477c-.082-.307 1.136-.778 3.386-1.97a20.559 20.559 0 0 0 5.302-3.668c1.908-1.684 2.778-2.658 3.042-2.469.218.144-.25 1.456-2.114 3.443a21.903 21.903 0 0 1-5.645 3.905c-2.52 1.045-3.912 1.02-3.971.759zM39.408 130.67c-.161.209-1.191-.175-2.697-1.685a18.942 18.942 0 0 1-2.935-4.495c-.777-1.984-.714-3.082-.45-3.146.303-.083.734.842 1.668 2.576a17.614 17.614 0 0 0 2.729 4.18c1.213 1.553 1.887 2.319 1.685 2.57z"/><path fill="#e4ecf9" d="M85.07 139.144s-15.262 5.167-28.486 5.032a23.399 23.399 0 0 0 4.046-1.616c5.216-2.675 9.22-7.313 12.098-12.425a50.347 50.347 0 0 0 1.833-3.6 77.52 77.52 0 0 0 7.883-1.576l2.626 14.185z"/><path fill="#2e363a" d="M69.328 253.32c-1.735-.172-3.19-.462-3.971-.953-3.029-1.89-2.79-64.404-2.79-64.404s-7.317 64.31-8.544 64.956c-.446.234-2.22.14-4.395-.162 3.386-22.265 11.958-73.01 14.312-73.065l5.388 73.629z"/><path fill="#fec9ac" d="M125.821 116.171c1.38.295.83 8.663-1.649 13.93-.581 1.23-1.716 2.816-3.226 4.522-4.958 5.599-13.922 12.499-20.346 12.45a12.411 12.411 0 0 1-2.667-.299c-6.25-1.41-8.16-7.346-8.16-7.346 1.73-.637 6.071-3.349 13.84-9.605.06.357 1.197 3.355 1.863 4.403.015.023.03.041.054.046 1.122.828 12.595-6.362 12.595-6.362s.921-.984.796-2.627c-.123-1.648-.387-4.755 1.03-4.83 1.42-.07 1.648 6.93 1.96 4.29.265-2.187 1.828-6.833 3.146-8.197.267-.281.53-.426.764-.375z"/><path fill="#ffab90" d="M125.821 116.171c1.38.295.83 8.663-1.649 13.93-.581 1.23-1.716 2.816-3.226 4.522a43.098 43.098 0 0 0 4.247-11.937c.39-2.028.598-4.272-.136-6.14.267-.281.53-.426.764-.375z"/><path fill="#ffab90" d="M103.613 129.823c.06.357 1.197 3.355 1.863 4.403.015.023.03.041.054.046a21.012 21.012 0 0 0-6.021 7.598 20.91 20.91 0 0 0-1.576 4.904c-6.25-1.41-8.16-7.346-8.16-7.346 1.73-.637 6.071-3.349 13.84-9.605z" opacity=".5"/><path fill="#fec9ac" d="M125.821 116.171c-.234-.05-.497.094-.764.375-1.318 1.364-2.881 6.01-3.145 8.198-.313 2.638-.542-4.362-1.961-4.292-1.417.076-1.153 3.183-1.03 4.831.125 1.643-.796 2.627-.796 2.627s-5.485 3.437-9.24 5.285v11.252c4.52-2.511 9.036-6.408 12.061-9.824 1.51-1.706 2.645-3.292 3.226-4.521 2.48-5.268 3.03-13.636 1.65-13.93z"/><path fill="#ffab90" d="M125.821 116.171c1.38.295.83 8.663-1.649 13.93-.581 1.23-1.716 2.816-3.226 4.522a43.098 43.098 0 0 0 4.247-11.937c.39-2.028.598-4.272-.136-6.14.267-.281.53-.426.764-.375z"/><path fill="#fec9ac" d="M72.968 85.941c-.301 2.14-.735 4.395-2.196 5.986-1.297 1.41-3.249 2.083-5.164 2.173-1.04.05-2.092-.057-3.075-.401-1.992-.695-3.533-2.28-4.916-3.867a37.136 37.136 0 0 1-1.497-1.804c-.494-.64-1.111-1.168-1.773-1.632a3.987 3.987 0 0 1-.01-.007c-.527-.37-.958-.866-1.366-1.36-.328-.394-.659-.812-.742-1.31-.077-.452.063-.923.324-1.294.16-.22.354-.411.575-.571-.428-2.313-.18-4.76.739-6.929a12.168 12.168 0 0 1 6.524-6.444l10.819-1.698c.047 1.618.738 3.132 1.23 4.67 1.49 4.639 1.203 9.659.528 14.488z"/><path fill="#c18550" d="M77.344 71.952c-.434 1.006-.978 1.988-1.784 2.733-.806.745-1.907 1.223-2.995 1.084-.904-.118-1.698-.638-2.537-1.006-.557-.25-1.31-.172-1.985.045-.736.245-1.51.368-2.283.298l-.679-.057c.102-.49.798-.511 1.187-.83-2.742-.29-5.577 1.42-6.6 3.98-.373.942-1.518 4.314-1.518 4.314s-1.134-.77-1.629-.962c-.659-.254-1.407-.438-2.107-.262-.548.135-1.056.528-1.211 1.072-.262-1.1-.814-1.99-1.285-2.946-.708-1.433-.95-3.065-.802-4.656.057-.635.168-1.26.307-1.882.208-.937.487-1.862.765-2.783.425-1.395.863-2.81 1.665-4.03 1.121-1.702 2.897-2.91 4.82-3.593 1.92-.683 3.986-.875 6.023-.855 1.31.016 2.627.119 3.88.508 1.247.388 2.426 1.088 3.224 2.127.25.328.458.683.654 1.048.29.544.553 1.113.876 1.64a7.668 7.668 0 0 0 3.376 2.971c.245.11.507.213.683.421.368.434.184 1.097-.045 1.62z"/><path fill="#ffab90" d="M56.042 85.59a.492.492 0 0 1-.413.52.664.664 0 0 1-.344-.058c-.384-.151-.679-.47-.933-.798-.462-.593-.871-1.28-.887-2.034-.005-.237.036-.49.196-.666.225-.25.622-.266.95-.176.658.176 1.202.72 1.386 1.374l.045 1.838z" opacity=".5"/><path fill="#d0a274" d="M71.579 70.086c-.815.507-1.87.331-2.8.09-1.448-.376-2.916-.88-4.402-.691a4.919 4.919 0 0 0-3.584 2.36c-.184.32-.336.66-.557.954-.54.716-1.452 1.068-2.344 1.133-.896.066-1.784-.123-2.66-.31-.86-.18-1.714-.365-2.57-.549-.413-.09-.818-.176-1.24-.196.21-.937.488-1.862.766-2.783.425-1.395.863-2.81 1.665-4.03 1.121-1.702 2.897-2.91 4.82-3.593 1.92-.683 3.986-.875 6.023-.855 1.31.016 2.627.119 3.88.508 1.247.388 2.426 1.088 3.224 2.127.25.328.458.683.654 1.048.074.605.197 1.215.242 1.825.086 1.108-.172 2.377-1.117 2.962z"/><path fill="#4f2d2a" d="M61.563 79.94c-.044-.026-.05-.122.018-.281.07-.156.22-.378.505-.584.5-.32 1.144-.422 1.717-.27.335.108.546.273.66.4.114.131.136.225.102.264-.077.091-.338-.089-.882-.188a1.7 1.7 0 0 0-1.336.21c-.488.262-.68.513-.784.449zM68.576 78.532c-.066-.064.08-.392.667-.705a3.28 3.28 0 0 1 1.627-.254c.655.118.894.386.85.47-.048.107-.34.032-.897.018a2.788 2.788 0 0 0-1.385.217c-.526.184-.782.344-.862.254zM66.288 86.886c.042-.038.18.073.439.253.128.086.296.187.493.229.187.04.454.005.592-.148.25-.225.07-.902.009-1.43a16.94 16.94 0 0 0-.346-1.64c-.3-1.284-.492-1.92-.383-1.963.09-.037.46.538.858 1.838a17.431 17.431 0 0 1 .47 2.547c.014.151.022.314-.008.49a.93.93 0 0 1-.254.507c-.364.316-.772.28-1.05.19a1.415 1.415 0 0 1-.575-.401c-.231-.272-.283-.439-.245-.472zM67.224 89.671c.012.047-.09.134-.333.21a2.8 2.8 0 0 1-1.138.094c-.861-.131-1.685-.522-2.293-1.18-.34-.408-.455-.83-.44-1.1.013-.275.109-.388.155-.377.121.015.022.514.651 1.15.506.551 1.244.911 1.999 1.021.894.164 1.371.055 1.4.182z"/><ellipse cx="70.309" cy="81.857" fill="#4f2d2a" rx=".562" ry="1.01"/><ellipse cx="63.718" cy="82.412" fill="#4f2d2a" rx=".562" ry="1.01"/><path fill="#2e363a" d="M41.385 153.168H93.64a.952.952 0 0 0 .952-.952v-.273a.952.952 0 0 0-.952-.952H41.385a.952.952 0 0 0-.952.952v.273c0 .526.426.952.952.952z"/><path fill="#4a5258" d="M53.227 150.994h40.2l1.662-6.308 5.5-20.921c.309-1.17-.4-2.116-1.57-2.116H63.063c-.348 0-.69.079-1.018.23-.782.342-1.44 1.058-1.656 1.886l-7.162 27.23z"/><path fill="#3a4146" d="M53.26 150.865h40.2l1.662-6.308a31.84 31.84 0 0 1-3.443.407c-7.261.44-14.66-2.05-20.186-6.794-4.882-4.192-8.246-10.1-9.416-16.42-.782.342-1.439 1.058-1.656 1.885l-7.162 27.23z"/><path fill="#3a4146" d="M53.26 150.865h40.2l1.662-6.308a31.84 31.84 0 0 1-3.443.407c-7.261.44-14.66-2.05-20.186-6.794-4.882-4.192-8.246-10.1-9.416-16.42-.782.342-1.439 1.058-1.656 1.885l-7.162 27.23z"/><path fill="#3a4146" d="M61.517 150.864H53.26l.14-.53c.024-.012.055-.024.085-.036 2.008-.9 6.796-1.947 8.645-1.515.377.08.639.231.712.463.128.383-.384.967-1.326 1.618z"/><path fill="#3a4146" d="M59.797 150.996h-6.57l.118-.44c1.55-.132 4.179.039 6.452.44z"/><ellipse cx="77.898" cy="136.697" fill="#3a4146" rx="3.186" ry="2.685" transform="rotate(-71.665 77.898 136.697)"/><ellipse cx="77.898" cy="136.697" fill="#fff" rx="2.652" ry="2.235" transform="rotate(-71.665 77.898 136.697)"/><path fill="#fec9ac" d="M61.517 150.864c-2.343 1.643-7.331 3.717-11.468 4.13-1.35.134-3.297-.03-5.536-.443-7.35-1.375-17.88-5.512-21.14-11.048a12.337 12.337 0 0 1-1.12-2.44c-2.002-6.09 8.535-18.616 8.535-18.616 2.847 5.828 5.11 11.505 8.773 14.303-.274.231-2.105 3.218-2.665 4.325-.012.03-.018.055-.012.073-.134 1.393 11.936 7.532 11.936 7.532s1.314.286 2.659-.67c.79-.559 1.989-1.417 3.005-1.794l-.943 3.583c-.663.59-.973.9-.14.536.024-.013.055-.025.085-.037 2.008-.9 6.796-1.947 8.645-1.515.377.08.639.231.712.463.128.383-.384.967-1.326 1.618z"/><path fill="#ffab90" d="M62.844 149.241c.458 1.336-7.002 5.168-12.795 5.75-1.353.135-3.297-.023-5.536-.44a43.098 43.098 0 0 0 12.422-2.498c1.94-.707 3.97-1.684 5.195-3.274.379.084.637.235.714.462z"/><path fill="#fcc230" d="M161.18 60.917h-17.187l-6.455-15.927a17.25 17.25 0 0 1 6.455-1.26c9.424 0 17.186 7.764 17.186 17.187z"/><path fill="#e4ecf9" d="M162.284 98.269h7.244v32.952h-7.244zM193.057 98.269h7.245v32.952h-7.245zM239.216 98.269h7.245v32.952h-7.245zM177.67 98.269h7.245v32.952h-7.245zM208.443 98.269h7.244v32.952h-7.244zM223.83 98.269h7.244v32.952h-7.244zM146.897 98.269h7.244v32.952h-7.244z"/><path fill="#42c1f4" d="M162.284 119.821h7.244v11.401h-7.244z"/><path fill="#71c687" d="M192.589 114.055h7.245v17.167h-7.245z"/><path fill="#fcc230" d="M239.216 110.648h7.245v20.574h-7.245zM177.67 104.096h7.245v27.126h-7.245zM208.209 123.621h7.244v7.601h-7.244z"/><path fill="#42c1f4" d="M223.83 101.737h7.244v29.484h-7.244z"/><path fill="#71c687" d="M146.897 107.896h7.244v23.325h-7.244z"/><path fill="#42c1f4" d="M134.18 49.165a17.427 17.427 0 0 0-10.426 15.94c0 9.546 7.854 17.4 17.4 17.4 1.625 0 3.2-.233 4.698-.658l-4.699-16.741-6.973-15.941z"/><path fill="#71c687" d="M161.705 64.221h-17.4l4.7 16.741c7.292-2.072 12.7-8.822 12.7-16.74z"/><path fill="#e4ecf9" d="M170.898 50.262h89.111v1.214h-89.111zM170.898 58.839h89.111v1.214h-89.111zM170.898 67.415h89.111v1.214h-89.111zM170.898 75.991h89.111v1.214h-89.111zM170.898 84.567h89.111v1.214h-89.111z"/><path fill="#8d7ea3" d="M258.68 50.19c.047.032-.2.567-.9 1.507-.703.93-1.848 2.3-3.729 3.74a21.178 21.178 0 0 1-7.983 3.82c-3.504.913-7.746.685-12.369.208-3.914-.413-7.841-.712-11.575.191-1.854.434-3.617 1.198-5.104 2.327-1.489 1.119-2.628 2.69-3.888 4.245-.634.776-1.302 1.555-2.081 2.253-.774.705-1.648 1.292-2.56 1.785-1.834.973-3.828 1.55-5.83 1.875-4.004.65-8.145.398-12.04-.73-2.294-.69-4.275-1.579-6.191-1.983-.952-.202-1.876-.287-2.75-.222a7.227 7.227 0 0 0-2.426.643c-1.48.688-2.625 1.763-3.489 2.848-.867 1.093-1.452 2.228-1.896 3.274-.875 2.1-1.26 3.8-1.572 4.909-.298 1.117-.473 1.672-.547 1.658-.07-.014-.035-.595.132-1.744.184-1.145.442-2.885 1.242-5.118.406-1.108.976-2.346 1.872-3.565.894-1.206 2.104-2.433 3.777-3.267a8.292 8.292 0 0 1 2.798-.813c1.012-.1 2.064-.02 3.108.181 2.09.405 4.137 1.288 6.316 1.907a26.218 26.218 0 0 0 11.449.694c1.895-.308 3.75-.85 5.413-1.733 1.684-.87 3.017-2.169 4.232-3.701 1.224-1.502 2.427-3.188 4.114-4.465 1.666-1.266 3.615-2.099 5.606-2.565 4.002-.967 8.109-.633 12.024-.222 4.629.539 8.66.819 11.986.045a21.41 21.41 0 0 0 7.76-3.383c1.88-1.295 3.085-2.538 3.876-3.364.787-.835 1.152-1.287 1.225-1.234z"/><path fill="#d1dcf8" d="M259.605 52.458c.047.031-.2.567-.9 1.506-.703.93-1.848 2.3-3.729 3.74a21.17 21.17 0 0 1-7.984 3.821c-3.504.912-7.745.684-12.368.208-3.914-.414-7.841-.713-11.575.191-1.855.434-3.617 1.197-5.104 2.326-1.489 1.12-2.628 2.69-3.888 4.246-.635.775-1.302 1.554-2.081 2.252a12.917 12.917 0 0 1-2.56 1.785c-1.834.974-3.828 1.55-5.83 1.875a27.57 27.57 0 0 1-12.04-.73c-2.294-.69-4.276-1.579-6.191-1.983-.953-.201-1.877-.287-2.75-.222a7.227 7.227 0 0 0-2.426.643c-1.481.688-2.625 1.763-3.489 2.848-.867 1.093-1.453 2.229-1.896 3.274-.875 2.1-1.26 3.8-1.572 4.91-.298 1.116-.473 1.671-.547 1.657-.07-.014-.036-.594.132-1.744.184-1.144.442-2.885 1.242-5.118.406-1.108.976-2.346 1.872-3.565.894-1.206 2.103-2.433 3.777-3.267a8.29 8.29 0 0 1 2.798-.813c1.012-.1 2.064-.02 3.107.181 2.091.406 4.138 1.288 6.317 1.908a26.218 26.218 0 0 0 11.449.693c1.895-.307 3.75-.85 5.413-1.733 1.683-.87 3.017-2.169 4.231-3.7 1.225-1.503 2.428-3.19 4.115-4.466 1.666-1.266 3.615-2.099 5.606-2.565 4.002-.967 8.109-.632 12.024-.222 4.629.539 8.66.819 11.986.045a21.409 21.409 0 0 0 7.76-3.383c1.88-1.295 3.085-2.538 3.875-3.364.789-.834 1.153-1.287 1.226-1.234z"/><circle cx="233.875" cy="58.906" r="1.478" fill="#7e6a9d"/></svg>