<svg xmlns="http://www.w3.org/2000/svg" enable-background="new 0 0 450 450" viewBox="0 0 450 450"><path fill="#1a3a49" d="M10.246 374.366h429.508v4H10.246z"/><path fill="#fec3bd" d="M261.98 264.91c-3.847 4.805-34.131 12.889-34.131 12.889l-11.464-22.535s16.01-22.528 20.614-21.996c4.552.538-1.708 12.7-1.708 12.7 2.334-1.561 19.714-13.149 20.726-7.717.37 1.972-2.339 5.844-3.766 7.1 5.084-2.426 12.942-4.469 13.583-1.837.893 3.662-5.356 6.446-7.58 7.316 2.299-.802 9.022-2.826 9.188.944.102 2.295-7.797 5.932-10.103 7.216 1.978-.291 7.154 2.793 4.642 5.92z"/><path fill="#37c092" d="M101.27 274.468s12.513 18.241 26.747 33.057c9.062 9.424 18.823 17.466 26.502 18.551 3.103.44 6.722.09 10.678-.853 29.734-7.097 66.89-46.333 66.89-46.333l-15.924-27.056-53.823 28.348-38.318-58.253-22.753 52.54z"/><path fill="#27aa7b" d="M128.017 307.525c9.062 9.424 18.823 17.466 26.502 18.551 3.103.44 6.722.09 10.678-.853-14.57-20.374-33.716-79.946-33.716-79.946l-3.464 62.248z"/><path fill="#37c092" d="M42.215 316.548c.077.608 4.77 37.776 5.727 54.09.082 1.29.128 2.42.156 3.422h83.85c11.625-2.576 19.605-5.784 19.339-9.2 0 0-8.754-24.899-11.743-52.825-3.305-30.875-4.402-67.294-11.204-84.088-4.305-10.64-21.085-14.874-29.178-16.037-9.192-1.305-20.44-1.073-31.195.517-3.077.453-6.994.983-11.235 2.134-8.26 2.21-18.745 5.455-21.602 11.531-4.33 9.192-3.684 24.86-1.487 40.943 2.65 19.482 7.55 39.572 8.572 49.513z"/><path fill="#27aa7b" d="M33.643 267.035c2.65 19.482 7.55 39.572 8.571 49.513.078.608 4.77 37.776 5.728 54.09l76.155-5.755.773-32.376-58.506-18.389s2.508-48.26 0-59.636c-2.495-11.377-10.692-22.197-10.692-22.197l-22.029 34.75z"/><path fill="#06112d" d="M116.677 130.236a76.862 76.862 0 0 1 9.398 12.945c1.067 1.848 2.09 3.935 1.678 6.028-.461 2.352-2.63 4.01-4.875 4.852-4.713 1.767-10.405.683-14.051-2.788-2.524-2.402-4.028-5.844-4.075-9.33-.048-3.484 1.36-6.966 3.818-9.437"/><path fill="#fec3bd" d="M89.324 232.168c-13.406-2.942-23.007-18.767-22.954-19.185 1.223-9.967 2.908-33.173 1.886-40.628-.229-1.642 1.487-2.85 2.957-2.087l31.375 16.125a2.036 2.036 0 0 1 .917 2.656 41.408 41.408 0 0 0-1.76 4.629 54.424 54.424 0 0 0-.48 1.645c-1.248 4.65-1.61 9.016-1.641 12.256-.007.708-.074 1.93-.145 3.336l-.001.01c-.211 3.606-.438 5.744-.377 6.288.03.268-2.201 16.618-9.777 14.955z"/><path fill="#f18b89" d="m99.598 208.426-20.276-15.158c-3.823-8.074 18.53-2.81 18.53-2.81s1.71.428 3.2 1.173c-.745 4.752-1.527 15.378-1.454 16.795z"/><path fill="#fec3bd" d="M104.72 201.494c-18.813 3.761-34.087-15.94-38.093-23.983v-.01a46.831 46.831 0 0 1-1.42-3.129 1.993 1.993 0 0 0-.637-.836c-2.282-1.757-12.586-10.184-9.42-16.847 2.066-4.337 5.13-4.664 7.34-4.174 1.297.288 2.517-.79 2.427-2.116-2.448-36.05 36.806-31.904 46.57-15.062.431.738.86 1.64 1.281 2.683 6.096 14.876 12.16 59.433-8.049 63.474z"/><path fill="#06112d" d="m71.126 154.666-.367 3.81c-.036.44-.22.831-.5 1.149.476-.928-.404-2.602-.16-3.665.11-.513.501-.928 1.027-1.294z"/><ellipse cx="91.427" cy="162.238" fill="#06112d" rx="3.397" ry="2.265" transform="rotate(-88.846 91.427 162.238)"/><path fill="#06112d" d="M88.367 156.858a.5.5 0 0 1-.286-.91c4.534-3.15 7.064-.635 7.169-.526a.5.5 0 0 1-.715.699c-.09-.09-2.083-1.991-5.884.648a.499.499 0 0 1-.284.09z"/><path fill="#f18b89" d="M103.732 180.735a.5.5 0 0 1-.308-.895c.708-.55 1.142-1.316 1.223-2.155.079-.82-.19-1.628-.756-2.276-.245-.28-.54-.539-.852-.812-.205-.179-.41-.358-.601-.544-1.344-1.305-2.19-3.068-2.447-5.1-.226-1.78 0-3.545.217-5.252a.5.5 0 0 1 .992.126c-.21 1.645-.427 3.346-.217 5.001.228 1.804.972 3.362 2.151 4.507.18.175.372.342.563.51.324.283.657.575.947.906.75.858 1.104 1.934.999 3.03-.107 1.115-.677 2.127-1.604 2.848a.497.497 0 0 1-.307.106zM97.762 189.76h-.014c-2.983-.086-5.874-1.81-7.366-4.395a.5.5 0 1 1 .867-.5c1.322 2.29 3.884 3.82 6.527 3.895a.5.5 0 0 1-.014 1z"/><path fill="#fec3bd" d="M104.72 201.494c-18.813 3.761-34.087-15.94-38.093-23.983v-.01a46.831 46.831 0 0 1-1.42-3.129 1.993 1.993 0 0 0-.637-.836c-2.282-1.757-12.586-10.184-9.42-16.847 2.066-4.337 5.13-4.664 7.34-4.174 1.297.288 2.517-.79 2.427-2.116-2.448-36.05 36.806-31.904 46.57-15.062.431.738.86 1.64 1.281 2.683 6.096 14.876 12.16 59.433-8.049 63.474z"/><path fill="#06112d" d="M145.171 129.699c.049 2.748-2.272 6.498-3.469 7.915-2.528 2.956-6.058 5.155-9.772 6.23-5.9 1.71-12.141 1.282-18.163.525-6.132-.77-12.227-1.796-18.175-3.481-4.275-1.21-9.772-4.898-14.12-2.065-.452.745.415 3.42.44 4.324.097 4.52-3.42 8.27-7.366 9.955-1.442.623-4.019 1.014-4.446 2.858-.245 1.063.635 2.737.158 3.665-.342.403-.842.66-1.404.696a2.043 2.043 0 0 1-2.089-1.466c-.672-2.296-.99-5.57-3.787-6.315-3.383-.891-6.412 1.16-7.83 4.153-1.82 3.836.82 8.05 3.226 10.945 2.504 3.017 6.315 5.093 7.744 8.782 2.968 7.598 1.832 16.27 1.429 24.197 0 .012-.012.061 0 .074a78.75 78.75 0 0 1-1.087-1.674c-6.279-9.955-12.13-20.398-16.808-31.208-1.783-4.215-13.473-27.147-3.762-49.47 2.088-4.8 18.31-11.775 23.196-10.627.17-.11.354-.22.55-.305-.343-1.881 1.013-3.872 2.772-4.764 1.906-.965 4.129-.965 6.266-.952 6.34.06 12.68.11 19.03.17 2.407.025 4.813.037 7.22.184 4.03.244 8.061.72 12.007 1.612 3.212.733 8.22 1.612 10.455 4.251.99 1.173 1.295 3.054.22 4.275.623-.708 4.813.305 5.595.489a18.749 18.749 0 0 1 5.643 2.406c4.055 2.614 7.121 7.378 5.203 12.276-.354-.086-.72-.159-1.05-.037-.342.122-.599.525-.44.843.159.342.684.354.977.122.293-.232.428-.61.55-.965.757.562 1.075 1.405 1.087 2.382z"/><path fill="#06112d" d="M53.94 177.019c.443.902.916 1.793 1.373 2.69-.46-.885-.918-1.78-1.373-2.69zM66.46 199.017c-.309-.484-.682-1.074-1.1-1.742.37.578.725 1.168 1.1 1.742zM65.36 197.275a209.192 209.192 0 0 1-10.047-17.566c3.841 7.41 7.718 13.84 10.047 17.566zM70.258 159.625c-.183.39-.598.647-1.404.696a2.003 2.003 0 0 0 1.404-.696zM144.06 127.293a6.336 6.336 0 0 1-.819 1.453c-.66.012-.867-1.063-.33-1.441.342-.232.782-.196 1.148-.012z"/><ellipse cx="91.427" cy="162.238" fill="#06112d" rx="3.397" ry="2.265" transform="rotate(-88.846 91.427 162.238)"/><path fill="#06112d" d="M88.367 156.858a.5.5 0 0 1-.286-.91c4.534-3.15 7.064-.635 7.169-.526a.5.5 0 0 1-.715.699c-.09-.09-2.083-1.991-5.884.648a.499.499 0 0 1-.284.09z"/><ellipse cx="110.525" cy="163.499" fill="#06112d" rx="3.397" ry="2.265" transform="rotate(-88.846 110.525 163.5)"/><path fill="#06112d" d="M107.465 158.12a.5.5 0 0 1-.286-.912c4.533-3.149 7.065-.635 7.17-.526a.5.5 0 0 1-.716.7c-.089-.089-2.084-1.991-5.883.648a.499.499 0 0 1-.285.09z"/><path fill="#f18b89" d="M103.732 180.735a.5.5 0 0 1-.308-.895c.708-.55 1.142-1.316 1.223-2.155.079-.82-.19-1.628-.756-2.276-.245-.28-.54-.539-.852-.812-.205-.179-.41-.358-.601-.544-1.344-1.305-2.19-3.068-2.447-5.1-.226-1.78 0-3.545.217-5.252a.5.5 0 0 1 .992.126c-.21 1.645-.427 3.346-.217 5.001.228 1.804.972 3.362 2.151 4.507.18.175.372.342.563.51.324.283.657.575.947.906.75.858 1.104 1.934.999 3.03-.107 1.115-.677 2.127-1.604 2.848a.497.497 0 0 1-.307.106zM97.762 189.76h-.014c-2.983-.086-5.874-1.81-7.366-4.395a.5.5 0 1 1 .867-.5c1.322 2.29 3.884 3.82 6.527 3.895a.5.5 0 0 1-.014 1z"/><path fill="#a7abc6" d="M162.428 346.983h68.36v10.187h-77.69v-.857a9.33 9.33 0 0 1 9.33-9.33z"/><path fill="#a7abc6" d="M240.475 357.17h-43.941l13.05-81.016a6.715 6.715 0 0 1 6.638-5.744h24.253v86.76z"/><path fill="#d7daf4" d="M202.93 357.17H293.4c5.967 0 11.03-4.379 11.888-10.283l11.283-68.8c.597-4.037-2.544-7.676-6.638-7.676h-87.313a6.715 6.715 0 0 0-6.639 5.743l-13.05 81.016z"/><path fill="#a7abc6" d="M256.729 328.93c5.572 0 10.917-4.536 11.94-10.108 1.01-5.586-2.686-10.107-8.273-10.107-5.572 0-10.917 4.521-11.94 10.107-1.01 5.587 2.686 10.108 8.273 10.108z"/><path fill="#fcc283" d="M23.783 357.17h335.768v16.891H23.783z"/><path fill="#fec3bd" d="M159.115 364.077c-5.498 2.768-36.4-2.483-36.4-2.483l-1.047-25.261s23.933-13.824 27.898-11.424c3.915 2.383-6.838 10.838-6.838 10.838 2.772-.449 23.397-3.753 22.058 1.607-.484 1.947-4.559 4.341-6.379 4.888 5.632-.09 13.628 1.323 13.115 3.982-.712 3.702-7.552 3.634-9.937 3.499 2.425.227 9.38 1.184 7.963 4.682-.863 2.13-9.559 2.15-12.19 2.357 1.92.558 5.343 5.517 1.757 7.315z"/><path fill="#37c092" d="M37.167 223.267C23.624 235.097 11.33 328.93 28.795 351.31c15.772 20.211 95.302 13.573 95.302 13.573l.773-32.376-62.695-8.214s6.77-58.338-.463-81.007c-6.362-19.94-24.545-20.019-24.545-20.019zM401.169 324.834c-2.23 2.6-1.506 6.923-.174 10.075.788 1.872 2.02 3.766 1.084 5.82-.396.871-1.132 1.55-2.007 1.942a4.846 4.846 0 0 1-2.281.414c-.2-.009-.397-.03-.597-.061-1.245-.205-2.434-.823-3.4-1.655-1.21-1.036-2.33-2.65-3.048-4.38-1.21-2.925-3.596-5.21-6.622-6.147-.117-.039-.24-.074-.357-.113a24.08 24.08 0 0 1-9.782-6.09c-1.79-1.847-3.361-4.21-2.817-6.862.292-1.415 1.297-2.608 2.695-2.97 1.72-.443 2.939.606 4.036 1.616.944.87 1.959 1.79 3.33 1.78.662 0 1.31-.308 1.655-.874.566-.94.021-1.92-.592-2.674a11 11 0 0 0-5.634-3.622c-2.312-.614-4.85-.479-6.783-2.168-.875-.766-1.358-1.92-1.119-3.056.54-2.564 4.18-2.282 4.671-4.911.175-.927-.126-1.868-.705-2.617-1.045-1.35-2.69-1.924-4.288-2.39-1.167-.344-2.386-.67-3.274-1.554a2.84 2.84 0 0 1-.71-1.128c-.6-1.872 1.154-3.082 2.739-3.06 1.236.017 2.385.592 3.483 1.158-2.112-2.926-4.223-5.847-6.335-8.768-.7-.971-1.42-1.981-1.663-3.157-.244-1.171.117-2.56 1.162-3.148.819-.465 1.872-.33 2.713.1.836.436 1.502 1.133 2.155 1.816l9.081 9.526c-.378-1.472-.3-2.878-.1-4.384s1.132-3.017 2.59-3.435c1.311-.379 2.748.209 3.71 1.17.962.963 1.524 2.243 1.99 3.523 1.663 4.563 1.645 9.308 1.262 14.15 1.467-2.643 2.177-5.782 4.907-7.075 1.432-.68 2.747 1.632 3.287 3.121.544 1.485.553 3.104.557 4.685l.026 11.21c1.359-1.641 2.778-3.334 4.89-3.996.957-.3 1.998-.318 2.925.065 2.23.919 2.569 3.387 2.438 5.53a21.515 21.515 0 0 1-5.098 12.594z"/><path fill="#238a6f" d="M397.79 343.085c-.2-.009-.396-.03-.596-.061.98-15.865-7.27-32.021-14.397-42.814-7.785-11.794-15.944-19.9-16.022-19.979a.302.302 0 0 1-.004-.426.298.298 0 0 1 .426 0c.083.078 8.281 8.228 16.105 20.074 7.179 10.876 15.494 27.163 14.489 43.206z"/><path fill="#238a6f" d="M382.69 299.424a.3.3 0 0 1-.499-.28c.015-.074 1.43-7.537.346-10.776a.3.3 0 1 1 .571-.191c1.134 3.388-.266 10.769-.326 11.081a.3.3 0 0 1-.092.166z"/><path fill="#238a6f" d="M382.69 299.424a.301.301 0 0 1-.386.017c-.059-.045-5.918-4.488-9.395-4.04a.3.3 0 1 1-.077-.596c3.722-.48 9.59 3.968 9.838 4.158a.301.301 0 0 1 .02.461zM390.18 312.216a.3.3 0 0 1-.478-.343c.037-.086 3.743-8.63 2.356-13.061a.3.3 0 1 1 .574-.18c1.454 4.645-2.222 13.124-2.38 13.482a.298.298 0 0 1-.072.102zM389.478 310.833a.301.301 0 0 1-.355.036c-.083-.049-8.388-4.902-13.001-4.037a.3.3 0 0 1-.111-.591c4.834-.907 13.07 3.905 13.418 4.11a.301.301 0 0 1 .05.482zM394.469 322.37a.301.301 0 0 1-.412-.439l.059-.056c2.306-2.23 6.364-6.715 7.623-11.705a.3.3 0 0 1 .583.147c-1.295 5.134-5.435 9.716-7.788 11.99l-.058.056a.289.289 0 0 1-.007.007zM396.64 330.153a.3.3 0 0 1-.378.021c-.122-.087-12.288-8.774-18.529-7.723a.3.3 0 1 1-.1-.593c6.488-1.093 18.473 7.463 18.98 7.828a.3.3 0 0 1 .027.467z"/><path fill="#27aa7b" d="M407.031 323.669c-.501-3.496.483-7.044 2.855-9.662l.278-.311a26.817 26.817 0 0 0 5.916-11.403c.669-2.786.832-5.948-1.198-8.181-1.081-1.19-2.728-1.763-4.272-1.315-1.904.552-2.47 2.252-2.95 3.843-.414 1.373-.863 2.83-2.18 3.603-.639.374-1.434.449-2.085.1-1.079-.58-1.113-1.83-.95-2.9a12.252 12.252 0 0 1 3.34-6.676c1.867-1.902 4.378-3.216 5.272-5.937.404-1.23.211-2.611-.664-3.564-1.977-2.153-5.304.186-7.273-2.055-.694-.79-.94-1.864-.811-2.907.233-1.89 1.487-3.377 2.752-4.733.927-.995 1.906-1.998 2.26-3.35.126-.484.148-.996.037-1.484-.487-2.138-2.86-2.301-4.367-1.38-1.175.717-1.95 1.924-2.682 3.09l1.09-12.01c.12-1.33.236-2.706-.197-3.97-.432-1.263-1.57-2.387-2.905-2.36-1.052.02-1.987.747-2.543 1.64-.556.892-.8 1.938-1.037 2.963l-3.292 14.298c-.472-1.626-1.347-2.93-2.397-4.259-1.05-1.328-2.8-2.248-4.44-1.821-1.466.382-2.512 1.762-2.887 3.231s-.187 3.02.092 4.51c.998 5.32 3.714 9.86 6.835 14.283-2.912-1.697-5.374-4.307-8.73-3.993-1.755.165-1.703 3.129-1.378 4.862.326 1.733 1.237 3.292 2.133 4.811l6.349 10.765c-2.236-.803-4.56-1.62-6.96-1.055-1.09.257-2.098.832-2.771 1.726-1.616 2.148-.537 4.71.806 6.69a24.01 24.01 0 0 0 12.052 9.179c3.611 1.225 5.376 5.783 5.894 9.561.307 2.241.202 4.76 2.266 6.196.877.61 1.967.845 3.028.723 2.64-.304 4.477-2.446 5.283-4.816.571-1.68.728-3.869.431-5.932z"/><path fill="#238a6f" d="M404.155 333.96a.336.336 0 0 0 .344-.52c-10.162-14.681-11.457-35.054-10.755-49.56.763-15.738 3.975-28.146 4.008-28.27a.336.336 0 0 0-.65-.17c-.032.124-3.262 12.6-4.028 28.408-.708 14.61.604 35.138 10.873 49.974.05.074.126.12.208.138z"/><path fill="#238a6f" d="M393.4 283.063a.335.335 0 0 0 .32-.55c-.057-.064-5.657-6.416-6.459-10.138a.335.335 0 1 0-.656.141c.84 3.894 6.378 10.176 6.613 10.442.05.056.114.091.183.105z"/><path fill="#238a6f" d="M393.401 283.064a.336.336 0 0 0 .379-.204c.03-.076 3.124-7.668 6.712-9.214a.335.335 0 1 0-.265-.616c-3.841 1.655-6.939 9.257-7.07 9.58a.336.336 0 0 0 .244.454zM393.49 299.589a.335.335 0 0 0 .264-.601c-.085-.061-8.496-6.148-9.685-11.186a.335.335 0 1 0-.653.155c1.247 5.28 9.592 11.321 9.947 11.576.04.028.083.047.127.056zM393.377 297.863c.14.03.289-.034.362-.167.051-.094 5.256-9.47 10.171-11.263a.336.336 0 0 0-.23-.63c-5.15 1.88-10.312 11.175-10.53 11.57a.336.336 0 0 0 .227.49zM395.15 311.764a.336.336 0 0 0 .146-.655l-.089-.02c-3.48-.827-9.92-2.822-13.964-6.891a.335.335 0 0 0-.476.473c4.162 4.187 10.736 6.226 14.285 7.07l.088.02a.31.31 0 0 0 .01.003zM397.493 320.462a.335.335 0 0 0 .375-.195c.067-.153 6.795-15.4 13.377-17.94a.335.335 0 1 0-.241-.625c-6.843 2.64-13.472 17.659-13.75 18.297a.335.335 0 0 0 .24.463z"/><path fill="#37c092" d="M432.31 302.892c-.6 1.463-1.684 2.664-2.746 3.835-2.508 2.77-5.02 5.538-7.532 8.307 2.111-.3 4.301-.596 6.308.336.91.426 1.69 1.114 2.12 2.02 1.028 2.18-.383 4.236-1.924 5.729a21.561 21.561 0 0 1-12.255 5.877c-3.392.418-5.773 4.102-6.914 7.328-.675 1.911-1.04 4.144-3.113 5.033-.884.374-1.885.383-2.795.082a4.787 4.787 0 0 1-1.963-1.227 4.331 4.331 0 0 1-.401-.453c-.784-.989-1.245-2.247-1.402-3.51-.196-1.58.065-3.53.701-5.289 1.075-2.978.853-6.274-.753-9.003a24.039 24.039 0 0 1-3.313-11.415c-.083-2.57.348-5.377 2.538-6.97 1.162-.85 2.717-1.054 3.992-.38 1.572.828 1.76 2.425 1.89 3.91.117 1.28.248 2.643 1.262 3.561.492.444 1.18.653 1.816.466 1.049-.313 1.31-1.406 1.358-2.373a10.998 10.998 0 0 0-1.72-6.474c-1.297-2.007-3.265-3.618-3.552-6.173-.135-1.15.287-2.33 1.228-3.008 2.128-1.533 4.627 1.127 6.765-.484.749-.57 1.163-1.467 1.237-2.407.139-1.703-.693-3.235-1.555-4.659-.635-1.04-1.315-2.098-1.38-3.352a2.822 2.822 0 0 1 .24-1.31c.814-1.79 2.93-1.502 4.083-.418.906.844 1.363 2.041 1.798 3.2.405-3.584.815-7.167 1.224-10.75.135-1.188.283-2.42.892-3.448.61-1.032 1.811-1.815 2.983-1.55.918.214 1.606 1.019 1.933 1.907.326.884.352 1.846.374 2.791.1 4.384.196 8.773.296 13.157.71-1.341 1.715-2.33 2.878-3.305 1.162-.98 2.869-1.467 4.232-.796 1.219.605 1.885 2.006 1.95 3.365.06 1.358-.383 2.686-.901 3.944-1.842 4.493-5.055 7.985-8.599 11.307 2.865-.962 5.503-2.808 8.394-1.925 1.51.466.927 3.061.327 4.524z"/><path fill="#238a6f" d="M419.885 298.512c-2.02 12.878-6.848 30.52-18.39 41.7a4.331 4.331 0 0 1-.4-.453c11.41-11.063 16.191-28.565 18.194-41.338 2.19-13.962 1.62-25.448 1.615-25.56a.302.302 0 0 1 .283-.318c.17-.01.31.117.318.283.004.117.579 11.663-1.62 25.686z"/><path fill="#238a6f" d="M419.741 297.766a.3.3 0 0 1-.18-.542c.06-.046 6.134-4.609 7.514-7.733a.3.3 0 1 1 .55.243c-1.443 3.269-7.45 7.781-7.704 7.972a.3.3 0 0 1-.18.06z"/><path fill="#238a6f" d="M419.74 297.766a.301.301 0 0 1-.295-.247c-.013-.073-1.352-7.304-4.223-9.314a.3.3 0 1 1 .344-.493c3.075 2.152 4.415 9.392 4.471 9.7a.301.301 0 0 1-.296.354zM416.662 312.266a.3.3 0 0 1-.123-.575c.086-.039 8.58-3.859 10.54-8.068a.3.3 0 1 1 .544.254c-2.054 4.413-10.482 8.204-10.84 8.363a.298.298 0 0 1-.121.026zM417.075 310.771a.301.301 0 0 1-.288-.212c-.029-.093-2.898-9.274-6.89-11.742a.3.3 0 0 1 .316-.511c4.184 2.586 7.03 11.69 7.15 12.076a.301.301 0 0 1-.288.39zM412.992 322.66a.301.301 0 0 1-.009-.601l.082-.003c3.206-.094 9.226-.677 13.518-3.517a.3.3 0 0 1 .332.502c-4.416 2.922-10.562 3.52-13.832 3.616l-.081.003a.34.34 0 0 1-.01 0zM409.355 329.875a.3.3 0 0 1-.294-.239c-.032-.147-3.173-14.762-8.494-18.188a.3.3 0 1 1 .326-.506c5.531 3.562 8.627 17.959 8.756 18.57a.3.3 0 0 1-.294.363z"/><path fill="#fcc283" d="M404.052 373.992h-7.288c-8.678 0-15.713-7.035-15.713-15.713v-21.784a5.535 5.535 0 0 1 5.535-5.535h27.644a5.535 5.535 0 0 1 5.535 5.535v21.784c0 8.678-7.035 15.713-15.713 15.713z"/><path fill="#fe8b70" d="M419.765 336.913v-2.767a3.186 3.186 0 0 0-3.186-3.186h-32.342a3.186 3.186 0 0 0-3.186 3.186v2.767h38.714z"/><path fill="#d7daf4" d="M401.574 72.052h27.156c5.8 0 10.492 4.923 10.205 10.707l-6.48 138.307a9.706 9.706 0 0 1-9.744 9.26h-14.469l-6.668-158.274z"/><path fill="#d7daf4" d="M401.574 72.052h27.156c5.8 0 10.492 4.923 10.205 10.707l-.297 5.998H401.96l-.385-16.705z"/><path fill="#eae8fe" d="M282.601 230.327h135.79a9.706 9.706 0 0 0 9.744-9.261l6.48-138.307c.287-5.784-4.406-10.707-10.205-10.707H288.62a9.706 9.706 0 0 0-9.744 9.261l-6.48 138.307c-.286 5.784 4.406 10.707 10.205 10.707z"/><path fill="#a7abc6" d="M434.318 88.757h-155.81l.368-7.444a9.706 9.706 0 0 1 9.744-9.261h135.79c5.799 0 10.492 4.923 10.205 10.707l-.297 5.998z"/><path fill="#fff" d="M421.534 81.05c-.092 1.235.836 2.237 2.062 2.237 1.236 0 2.313-1.002 2.405-2.237a2.047 2.047 0 0 0-2.071-2.23c-1.227 0-2.304 1.003-2.396 2.23zM415.054 81.05c-.092 1.235.835 2.237 2.062 2.237 1.236 0 2.313-1.002 2.405-2.237a2.047 2.047 0 0 0-2.072-2.23c-1.227 0-2.304 1.003-2.395 2.23zM408.574 81.05c-.093 1.235.835 2.237 2.062 2.237 1.236 0 2.312-1.002 2.405-2.237a2.047 2.047 0 0 0-2.072-2.23c-1.227 0-2.304 1.003-2.395 2.23z"/><path fill="#fe6081" d="M242.945 100.254h110.801v75.662H242.945z"/><path fill="#fff" d="M312.318 133.604c-.16 9.272-7.8 16.794-17.084 16.794a16.453 16.453 0 0 1-16.504-16.794c.16-9.282 7.811-16.794 17.083-16.794a16.44 16.44 0 0 1 16.505 16.794z"/><path fill="#fe6081" d="m301.346 135.828-6.29 4.172c-1.786 1.188-4.155-.082-4.118-2.226l.144-8.346c.037-2.144 2.45-3.414 4.194-2.21l6.147 4.156c1.565 1.072 1.525 3.382-.077 4.454z"/><path fill="#b94768" d="M343.536 164.818a1.31 1.31 0 0 1-1.31 1.279h-72.61c-.708 0-1.277-.57-1.265-1.28a1.319 1.319 0 0 1 1.31-1.287h72.61c.708 0 1.277.58 1.265 1.288z"/><path fill="#fff" d="M323.866 164.81a1.307 1.307 0 0 1-1.31 1.287h-52.94c-.708 0-1.277-.57-1.265-1.28a1.319 1.319 0 0 1 1.31-1.287h52.94c.717 0 1.278.57 1.265 1.28zM255.994 168.53h-2.839l.12-6.96h2.839zM261.48 168.53h-2.839l.12-6.96h2.839z"/><path fill="#d7daf4" d="M421.139 137.537h-51.88l1.97-29.333h51.88zM418.618 175.077h-51.88l1.97-29.333h51.88zM416.097 212.617h-51.88l1.97-29.333h51.88zM354.122 213.684H289.72l2.445-29.334h64.404z"/><path fill="#f9dae0" d="M181.897 116.723c-5.144 0-7.704-11.616-7.502-22.545s3.192-22.544 8.336-22.544c5.143 0 7.704 11.615 7.502 22.544-.203 10.93-3.193 22.545-8.336 22.545zm.805-43.527c-3.001 0-6.505 8.617-6.734 20.982-.228 12.366 2.956 20.983 5.957 20.983s6.505-8.617 6.734-20.983-2.956-20.982-5.957-20.982z"/><path fill="#f9dae0" d="M167.298 106.763c-2.785 0-4.614-.758-5.36-2.245-2.275-4.537 6.995-12.312 16.873-17.324 5.326-2.703 10.678-4.582 15.068-5.292 4.744-.768 7.79-.098 8.81 1.937 1.02 2.034-.254 4.897-3.686 8.278-3.177 3.13-7.86 6.343-13.187 9.046l-.348-.694.348.694c-5.326 2.702-10.677 4.582-15.068 5.292-1.275.206-2.427.308-3.45.308zm29.97-23.602c-.93 0-1.993.093-3.163.282-4.232.684-9.416 2.51-14.598 5.139-11.176 5.67-17.485 12.572-16.158 15.22.66 1.316 3.341 1.731 7.174 1.111 4.231-.684 9.415-2.509 14.597-5.138 5.182-2.63 9.722-5.74 12.784-8.756 2.773-2.732 4.034-5.148 3.374-6.464-.458-.914-1.893-1.394-4.01-1.394z"/><path fill="#f9dae0" d="M196.86 106.782c-4.879 0-12-2.358-18.308-5.62-9.692-5.012-18.675-12.787-16.232-17.323 1.096-2.035 4.166-2.705 8.882-1.937 4.365.71 9.647 2.59 14.873 5.292 5.226 2.703 9.79 5.915 12.851 9.045 3.308 3.382 4.477 6.245 3.38 8.279-.852 1.584-2.826 2.264-5.445 2.264zm-17.56-7.007c10.966 5.67 20.197 6.674 21.622 4.027.709-1.316-.463-3.733-3.135-6.465-2.95-3.016-7.375-6.126-12.46-8.755-5.084-2.63-10.2-4.455-14.407-5.14-3.808-.619-6.506-.203-7.215 1.113-1.425 2.647 4.629 9.549 15.595 15.22z"/><ellipse cx="182.314" cy="94.178" fill="#fe6081" rx="3.002" ry="2.943" transform="rotate(-33.649 182.314 94.178)"/><ellipse cx="196.503" cy="82.477" fill="#3a6dc9" rx="3.002" ry="2.943" transform="rotate(-33.649 196.503 82.477)"/><ellipse cx="166.484" cy="82.477" fill="#fcc283" rx="3.002" ry="2.943" transform="rotate(-33.649 166.484 82.477)"/><ellipse cx="200.401" cy="104.21" fill="#37c092" rx="3.002" ry="2.943" transform="rotate(-33.649 200.401 104.21)"/><path fill="#d7daf4" d="M240.124 210.668v-4.085l-3.199-1.434a12.986 12.986 0 0 0-1.232-2.973l1.248-3.277-2.888-2.889-3.278 1.249a12.975 12.975 0 0 0-2.972-1.233l-1.434-3.199h-4.086l-1.434 3.2c-1.05.288-2.046.705-2.973 1.232l-3.277-1.249-2.889 2.889 1.249 3.277a12.987 12.987 0 0 0-1.233 2.973l-3.198 1.434v4.085l3.198 1.434c.29 1.05.706 2.047 1.233 2.973l-1.249 3.277 2.89 2.89 3.276-1.25c.927.527 1.923.944 2.973 1.233l1.434 3.199h4.086l1.434-3.2a12.987 12.987 0 0 0 2.972-1.231l3.278 1.248 2.888-2.889-1.248-3.277c.527-.926.943-1.923 1.232-2.973l3.2-1.434z"/><path fill="#fff" d="M231.559 208.622a7.57 7.57 0 0 1-7.568 7.575 7.57 7.57 0 0 1-7.569-7.575 7.569 7.569 0 0 1 15.137 0z"/><path fill="#d7daf4" d="M223.17 180.94v-3.4l-2.66-1.192a10.804 10.804 0 0 0-1.026-2.473l1.039-2.727-2.403-2.403-2.727 1.039c-.77-.439-1.6-.785-2.473-1.026l-1.193-2.661h-3.399l-1.193 2.661c-.873.24-1.702.587-2.473 1.026l-2.726-1.04-2.404 2.404 1.039 2.727c-.438.77-.785 1.6-1.025 2.473l-2.662 1.193v3.399l2.662 1.193c.24.873.587 1.702 1.025 2.473l-1.039 2.726 2.404 2.404 2.726-1.04c.77.439 1.6.786 2.473 1.026l1.193 2.661h3.399l1.193-2.661c.873-.24 1.702-.587 2.473-1.025l2.727 1.039 2.403-2.404-1.039-2.726c.438-.771.785-1.6 1.026-2.473l2.66-1.193z"/><path fill="#fff" d="M216.045 179.237c0 3.483-2.82 6.302-6.296 6.302s-6.297-2.82-6.297-6.302a6.297 6.297 0 0 1 12.593 0z"/></svg>