<svg xmlns="http://www.w3.org/2000/svg" enable-background="new 0 0 300 300" viewBox="0 0 300 300"><path fill="#fec9ac" d="m258.726 263.944-5.223 3.583-3.037-1.337s-.075-2.505-.136-6.224c-.03-2.809-.076-5.314-.076-5.466 0-.38 7.804.076 8.168.198.152.045.228 1.76.258 3.826.076 3.066.046 5.146.046 5.42z"/><path fill="#ffab90" d="M258.68 258.524a15.87 15.87 0 0 1-7.515 1.518c-.273-.015-.562-.03-.835-.076-.03-2.809-.076-5.314-.076-5.466 0-.38 7.804.076 8.168.198.152.045.228 1.76.258 3.826z" opacity=".5"/><path fill="#3a4146" d="M251.251 261.542s2.574 3.925 4.318 3.097c1.745-.83 3.05-5.133 5.147-3.49 1.055.826.96 6.592.625 8.615a.967.967 0 0 1-.964.806h-23.525a.972.972 0 0 1-.916-.63c-.356-.952-.823-2.722.267-3.47 1.527-1.046 4.755-.087 6.979-1.657s4.885-6.891 8.07-3.271z"/><path fill="#fec9ac" d="m232.68 263.944-5.222 3.583-3.036-1.337s-.076-2.505-.137-6.224c-.03-2.809-.076-5.314-.076-5.466 0-.38 7.804.076 8.168.198.152.045.228 1.76.258 3.826.076 3.066.046 5.146.046 5.42z"/><path fill="#ffab90" d="M232.635 258.524a15.87 15.87 0 0 1-7.515 1.518c-.273-.015-.562-.03-.835-.076-.03-2.809-.076-5.314-.076-5.466 0-.38 7.804.076 8.168.198.152.045.228 1.76.258 3.826z" opacity=".5"/><path fill="#3a4146" d="M235.292 269.767c-.07.471-.482.802-.963.802h-23.52a.99.99 0 0 1-.922-.632c-.352-.953-.823-2.72.27-3.472 1.526-1.043 4.756-.08 6.984-1.655 2.217-1.565 4.876-6.893 8.067-3.271 0 0 2.569 3.933 4.314 3.1 1.746-.832 3.05-5.137 5.148-3.491 1.053.832.963 6.592.622 8.619z"/><path fill="#003567" d="M218.248 255.366c0 2.242 7.209 3.052 12.391 2.423 2.906-.354 5.174-1.164 5.174-2.423.87-13.09 1.285-36.536 1.724-61.888 2.665 25.438 5.355 48.595 8.192 63.66.224 1.206 2.492 1.586 5.286 1.43 4.975-.293 11.598-2.302 11.21-4.449-.242-26.67-2.01-57.812-4.424-92.114l-42.571 1.724c-.492.354 1.932 91.706 3.018 91.637z"/><path fill="#022e4f" d="m230.622 257.78.017.009c2.906-.354 5.174-1.164 5.174-2.423.87-13.09 1.285-36.536 1.724-61.888 2.665 25.438 5.355 48.595 8.192 63.66.224 1.206 2.492 1.586 5.286 1.43l.009-.008-14.109-75.707-6.293 74.927z"/><path fill="#fec9ac" d="m277.533 146.081-13.987-1.676-1.986-1.976-2.208-2.187c4.134-3.833 7.235-8.74 9.07-14.368l.111-.161s1.947 2.167 4.074 5.217c3.14 4.505 6.682 10.937 4.926 15.151z"/><path fill="#ffab90" d="M272.607 130.93c-1.917 4.586-8.248 10.747-11.047 11.5l-2.208-2.188c4.134-3.833 7.235-8.74 9.07-14.368l.111-.161s1.947 2.167 4.074 5.217z" opacity=".5"/><path fill="#3a4146" d="M244.537 106.55a12.827 12.827 0 0 1-8.974 2.558 12.827 12.827 0 0 1-8.296-4.273M215.179 142.571l2.488-11.603"/><path fill="#71c687" d="m259.844 140.683-.542-.01 1.415 22.987c0 7.084-49.024 7.084-49.024 0l.702-4.204 2.83-16.886h-.01c-.994.05-1.937.04-2.86-.02-.793-.04-1.575-.12-2.328-.241-4.926-.773-8.96-3.1-12.1-7.004v-.01a25.57 25.57 0 0 1-1.395-1.927c-.07-.1-.14-.19-.2-.29 0 0 .942-2.238 2.768-5.519 5.118-9.23 17.188-26.75 34.817-26.408 21.713.411 32.67 15.11 36.442 21.572 1.074 1.826 1.565 2.99 1.565 2.99 1.736 4.264-9.17 15.331-12.08 14.97z"/><path fill="#61ba76" d="m219.007 128.03-3.793 14.54c-.993.05-1.936.04-2.86-.02-.792-.04-1.574-.12-2.327-.241-4.926-.773-8.96-3.1-12.1-7.004v-.01a25.57 25.57 0 0 1-1.395-1.927c-.07-.1-.14-.19-.2-.29 0 0 .942-2.238 2.768-5.519 1.455.06 2.95.662 4.235 1.405 1.996 1.154 3.822 2.659 6.03 3.301a8.335 8.335 0 0 0 5.579-.381 8.29 8.29 0 0 0 4.063-3.853zM259.804 140.683l-.542-.01 1.415 22.987c0 7.084-49.024 7.084-49.024 0l.702-4.204c5.97-1.084 12.04-1.555 17.99-2.76 6.472-1.303 12.944-3.571 17.89-7.936 6.622-5.84 10.295-15.271 10.616-24.1.451 1.444.682 3.09 1.625 4.264.943 1.174 2.478 1.996 3.943 1.665 1.194-.26 2.107-1.214 2.85-2.177a19.84 19.84 0 0 0 3.05-5.689c1.074 1.826 1.565 2.99 1.565 2.99 1.736 4.264-9.17 15.331-12.08 14.97z"/><path fill="#fff" d="M254.767 139.125a67.464 67.464 0 0 1-33.693 0 .97.97 0 0 1-.692-1.194c.913-3.351 1.836-6.702 2.749-10.043a.945.945 0 0 1 1.154-.673 55.236 55.236 0 0 0 27.261 0 .94.94 0 0 1 1.154.673c.923 3.34 1.836 6.692 2.75 10.043a.972.972 0 0 1-.683 1.194z"/><path fill="#fec9ac" d="m212.315 142.55-.642 1.484-.773 1.776-15.703 4.566c-1.946-3.633.201-9.703 1.957-13.536.25-.562.502-1.083.732-1.535 3.14 3.903 7.174 6.231 12.101 7.004.752.12 1.535.2 2.328.24z"/><path fill="#ffab90" d="m212.315 142.55-.642 1.484c-.05 0-.1-.01-.15-.01-.794-.04-1.576-.13-2.329-.25-4.896-.763-8.91-3.07-12.04-6.934.25-.562.502-1.083.732-1.535 3.14 3.903 7.174 6.231 12.101 7.004.752.12 1.535.2 2.328.24z" opacity=".5"/><path fill="#fec9ac" d="M236.416 149.171c.21 7.526-11.148 4.636-11.148 4.636s-25.265 5.448-30.06-3.431l15.692-4.556 14.147 1.786s1.074-4.264 2.84-3.843c1.766.412.783 2.318.783 2.318s7.545-4.435 7.746 3.09zM243.028 101.998c.078 6.11-13.728 5.59-13.806-.521.742-1.152 1.166-1.636 1.478-2.837.176-.673.293-1.356.351-2.05l10.913-2.576c-.03.195-.05.38-.059.576-.234 2.508.166 4.978 1.123 7.408z"/><path fill="#ffab90" d="M241.964 94.014c-.03.195-.05.38-.059.576l-.088.498c.05 1.794-4.254 6.104-11.117 3.552.176-.673.293-1.356.351-2.05l10.913-2.576z" opacity=".5"/><path fill="#fec9ac" d="M232.433 97.618c8.933 2.017 11.968-6.476 11.968-6.476s2.596-1.371 2.673-3.708c.026-.483-.069-1.017-.319-1.587-1.457-3.285-4.38.173-4.38.173s-3.51-13.435-6.743-13.219c-3.242.224-8.925 5.286-9.218 5.596a5.996 5.996 0 0 0-.138.69c-.517 3.208-1.949 16.711 6.157 18.53z"/><path fill="#3a4146" d="M226.276 79.087c1.888.932 7.07.664 7.933.483a.666.666 0 0 0 .336-.169c.747-.722 1.996-.648 2.843-.047 3.655 2.592 4.582 7.856 4.582 7.856l.405-1.19s2.923-3.458 4.38-.173c.25.57.345 1.104.32 1.587h.008c3.061-2.553 7.14-14.047-2.483-19.97-10.09-6.21-15.168.965-16.462 2.396-1.293 1.432-4.596 1.923-5.303 4.916-.457 1.94 1.606 3.406 3.44 4.311z"/><path fill="#4f2d2b" d="M234.061 91.082c.014.029-.103.133-.397.228a2.176 2.176 0 0 1-1.38-.047c-.114-.045-.292-.113-.382-.303-.076-.18-.054-.333-.04-.452l.112-.748c.07-.502.151-.998.25-1.484.249-1.15.421-1.71.493-1.696s.026.598-.162 1.759c-.1.49-.18.978-.247 1.464l-.11.73c-.026.283-.027.33.209.417.505.212.941.19 1.216.164.28-.031.422-.07.438-.032zM237.665 91.676c.05.023-.1.528-.826 1.242-.641.564-1.4 1.018-2.273 1.166-1.067.104-1.493-.377-1.441-.402.036-.089.473.223 1.39.07.772-.128 1.503-.556 2.099-1.084.719-.621.976-1.042 1.051-.992z"/><ellipse cx="236.386" cy="86.347" fill="#4f2d2b" rx=".75" ry="1.087"/><ellipse cx="229.885" cy="85.963" fill="#4f2d2b" rx=".75" ry="1.087"/><path fill="#3a4146" d="M231.88 82.153c-.501-.313-1.097-.452-1.687-.477-.59-.025-1.18.06-1.761.165"/><path fill="#4f2d2b" d="M238.832 83.19c-.056.061-.28-.136-.812-.286-.447-.147-.935-.144-1.41-.05-.566.087-.86.15-.886.074-.023-.062.224-.247.822-.405.51-.1 1.063-.109 1.578.062.603.242.758.568.708.605z"/><path fill="#fff" d="M199.327 132.293c.143-.12 1.032 1.132 3.474 2.88 2.052 1.506 4.403 2.572 6.83 3.385 1.424.505 2.51.84 3.226 1.09.7.261 1.056.27 1.07.346.019.072-.405.202-1.171.043-.75-.14-1.87-.386-3.34-.842-2.468-.827-4.886-1.92-7.012-3.479-2.465-1.922-3.172-3.373-3.077-3.423z"/><path fill="#fec9ac" d="M244.923 150.973c.07-.11-2.438-1.345-1.876-2.81.562-1.454 5.298 2.328 5.298 2.328l-3.422.482z"/><path fill="#3a4146" d="M229.651 139.585v19.178c0 .81.656 1.474 1.475 1.474h12.132c.82 0 1.483-.664 1.483-1.474v-19.178c0-.819-.664-1.483-1.483-1.483h-12.132c-.82 0-1.475.664-1.475 1.483z"/><path fill="#fec9ac" d="m248.345 150.491 15.201-6.086 13.987 1.676c-4.776 11.469-29.188 10.26-29.188 10.26s-8.328 5.448-12.221-1.847c-3.893-7.294 8.72-3.41 8.8-3.521"/><path fill="#47a05a" d="M259.26 140.67c-.274-2.771-.303-5.516-.37-8.257-.04-2.745-.111-5.469-.113-8.25.787 2.676 1.044 5.466 1.112 8.23.036 2.77-.118 5.54-.63 8.276zM215.18 142.572c.447-3.025 1.184-5.968 1.993-8.891.838-2.915 1.749-5.81 2.954-8.62-.444 3.026-1.181 5.969-1.992 8.891-.84 2.915-1.751 5.809-2.954 8.62z"/><path fill="#fff" d="M262.75 136.437c-.099-.13.748-.836 2.255-2.427a23.048 23.048 0 0 0 3.402-4.392c1.162-1.856 1.635-2.851 1.788-2.786.119.045-.12 1.154-1.211 3.131a23.724 23.724 0 0 1-3.5 4.52c-1.643 1.552-2.658 2.06-2.733 1.954zM227.471 104.552c.06-.048.365.258.99.838.629.572 1.585 1.43 3.05 2.286 1.222.748 2.575 1.248 3.988 1.275 1.408.043 2.825-.307 4.079-.962 1.498-.757 2.433-1.65 3.041-2.234.606-.596.892-.92.957-.873.054.038-.12.444-.658 1.14a9.802 9.802 0 0 1-3.03 2.563c-1.349.705-2.876 1.085-4.41 1.038-1.541-.028-3.038-.585-4.314-1.37-1.504-.953-2.433-1.92-2.994-2.587-.557-.678-.754-1.071-.699-1.114z"/><path fill="#bbcaea" d="M80.607 81.448c.215-.002.411.22.505.67l.022 1.139c-.076.456-.251.639-.46.688-.224.052-.444-.211-.548-.657l-.022-1.158c.089-.455.277-.68.503-.682zM80.623 72.104c.215 0 .408.42.493 1.266l-.01 2.148c-.093.844-.29 1.262-.51 1.26-.22 0-.408-.42-.499-1.264l.01-2.15c.099-.844.29-1.262.516-1.26zM78.174 64.917c0-.215.447-.41 1.35-.5h1.66l-.016 1.656c-.097.902-.296 1.347-.516 1.345-.22-.002-.406-.45-.493-1.354l.006-.573v-.065h-.64c-.904-.094-1.35-.283-1.35-.51zM66.814 64.917c0-.215.508-.41 1.535-.5h2.61c1.027.09 1.535.285 1.535.505 0 .22-.508.41-1.534.505h-2.611c-1.027-.095-1.535-.284-1.535-.51zM58.639 62.422c.215 0 .41.447.499 1.352v.644h.645c.903.089 1.35.284 1.35.504 0 .22-.447.41-1.35.505h-1.654v-1.653c.095-.905.284-1.352.51-1.352zM58.639 53.574c.215 0 .41.396.499 1.196v2.033c-.09.8-.284 1.195-.505 1.195-.22 0-.41-.396-.504-1.195V54.77c.095-.8.284-1.196.51-1.196zM58.639 46.65c.215 0 .41.224.499.676v1.149c-.09.452-.284.675-.505.675-.22 0-.41-.223-.504-.675v-1.149c.095-.452.284-.676.51-.676z"/><circle cx="58.296" cy="39.959" r="10.53" fill="#64d3ff"/><path fill="#fff" d="M55 44.388a.648.648 0 0 1-.192-.475v-8.992A.67.67 0 0 1 55 34.44a.633.633 0 0 1 .475-.2h3.496c1.057 0 1.874.242 2.452.725.577.485.866 1.137.866 1.956 0 .573-.135 1.05-.407 1.43s-.62.664-1.045.852c.593.187 1.08.489 1.46.903.38.415.57.938.57 1.57 0 .91-.306 1.62-.918 2.134s-1.576.77-2.89.77h-3.584a.648.648 0 0 1-.475-.192zm3.616-5.675c.878 0 1.496-.147 1.851-.444.356-.296.533-.711.533-1.244 0-.464-.19-.834-.57-1.112-.38-.276-.901-.414-1.563-.414h-2.71v3.214h2.459zm.311 4.608c.957 0 1.637-.148 2.036-.445.4-.296.6-.715.6-1.258 0-1.126-.873-1.69-2.621-1.69h-2.785v3.393h2.77z"/><path fill="#bbcaea" d="M142.725 95.737c.215.002.409.227.493.682l-.022 1.157c-.1.447-.325.71-.549.658-.209-.05-.378-.232-.46-.688l.022-1.14c.1-.449.29-.67.516-.669zM142.71 86.39c.214 0 .41.417.504 1.262l.01 2.148c-.085.845-.278 1.264-.499 1.265-.22.002-.411-.416-.51-1.26l-.01-2.149c.091-.846.278-1.264.504-1.265zM145.147 79.216c0 .216-.447.41-1.35.5h-.641v.063l.006.574c-.081.904-.272 1.352-.493 1.354-.22.002-.413-.443-.516-1.345l-.015-1.656h1.659c.903.095 1.35.284 1.35.51zM156.507 79.216c0 .216-.507.41-1.535.5h-2.61c-1.027-.09-1.535-.284-1.535-.505 0-.22.508-.41 1.535-.505h2.61c1.028.095 1.535.284 1.535.51zM164.693 76.711c.215 0 .41.447.5 1.351v1.653h-1.655c-.903-.089-1.35-.283-1.35-.504 0-.22.447-.41 1.35-.505h.645v-.644c.095-.904.284-1.35.51-1.35zM164.693 67.863c.215 0 .41.396.5 1.196v2.033c-.09.8-.285 1.195-.505 1.195-.22 0-.41-.395-.505-1.195V69.06c.095-.8.284-1.196.51-1.196zM164.693 60.94c.215 0 .41.223.5.675v1.15c-.09.45-.285.674-.505.674-.22 0-.41-.223-.505-.675v-1.15c.095-.451.284-.675.51-.675zM156.664 205.57c-.215-.009-.402-.241-.463-.706.024-.39.053-.779.109-1.184.137-.458.487-.736.671-.578.167.146.296.276.328.72-.05.354-.078.73-.101 1.104-.121.438-.318.654-.544.644zM156.712 218.061c-.216.005-.42-.55-.528-1.678l-.05-2.873c.07-1.13.256-1.691.476-1.693.221-.002.42.555.533 1.68l.05 2.866c-.076 1.13-.255 1.693-.481 1.698zM154.481 226.794c0-.216.447-.41 1.35-.5h.628l-.002-.048-.02-.575c.058-.906.237-1.36.457-1.366.22-.007.425.433.551 1.33l.055 1.668h-1.669c-.903-.094-1.35-.283-1.35-.51zM143.942 226.794c0-.216.471-.41 1.424-.5h2.422c.952.09 1.424.284 1.424.505s-.472.41-1.424.504h-2.422c-.953-.094-1.424-.283-1.424-.51zM133.403 226.794c0-.216.471-.41 1.424-.5h2.422c.952.09 1.423.284 1.423.505s-.47.41-1.423.504h-2.422c-.953-.094-1.424-.283-1.424-.51zM122.863 226.794c0-.216.472-.41 1.425-.5h2.422c.952.09 1.423.284 1.423.505s-.471.41-1.423.504h-2.422c-.953-.094-1.425-.283-1.425-.51zM112.324 226.794c0-.216.472-.41 1.425-.5h2.421c.953.09 1.424.284 1.424.505s-.471.41-1.424.504h-2.421c-.953-.094-1.425-.283-1.425-.51zM101.785 226.794c0-.216.471-.41 1.424-.5h2.422c.952.09 1.424.284 1.424.505s-.472.41-1.424.504h-2.422c-.953-.094-1.424-.283-1.424-.51zM91.246 226.794c0-.216.471-.41 1.424-.5h2.422c.952.09 1.423.284 1.423.505s-.47.41-1.423.504H92.67c-.953-.094-1.424-.283-1.424-.51zM80.707 226.794c0-.216.47-.41 1.424-.5h2.422c.952.09 1.423.284 1.423.505s-.471.41-1.423.504H82.13c-.953-.094-1.424-.283-1.424-.51zM70.167 226.794c0-.216.472-.41 1.425-.5h2.422c.952.09 1.423.284 1.423.505s-.471.41-1.423.504h-2.422c-.953-.094-1.425-.283-1.425-.51zM62.403 224.299c.215 0 .41.447.5 1.351v.645h.644c.903.089 1.35.283 1.35.504s-.447.41-1.35.504h-1.654v-1.653c.095-.904.284-1.351.51-1.351zM62.403 213.913c.215 0 .41.464.5 1.403v2.387c-.09.939-.285 1.403-.505 1.403-.221 0-.41-.464-.505-1.403v-2.387c.095-.939.284-1.403.51-1.403zM62.403 203.527c.215 0 .41.464.5 1.403v2.387c-.09.938-.285 1.403-.505 1.403-.221 0-.41-.465-.505-1.403v-2.387c.095-.939.284-1.403.51-1.403zM62.403 193.14c.215 0 .41.465.5 1.404v2.387c-.09.938-.285 1.402-.505 1.402-.221 0-.41-.464-.505-1.402v-2.387c.095-.94.284-1.403.51-1.403zM62.403 182.754c.215 0 .41.465.5 1.404v2.387c-.09.938-.285 1.402-.505 1.402-.221 0-.41-.464-.505-1.402v-2.387c.095-.94.284-1.404.51-1.404zM62.403 172.368c.215 0 .41.465.5 1.404v2.387c-.09.938-.285 1.402-.505 1.402-.221 0-.41-.464-.505-1.402v-2.387c.095-.94.284-1.404.51-1.404zM62.403 161.982c.215 0 .41.464.5 1.404v2.386c-.09.939-.285 1.403-.505 1.403-.221 0-.41-.464-.505-1.403v-2.386c.095-.94.284-1.404.51-1.404zM62.403 151.596c.215 0 .41.464.5 1.403v2.387c-.09.938-.285 1.403-.505 1.403-.221 0-.41-.465-.505-1.403V153c.095-.939.284-1.403.51-1.403zM62.403 141.21c.215 0 .41.464.5 1.403V145c-.09.938-.285 1.403-.505 1.403-.221 0-.41-.465-.505-1.403v-2.387c.095-.939.284-1.403.51-1.403zM62.403 133.517c.215 0 .41.223.5.675v1.15c-.09.45-.285.675-.505.675-.221 0-.41-.224-.505-.676v-1.149c.095-.452.284-.675.51-.675z"/><path fill="#f3f6fd" d="M98.517 83.945v95.103a4.041 4.041 0 0 1-4.04 4.04H26.04a4.036 4.036 0 0 1-4.04-4.04V83.945h76.517z"/><path fill="#bbcaea" d="M98.517 76.17v7.775H22v-7.774a4.041 4.041 0 0 1 4.04-4.04h68.437a4.046 4.046 0 0 1 4.04 4.04z"/><circle cx="42.109" cy="78.509" r="1.756" fill="#fff"/><circle cx="37.399" cy="78.509" r="1.756" fill="#fff"/><circle cx="32.689" cy="78.509" r="1.756" fill="#fff"/><path fill="#d1dcf8" d="M48.7 93.484v16.94c0 .873-.711 1.584-1.584 1.584h-18.41a1.587 1.587 0 0 1-1.584-1.583V93.484c0-.88.712-1.584 1.584-1.584h18.41c.873 0 1.584.704 1.584 1.584zM79.56 109.078c0 .398-.322.72-.72.72H52.977a.725.725 0 0 1-.726-.72c0-.398.329-.727.726-.727H78.84c.398 0 .72.329.72.727zM93.753 99.437c0 .398-.321.719-.719.719H52.977c-.397 0-.726-.321-.726-.72s.329-.719.726-.719h40.057c.398 0 .72.322.72.72zM52.25 94.616c0-.398.33-.72.727-.72h40.057c.398 0 .72.322.72.72a.725.725 0 0 1-.72.727H52.977a.732.732 0 0 1-.726-.727zM93.753 104.257c0 .398-.321.72-.719.72H52.977c-.397 0-.726-.322-.726-.72s.329-.727.726-.727h40.057c.398 0 .72.33.72.727zM46.428 119.313v16.031c0 .954-.774 1.728-1.727 1.728H28.669a1.728 1.728 0 0 1-1.728-1.728v-16.031c0-.954.774-1.728 1.728-1.728H44.7c.953 0 1.727.774 1.727 1.728z"/><path fill="#42c1f4" d="M70.002 119.313v16.031c0 .954-.774 1.728-1.728 1.728H52.243a1.728 1.728 0 0 1-1.728-1.728v-16.031c0-.954.774-1.728 1.728-1.728h16.031c.954 0 1.728.774 1.728 1.728z"/><path fill="#d1dcf8" d="M93.576 119.313v16.031c0 .954-.774 1.728-1.728 1.728H75.816a1.728 1.728 0 0 1-1.727-1.728v-16.031c0-.954.774-1.728 1.727-1.728h16.032c.954 0 1.728.774 1.728 1.728z"/><path fill="#fff" d="m63.847 128.146-4.412 3.201a.916.916 0 0 1-1.453-.74v-6.409a.916.916 0 0 1 1.453-.74l4.412 3.209a.92.92 0 0 1 0 1.48z"/><path fill="#ffd964" d="M91.099 175.266H31.104a3.653 3.653 0 0 1-3.654-3.653v-24.138a3.653 3.653 0 0 1 3.654-3.653h59.995a3.653 3.653 0 0 1 3.653 3.653v24.138a3.653 3.653 0 0 1-3.653 3.653z"/><path fill="#fff" d="M75.295 167.618h-6.9l-5.997-5.998 3.317-3.317c.41-.41 1.068-.41 1.478 0l8.46 8.46a.502.502 0 0 1-.358.855zM67.286 167.62H46.907a.503.503 0 0 1-.356-.859l9.195-9.204a1.05 1.05 0 0 1 1.48 0l10.06 10.063zM64.223 153.944a2.473 2.473 0 0 1-4.945 0 2.473 2.473 0 1 1 4.945 0z"/><path fill="#f3f6fd" d="M108.645 106.973v95.103a4.041 4.041 0 0 0 4.04 4.04h68.437a4.036 4.036 0 0 0 4.04-4.04v-95.103h-76.517z"/><path fill="#fe7b73" d="M176.902 144.478h-59.996a3.653 3.653 0 0 1-3.653-3.653v-24.138a3.653 3.653 0 0 1 3.653-3.653h59.996a3.653 3.653 0 0 1 3.653 3.653v24.138a3.653 3.653 0 0 1-3.653 3.653z"/><path fill="#4a5258" d="M108.645 99.2v7.773h76.517V99.2a4.041 4.041 0 0 0-4.04-4.04h-68.437a4.046 4.046 0 0 0-4.04 4.04z"/><circle cx="114.518" cy="101.537" r="1.756" fill="#fff"/><circle cx="119.228" cy="101.537" r="1.756" fill="#fff"/><circle cx="123.938" cy="101.537" r="1.756" fill="#fff"/><path fill="#fff" d="M161.097 136.83h-6.9l-5.997-5.998 3.318-3.317c.41-.41 1.068-.41 1.477 0l8.46 8.46a.502.502 0 0 1-.358.855zM153.088 136.831H132.71a.503.503 0 0 1-.356-.858l9.194-9.204a1.05 1.05 0 0 1 1.481 0l10.06 10.062zM150.025 123.156a2.473 2.473 0 0 1-4.945 0 2.473 2.473 0 1 1 4.945 0z"/><path fill="#d1dcf8" d="M135.498 151.677v16.94c0 .873-.711 1.585-1.583 1.585h-18.41a1.587 1.587 0 0 1-1.584-1.584v-16.941c0-.88.711-1.584 1.584-1.584h18.41c.872 0 1.583.704 1.583 1.584zM166.358 167.27c0 .399-.322.72-.72.72h-25.862a.725.725 0 0 1-.727-.72c0-.397.329-.726.727-.726h25.862c.398 0 .72.33.72.727zM180.552 157.63c0 .398-.322.719-.72.719h-40.056c-.398 0-.727-.321-.727-.72s.329-.718.727-.718h40.056c.398 0 .72.32.72.719zM139.049 152.81c0-.399.329-.72.727-.72h40.056c.398 0 .72.321.72.72a.725.725 0 0 1-.72.726h-40.056a.732.732 0 0 1-.727-.727zM180.552 162.45c0 .398-.322.72-.72.72h-40.056c-.398 0-.727-.322-.727-.72s.329-.727.727-.727h40.056c.398 0 .72.33.72.727zM133.407 179.364v16.031c0 .954-.774 1.728-1.727 1.728h-16.032a1.728 1.728 0 0 1-1.727-1.728v-16.031c0-.954.774-1.728 1.727-1.728h16.032c.953 0 1.727.774 1.727 1.728z"/><path fill="#71c687" d="M156.981 179.364v16.031c0 .954-.774 1.728-1.727 1.728h-16.032a1.728 1.728 0 0 1-1.728-1.728v-16.031c0-.954.774-1.728 1.728-1.728h16.032c.953 0 1.727.774 1.727 1.728z"/><path fill="#d1dcf8" d="M180.555 179.364v16.031c0 .954-.774 1.728-1.728 1.728h-16.031a1.728 1.728 0 0 1-1.728-1.728v-16.031c0-.954.774-1.728 1.728-1.728h16.031c.954 0 1.728.774 1.728 1.728z"/><path fill="#fff" d="m150.826 188.197-4.412 3.201a.916.916 0 0 1-1.452-.74v-6.409a.916.916 0 0 1 1.452-.74l4.412 3.208a.92.92 0 0 1 0 1.48z"/><path fill="#f3f6fd" d="M119.582 238.173h-17.696a2.763 2.763 0 0 1-2.763-2.763v-15.948a2.763 2.763 0 0 1 2.763-2.763h17.696a2.763 2.763 0 0 1 2.763 2.763v15.948a2.763 2.763 0 0 1-2.763 2.763z"/><path fill="#003567" d="m116.016 228.202 1.005 1.004a.442.442 0 0 1 0 .625l-4.624 4.624a.443.443 0 0 1-.627.002l-1.004-1.005a.443.443 0 0 1 .002-.627l4.623-4.624a.442.442 0 0 1 .625 0zM111.538 223.793l2.45 4.467-3.233 3.234-4.467-2.45-1.97-6.497.001-.002 3.457 3.457a1.097 1.097 0 1 0 .722-.723l-3.456-3.456 6.496 1.97z"/><circle cx="165.025" cy="54.248" r="10.53" fill="#ffd964"/><path fill="#fff" d="M160.616 58.75a.658.658 0 0 1-.185-.474c0-.078.024-.178.073-.296l3.779-8.918c.079-.178.189-.323.333-.438a.822.822 0 0 1 .526-.17h.147c.208 0 .383.057.527.17.142.115.254.26.333.438l3.777 8.918a.8.8 0 0 1 .074.296.658.658 0 0 1-.184.474.64.64 0 0 1-.482.193.705.705 0 0 1-.638-.415l-.962-2.31h-5.036l-.964 2.31c-.059.129-.146.23-.26.303s-.238.112-.377.112a.64.64 0 0 1-.481-.193zm2.6-3.762h4l-2-4.816-2 4.816z"/></svg>