<svg xmlns="http://www.w3.org/2000/svg" enable-background="new 0 0 1364 960" viewBox="0 0 1364 960"><path fill="#D3D6E0" d="M701.164,906.338l164.252-16.413l53.385,15.109c0,0-35.221-39.696-43.517-41.556
	C866.989,861.62,726.558,891.131,701.164,906.338z"/><path fill="#D3D6E0" d="M158.995,908.662l65.911-21.17l209.786,21.858c0,0-191.42-54.739-219.738-51.306
	C186.636,861.477,160.744,902.857,158.995,908.662z"/><ellipse cx="683.693" cy="792.079" fill="#D3D6E0" rx="357.639" ry="73.414"/><polygon fill="#707070" points="459.264 752.361 412.035 291.32 442.396 291.32 491.649 752.361"/><polygon fill="#B2B2B2" points="389.77 818.256 412.035 291.32 442.396 291.32 422.155 818.256"/><polygon fill="#707070" points="909.771 752.361 957 291.32 926.639 291.32 877.386 752.361"/><polygon fill="#B2B2B2" points="979.265 818.256 957 291.32 926.639 291.32 946.879 818.256"/><rect width="544.965" height="29.687" x="412.035" y="664.201" fill="#B2B2B2"/><polygon fill="#A09F9F" points="414.183 818.256 421.962 686.466 947.51 686.466 955.519 818.256 946.879 818.256 942.102 693.888 426.933 693.888 422.155 818.256"/><rect width="740.357" height="116.863" x="294.49" y="446.576" fill="#F4F3F2"/><polygon fill="#FAAB1A" points="915.747 446.576 1029.268 563.439 1034.847 563.439 1034.847 502.16 980.862 446.576"/><polygon fill="#FAAB1A" points="783.28 446.576 896.801 563.439 961.891 563.439 848.395 446.576"/><polygon fill="#FAAB1A" points="650.812 446.576 764.334 563.439 829.423 563.439 715.928 446.576"/><polygon fill="#FAAB1A" points="518.345 446.576 631.866 563.439 696.956 563.439 583.46 446.576"/><polygon fill="#FAAB1A" points="385.878 446.576 499.399 563.439 564.489 563.439 450.993 446.576"/><polygon fill="#FAAB1A" points="294.49 446.576 294.49 488.864 366.932 563.439 432.021 563.439 318.526 446.576"/><circle cx="416.083" cy="505.008" r="8.651" fill="#707070" transform="rotate(-45.001 416.08 505.015)"/><polygon fill="#E5E1DF" points="416.083 513.659 415.089 505.008 416.083 496.356"/><polygon fill="#E5E1DF" points="416.083 513.659 417.078 505.008 416.083 496.356"/><polygon fill="#E5E1DF" points="407.432 505.008 416.083 504.013 424.735 505.008"/><polygon fill="#E5E1DF" points="407.432 505.008 416.083 506.002 424.735 505.008"/><circle cx="952.952" cy="505.008" r="8.651" fill="#707070" transform="rotate(-22.5 952.91 504.99)"/><polygon fill="#E5E1DF" points="952.952 513.659 951.957 505.008 952.952 496.356"/><polygon fill="#E5E1DF" points="952.952 513.659 953.946 505.008 952.952 496.356"/><polygon fill="#E5E1DF" points="944.3 505.008 952.952 504.013 961.603 505.008"/><polygon fill="#E5E1DF" points="944.3 505.008 952.952 506.002 961.603 505.008"/><path fill="#FF954A" d="M936.903,414.373h-544.47c-30.705,0-55.596-24.891-55.596-55.596V154.663
	c0-30.705,24.891-55.596,55.596-55.596h544.47c30.705,0,55.596,24.891,55.596,55.596v204.113
	C992.5,389.482,967.608,414.373,936.903,414.373z"/><path fill="#1E1E1E" d="M908.108,390.135H421.23c-27.144,0-49.227-17.611-49.227-39.258V162.563
	c0-21.647,22.083-39.258,49.227-39.258h486.878c27.143,0,49.226,17.611,49.226,39.258v188.315
	C957.334,372.524,935.251,390.135,908.108,390.135z M421.23,130.994c-21.828,0-39.585,14.161-39.585,31.569v188.315
	c0,17.407,17.758,31.569,39.585,31.569h486.878c21.827,0,39.584-14.161,39.584-31.569V162.563c0-17.407-17.758-31.569-39.584-31.569
	H421.23z"/><path fill="#363838" d="M543.162,177.791h18.232v35.229c0,3.493-0.544,6.792-1.634,9.895c-1.089,3.104-2.797,5.818-5.123,8.142
	c-2.326,2.325-4.766,3.957-7.32,4.897c-3.549,1.316-7.812,1.975-12.786,1.975c-2.877,0-6.017-0.203-9.419-0.605
	c-3.401-0.404-6.245-1.202-8.531-2.399c-2.285-1.196-4.376-2.896-6.271-5.099c-1.896-2.203-3.193-4.474-3.892-6.811
	c-1.129-3.762-1.694-7.094-1.694-9.996v-35.229h18.23v36.068c0,3.223,0.894,5.743,2.683,7.556c1.788,1.814,4.269,2.72,7.442,2.72
	c3.146,0,5.612-0.894,7.401-2.68c1.788-1.786,2.681-4.319,2.681-7.596V177.791z"/><path fill="#363838" d="M573.614,177.791h17.061l22.265,32.714v-32.714h17.222v59.13H612.94l-22.144-32.467v32.467h-17.182V177.791z
	"/><path fill="#363838" d="M642.545,177.791h27.145c5.35,0,9.673,0.726,12.968,2.178c3.293,1.452,6.015,3.536,8.167,6.252
	c2.151,2.716,3.711,5.875,4.679,9.478c0.968,3.604,1.452,7.422,1.452,11.456c0,6.318-0.72,11.219-2.158,14.701
	c-1.439,3.483-3.435,6.4-5.989,8.753c-2.555,2.354-5.298,3.919-8.229,4.699c-4.007,1.076-7.637,1.613-10.89,1.613h-27.145V177.791z
	 M660.817,191.182v32.307h4.477c3.818,0,6.533-0.424,8.147-1.271c1.613-0.847,2.877-2.325,3.792-4.436
	c0.914-2.111,1.372-5.532,1.372-10.266c0-6.265-1.023-10.553-3.066-12.866c-2.044-2.311-5.431-3.468-10.163-3.468H660.817z"/><path fill="#363838" d="M706.514,177.791h48.965v12.625h-30.654v9.398h28.436v12.059h-28.436v11.656h31.541v13.391h-49.852V177.791z
	"/><path fill="#363838" d="M766.45,236.92v-59.13h30.452c5.646,0,9.962,0.484,12.947,1.453c2.984,0.968,5.39,2.762,7.219,5.384
	c1.829,2.621,2.743,5.815,2.743,9.579c0,3.28-0.699,6.11-2.099,8.49c-1.399,2.38-3.324,4.31-5.771,5.789
	c-1.561,0.941-3.699,1.72-6.417,2.339c2.176,0.728,3.762,1.454,4.756,2.181c0.672,0.484,1.645,1.52,2.923,3.108
	c1.276,1.588,2.129,2.812,2.56,3.673l8.848,17.134h-20.645l-9.767-18.07c-1.237-2.339-2.339-3.858-3.307-4.558
	c-1.318-0.913-2.81-1.371-4.477-1.371h-1.614v23.999H766.45z M784.802,201.749h7.704c0.832,0,2.446-0.269,4.839-0.807
	c1.21-0.241,2.199-0.86,2.965-1.855c0.766-0.995,1.15-2.138,1.15-3.428c0-1.909-0.606-3.374-1.816-4.396
	c-1.209-1.021-3.482-1.533-6.816-1.533h-8.026V201.749z"/><path fill="#363838" d="M444.943,301.515l10.768,4.086c-0.723,3.79-1.862,6.957-3.417,9.5c-1.555,2.541-3.485,4.46-5.791,5.753
	c-2.306,1.294-5.239,1.941-8.801,1.941c-4.322,0-7.852-0.789-10.591-2.365c-2.74-1.577-5.103-4.35-7.092-8.319
	c-1.989-3.97-2.983-9.051-2.983-15.244c0-8.257,1.749-14.603,5.248-19.038c3.499-4.435,8.449-6.652,14.85-6.652
	c5.009,0,8.946,1.272,11.812,3.813c2.866,2.543,4.995,6.447,6.388,11.713l-10.85,3.03c-0.379-1.52-0.778-2.633-1.193-3.336
	c-0.687-1.181-1.528-2.088-2.522-2.725c-0.995-0.635-2.107-0.953-3.336-0.953c-2.785,0-4.919,1.406-6.401,4.217
	c-1.122,2.086-1.682,5.362-1.682,9.827c0,5.533,0.669,9.324,2.007,11.376c1.338,2.052,3.219,3.078,5.642,3.078
	c2.35,0,4.126-0.829,5.33-2.486C443.529,307.077,444.401,304.671,444.943,301.515z"/><path fill="#363838" d="M460.133,297.021c0-8.148,1.808-14.492,5.426-19.032c3.616-4.54,8.651-6.81,15.107-6.81
	c6.618,0,11.716,2.23,15.297,6.69c3.58,4.46,5.37,10.708,5.37,18.743c0,5.834-0.782,10.618-2.345,14.351
	c-1.565,3.735-3.825,6.639-6.781,8.716c-2.957,2.078-6.642,3.116-11.053,3.116c-4.485,0-8.196-0.897-11.135-2.691
	c-2.939-1.792-5.321-4.631-7.147-8.511C461.046,307.712,460.133,302.855,460.133,297.021z M472.42,297.089
	c0,5.039,0.746,8.66,2.237,10.861c1.493,2.202,3.522,3.303,6.089,3.303c2.64,0,4.683-1.078,6.13-3.235
	c1.446-2.156,2.17-6.027,2.17-11.611c0-4.699-0.756-8.132-2.266-10.3c-1.51-2.167-3.557-3.251-6.143-3.251
	c-2.478,0-4.467,1.101-5.967,3.302C473.17,288.361,472.42,292.005,472.42,297.089z"/><path fill="#363838" d="M508.032,272.03h11.473l14.972,27.615V272.03h11.582v49.914h-11.582l-14.891-27.407v27.407h-11.554V272.03z"/><path fill="#363838" d="M552.08,305.43l11.69-0.919c0.253,2.383,0.769,4.199,1.546,5.447c1.265,2.021,3.074,3.031,5.424,3.031
	c1.754,0,3.106-0.517,4.055-1.55c0.95-1.033,1.424-2.231,1.424-3.592c0-1.293-0.452-2.451-1.356-3.473
	c-0.904-1.021-3.001-1.986-6.293-2.894c-5.388-1.52-9.231-3.54-11.526-6.06c-2.315-2.52-3.473-5.732-3.473-9.636
	c0-2.564,0.592-4.987,1.777-7.269c1.184-2.281,2.965-4.074,5.342-5.38c2.379-1.305,5.637-1.957,9.779-1.957
	c5.081,0,8.955,1.186,11.622,3.558c2.667,2.372,4.254,6.145,4.761,11.321l-11.582,0.851c-0.308-2.247-0.954-3.882-1.939-4.903
	c-0.986-1.021-2.346-1.533-4.082-1.533c-1.429,0-2.505,0.382-3.228,1.141c-0.723,0.761-1.085,1.685-1.085,2.775
	c0,0.795,0.298,1.51,0.896,2.145c0.578,0.659,1.953,1.272,4.122,1.839c5.371,1.453,9.217,2.923,11.541,4.409
	c2.324,1.487,4.015,3.332,5.073,5.534c1.058,2.201,1.586,4.664,1.586,7.387c0,3.201-0.705,6.152-2.116,8.853
	c-1.411,2.702-3.382,4.75-5.913,6.146c-2.531,1.396-5.723,2.094-9.575,2.094c-6.762,0-11.445-1.635-14.049-4.903
	C553.897,314.624,552.424,310.47,552.08,305.43z"/><path fill="#363838" d="M591.544,272.03h37.348v12.324h-12.531v37.589h-12.287v-37.589h-12.53V272.03z"/><path fill="#363838" d="M634.615,321.944V272.03h20.478c3.797,0,6.7,0.408,8.706,1.225c2.007,0.818,3.625,2.332,4.855,4.545
	c1.23,2.214,1.845,4.909,1.845,8.087c0,2.769-0.47,5.158-1.411,7.168c-0.94,2.008-2.235,3.637-3.88,4.886
	c-1.05,0.795-2.488,1.453-4.315,1.974c1.463,0.614,2.529,1.227,3.198,1.84c0.452,0.409,1.107,1.284,1.965,2.624
	c0.857,1.34,1.431,2.374,1.72,3.1l5.95,14.464h-13.883l-6.568-15.253c-0.832-1.975-1.574-3.258-2.224-3.847
	c-0.887-0.772-1.89-1.158-3.012-1.158h-1.084v20.258H634.615z M646.956,292.254h5.179c0.56,0,1.645-0.227,3.255-0.681
	c0.814-0.205,1.478-0.726,1.994-1.567c0.515-0.839,0.773-1.805,0.773-2.893c0-1.612-0.408-2.849-1.221-3.712
	c-0.814-0.862-2.342-1.293-4.584-1.293h-5.397V292.254z"/><path fill="#363838" d="M702.585,272.03h12.26v29.737c0,2.949-0.365,5.734-1.098,8.353c-0.732,2.62-1.881,4.912-3.445,6.874
	c-1.563,1.962-3.205,3.34-4.922,4.133c-2.387,1.111-5.254,1.668-8.598,1.668c-1.936,0-4.047-0.171-6.334-0.511
	c-2.287-0.34-4.199-1.014-5.736-2.025c-1.537-1.009-2.942-2.443-4.217-4.304c-1.274-1.859-2.148-3.777-2.618-5.75
	c-0.76-3.176-1.139-5.988-1.139-8.438V272.03h12.26v30.446c0,2.722,0.601,4.848,1.804,6.379c1.202,1.531,2.87,2.297,5.004,2.297
	c2.115,0,3.774-0.754,4.977-2.263c1.202-1.508,1.804-3.646,1.804-6.413V272.03z"/><path fill="#363838" d="M749.454,301.515l10.768,4.086c-0.723,3.79-1.862,6.957-3.417,9.5c-1.555,2.541-3.485,4.46-5.791,5.753
	c-2.306,1.294-5.239,1.941-8.801,1.941c-4.322,0-7.852-0.789-10.592-2.365c-2.74-1.577-5.103-4.35-7.092-8.319
	c-1.989-3.97-2.983-9.051-2.983-15.244c0-8.257,1.749-14.603,5.248-19.038c3.499-4.435,8.449-6.652,14.85-6.652
	c5.009,0,8.946,1.272,11.812,3.813c2.866,2.543,4.995,6.447,6.388,11.713l-10.85,3.03c-0.379-1.52-0.778-2.633-1.193-3.336
	c-0.687-1.181-1.528-2.088-2.522-2.725c-0.995-0.635-2.106-0.953-3.336-0.953c-2.785,0-4.919,1.406-6.401,4.217
	c-1.122,2.086-1.682,5.362-1.682,9.827c0,5.533,0.669,9.324,2.007,11.376c1.338,2.052,3.219,3.078,5.642,3.078
	c2.35,0,4.126-0.829,5.33-2.486C748.04,307.077,748.912,304.671,749.454,301.515z"/><path fill="#363838" d="M763.396,272.03h37.348v12.324h-12.531v37.589h-12.287v-37.589h-12.531V272.03z"/><path fill="#363838" d="M806.792,272.03h12.314v49.914h-12.314V272.03z"/><path fill="#363838" d="M826.374,297.021c0-8.148,1.808-14.492,5.425-19.032c3.616-4.54,8.651-6.81,15.107-6.81
	c6.618,0,11.716,2.23,15.297,6.69c3.58,4.46,5.37,10.708,5.37,18.743c0,5.834-0.782,10.618-2.346,14.351
	c-1.565,3.735-3.825,6.639-6.781,8.716c-2.957,2.078-6.642,3.116-11.053,3.116c-4.485,0-8.196-0.897-11.135-2.691
	c-2.939-1.792-5.321-4.631-7.147-8.511C827.288,307.712,826.374,302.855,826.374,297.021z M838.661,297.089
	c0,5.039,0.746,8.66,2.237,10.861c1.493,2.202,3.522,3.303,6.089,3.303c2.64,0,4.683-1.078,6.13-3.235
	c1.446-2.156,2.17-6.027,2.17-11.611c0-4.699-0.756-8.132-2.266-10.3c-1.51-2.167-3.557-3.251-6.143-3.251
	c-2.478,0-4.467,1.101-5.968,3.302C839.412,288.361,838.661,292.005,838.661,297.089z"/><path fill="#363838" d="M874.275,272.03h11.473l14.972,27.615V272.03h11.582v49.914h-11.582l-14.891-27.407v27.407h-11.554V272.03z"/><path fill="#E09812" d="M1010.242,176.609c0,0,43.696,42.85,7.2,57.44c-34.704,13.873-194.749-80.33-185.046-133.974
	C842.694,43.133,976.131,141.604,1010.242,176.609z"/><path fill="#FFB42B" d="M1013.097,171.86c0,0,39.909,45.768,7.2,57.44c-35.201,12.56-194.527-77.711-184.824-131.355
	C845.771,41.003,978.987,136.855,1013.097,171.86z"/><path fill="#E09812" d="M1017.202,176.996c0,0-4.475,19.999-17.112,23.53c-11.497,3.213-40.302-1.447-89.382-28.129
	c-50.673-27.547-86.712-64.63-59.859-91.536L1017.202,176.996z"/><path fill="#FFB42B" d="M843.599,96.494c-0.103,10.338,2.977,37.912,68.436,73.06c34.746,18.656,58.124,26.699,73.875,28.265
	c1.003,0.104,2.394,0.2,2.394,0.2c5.612,0.362,10.177-0.189,13.878-1.371l0.006-0.017c0.08-0.009,0.15-0.04,0.214-0.055
	c0.087-0.025,0.173-0.051,0.283-0.087c0.585-0.225,1.124-0.428,1.676-0.666c0.25-0.099,0.511-0.233,0.79-0.36
	c2.181-1.036,7.305-7.936,12.051-18.467c0,0,0.08-0.163,0.217-0.478c11.643-26.199,20.72-74.226-21.908-111.373l-0.017-0.006
	c-5.16-4.513-11.115-8.86-17.901-12.997c-20.095-12.235-38.224-16.676-54.167-16.232c-3.508,0.097-6.933,0.437-10.222,0.982
	c-0.017-0.007-0.017-0.007-0.017-0.007c-4.687,0.775-9.16,1.958-13.41,3.475c-23.477,8.372-40.129,26.817-48.927,40.501
	c-0.013,0.034-0.036,0.044-0.049,0.078C846.072,88.276,843.617,94.225,843.599,96.494z"/><path fill="#E09812" d="M913.203,36.892c18.109,6.093,119.718,45.764,88.984,159.739l-0.006,0.017c0,0,0.087-0.025,0.22-0.072
	c0.087-0.025,0.173-0.051,0.283-0.087c0.376-0.129,0.962-0.354,1.676-0.666c0.25-0.099,0.511-0.233,0.79-0.36
	c0,0,39.539-112.093-81.725-159.553C919.918,36.007,916.493,36.347,913.203,36.892z"/><path fill="#E09812" d="M850.849,80.862c32.534-39.318,49.412-37.62,49.412-37.62c118.381,48.775,85.648,154.577,85.648,154.577
	c1.003,0.104,2.394,0.2,2.394,0.2c25.812-122.43-88.528-157.659-88.528-157.659C876.299,48.732,859.647,67.177,850.849,80.862z"/><path fill="#E09812" d="M1017.419,176.518c11.643-26.199,20.72-74.226-21.908-111.373
	C1043.63,111.344,1019.839,170.768,1017.419,176.518z"/><path fill="#E09812" d="M911.589,169.402c0,0,8.772-14.328,7.834-17.982c-0.938-3.655-15.094-12.14-15.094-12.14
	s13.43,11.132,13.419,12.569C917.722,155.403,911.589,169.402,911.589,169.402z"/><path fill="#E09812" d="M861.904,134.159c0,0,10.883-11.896,10.667-15.51s-11.046-9.92-11.046-9.92s9.663,8.667,9.39,10.018
	C870.24,122.09,861.904,134.159,861.904,134.159z"/><path fill="#D3D6E0" d="M722.524,844.414L571.078,924.12l-215.819-69.508c0,0,106.475-22.806,195.615-21.414
	S720.177,805.484,722.524,844.414z"/><path fill="#D3D6E0" d="M1222.969,848.748l-143.88,73.084l-214.424-72.573c0,0,107.654-20.222,196.794-18.831
	c82.074,1.281,159.938-7.971,159.938-7.971C1226.544,832.586,1226.258,843.098,1222.969,848.748z"/><path fill="#E26B13" d="M718.063,839.039l-146.482,64.85c-1.651,0.708-3.537,0.826-5.267,0.275L426.868,859.87l-31.993-10.179
	c-5.227-1.651-7.428-16.311-4.952-23.818c0.118-0.354,0.236-0.707,0.393-1.022c0.629-1.533,1.533-2.633,2.673-3.105l66.422-12.498
	c0.472-0.197,0.983-0.354,1.493-0.433l97.982-17.647c0.904-0.157,1.847-0.157,2.751,0.039l90.2,17.529
	c0.118,0,0.275,0.039,0.393,0.079l66.422,2.24C725.57,812.785,724.588,836.17,718.063,839.039z"/><path fill="#F27C1C" d="M718.063,824.458l-146.482,64.81c-1.651,0.747-3.537,0.865-5.267,0.315l-108.672-34.508l-62.767-19.966
	c-6.682-2.122-7.035-11.437-0.55-14.07l65.086-26.411c0.197-0.079,0.393-0.118,0.59-0.197c0.275-0.079,0.59-0.157,0.904-0.197
	l97.982-17.647c0.904-0.157,1.847-0.157,2.751,0l90.2,17.568c0.118,0,0.275,0.039,0.393,0.079l64.614,16.115
	C723.762,812.078,724.588,821.589,718.063,824.458z"/><path fill="#F88820" d="M652.034,794.195c0,25.94-42.997,47.006-95.978,47.006c-2.791,0-5.581-0.079-8.332-0.197
	c-49.168-2.044-87.724-22.245-87.724-46.809l7.507-18.276c14.542-16.9,48.696-28.731,88.549-28.731
	c39.775,0,73.929,11.83,88.51,28.731L652.034,794.195z"/><path fill="#F88820" d="M652.034,794.195H460.001l7.507-18.276l74.675-181.854c0.275-0.669,0.59-1.337,1.022-1.926v-0.039
	c0.432-0.669,0.904-1.258,1.415-1.808c0.039,0,0.039-0.039,0.078-0.039c1.258-0.983,3.223-1.769,5.581-2.24
	c1.729-0.393,3.695-0.59,5.738-0.59c4.873,0,9.158,1.14,11.359,2.831c0,0.039,0.039,0.039,0.039,0.039
	c0.511,0.51,0.983,1.101,1.375,1.729c0.432,0.628,0.786,1.337,1.101,2.044l74.676,181.854L652.034,794.195z"/><path fill="#FDFEF9" d="M595.019,655.252c-9.73,5.108-23.596,8.301-38.982,8.301s-29.252-3.193-38.982-8.271l5.534-13.531
	c8.332,4.409,20.221,7.176,33.448,7.176c13.227,0,25.147-2.767,33.448-7.176L595.019,655.252z"/><path fill="#FDFEF9" d="M616.061,706.519c-12.801,9.608-34.907,15.933-60.024,15.933c-25.147,0-47.253-6.325-60.055-15.933
	l7.541-18.336c10.612,8.757,30.164,14.656,52.513,14.656c22.319,0,41.841-5.9,52.483-14.656L616.061,706.519z"/><path fill="#FDFEF9" d="M641.269,767.941c-15.964,15.082-48.165,25.39-85.232,25.39s-69.268-10.308-85.262-25.39l10.278-24.995
	c12.589,14.169,41.415,24.082,74.984,24.082c33.57,0,62.396-9.913,74.954-24.082L641.269,767.941z"/><path fill="#F88820" d="M390.317,824.851c0.629-1.533,1.533-2.633,2.673-3.105C391.732,822.532,390.828,823.632,390.317,824.851z"/><path fill="#F2F2F2" d="M550.869,597.838v0.315l-2.555,196.042l-0.589,46.809v0.04l-90.082,14.031l-30.774,4.795l-31.993-10.179
	c-5.227-1.651-7.428-16.311-4.952-23.818v0.157c0.55-2.122,2.004-4.009,4.402-4.992l65.086-26.411
	c0.157-0.079,0.315-0.118,0.511-0.157c0-0.079,0.039-0.197,0.079-0.275l7.507-18.276l74.675-181.854
	c0.275-0.669,0.59-1.337,1.022-1.926c0.393-0.668,0.865-1.297,1.415-1.847c0.039,0,0.039-0.039,0.078-0.039
	c1.258-0.983,3.223-1.769,5.581-2.24C550.712,590.684,550.908,593.947,550.869,597.838z"/><path fill="#F27C1C" d="M568.987,592.885c0,2.987-5.817,5.423-12.97,5.423c-1.808,0-3.577-0.156-5.149-0.471
	c-4.598-0.825-7.821-2.712-7.821-4.952c0-0.236,0.039-0.51,0.157-0.747v-0.039c0.196-0.669,0.668-1.258,1.415-1.808
	c0.039,0,0.039-0.039,0.078-0.039c1.258-0.983,3.223-1.769,5.581-2.24c1.729-0.393,3.695-0.59,5.738-0.59
	c4.873,0,9.158,1.14,11.359,2.831c0,0.039,0.039,0.039,0.039,0.039c0.707,0.51,1.179,1.101,1.375,1.729
	C568.948,592.296,568.987,592.61,568.987,592.885z"/><path fill="#E26B13" d="M1216.894,841.755l-134.837,59.695c-1.52,0.652-3.256,0.76-4.848,0.253L948.848,860.93l-29.449-9.37
	c-4.812-1.52-6.838-15.015-4.558-21.924c0.109-0.326,0.217-0.651,0.362-0.941c0.579-1.411,1.411-2.424,2.46-2.858l61.142-11.504
	c0.434-0.181,0.904-0.326,1.375-0.398l90.193-16.244c0.832-0.145,1.7-0.145,2.532,0.036l83.03,16.135
	c0.109,0,0.253,0.036,0.362,0.072l61.142,2.063C1223.804,817.589,1222.9,839.115,1216.894,841.755z"/><path fill="#F27C1C" d="M1216.894,828.333l-134.837,59.658c-1.52,0.688-3.256,0.796-4.848,0.29l-100.033-31.765l-57.777-18.379
	c-6.15-1.953-6.476-10.528-0.507-12.951l59.912-24.312c0.181-0.072,0.362-0.109,0.543-0.181c0.253-0.072,0.543-0.145,0.832-0.181
	l90.193-16.244c0.832-0.145,1.7-0.145,2.532,0l83.03,16.172c0.109,0,0.253,0.036,0.362,0.073l59.477,14.833
	C1222.14,816.938,1222.9,825.693,1216.894,828.333z"/><path fill="#F88820" d="M1156.114,800.476c0,23.878-39.579,43.269-88.348,43.269c-2.569,0-5.137-0.072-7.67-0.181
	c-45.259-1.881-80.75-20.477-80.75-43.088l6.91-16.823c13.386-15.557,44.825-26.447,81.51-26.447
	c36.613,0,68.052,10.89,81.474,26.447L1156.114,800.476z"/><path fill="#F88820" d="M1156.114,800.476H979.346l6.91-16.823l68.739-167.398c0.253-0.616,0.543-1.23,0.941-1.773v-0.036
	c0.398-0.616,0.832-1.158,1.303-1.664c0.036,0,0.036-0.036,0.072-0.036c1.158-0.904,2.967-1.629,5.137-2.062
	c1.592-0.362,3.401-0.543,5.282-0.543c4.486,0,8.43,1.049,10.456,2.606c0,0.036,0.036,0.036,0.036,0.036
	c0.47,0.47,0.904,1.013,1.266,1.592c0.398,0.578,0.724,1.23,1.013,1.881l68.739,167.398L1156.114,800.476z"/><path fill="#FDFEF9" d="M1103.632,672.578c-8.957,4.702-21.72,7.641-35.883,7.641s-26.926-2.939-35.883-7.613l5.094-12.456
	c7.669,4.058,18.613,6.605,30.789,6.605c12.176,0,23.148-2.547,30.789-6.605L1103.632,672.578z"/><path fill="#FDFEF9" d="M1123.001,719.77c-11.784,8.845-32.132,14.667-55.252,14.667c-23.148,0-43.496-5.822-55.28-14.667
	l6.942-16.878c9.769,8.061,27.766,13.491,48.339,13.491c20.545,0,38.514-5.431,48.311-13.491L1123.001,719.77z"/><path fill="#FDFEF9" d="M1146.205,776.31c-14.695,13.883-44.336,23.371-78.456,23.371c-34.12,0-63.761-9.488-78.484-23.371
	l9.461-23.008c11.588,13.043,38.122,22.168,69.023,22.168c30.901,0,57.436-9.125,68.996-22.168L1146.205,776.31z"/><path fill="#F88820" d="M915.202,828.695c0.579-1.411,1.411-2.424,2.46-2.858C916.504,826.561,915.672,827.574,915.202,828.695z"/><path fill="#F2F2F2" d="M1062.991,619.729v0.29l-2.352,180.458l-0.542,43.088v0.037l-82.921,12.915l-28.328,4.414l-29.449-9.37
	c-4.812-1.52-6.838-15.015-4.558-21.924v0.145c0.506-1.954,1.845-3.69,4.052-4.595l59.912-24.312
	c0.145-0.072,0.289-0.109,0.47-0.145c0-0.072,0.036-0.181,0.073-0.254l6.91-16.823l68.739-167.398
	c0.253-0.616,0.543-1.23,0.941-1.773c0.362-0.615,0.796-1.194,1.303-1.7c0.036,0,0.036-0.036,0.072-0.036
	c1.158-0.904,2.967-1.629,5.137-2.062C1062.846,613.144,1063.027,616.147,1062.991,619.729z"/><path fill="#F27C1C" d="M1079.669,615.17c0,2.75-5.354,4.992-11.939,4.992c-1.664,0-3.292-0.144-4.739-0.434
	c-4.233-0.76-7.2-2.496-7.2-4.559c0-0.217,0.036-0.47,0.145-0.687v-0.036c0.181-0.616,0.615-1.158,1.303-1.664
	c0.036,0,0.036-0.036,0.072-0.036c1.158-0.904,2.967-1.629,5.137-2.062c1.592-0.362,3.401-0.543,5.282-0.543
	c4.486,0,8.43,1.049,10.456,2.606c0,0.036,0.036,0.036,0.036,0.036c0.651,0.47,1.085,1.013,1.266,1.592
	C1079.633,614.628,1079.669,614.917,1079.669,615.17z"/><path fill="#E26B13" d="M787.81,682.546l107.051,68.43c1.192,0.781,2.096,1.977,2.49,3.361l31.811,111.597l7.287,25.611
	c1.198,4.179-7.529,12.057-13.577,13.709c-0.286,0.077-0.571,0.154-0.848,0.188c-1.289,0.256-2.412,0.14-3.224-0.406l-37.364-38.437
	c-0.337-0.226-0.665-0.495-0.94-0.798l-54.595-57.046c-0.5-0.529-0.913-1.152-1.179-1.836l-27.93-67.313
	c-0.052-0.078-0.094-0.199-0.12-0.294l-27.62-44.894C767.164,689.085,783.055,679.489,787.81,682.546z"/><path fill="#F27C1C" d="M778.17,688.934l107.025,68.447c1.217,0.764,2.121,1.96,2.516,3.344l24.798,86.964l14.3,50.244
	c1.525,5.347-4.479,9.662-9.061,6.528l-45.977-31.458c-0.138-0.096-0.25-0.208-0.388-0.304c-0.173-0.147-0.362-0.321-0.526-0.511
	l-54.595-57.046c-0.5-0.529-0.913-1.152-1.205-1.819l-27.904-67.33c-0.052-0.078-0.095-0.199-0.12-0.294l-17.655-49.778
	C767.489,690.59,773.415,685.878,778.17,688.934z"/><path fill="#F88820" d="M787.091,745.846c17.15-11.365,49.915,7.832,73.127,42.858c1.223,1.845,2.393,3.724,3.521,5.595
	c20.19,33.401,23.727,67.742,7.488,78.504l-15.371,3.044c-17.544-2.209-40.33-19.606-57.79-45.954
	c-17.426-26.296-24.569-54.059-19.784-71.103L787.091,745.846z"/><path fill="#F88820" d="M787.091,745.846l84.135,126.957l-15.371,3.044l-152.945,30.306c-0.563,0.111-1.142,0.196-1.721,0.168
	l-0.026,0.017c-0.632,0.007-1.228-0.047-1.815-0.143c-0.017-0.026-0.043-0.009-0.06-0.035c-1.201-0.401-2.582-1.355-3.926-2.708
	c-1.018-0.971-2.009-2.184-2.904-3.535c-2.135-3.222-3.259-6.554-3.105-8.75c0.026-0.017,0.009-0.043,0.009-0.043
	c0.114-0.561,0.297-1.132,0.54-1.667c0.226-0.561,0.539-1.105,0.869-1.623l87.51-129.044L787.091,745.846z"/><path fill="#FDFEF9" d="M720.213,844.414c7.64,4.195,15.826,11.963,22.567,22.135c6.741,10.172,10.705,20.738,11.611,29.396
	l-11.37,2.27c-0.736-7.44-4.115-16.512-9.91-25.257c-5.795-8.745-12.847-15.413-19.399-18.969L720.213,844.414z"/><path fill="#FDFEF9" d="M744.888,808.042c11.961,4.253,25.828,16.097,36.832,32.702c11.017,16.625,16.521,34.011,15.778,46.684
	l-15.426,3.048c1.14-10.852-3.526-26.363-13.318-41.139c-9.779-14.756-22.232-25.077-32.684-28.276L744.888,808.042z"/><path fill="#FDFEF9" d="M774.452,764.465c16.965,3.946,37.888,20.719,54.128,45.225c16.24,24.505,23.533,50.31,20.57,67.492
	l-21.027,4.156c3.852-14.531-2.224-37.931-16.931-60.125c-14.708-22.194-33.891-36.908-48.761-39.003L774.452,764.465z"/><path fill="#F88820" d="M922.024,905.441c-1.289,0.256-2.412,0.14-3.224-0.406C919.871,905.522,920.995,905.637,922.024,905.441z"/><path fill="#F2F2F2" d="M701.599,898.758l0.208-0.138l130.727-84.202l31.205-20.119l0.027-0.018l48.743,53.408l16.653,18.245
	l7.287,25.611c1.198,4.179-7.529,12.057-13.577,13.709l0.104-0.069c-1.644,0.566-3.529,0.431-5.229-0.723l-45.977-31.458
	c-0.121-0.07-0.216-0.156-0.328-0.269c-0.052,0.034-0.147,0.06-0.216,0.069l-15.371,3.044l-152.945,30.306
	c-0.563,0.111-1.142,0.196-1.721,0.168c-0.614,0.033-1.237-0.003-1.841-0.126c-0.017-0.026-0.043-0.009-0.06-0.035
	c-1.201-0.401-2.582-1.355-3.926-2.708C696.939,901.995,699.01,900.436,701.599,898.758z"/><path fill="#F27C1C" d="M690.387,888.949c1.975-1.309,6.134,1.469,9.268,6.199c0.792,1.195,1.464,2.433,1.944,3.61
	c1.469,3.402,1.634,6.359,0.153,7.341c-0.156,0.103-0.355,0.198-0.562,0.223l-0.026,0.017c-0.528,0.163-1.124,0.109-1.815-0.143
	c-0.017-0.026-0.043-0.009-0.06-0.035c-1.201-0.401-2.582-1.355-3.926-2.708c-1.018-0.971-2.009-2.184-2.904-3.535
	c-2.135-3.222-3.259-6.554-3.105-8.75c0.026-0.017,0.009-0.043,0.009-0.043c0.028-0.691,0.211-1.262,0.54-1.667
	C690.015,889.233,690.205,889.069,690.387,888.949z"/><path fill="#E26B13" d="M326.187,627.484l-134.975,86.279c-1.502,0.985-2.643,2.492-3.139,4.238l-40.109,140.707L138.775,891
	c-1.511,5.27,9.493,15.202,17.118,17.285c0.36,0.097,0.72,0.194,1.069,0.237c1.626,0.323,3.041,0.177,4.065-0.512l47.11-48.463
	c0.424-0.284,0.838-0.623,1.186-1.006l68.836-71.927c0.631-0.667,1.152-1.453,1.487-2.315l35.216-84.871
	c0.065-0.098,0.119-0.251,0.151-0.371l34.825-56.605C352.218,635.73,332.182,623.631,326.187,627.484z"/><path fill="#F27C1C" d="M338.341,635.539L203.399,721.84c-1.535,0.963-2.675,2.471-3.172,4.216L168.96,835.705l-18.03,63.35
	c-1.923,6.741,5.647,12.182,11.424,8.231l57.97-39.663c0.174-0.121,0.316-0.263,0.49-0.383c0.218-0.186,0.457-0.404,0.663-0.645
	l68.836-71.927c0.631-0.667,1.152-1.453,1.52-2.293l35.183-84.893c0.065-0.098,0.119-0.251,0.151-0.371l22.261-62.762
	C351.809,637.628,344.337,631.685,338.341,635.539z"/><path fill="#F88820" d="M327.093,707.297c-21.623-14.33-62.935,9.875-92.202,54.037c-1.542,2.326-3.017,4.696-4.439,7.054
	c-25.457,42.114-29.917,85.413-9.441,98.982l19.381,3.838c22.121-2.786,50.849-24.721,72.865-57.941
	c21.972-33.155,30.978-68.16,24.945-89.651L327.093,707.297z"/><path fill="#F88820" d="M327.093,707.297L221.011,867.37l19.381,3.838l192.84,38.211c0.71,0.14,1.44,0.247,2.17,0.212l0.033,0.022
	c0.796,0.009,1.548-0.059,2.289-0.181c0.022-0.033,0.054-0.011,0.076-0.044c1.514-0.506,3.255-1.709,4.951-3.414
	c1.283-1.224,2.533-2.754,3.662-4.457c2.692-4.062,4.109-8.263,3.915-11.032c-0.033-0.022-0.011-0.055-0.011-0.055
	c-0.143-0.708-0.375-1.427-0.681-2.102c-0.285-0.708-0.68-1.394-1.096-2.047L338.202,723.617L327.093,707.297z"/><path fill="#FDFEF9" d="M411.416,831.576c-9.633,5.289-19.954,15.083-28.454,27.909c-8.499,12.825-13.497,26.147-14.64,37.063
	l14.336,2.862c0.927-9.38,5.189-20.82,12.496-31.845c7.307-11.026,16.198-19.433,24.458-23.917L411.416,831.576z"/><path fill="#FDFEF9" d="M380.305,785.716c-15.081,5.363-32.565,20.296-46.44,41.233c-13.891,20.962-20.831,42.883-19.893,58.862
	l19.45,3.843c-1.437-13.683,4.446-33.24,16.792-51.87c12.329-18.604,28.031-31.618,41.209-35.652L380.305,785.716z"/><path fill="#FDFEF9" d="M343.03,730.773c-21.391,4.976-47.771,26.124-68.247,57.021c-20.476,30.898-29.672,63.434-25.936,85.098
	l26.512,5.24c-4.857-18.321,2.804-47.826,21.348-75.808c18.544-27.983,42.731-46.535,61.48-49.176L343.03,730.773z"/><path fill="#F88820" d="M156.963,908.522c1.626,0.323,3.041,0.177,4.065-0.512C159.677,908.624,158.261,908.769,156.963,908.522z"/><path fill="#F2F2F2" d="M434.885,900.095l-0.262-0.174L269.796,793.755l-39.345-25.367l-0.034-0.022l-61.458,67.339l-20.997,23.004
	L138.775,891c-1.511,5.27,9.493,15.202,17.118,17.285l-0.131-0.087c2.073,0.714,4.449,0.544,6.592-0.912l57.97-39.663
	c0.153-0.088,0.272-0.197,0.413-0.339c0.066,0.044,0.186,0.076,0.273,0.087l19.381,3.838l192.84,38.211
	c0.71,0.14,1.44,0.247,2.17,0.212c0.774,0.041,1.559-0.004,2.321-0.159c0.022-0.033,0.054-0.011,0.076-0.044
	c1.514-0.506,3.255-1.709,4.951-3.414C440.761,904.178,438.15,902.212,434.885,900.095z"/><path fill="#F27C1C" d="M449.022,887.727c-2.49-1.65-7.734,1.853-11.685,7.815c-0.999,1.507-1.845,3.068-2.451,4.552
	c-1.852,4.289-2.06,8.018-0.193,9.255c0.197,0.13,0.447,0.249,0.709,0.281l0.033,0.022c0.666,0.206,1.418,0.138,2.289-0.181
	c0.022-0.033,0.054-0.011,0.076-0.044c1.514-0.506,3.255-1.709,4.951-3.414c1.283-1.224,2.533-2.754,3.662-4.457
	c2.692-4.062,4.109-8.263,3.915-11.032c-0.033-0.022-0.011-0.055-0.011-0.055c-0.035-0.872-0.266-1.591-0.681-2.102
	C449.492,888.086,449.252,887.88,449.022,887.727z"/></svg>